<svg xmlns="http://www.w3.org/2000/svg" width="18.035" height="17.5" viewBox="0 0 18.035 17.5"><path d="M-6.85 4.272a1.12 1.11 0 0 0-.428.109l-5.852 2.796a1.12 1.11 0 0 0-.606.753l-1.444 6.282a1.12 1.11 0 0 0 .152.85 1.12 1.11 0 0 0 .064.089l4.05 5.037a1.12 1.11 0 0 0 .876.417l6.496-.001a1.12 1.11 0 0 0 .875-.417l4.049-5.038a1.12 1.11 0 0 0 .216-.939L.152 7.93a1.12 1.11 0 0 0-.605-.753L-6.307 4.38a1.12 1.11 0 0 0-.542-.109Z" fill="#326ce5" transform="matrix(1.01489 0 0 1.01489 15.91 -3.873)"/><path d="M-6.852 3.818a1.181 1.172 0 0 0-.452.115l-6.18 2.951a1.181 1.172 0 0 0-.638.795l-1.524 6.63a1.181 1.172 0 0 0 .16.9 1.181 1.172 0 0 0 .067.093l4.276 5.317a1.181 1.172 0 0 0 .924.44h6.858a1.181 1.172 0 0 0 .923-.44L1.837 15.3a1.181 1.172 0 0 0 .228-.99L.54 7.677a1.181 1.172 0 0 0-.64-.795l-6.178-2.95a1.181 1.172 0 0 0-.573-.115Zm.003.455a1.12 1.11 0 0 1 .542.108l5.853 2.795a1.12 1.11 0 0 1 .606.753l1.446 6.281a1.12 1.11 0 0 1-.216.94l-4.05 5.037a1.12 1.11 0 0 1-.875.417l-6.496.001a1.12 1.11 0 0 1-.875-.417l-4.05-5.037a1.12 1.11 0 0 1-.064-.088 1.12 1.11 0 0 1-.152-.851l1.444-6.281a1.12 1.11 0 0 1 .605-.753l5.853-2.797a1.12 1.11 0 0 1 .429-.108z"  transform="matrix(1.01489 0 0 1.01489 15.91 -3.873)" fill="#fff"/><ellipse transform="translate(-.865 -1.034)" pointer-events="none" ry=".502" rx=".506" cy="9.949" cx="9.928" fill="#fff"/><path transform="translate(-.865 -1.034)" pointer-events="none" d="M9.99 5.876 6.88 7.25V9.3c0 1.902 1.325 3.679 3.108 4.11 1.78-.431 3.107-2.208 3.107-4.11V7.25zm1.644 5.518H8.343V8.631h.472v-.302c0-.65.532-1.179 1.19-1.179.657 0 1.189.528 1.189 1.18v.3h.44z" fill="#fff" /><path transform="translate(-.865 -1.034)" pointer-events="none" d="M9.988 7.589a.712.712 0 0 0-.713.708v.296h1.427v-.301a.713.713 0 0 0-.714-.703z" style="fill:#fff;fill-opacity:1;stroke:none;stroke-width:.12665248"/><path fill="none" stroke="#eee" stroke-width="0.4" d="M4.918 5.456h9.93v8.657h-9.93z" transform="translate(-.865 -1.034)"/></svg>
