<svg width="20" height="19" viewBox="0 0 20 19" fill="none" xmlns="http://www.w3.org/2000/svg">
    <path d="M8.90777 1.09102C9.44188 0.843039 10.0581 0.843039 10.5922 1.09102L16.4925 3.83043C17.0484 4.08853 17.4553 4.58728 17.5965 5.1837L19.0263 11.2231C19.1707 11.8331 19.0207 12.4756 18.6212 12.9586L14.5803 17.8438C14.2003 18.3032 13.6353 18.5691 13.0392 18.5691H6.46084C5.86472 18.5691 5.29968 18.3032 4.91973 17.8438L0.878847 12.9586C0.479289 12.4756 0.329332 11.8331 0.473749 11.2231L1.90353 5.1837C2.04473 4.58728 2.4516 4.08853 3.00751 3.83043L8.90777 1.09102Z" fill="#fff"/>
    <path d="M8.90676 1.80031C9.44143 1.55171 10.0586 1.55171 10.5932 1.80031L15.9083 4.27166C16.4639 4.53 16.8705 5.02879 17.0114 5.62509L18.2978 11.0668C18.4419 11.6761 18.2922 12.3177 17.8935 12.8005L14.2558 17.2047C13.8759 17.6647 13.3104 17.931 12.7138 17.931H6.78618C6.18956 17.931 5.6241 17.6647 5.24416 17.2047L1.60652 12.8005C1.20778 12.3177 1.05814 11.6761 1.20219 11.0668L2.48857 5.62509C2.62954 5.02879 3.03607 4.53 3.59169 4.27166L8.90676 1.80031Z" fill="#326CE5"/>
    <path fill-rule="evenodd" clip-rule="evenodd" d="M7.16136 13.8446C7.91289 14.2948 8.78067 14.5129 9.65573 14.4716L9.57273 12.7126C9.04431 12.7375 8.5203 12.6057 8.0665 12.3338C7.61269 12.0619 7.24931 11.6621 7.02196 11.1844C6.79462 10.7068 6.71345 10.1725 6.78863 9.64892C6.86382 9.12527 7.09202 8.63549 7.44458 8.24112C7.79714 7.84671 8.25835 7.56524 8.77032 7.43203C9.28229 7.29882 9.8222 7.31982 10.3223 7.4924C10.8223 7.66497 11.2603 7.98144 11.5811 8.40203C11.8298 8.72796 11.9995 9.10516 12.0793 9.50412L11.125 9.43673L12.0324 13.0631L15.1955 9.72421L13.874 9.63089C13.7988 8.79745 13.4898 8.00131 12.9815 7.33468C12.4503 6.63806 11.7251 6.11386 10.897 5.82797C10.069 5.54205 9.17489 5.50714 8.32705 5.7276C7.4792 5.94809 6.71539 6.41412 6.1315 7.06723C5.54762 7.7203 5.16969 8.53134 5.04515 9.39849C4.92062 10.2656 5.05504 11.1502 5.43154 11.9412C5.80804 12.7323 6.40983 13.3944 7.16136 13.8446Z" fill="white"/>
</svg>
