<svg width="20" height="19" viewBox="0 0 20 19" fill="none" xmlns="http://www.w3.org/2000/svg">
    <path d="M9.09747 1.04249C9.63158 0.794516 10.2478 0.794516 10.7819 1.04249L16.6822 3.78191C17.2381 4.04001 17.645 4.53876 17.7862 5.13518L19.2159 11.1746C19.3604 11.7846 19.2104 12.4271 18.8108 12.9101L14.77 17.7953C14.39 18.2547 13.825 18.5206 13.2289 18.5206H6.65054C6.05442 18.5206 5.48938 18.2547 5.10943 17.7953L1.06854 12.9101C0.668987 12.4271 0.51903 11.7846 0.663446 11.1746L2.09323 5.13518C2.23443 4.53876 2.6413 4.04001 3.19721 3.78191L9.09747 1.04249Z" fill="#fff"/>
    <path d="M9.09646 1.75179C9.63113 1.50318 10.2483 1.50318 10.7829 1.75179L16.098 4.22313C16.6536 4.48148 17.0602 4.98026 17.2011 5.57657L18.4875 11.0182C18.6316 11.6276 18.4819 12.2692 18.0832 12.752L14.4455 17.1561C14.0656 17.6161 13.5001 17.8825 12.9035 17.8825H6.97588C6.37926 17.8825 5.81379 17.6161 5.43385 17.1561L1.79622 12.752C1.39748 12.2692 1.24784 11.6276 1.39189 11.0182L2.67827 5.57657C2.81923 4.98026 3.22577 4.48148 3.78138 4.22313L9.09646 1.75179Z" fill="#326CE5"/>
    <path d="M9.66774 8.55737H10.2861V9.9523H9.66774V8.55737Z" fill="white"/>
    <path d="M8.38313 8.57208L8.8279 9.00172L7.49465 10.3819L7.04988 9.95231L8.38313 8.57208Z" fill="white"/>
    <path d="M11.0936 8.94058L11.5299 8.50234L12.8899 9.85627L12.4536 10.2945L11.0936 8.94058Z" fill="white"/>
    <path d="M9.96067 11.6334L9.00547 9.8979H10.9159L9.96067 11.6334Z" fill="white"/>
    <path d="M6.11153 11.3744L6.63028 9.46255L8.00432 10.7898L6.11153 11.3744Z" fill="white"/>
    <path d="M13.8614 11.2542L11.9576 10.7067L13.3054 9.35283L13.8614 11.2542Z" fill="white"/>
    <rect x="7.6968" y="6.04681" width="4.52774" height="2.10812" fill="white"/>
    <rect x="4.62441" y="12.0359" width="2.85434" height="2.02029" fill="white"/>
    <rect x="8.51253" y="12.0359" width="2.85434" height="2.02029" fill="white"/>
    <rect x="12.4006" y="12.0359" width="2.85434" height="2.02029" fill="white"/>
</svg>
