<svg width="20" height="19" viewBox="0 0 20 19" fill="none" xmlns="http://www.w3.org/2000/svg">
    <path d="M9.39078 0.599653C9.92488 0.351675 10.5411 0.351675 11.0752 0.599653L16.9755 3.33907C17.5314 3.59717 17.9383 4.09592 18.0795 4.69234L19.5093 10.7318C19.6537 11.3418 19.5037 11.9842 19.1042 12.4673L15.0633 17.3525C14.6833 17.8118 14.1183 18.0777 13.5222 18.0777H6.94384C6.34773 18.0777 5.78268 17.8118 5.40273 17.3525L1.36185 12.4673C0.962291 11.9842 0.812334 11.3418 0.956751 10.7318L2.38654 4.69234C2.52773 4.09592 2.93461 3.59717 3.49052 3.33907L9.39078 0.599653Z" fill="#fff"/>
    <path d="M9.38976 1.30895C9.92444 1.06034 10.5416 1.06034 11.0762 1.30895L16.3913 3.78029C16.9469 4.03864 17.3535 4.53742 17.4944 5.13373L18.7808 10.5754C18.9249 11.1847 18.7752 11.8264 18.3765 12.3091L14.7388 16.7133C14.3589 17.1733 13.7934 17.4397 13.1968 17.4397H7.26918C6.67256 17.4397 6.1071 17.1733 5.72716 16.7133L2.08952 12.3091C1.69078 11.8264 1.54115 11.1847 1.68519 10.5754L2.97157 5.13373C3.11254 4.53742 3.51907 4.03864 4.07469 3.78029L9.38976 1.30895Z" fill="#326CE5"/>
    <path fill-rule="evenodd" clip-rule="evenodd" d="M3.22176 9.60864L5.28667 7.55398V8.58131H6.04677V5.49933H14.4192V8.58131H15.1793V7.55398L17.2442 9.60864L15.1793 11.6633V10.636H14.4192V13.718H6.04677V10.636H5.28667V11.6633L3.22176 9.60864Z" fill="white"/>
    <path fill-rule="evenodd" clip-rule="evenodd" d="M10.2416 6.43161L13.4457 7.36086L10.2416 8.2901L7.0375 7.36086L10.2416 6.43161ZM7.02018 7.72506L10.039 8.61104V12.7857L7.02018 11.1198V7.72506ZM10.427 8.61104L13.4458 7.72506V11.1198L10.427 12.7857V8.61104Z" fill="#326CE5"/>
</svg>
