<svg xmlns="http://www.w3.org/2000/svg" width="18.035" height="17.5" viewBox="0 0 18.035 17.5"><path d="M-6.85 4.272a1.12 1.11 0 0 0-.428.109l-5.852 2.796a1.12 1.11 0 0 0-.606.753l-1.444 6.282a1.12 1.11 0 0 0 .152.85 1.12 1.11 0 0 0 .064.089l4.05 5.037a1.12 1.11 0 0 0 .876.417l6.496-.001a1.12 1.11 0 0 0 .875-.417l4.049-5.038a1.12 1.11 0 0 0 .216-.939L.152 7.93a1.12 1.11 0 0 0-.605-.753L-6.307 4.38a1.12 1.11 0 0 0-.542-.109Z" fill="#326ce5" transform="matrix(1.01489 0 0 1.01489 15.91 -3.873)"/><path d="M-6.852 3.818a1.181 1.172 0 0 0-.452.115l-6.18 2.951a1.181 1.172 0 0 0-.638.795l-1.524 6.63a1.181 1.172 0 0 0 .16.9 1.181 1.172 0 0 0 .067.093l4.276 5.317a1.181 1.172 0 0 0 .924.44h6.858a1.181 1.172 0 0 0 .923-.44L1.837 15.3a1.181 1.172 0 0 0 .228-.99L.54 7.677a1.181 1.172 0 0 0-.64-.795l-6.178-2.95a1.181 1.172 0 0 0-.573-.115Zm.003.455a1.12 1.11 0 0 1 .542.108l5.853 2.795a1.12 1.11 0 0 1 .606.753l1.446 6.281a1.12 1.11 0 0 1-.216.94l-4.05 5.037a1.12 1.11 0 0 1-.875.417l-6.496.001a1.12 1.11 0 0 1-.875-.417l-4.05-5.037a1.12 1.11 0 0 1-.064-.088 1.12 1.11 0 0 1-.152-.851l1.444-6.281a1.12 1.11 0 0 1 .605-.753l5.853-2.797a1.12 1.11 0 0 1 .429-.108z"  transform="matrix(1.01489 0 0 1.01489 15.91 -3.873)" fill="#fff"/><path fill="#fff" d="M5.571 7.91c0 .622 2.073 1.125 4.63 1.125 2.556 0 4.628-.503 4.628-1.124v3.042c0 .621-2.072 1.125-4.629 1.125-2.556 0-4.629-.504-4.629-1.125z" transform="translate(-1.182 -.682)"/><path fill="#fff" d="M5.571 7.91c0-.62 2.073-1.124 4.63-1.124 2.556 0 4.628.503 4.628 1.125 0 .62-2.072 1.124-4.629 1.124-2.556 0-4.629-.503-4.629-1.124z" transform="translate(-1.182 -.682)"/><path fill="#fff" stroke="#326ce5" d="M14.83 7.91c0 .622-2.073 1.125-4.63 1.125-2.556 0-4.629-.503-4.629-1.124 0-.622 2.073-1.125 4.63-1.125 2.556 0 4.628.503 4.628 1.125v3.042c0 .621-2.072 1.125-4.629 1.125-2.556 0-4.629-.504-4.629-1.125V7.911" transform="translate(-1.182 -.682)"/></svg>
