<svg xmlns="http://www.w3.org/2000/svg" width="18.035" height="17.5" viewBox="0 0 18.035 17.5"><path d="M-6.85 4.272a1.12 1.11 0 0 0-.428.109l-5.852 2.796a1.12 1.11 0 0 0-.606.753l-1.444 6.282a1.12 1.11 0 0 0 .152.85 1.12 1.11 0 0 0 .064.089l4.05 5.037a1.12 1.11 0 0 0 .876.417l6.496-.001a1.12 1.11 0 0 0 .875-.417l4.049-5.038a1.12 1.11 0 0 0 .216-.939L.152 7.93a1.12 1.11 0 0 0-.605-.753L-6.307 4.38a1.12 1.11 0 0 0-.542-.109Z" fill="#326ce5" transform="matrix(1.01489 0 0 1.01489 15.91 -3.873)"/><path d="M-6.852 3.818a1.181 1.172 0 0 0-.452.115l-6.18 2.951a1.181 1.172 0 0 0-.638.795l-1.524 6.63a1.181 1.172 0 0 0 .16.9 1.181 1.172 0 0 0 .067.093l4.276 5.317a1.181 1.172 0 0 0 .924.44h6.858a1.181 1.172 0 0 0 .923-.44L1.837 15.3a1.181 1.172 0 0 0 .228-.99L.54 7.677a1.181 1.172 0 0 0-.64-.795l-6.178-2.95a1.181 1.172 0 0 0-.573-.115Zm.003.455a1.12 1.11 0 0 1 .542.108l5.853 2.795a1.12 1.11 0 0 1 .606.753l1.446 6.281a1.12 1.11 0 0 1-.216.94l-4.05 5.037a1.12 1.11 0 0 1-.875.417l-6.496.001a1.12 1.11 0 0 1-.875-.417l-4.05-5.037a1.12 1.11 0 0 1-.064-.088 1.12 1.11 0 0 1-.152-.851l1.444-6.281a1.12 1.11 0 0 1 .605-.753l5.853-2.797a1.12 1.11 0 0 1 .429-.108z"  transform="matrix(1.01489 0 0 1.01489 15.91 -3.873)" fill="#fff"/><path pointer-events="none" d="M12.758 13.997h-2.27L5.565 7.841H4.143V5.826h2.314l4.923 6.156h1.378V10.39l3.12 2.6-3.12 2.602zm-2.476-4.755 1.098-1.376h1.378V9.46l3.12-2.6-3.12-2.602v1.594h-2.27L9.03 7.676zm-3.598 1.365-1.118 1.4H4.143v2.015h2.314l1.479-1.849z" style="fill:#fff;fill-opacity:1;stroke:none;stroke-width:.20966817" transform="translate(-.993 -1.174)"/></svg>
