<svg xmlns="http://www.w3.org/2000/svg" width="18.035" height="17.5" viewBox="0 0 18.035 17.5"><path d="M-6.85 4.272a1.12 1.11 0 0 0-.428.109l-5.852 2.796a1.12 1.11 0 0 0-.606.753l-1.444 6.282a1.12 1.11 0 0 0 .152.85 1.12 1.11 0 0 0 .064.089l4.05 5.037a1.12 1.11 0 0 0 .876.417l6.496-.001a1.12 1.11 0 0 0 .875-.417l4.049-5.038a1.12 1.11 0 0 0 .216-.939L.152 7.93a1.12 1.11 0 0 0-.605-.753L-6.307 4.38a1.12 1.11 0 0 0-.542-.109Z" fill="#326ce5" transform="matrix(1.01489 0 0 1.01489 15.91 -3.873)"/><path d="M-6.852 3.818a1.181 1.172 0 0 0-.452.115l-6.18 2.951a1.181 1.172 0 0 0-.638.795l-1.524 6.63a1.181 1.172 0 0 0 .16.9 1.181 1.172 0 0 0 .067.093l4.276 5.317a1.181 1.172 0 0 0 .924.44h6.858a1.181 1.172 0 0 0 .923-.44L1.837 15.3a1.181 1.172 0 0 0 .228-.99L.54 7.677a1.181 1.172 0 0 0-.64-.795l-6.178-2.95a1.181 1.172 0 0 0-.573-.115Zm.003.455a1.12 1.11 0 0 1 .542.108l5.853 2.795a1.12 1.11 0 0 1 .606.753l1.446 6.281a1.12 1.11 0 0 1-.216.94l-4.05 5.037a1.12 1.11 0 0 1-.875.417l-6.496.001a1.12 1.11 0 0 1-.875-.417l-4.05-5.037a1.12 1.11 0 0 1-.064-.088 1.12 1.11 0 0 1-.152-.851l1.444-6.281a1.12 1.11 0 0 1 .605-.753l5.853-2.797a1.12 1.11 0 0 1 .429-.108z"  transform="matrix(1.01489 0 0 1.01489 15.91 -3.873)" fill="#fff"/><path style="fill:#fff;fill-opacity:1;stroke-width:.4190996" d="M9.49 5.352a4.193 4.193 0 0 0-4.192 4.19 4.193 4.193 0 0 0 4.191 4.192 4.17 4.17 0 0 0 1.473-.271v-.988c0-.336.275-.9.61-.9v-.916c0-.46.685-1.237 1.528-1.237.206 0 .401.042.58.116a4.193 4.193 0 0 0-4.19-4.186zm.837 1.466 1.467 1.467h-1.047v1.677h-.839V8.285H8.861zM8.232 9.123h.838V10.8h1.048L8.65 12.267 7.184 10.8h1.048zm4.974 1.04c-.599 0-1.084.486-1.084 1.084v.65a.434.434 0 0 0-.433.433v1.734c0 .239.194.433.433.433h2.167a.434.434 0 0 0 .433-.433V12.33a.434.434 0 0 0-.433-.433v-.65c0-.598-.485-1.084-1.083-1.084zm0 .433c.36 0 .65.291.65.65v.65h-1.3v-.65c0-.359.29-.65.65-.65z" transform="translate(-.993 -1.174)"/></svg>
