<svg xmlns="http://www.w3.org/2000/svg" width="18.035" height="17.5" viewBox="0 0 18.035 17.5"><path d="M-6.85 4.272a1.12 1.11 0 0 0-.428.109l-5.852 2.796a1.12 1.11 0 0 0-.606.753l-1.444 6.282a1.12 1.11 0 0 0 .152.85 1.12 1.11 0 0 0 .064.089l4.05 5.037a1.12 1.11 0 0 0 .876.417l6.496-.001a1.12 1.11 0 0 0 .875-.417l4.049-5.038a1.12 1.11 0 0 0 .216-.939L.152 7.93a1.12 1.11 0 0 0-.605-.753L-6.307 4.38a1.12 1.11 0 0 0-.542-.109Z" fill="#326ce5" transform="matrix(1.01489 0 0 1.01489 15.91 -3.873)"/><path d="M-6.852 3.818a1.181 1.172 0 0 0-.452.115l-6.18 2.951a1.181 1.172 0 0 0-.638.795l-1.524 6.63a1.181 1.172 0 0 0 .16.9 1.181 1.172 0 0 0 .067.093l4.276 5.317a1.181 1.172 0 0 0 .924.44h6.858a1.181 1.172 0 0 0 .923-.44L1.837 15.3a1.181 1.172 0 0 0 .228-.99L.54 7.677a1.181 1.172 0 0 0-.64-.795l-6.178-2.95a1.181 1.172 0 0 0-.573-.115Zm.003.455a1.12 1.11 0 0 1 .542.108l5.853 2.795a1.12 1.11 0 0 1 .606.753l1.446 6.281a1.12 1.11 0 0 1-.216.94l-4.05 5.037a1.12 1.11 0 0 1-.875.417l-6.496.001a1.12 1.11 0 0 1-.875-.417l-4.05-5.037a1.12 1.11 0 0 1-.064-.088 1.12 1.11 0 0 1-.152-.851l1.444-6.281a1.12 1.11 0 0 1 .605-.753l5.853-2.797a1.12 1.11 0 0 1 .429-.108z"  transform="matrix(1.01489 0 0 1.01489 15.91 -3.873)" fill="#fff"/><path d="M7.664 3.219c-.008 0-.315.114-.681.255l-.698.266c-.017.006-.031.018-.031.026s.073.205.162.438c.09.232.16.431.159.441-.003.013-.083.05-.249.113a1.463 1.463 0 0 0-.242.105c.006.017 1.66.755 1.686.752.018-.002.1-.176.395-.838.205-.46.373-.844.373-.852 0-.009-.004-.014-.01-.012-.201.08-.489.184-.5.18a4.753 4.753 0 0 1-.182-.44c-.107-.28-.171-.434-.182-.434Zm2.15 2.215a5.105 5.105 0 0 0-4.852 3.508 5.178 5.178 0 0 0-.184 2.446 5.113 5.113 0 0 0 1.753 3.058c.003 0 .238-.233.521-.517.29-.29.521-.53.528-.55.03-.081-.037-.23-.16-.353-.128-.127-.265-.19-.351-.162-.023.008-.125.1-.279.255-.133.133-.25.242-.261.242-.023 0-.15-.156-.283-.346a4.328 4.328 0 0 1-.656-1.458c-.042-.172-.098-.5-.09-.524.005-.011.09-.014.375-.014.399 0 .421-.003.469-.063.049-.063.074-.155.08-.29a.563.563 0 0 0-.062-.325c-.049-.084-.047-.084-.474-.084-.208 0-.386-.005-.395-.01-.015-.01-.014-.035.003-.193a4.39 4.39 0 0 1 .692-1.914c.086-.129.24-.33.253-.33.007 0 .15.137.316.303l.303.301.063-.006c.175-.018.405-.229.454-.416a.264.264 0 0 0 .008-.094c-.005-.026-.087-.116-.308-.337-.272-.275-.299-.305-.284-.323.052-.063.37-.295.579-.421.519-.316 1.222-.553 1.758-.594l.096-.008.003.447.004.447.047.044c.138.129.512.133.657.008l.046-.04.005-.448.006-.449.093.002c.113.002.385.049.594.102a4.323 4.323 0 0 1 1.643.82.47.47 0 0 1 .11.107c0 .01-.133.153-.297.317l-.297.297.001.066c.002.198.272.469.469.47h.067l.297-.297c.163-.163.303-.297.31-.297.007 0 .055.057.107.127.4.535.682 1.185.796 1.835.04.223.062.45.046.468-.01.013-.083.016-.403.016h-.39l-.034.028c-.074.063-.128.26-.112.41a.48.48 0 0 0 .098.27l.045.048.393.003c.39.004.393.004.393.028a4.352 4.352 0 0 1-.761 1.994c-.135.189-.246.323-.266.323-.01 0-.126-.11-.26-.243-.273-.273-.283-.28-.388-.249-.187.054-.392.28-.41.453l-.007.061.456.465c.583.595.591.602.618.587a5.077 5.077 0 0 0 1.278-1.628 5.108 5.108 0 0 0 .374-3.539 5.127 5.127 0 0 0-1.58-2.568 5.09 5.09 0 0 0-3.362-1.266ZM8.85 7.541c-.203.002-.431.118-.497.254-.022.046-.024.058-.012.096.007.025.215.565.463 1.202l.45 1.157-.04.083a.658.658 0 0 0 .126.773.66.66 0 0 0 .851.079.67.67 0 0 0 .139-.975c-.082-.1-.169-.158-.338-.227-.026-.01-.08-.14-.484-1.181a78.727 78.727 0 0 0-.47-1.196c-.029-.047-.081-.066-.188-.065z" style="fill:#fff;fill-opacity:1;stroke-width:.01153845" transform="translate(-.794 -.082)"/><path transform="translate(.198 1.092) scale(.28222)" d="M19.062 46.469c-.703-.599-2.115-2.256-2.83-3.322-1.231-1.833-2.257-4.365-2.726-6.732-.334-1.681-.304-5.067.059-6.77 1.47-6.885 6.497-12.185 13.194-13.909 5.012-1.29 10.217-.392 14.597 2.518 1.33.884 3.615 3.096 4.497 4.353 3.421 4.88 4.316 10.776 2.473 16.302-.853 2.557-2.196 4.75-4.161 6.789l-1.25 1.298-1.853-1.85c-1.084-1.081-1.852-1.947-1.852-2.085 0-.588.984-1.579 1.568-1.579.124 0 .64.401 1.145.891 1.072 1.04.985 1.059 2.015-.436a15.971 15.971 0 0 0 2.587-6.549l.082-.531h-2.891l-.204-.395c-.239-.462-.2-1.715.064-2.032.133-.16.442-.198 1.587-.198h1.422v-.486c0-1.263-.721-3.835-1.528-5.452-.425-.85-1.695-2.812-1.821-2.812-.046 0-.571.486-1.168 1.08-.954.949-1.123 1.068-1.412.996-.505-.127-1.303-.915-1.386-1.369-.066-.361.018-.49.988-1.52 1.227-1.3 1.243-1.157-.25-2.19-1.873-1.294-4.643-2.371-6.622-2.574l-.762-.079-.075 1.598c-.055 1.164-.126 1.648-.26 1.783-.278.277-1.314.337-1.864.107l-.465-.194v-3.263l-.469.003c-1.22.007-4.13.919-5.648 1.77-.95.533-2.633 1.74-2.633 1.888 0 .067.481.613 1.069 1.214.963.983 1.06 1.127.982 1.44-.113.448-.915 1.249-1.366 1.362-.32.08-.452-.012-1.443-.997-.633-.63-1.15-1.05-1.23-1-.221.137-1.311 1.801-1.751 2.674-.803 1.59-1.804 5.279-1.586 5.846.052.135.377.175 1.437.175 1.51 0 1.676.07 1.828.76.047.214.048.635.003.937-.122.81-.365.928-1.908.928-1.492 0-1.43-.085-1.096 1.505.488 2.322 1.6 4.642 3.168 6.613l.243.306.998-.9c.574-.517 1.11-.899 1.262-.899.338 0 1.19.765 1.39 1.25.146.354.125.403-.477 1.092a47.358 47.358 0 0 1-1.858 1.932l-1.228 1.211-.585-.498z" fill="#fff"/></svg>
