<svg xmlns="http://www.w3.org/2000/svg" width="18.035" height="17.5" viewBox="0 0 18.035 17.5"><path d="M-6.85 4.272a1.12 1.11 0 0 0-.428.109l-5.852 2.796a1.12 1.11 0 0 0-.606.753l-1.444 6.282a1.12 1.11 0 0 0 .152.85 1.12 1.11 0 0 0 .064.089l4.05 5.037a1.12 1.11 0 0 0 .876.417l6.496-.001a1.12 1.11 0 0 0 .875-.417l4.049-5.038a1.12 1.11 0 0 0 .216-.939L.152 7.93a1.12 1.11 0 0 0-.605-.753L-6.307 4.38a1.12 1.11 0 0 0-.542-.109Z" fill="#326ce5" transform="matrix(1.01489 0 0 1.01489 15.91 -3.873)"/><path d="M-6.852 3.818a1.181 1.172 0 0 0-.452.115l-6.18 2.951a1.181 1.172 0 0 0-.638.795l-1.524 6.63a1.181 1.172 0 0 0 .16.9 1.181 1.172 0 0 0 .067.093l4.276 5.317a1.181 1.172 0 0 0 .924.44h6.858a1.181 1.172 0 0 0 .923-.44L1.837 15.3a1.181 1.172 0 0 0 .228-.99L.54 7.677a1.181 1.172 0 0 0-.64-.795l-6.178-2.95a1.181 1.172 0 0 0-.573-.115Zm.003.455a1.12 1.11 0 0 1 .542.108l5.853 2.795a1.12 1.11 0 0 1 .606.753l1.446 6.281a1.12 1.11 0 0 1-.216.94l-4.05 5.037a1.12 1.11 0 0 1-.875.417l-6.496.001a1.12 1.11 0 0 1-.875-.417l-4.05-5.037a1.12 1.11 0 0 1-.064-.088 1.12 1.11 0 0 1-.152-.851l1.444-6.281a1.12 1.11 0 0 1 .605-.753l5.853-2.797a1.12 1.11 0 0 1 .429-.108z"  transform="matrix(1.01489 0 0 1.01489 15.91 -3.873)" fill="#fff"/><path fill="#326ce5" stroke-width="0.2" d="M5.42 10.527c0 .376 2.103.682 4.698.682s4.698-.306 4.698-.682v1.845c0 .376-2.103.682-4.698.682s-4.698-.306-4.698-.682z" transform="translate(-.993 -1.174)"/><path fill="#326ce5" stroke-width="0.2" d="M5.42 10.527c0-.377 2.103-.682 4.698-.682s4.698.305 4.698.682c0 .376-2.103.682-4.698.682s-4.698-.306-4.698-.682z" transform="translate(-.993 -1.174)"/><path fill="#fff" stroke="#eee" stroke-width="0.207" d="M5.42 8.609h0c0 .377 2.103.682 4.698.682s4.698-.305 4.698-.682v1.845c0 .377-2.103.682-4.698.682s-4.698-.305-4.698-.682z" transform="translate(-.993 -1.174)"/><path fill="#326ce5" stroke-width="0.2" d="M5.42 8.217c0-.377 2.103-.682 4.698-.682s4.698.305 4.698.682c0 .377-2.103.682-4.698.682S5.42 8.594 5.42 8.217zM5.42 5.662c0-.377 2.103-.682 4.698-.682s4.698.305 4.698.682c0 .376-2.103.682-4.698.682S5.42 6.038 5.42 5.662z" transform="translate(-.993 -1.174)"/><path fill="#326ce5" stroke-width="0.2" d="M5.42 5.662c0 .376 2.103.682 4.698.682s4.698-.306 4.698-.682v1.845c0 .376-2.103.682-4.698.682S5.42 7.883 5.42 7.507z" transform="translate(-1.1 -.444)"/><path fill="none" stroke="#fff" stroke-width="0.415" d="M14.816 10.881c0 .377-2.103.682-4.698.682s-4.698-.305-4.698-.682c0-.377 2.103-.682 4.698-.682s4.698.305 4.698.682v1.845c0 .377-2.103.682-4.698.682s-4.698-.305-4.698-.682v-1.845" transform="translate(-1.1 -.444)"/><path style="fill:none;fill-rule:evenodd;stroke:#fff;stroke-width:.41499999;stroke-linecap:butt;stroke-linejoin:round;stroke-miterlimit:10;stroke-dasharray:none;stroke-opacity:1" d="M14.816 7.864c0 .377-2.103.682-4.698.682S5.42 8.241 5.42 7.864c0-.377 2.103-.682 4.698-.682s4.698.305 4.698.682v1.845c0 .377-2.103.682-4.698.682S5.42 10.086 5.42 9.71V7.864" transform="translate(-1.1 -.444)"/><path d="M14.816 5.662c0 .376-2.103.682-4.698.682S5.42 6.038 5.42 5.662c0-.377 2.103-.682 4.698-.682s4.698.305 4.698.682v1.845c0 .376-2.103.682-4.698.682S5.42 7.883 5.42 7.507V5.662" fill="none" stroke="#fff" stroke-width="0.415" transform="translate(-1.1 -.444)"/></svg>
