<svg width="20" height="19" viewBox="0 0 20 19" fill="none" xmlns="http://www.w3.org/2000/svg">
    <path d="M9.0166 0.645856C9.5507 0.397879 10.1669 0.397879 10.7011 0.645856L16.6013 3.38527C17.1572 3.64337 17.5641 4.14212 17.7053 4.73854L19.1351 10.778C19.2795 11.388 19.1295 12.0304 18.73 12.5135L14.6891 17.3987C14.3091 17.858 13.7441 18.1239 13.148 18.1239H6.56966C5.97355 18.1239 5.40851 17.858 5.02856 17.3987L0.987673 12.5135C0.588115 12.0304 0.438158 11.388 0.582575 10.778L2.01236 4.73854C2.15356 4.14212 2.56043 3.64337 3.11634 3.38527L9.0166 0.645856Z" fill="#fff"/>
    <path d="M9.01558 1.35515C9.55026 1.10655 10.1674 1.10655 10.7021 1.35515L16.0171 3.8265C16.5728 4.08484 16.9793 4.58363 17.1203 5.17993L18.4066 10.6216C18.5507 11.2309 18.401 11.8726 18.0023 12.3553L14.3647 16.7595C13.9847 17.2195 13.4193 17.4859 12.8226 17.4859H6.89501C6.29839 17.4859 5.73292 17.2195 5.35298 16.7595L1.71535 12.3553C1.31661 11.8726 1.16697 11.2309 1.31102 10.6216L2.5974 5.17993C2.73836 4.58363 3.1449 4.08484 3.70051 3.8265L9.01558 1.35515Z" fill="#326CE5"/>
    <path fill-rule="evenodd" clip-rule="evenodd" d="M9.86895 5.90918L13.6465 7.00475L9.86895 8.10032L6.09136 7.00475L9.86895 5.90918ZM6.07095 7.43411L9.63011 8.47867V13.4005L6.07095 11.4365V7.43411ZM10.0875 8.47867L13.6467 7.43411V11.4365L10.0875 13.4005V8.47867Z" fill="white"/>
</svg>
