<svg width="20" height="19" viewBox="0 0 20 19" fill="none" xmlns="http://www.w3.org/2000/svg">
    <path d="M9.26437 0.664876C9.80975 0.40424 10.4437 0.40424 10.9891 0.664876L16.9378 3.50772C17.4878 3.77056 17.8879 4.26988 18.0245 4.86395L19.488 11.2272C19.6253 11.824 19.4816 12.4509 19.0979 12.9283L14.9901 18.04C14.6105 18.5124 14.0371 18.7872 13.4311 18.7872H6.82239C6.21636 18.7872 5.64302 18.5124 5.2634 18.04L1.15559 12.9283C0.771946 12.4509 0.628188 11.824 0.765465 11.2272L2.229 4.86395C2.36564 4.26988 2.76574 3.77056 3.31574 3.50772L9.26437 0.664876Z" fill="#fff"/>
    <path d="M9.26249 1.38573C9.80892 1.12389 10.4446 1.12389 10.991 1.38573L16.3533 3.95525C16.9027 4.21853 17.3022 4.71789 17.4384 5.31172L18.7591 11.0694C18.8957 11.665 18.7525 12.2905 18.3704 12.7673L14.6652 17.3903C14.2857 17.8639 13.7116 18.1396 13.1046 18.1396H7.14889C6.54194 18.1396 5.96784 17.8639 5.58826 17.3903L1.88314 12.7673C1.50096 12.2905 1.35777 11.665 1.4944 11.0694L2.81511 5.31172C2.95132 4.71788 3.35078 4.21853 3.90021 3.95525L9.26249 1.38573Z" fill="#326CE5"/>
    <path fill-rule="evenodd" clip-rule="evenodd" d="M9.01786 4.90379L12.6185 5.94805C12.4654 5.92259 12.3082 5.90934 12.1478 5.90934C11.3114 5.90934 10.5592 6.26993 10.0382 6.84415L9.01786 7.14005L5.16248 6.02192L9.01786 4.90379ZM8.46193 10.7942C8.46193 10.4456 8.57814 10.1242 8.77393 9.86657V7.52621L5.14147 6.46014V10.5449L8.46193 12.3772V10.7942ZM12.8732 6.76352C12.6812 6.69362 12.4762 6.65069 12.2628 6.63929C12.2247 6.63726 12.1864 6.63623 12.1478 6.63623C11.6842 6.63623 11.2553 6.78501 10.9062 7.03742C10.3735 7.42272 10.0268 8.04951 10.0268 8.75727L10.0268 9.98653L9.99649 9.98653C9.97489 9.98653 9.9535 9.98738 9.93233 9.98904C9.61482 10.014 9.34893 10.2226 9.24077 10.5086C9.2072 10.5974 9.18883 10.6936 9.18883 10.7942V14.2941C9.18883 14.7401 9.55043 15.1017 9.99649 15.1017H14.3044C14.7504 15.1017 15.112 14.7401 15.112 14.2941V10.7942C15.112 10.3481 14.7504 9.98653 14.3044 9.98653H14.2689V8.75727C14.2689 7.84064 13.6874 7.05982 12.8732 6.76352ZM12.8732 7.72747C12.6682 7.58275 12.4179 7.49774 12.1478 7.49774C11.5392 7.49774 11.0314 7.92948 10.9139 8.50343C10.8971 8.58542 10.8883 8.67032 10.8883 8.75727V9.98653L13.4074 9.98653V8.75727C13.4074 8.33173 13.1963 7.95549 12.8732 7.72747ZM9.29991 8.75727C9.29991 8.2697 9.42244 7.81075 9.63837 7.40952L9.24077 7.52621V9.45831C9.26023 9.44728 9.27994 9.43666 9.29991 9.42647V8.75727ZM12.1478 8.22463C11.8537 8.22463 11.6152 8.4631 11.6152 8.75727V9.25963H12.6805V8.75727C12.6805 8.4631 12.442 8.22463 12.1478 8.22463Z" fill="white"/>
</svg>
