<svg xmlns="http://www.w3.org/2000/svg" width="18.035" height="17.5" viewBox="0 0 18.035 17.5"><path d="M-6.85 4.272a1.12 1.11 0 0 0-.428.109l-5.852 2.796a1.12 1.11 0 0 0-.606.753l-1.444 6.282a1.12 1.11 0 0 0 .152.85 1.12 1.11 0 0 0 .064.089l4.05 5.037a1.12 1.11 0 0 0 .876.417l6.496-.001a1.12 1.11 0 0 0 .875-.417l4.049-5.038a1.12 1.11 0 0 0 .216-.939L.152 7.93a1.12 1.11 0 0 0-.605-.753L-6.307 4.38a1.12 1.11 0 0 0-.542-.109Z" fill="#326ce5" transform="matrix(1.01489 0 0 1.01489 15.91 -3.873)"/><path d="M-6.852 3.818a1.181 1.172 0 0 0-.452.115l-6.18 2.951a1.181 1.172 0 0 0-.638.795l-1.524 6.63a1.181 1.172 0 0 0 .16.9 1.181 1.172 0 0 0 .067.093l4.276 5.317a1.181 1.172 0 0 0 .924.44h6.858a1.181 1.172 0 0 0 .923-.44L1.837 15.3a1.181 1.172 0 0 0 .228-.99L.54 7.677a1.181 1.172 0 0 0-.64-.795l-6.178-2.95a1.181 1.172 0 0 0-.573-.115Zm.003.455a1.12 1.11 0 0 1 .542.108l5.853 2.795a1.12 1.11 0 0 1 .606.753l1.446 6.281a1.12 1.11 0 0 1-.216.94l-4.05 5.037a1.12 1.11 0 0 1-.875.417l-6.496.001a1.12 1.11 0 0 1-.875-.417l-4.05-5.037a1.12 1.11 0 0 1-.064-.088 1.12 1.11 0 0 1-.152-.851l1.444-6.281a1.12 1.11 0 0 1 .605-.753l5.853-2.797a1.12 1.11 0 0 1 .429-.108z"  transform="matrix(1.01489 0 0 1.01489 15.91 -3.873)" fill="#fff"/><path d="M9.992 4.447c-.138-.004-3.995 1.892-4.045 1.989-.122.234-1 4.281-.948 4.369.03.05.662.852 1.405 1.78l1.35 1.688 2.221.001 2.222.001 1.413-1.765 1.413-1.766-.494-2.168c-.272-1.193-.516-2.189-.54-2.213-.07-.067-3.922-1.913-3.997-1.916Zm.236 1.983c.187.008.206.291.606.321.521.04.465-.446.864-.108.4.338-.089.362.035.87.124.509.569.306.37.79-.198.484-.372.027-.817.302-.445.275-.114.635-.636.596-.522-.039-.14-.346-.54-.684-.398-.338-.64.087-.764-.42-.124-.509.286-.242.485-.726.198-.484-.282-.58.163-.856a.696.696 0 0 1 .142-.07.256.256 0 0 1 .092-.015zm.522.572a.758.758 0 0 0-.73.976.757.757 0 1 0 .73-.976ZM7.757 8.304c.04 0 .089.009.149.027.48.147-.008.4.334.767s.628-.101.741.388c.112.49-.35.193-.497.673-.147.48.401.494.034.836-.367.342-.342-.206-.831-.094-.49.113-.227.595-.707.448-.48-.147.008-.4-.334-.767s-.629.1-.741-.389c-.113-.489.35-.193.497-.672.147-.48-.402-.494-.035-.836.368-.342.342.206.832.094.428-.099.28-.48.558-.475zm3.567.524c.046 0 .101.013.17.04.554.214-.175.545.254.955.43.41.728-.332.967.21.24.544-.51.263-.497.856.013.594.75.28.535.832-.215.554-.546-.175-.956.254-.41.43.332.727-.211.967-.543.239-.261-.51-.855-.497-.593.013-.279.749-.832.534-.554-.214.175-.546-.254-.956-.429-.41-.727.333-.966-.21-.24-.543.51-.262.496-.855-.013-.594-.75-.28-.535-.833.215-.553.547.176.957-.253.41-.429-.333-.728.21-.967.543-.24.262.51.855.497.52-.012.344-.577.662-.574zm-3.88.255a.757.757 0 1 0-.002 1.514.757.757 0 0 0 .001-1.514Zm3.253.725a1.115 1.115 0 1 0 0 2.231 1.115 1.115 0 0 0 0-2.23z" fill="#fff" transform="translate(-.993 -1.174)"/></svg>
