<svg xmlns="http://www.w3.org/2000/svg" width="18" height="17" viewBox="0 0 18.035 17.5"><path d="M-6.85 4.272a1.12 1.11 0 0 0-.428.109l-5.852 2.796a1.12 1.11 0 0 0-.606.753l-1.444 6.282a1.12 1.11 0 0 0 .152.85 1.12 1.11 0 0 0 .064.089l4.05 5.037a1.12 1.11 0 0 0 .876.417l6.496-.001a1.12 1.11 0 0 0 .875-.417l4.049-5.038a1.12 1.11 0 0 0 .216-.939L.152 7.93a1.12 1.11 0 0 0-.605-.753L-6.307 4.38a1.12 1.11 0 0 0-.542-.109Z" fill="#326ce5" transform="matrix(1.01489 0 0 1.01489 15.91 -3.873)"/><path d="M-6.852 3.818a1.181 1.172 0 0 0-.452.115l-6.18 2.951a1.181 1.172 0 0 0-.638.795l-1.524 6.63a1.181 1.172 0 0 0 .16.9 1.181 1.172 0 0 0 .067.093l4.276 5.317a1.181 1.172 0 0 0 .924.44h6.858a1.181 1.172 0 0 0 .923-.44L1.837 15.3a1.181 1.172 0 0 0 .228-.99L.54 7.677a1.181 1.172 0 0 0-.64-.795l-6.178-2.95a1.181 1.172 0 0 0-.573-.115Zm.003.455a1.12 1.11 0 0 1 .542.108l5.853 2.795a1.12 1.11 0 0 1 .606.753l1.446 6.281a1.12 1.11 0 0 1-.216.94l-4.05 5.037a1.12 1.11 0 0 1-.875.417l-6.496.001a1.12 1.11 0 0 1-.875-.417l-4.05-5.037a1.12 1.11 0 0 1-.064-.088 1.12 1.11 0 0 1-.152-.851l1.444-6.281a1.12 1.11 0 0 1 .605-.753l5.853-2.797a1.12 1.11 0 0 1 .429-.108z" transform="matrix(1.01489 0 0 1.01489 15.91 -3.873)" fill="#fff"/><path d="M9.992 5.01C9.854 5.006 5.997 6.902 5.947 7c-.122.233-1 4.28-.948 4.368.03.05.662.852 1.405 1.78l1.35 1.688 2.221.002h2.222l1.413-1.765 1.413-1.765-.494-2.17c-.272-1.192-.516-2.188-.54-2.212-.07-.066-3.922-1.913-3.997-1.916z" fill="#fff" transform="translate(-.993 -1.174)"/><path fill="#326ce5" d="M14.177 10.529a1.615 1.615 0 0 1-.836-.161c.073-.419.104-.84.096-1.26a6.535 6.535 0 0 0-.815-.965c.133-.25.329-.464.574-.616l.105-.065-.082-.092a4.289 4.289 0 0 0-1.499-1.094l-.114-.05-.029.121c-.068.281-.21.535-.406.738A6.512 6.512 0 0 0 9.997 6.6a6.517 6.517 0 0 0-1.173.483 1.613 1.613 0 0 1-.405-.736l-.029-.12-.114.049a4.333 4.333 0 0 0-1.498 1.092l-.083.093.106.065c.244.152.44.365.572.612-.305.298-.576.62-.813.962-.01.42.02.844.093 1.268a1.612 1.612 0 0 1-.831.16l-.124-.01.012.124c.06.624.254 1.217.576 1.764l.063.107.094-.08a1.614 1.614 0 0 1 .764-.358 6.546 6.546 0 0 0 .654 1.065c.397.138.811.242 1.239.304a1.61 1.61 0 0 1-.104.846l-.047.114.121.027c.31.068.623.103.929.103l.927-.103.122-.027L11 14.29a1.614 1.614 0 0 1-.102-.846 6.608 6.608 0 0 0 1.234-.303 6.554 6.554 0 0 0 .654-1.066 1.621 1.621 0 0 1 .768.358l.094.08.063-.107a4.25 4.25 0 0 0 .575-1.764l.012-.123zm-2.852 1.508c-.44.12-.885.18-1.328.18-.445 0-.89-.06-1.33-.18a5.148 5.148 0 0 1-.568-1.198 5.087 5.087 0 0 1-.24-1.315c.284-.35.607-.658.963-.917a5.127 5.127 0 0 1 1.175-.639 5.148 5.148 0 0 1 1.172.638c.358.26.682.57.967.922a5.1 5.1 0 0 1-.242 1.31 5.132 5.132 0 0 1-.57 1.199zm-.966-2.117a.56.56 0 1 0 1.122 0 .56.56 0 0 0-1.122 0zm-.725 0a.56.56 0 1 1-1.121 0 .56.56 0 0 1 1.121 0z" transform="translate(-.993 -1.174)"/></svg>
