<?xml version="1.0" encoding="utf-8"?>
<!-- Generator: Adobe Illustrator 25.3.1, SVG Export Plug-In . SVG Version: 6.00 Build 0)  -->
<svg version="1.1" id="Layer_1" xmlns="http://www.w3.org/2000/svg" xmlns:xlink="http://www.w3.org/1999/xlink" x="0px" y="0px"
	 width="551.59998px" height="343.79999px" viewBox="0 0 551.59998 343.79999"
	 style="enable-background:new 0 0 551.59998 343.79999;" xml:space="preserve">
<style type="text/css">
	.st0{opacity:0.4;enable-background:new    ;}
	.st1{fill:#CDD9EE;}
	.st2{fill:#B5C5DC;}
	.st3{fill:#FFFFFF;}
	.st4{fill:#6885A9;}
	.st5{fill:#231F20;}
</style>
<g>
	<polygon class="st0" points="309.29999,322.89999 274.60001,316.10001 274,16.2 551.59998,180 	"/>
	<polygon class="st1" points="274.60001,228.8 92.2,119.2 274,9.7 457,119.2 	"/>
	<polygon class="st2" points="90.2,195 274.60001,305.79999 274.60001,305.79999 274.60001,231.3 90.2,120.4 	"/>
	<polygon class="st3" points="288.29999,220.60001 135.7,127.7 303,27 274,9.7 92.2,119.2 274.60001,228.8 	"/>
	<polygon class="st4" points="459,195 274.60001,305.79999 274.60001,305.79999 274.60001,231.3 459,120.4 	"/>
	<path class="st5" d="M467.20001,115.6L467.20001,115.6L274,0L83.00002,115.1l-1,0.6v83.7l192.59998,115.80002L466.20001,200
		l1-0.60001V115.6z M274,9.7l183,109.5L274.60001,228.8L92.20001,119.2L274,9.7z M457,124.1v69.69999L276.70001,302.20001V232.5
		L457,124.1z M272.60001,232.39999v69.69998L92.30001,193.8v-69.7L272.60001,232.39999z"/>
</g>
</svg>
