<?xml version="1.0" encoding="utf-8"?>
<!-- Generator: Adobe Illustrator 25.3.1, SVG Export Plug-In . SVG Version: 6.00 Build 0)  -->
<svg version="1.1" id="Layer_1" xmlns="http://www.w3.org/2000/svg" xmlns:xlink="http://www.w3.org/1999/xlink" x="0px" y="0px"
	 width="105.4px" height="93.9px" viewBox="0 0 105.4 93.9" enable-background="new 0 0 105.4 93.9" xml:space="preserve">
<g id="Layer_3">
</g>
<g id="Layer_4">
	<polygon fill="#4F6587" stroke="#010202" stroke-linejoin="round" stroke-miterlimit="10" points="80.4,26.2 50.5,44.3 50.5,81.2 
		80.4,63.3 	"/>
	<polygon fill="#CED8EB" stroke="#000000" stroke-linejoin="round" stroke-miterlimit="10" points="20.7,26.2 50.5,44.3 50.5,81.2 
		20.7,63.3 	"/>
	<polygon fill="#CED8EB" points="50.5,44.2 20.7,26.2 50.3,8.5 80.4,26.2 	"/>
	<polygon fill="#FFFFFF" points="29.9,26.2 54.9,11.2 50.3,8.5 20.7,26.2 50.5,44.2 55.1,41.5 	"/>
	<polygon fill="none" stroke="#000000" stroke-linejoin="round" stroke-miterlimit="10" points="50.5,44.2 20.7,26.2 50.3,8.5 
		80.4,26.2 	"/>
	<polygon opacity="0.4" fill="#000000" enable-background="new    " points="80.4,55.1 80.4,63.3 56.3,77.8 50.5,83.2 66.4,83.2 98.5,63.8 	"/>
</g>
<g id="Layer_5">
	<g>
		<path d="M50.3,8.5l30.1,17.8v37.1L50.5,81.2L20.7,63.3V26.2L50.3,8.5 M50.3,6.5c-0.4,0-0.7,0.1-1,0.3L19.6,24.5
			c-0.6,0.4-1,1-1,1.7v37.1c0,0.7,0.4,1.4,1,1.7l29.8,17.9c0.3,0.2,0.7,0.3,1,0.3s0.7-0.1,1-0.3l30-17.9c0.6-0.4,1-1,1-1.7V26.2
			c0-0.7-0.4-1.4-1-1.7L51.3,6.7C51,6.6,50.6,6.5,50.3,6.5L50.3,6.5z"/>
	</g>
</g>
</svg>
