<?xml version="1.0" encoding="utf-8"?>
<!-- Generator: Adobe Illustrator 25.3.1, SVG Export Plug-In . SVG Version: 6.00 Build 0)  -->
<svg version="1.1" id="Layer_1" xmlns="http://www.w3.org/2000/svg" xmlns:xlink="http://www.w3.org/1999/xlink" x="0px" y="0px"
	 width="552.5px" height="447.5px" viewBox="0 0 552.5 447.5" enable-background="new 0 0 552.5 447.5" xml:space="preserve">
<polygon opacity="0.4" fill="#000000" enable-background="new    " points="309.20001,414.89999 274.5,408.10001 273.89999,168.2 551.5,272 "/>
<g>
	<path fill="#6885A9" d="M882.09998,197.89999c0.09998,0.89999,0.09998,1.8,0.09998,2.7L882.09998,197.89999L882.09998,197.89999z"
		/>
	<path fill="#231F20" d="M884.20001,200.60001h-3.79999c0-0.8,0-1.60001-0.09998-2.5L880,196h4.09998L884.20001,200.60001
		L884.20001,200.60001z"/>
</g>
<g>
	<path fill="#6885A9" d="M882.09998,102.3c0.09998,0.9,0.09998,1.8,0.09998,2.7L882.09998,102.3L882.09998,102.3z"/>
	<path fill="#231F20" d="M884.20001,105h-3.79999c0-0.8,0-1.6-0.09998-2.5l-0.29999-2.1h4.09998L884.20001,105L884.20001,105z"/>
</g>
<path fill="#B2CBED" stroke="#231F20" stroke-width="4" stroke-linejoin="round" stroke-miterlimit="10" d="M882.09998,197.89999
	c0.09998,0.89999,0.09998,1.8,0.09998,2.7L882.09998,197.89999L882.09998,197.89999z"/>
<path fill="#B2CBED" stroke="#231F20" stroke-width="4" stroke-linejoin="round" stroke-miterlimit="10" d="M882.09998,102.3
	c0.09998,0.9,0.09998,1.8,0.09998,2.7L882.09998,102.3L882.09998,102.3z"/>
<g>
	<polygon fill="#6885A9" points="85.3,287.39999 275,103.8 464.70001,287.39999 275,401.5 	"/>
	<path fill="#231F20" d="M275,110l182.39999,176.60001L275,396.29999L92.7,286.60001L275,110 M275,97.5l-6.29999,6.1L86.4,280.10001
		l-8.4,8.10001l10,6L270.39999,404L275,406.79999L279.60001,404L462,294.29999l10-6l-8.39999-8.10001L281.29999,103.6L275,97.5
		L275,97.5z"/>
</g>
<polygon fill="#CDD9EE" points="275,396.29999 275,110 92.7,286.60001 "/>
<rect x="272.20001" y="104.6" fill="#231F20" width="5.70001" height="298.5"/>
<polygon fill="#FFFFFF" points="272.20001,157.8 97.1,289.29999 92.7,286.60001 272.20001,113.5 "/>
</svg>
