<?xml version="1.0" encoding="utf-8"?>
<!-- Generator: Adobe Illustrator 25.3.1, SVG Export Plug-In . SVG Version: 6.00 Build 0)  -->
<svg version="1.1" id="Layer_1" xmlns="http://www.w3.org/2000/svg" xmlns:xlink="http://www.w3.org/1999/xlink" x="0px" y="0px"
	 width="242.3px" height="192.2px" viewBox="0 0 242.3 192.2" enable-background="new 0 0 242.3 192.2" xml:space="preserve">
<path opacity="0.4" fill="#000000" enable-background="new    " d="M135,101.8c-4,0-7.9,0.1-11.7,0.4v69.69999c3.8,0.2,7.7,0.39999,11.7,0.39999
	c45.39999,0,82.2-15.8,82.2-35.2C217.2,117.5,180.39999,101.8,135,101.8z"/>
<circle fill="#DAE2EF" cx="121.6" cy="95.8" r="75.4"/>
<path fill="#6D85A6" d="M188,91.2c0-38.4-30.5-69.6-68.6-70.7c-38.7,1.1-70,31.3-73,69.5c0,0.4,0,0.8,0,1.2
	c0,39.09999,31.7,70.8,70.8,70.8S188,130.3,188,91.2z"/>
<path fill="#B8C5DA" d="M175.60001,77.9c0-16.5-6-31.6-15.89999-43.3c-11.3-8.5-25.2-13.7-40.4-14.2C100,21,82.5,28.8,69.5,41.3l0,0
	C56.5,53.8,47.9,70.9,46.4,90l0,0c0,0.4,0,0.8,0,1.2c0,4.9,0.5,9.7,1.4,14.3c10.5,23.2,33.8,39.3,60.9,39.3
	C145.7,144.8,175.60001,114.8,175.60001,77.9z"/>
<path fill="#CFD9EC" d="M69.5,41.3L69.5,41.3C59.3,51,51.9,63.5,48.4,77.5C58.4,94.6,76.9,106,98,106c31.8,0,57.5-25.7,57.5-57.5
	c0-6.6-1.10001-12.9-3.2-18.8c-9.8-5.6-21-9-33-9.4C100,21,82.5,28.8,69.5,41.3z"/>
<circle id="Outline" fill="none" stroke="#000000" stroke-width="3" stroke-miterlimit="10" cx="121.6" cy="95.8" r="75.4"/>
</svg>
