<?xml version="1.0" encoding="utf-8"?>
<!-- Generator: Adobe Illustrator 26.3.1, SVG Export Plug-In . SVG Version: 6.00 Build 0)  -->
<svg version="1.1" id="Layer_1" xmlns="http://www.w3.org/2000/svg" xmlns:xlink="http://www.w3.org/1999/xlink" x="0px" y="0px"
	 viewBox="0 0 551.6 343.8" style="enable-background:new 0 0 551.6 343.8;" xml:space="preserve">
<style type="text/css">
	.st0{opacity:0.4;enable-background:new    ;}
	.st1{fill:#CDD9EE;}
	.st2{fill:#B5C5DC;}
	.st3{fill:#FFFFFF;}
	.st4{fill:#6885A9;}
	.st5{fill:#231F20;}
</style>
<g>
	<polygon class="st0" points="309.3,322.9 274.6,314.1 274,17.2 551.6,180 	"/>
	<polygon class="st1" points="274.6,226.8 92.2,119.2 274,12.7 457,119.2 	"/>
	<polygon class="st2" points="90.2,195 274.6,305.8 274.6,305.8 274.6,229.3 90.2,120.4 	"/>
	<polygon class="st3" points="288.3,218.6 135.7,127.7 303,27 274,12.7 92.2,119.2 274.6,226.8 	"/>
	<polygon class="st4" points="459,195 274.6,305.8 274.6,305.8 274.6,229.3 459,120.4 	"/>
	<path class="st5" d="M467.2,115.6L467.2,115.6L274,3L83,115.1l-1,0.6v83.7l192.6,115.8L466.2,200l1-0.6V115.6z M274,12.7l183,106.5
		L274.6,226.8L92.2,119.2L274,12.7z M457,124.1v69.7L276.7,302.2v-71.7L457,124.1z M272.6,230.4v71.7L92.3,193.8v-69.7L272.6,230.4z
		"/>
</g>
</svg>
