<?xml version="1.0" encoding="utf-8"?>
<!-- Generator: Adobe Illustrator 25.3.1, SVG Export Plug-In . SVG Version: 6.00 Build 0)  -->
<svg version="1.1" id="Layer_1" xmlns="http://www.w3.org/2000/svg" xmlns:xlink="http://www.w3.org/1999/xlink" x="0px" y="0px"
	 width="55.1px" height="57.3px" viewBox="0 0 55.1 57.3" enable-background="new 0 0 55.1 57.3" xml:space="preserve">
<g id="Layer_3">
</g>
<g id="Layer_4">
</g>
<g id="Layer_10">
	<g opacity="0.4" fill="#000000">
		<polygon points="35.6,46 38.3,48.1 25.6,52.1 21.2,53 32,38.9 41.4,44.8 		"/>
	</g>
</g>
<g id="Layer_7">
</g>
<g id="Layer_6">
	<polygon fill="#F2C256" points="31.6,19 18.4,11.1 18.4,33.9 21.2,35.5 21.2,52.1 31.6,31.5 26,28.1 	"/>
	<polygon fill="#FFE4AE" points="18.4,33.9 18.5,33.9 25.6,15.4 18.4,11.1 	"/>
	<polygon fill="none" stroke="#010202" stroke-width="0.5" stroke-linejoin="round" stroke-miterlimit="10" points="31.6,19 
		18.4,11.1 18.4,33.9 21.2,35.5 21.2,52.1 31.6,31.5 26,28.1 	"/>
</g>
<g id="Layer_5">
	<polygon fill="#F7C56B" stroke="#010202" stroke-width="0.4" stroke-linejoin="round" stroke-miterlimit="10" points="18.4,11.1 
		24.5,7.4 37.6,15.3 32,24.3 37.6,27.7 27.2,48.3 21.2,52.1 31.6,31.5 26,28.1 31.6,19 	"/>
	<polygon fill="#754F0C" stroke="#010202" stroke-width="0.4" stroke-miterlimit="10" points="37.6,15.3 31.6,19 26,28.1 31.6,31.5 
		21.2,52.1 27.2,48.3 37.6,27.7 32,24.3 	"/>
	<g id="Layer_12">
	</g>
	<polygon fill="none" stroke="#010202" stroke-width="0.4" stroke-linejoin="round" stroke-miterlimit="10" points="18.4,11.1 
		24.5,7.4 37.6,15.3 32,24.3 37.6,27.7 27.2,48.3 21.2,52.1 31.6,31.5 26,28.1 31.6,19 	"/>
</g>
<g id="Layer_8">
	<polygon fill="#AF7A2E" stroke="#010202" stroke-width="0.4" stroke-linejoin="round" stroke-miterlimit="10" points="31.6,31.5 
		37.6,27.7 32,24.3 26,28.1 	"/>
</g>
<g id="Layer_11">
	<polyline fill="none" stroke="#010202" stroke-width="0.4" stroke-linejoin="round" stroke-miterlimit="10" points="37.6,15.3 
		31.6,19 26,28.1 32,24.3 37.6,15.3 	"/>
</g>
<g id="Layer_9">
	<g>
		<path fill="#010202" d="M24.5,7.4l13.2,7.9l-5.7,9l5.6,3.4L27.2,48.3l-6,3.7V35.5l-2.7-1.6V11.1L24.5,7.4 M24.5,6.6
			c-0.1,0-0.3,0-0.4,0.1l-6,3.7c-0.2,0.1-0.4,0.4-0.4,0.7v22.8c0,0.3,0.1,0.5,0.4,0.7l2.3,1.4v16.1c0,0.3,0.2,0.6,0.4,0.7
			c0.1,0.1,0.3,0.1,0.4,0.1s0.3,0,0.4-0.1l6-3.7c0.1-0.1,0.2-0.2,0.3-0.3l10.4-20.6c0.2-0.4,0.1-0.8-0.3-1l-4.9-3l5.2-8.4
			c0.1-0.2,0.1-0.4,0.1-0.6c-0.1-0.2-0.2-0.4-0.4-0.5l-13.1-8C24.7,6.6,24.6,6.6,24.5,6.6L24.5,6.6z"/>
	</g>
</g>
</svg>
