<?xml version="1.0" encoding="utf-8"?>
<!-- Generator: Adobe Illustrator 25.3.1, SVG Export Plug-In . SVG Version: 6.00 Build 0)  -->
<svg version="1.1" id="Layer_1" xmlns="http://www.w3.org/2000/svg" xmlns:xlink="http://www.w3.org/1999/xlink" x="0px" y="0px"
	 width="522.1px" height="616px" viewBox="0 0 522.1 616" enable-background="new 0 0 522.1 616" xml:space="preserve">
<path opacity="0.15" fill="#000000" enable-background="new    " d="M361,583.2c2,23.8-42.9,38.7-104.9,19.3s-117.5-65.6-119.5-89.3
	c-2-23.8,45-38.4,107-19.1C305.5,513.4,359,559.4,361,583.2z"/>
<g id="Layer_1_1_" display="none">
	<polygon display="inline" fill="none" stroke="#A7A9AC" stroke-width="4" stroke-miterlimit="10" points="476.5,431.3 261.1,555.7 
		45.6,431.3 45.6,182.6 261.1,58.2 476.5,182.6 	"/>
</g>
<g id="Layer_2_1_">
	<g>
		<g>
			<g>
				<path fill="#4B6E98" d="M376,146.6v294.5c0,3.1-0.5,5.7-1.4,7.8c-0.9,2.1-2.2,3.7-3.7,4.7l0,0c-0.2,0.1-0.4,0.3-0.6,0.4
					L332,476.1c3.4-1.9,5.5-6.4,5.5-12.7V168.9c0-11.6-7-25-15.7-30L160.5,45.8c-3.3-1.9-6.4-2.3-8.9-1.4l36.3-21.1
					c2.9-2.2,6.8-2.3,11.2,0.2l161.2,93.1c5.7,3.3,10.8,10.3,13.5,18C375.2,138.6,376,142.7,376,146.6z"/>
			</g>
			<g>
				<polygon fill="#0070D9" points="174,390 174,472 306.1,548.3 306.1,466.3 				"/>
			</g>
			<g>
				<polygon fill="#FFC600" points="231.2,435.6 184.4,408.6 184.4,436.6 184.4,437.6 184.4,465.7 231.2,492.7 231.2,463.6 
					231.2,463.6 				"/>
			</g>
			<g>
				<path fill="#6885A9" d="M337.4,182.7v-13.8c0-11.6-7-25-15.7-30L160.5,45.8c-3.3-1.9-6.4-2.3-8.9-1.4l36.3-21.1
					c2.9-2.2,6.8-2.3,11.2,0.2l161.2,93.1c5.7,3.3,10.8,10.3,13.5,18C363.1,151.7,350.9,167.8,337.4,182.7z"/>
			</g>
			<g>
				<polygon fill="#0BB2F3" points="265.5,483.2 255,477.1 255,502.7 265.5,508.8 265.5,495.8 265.5,495.8 				"/>
			</g>
			<g>
				<polygon fill="#0BB2F3" points="265.5,445.6 255,439.5 255,465.1 265.5,471.2 265.5,458.2 265.5,458.2 				"/>
			</g>
			<g>
				<path fill="#CDD9EE" d="M338.2,463.4c0,11.6-7,16.9-15.7,11.9l-161.2-93.1c-8.7-5-15.7-18.5-15.7-30V57.7
					c0-11.6,7-16.9,15.7-11.9l161.2,93.1c8.7,5,15.7,18.5,15.7,30V463.4z"/>
				<path fill="#231F20" d="M328.8,479.1c-2.3,0-4.8-0.7-7.2-2.2l-161.2-93.1c-9.4-5.4-16.7-19.4-16.7-31.8V57.7
					c0-9.6,4.5-15.8,11.5-15.8c2.3,0,4.8,0.7,7.2,2.2l161.2,93.1c9.4,5.4,16.7,19.4,16.7,31.8v294.5
					C340.2,473,335.7,479.1,328.8,479.1z M155.1,45.9c-4.5,0-7.5,4.6-7.5,11.8v294.5c0,10.9,6.6,23.6,14.7,28.3l161.2,93.1
					c1.9,1.1,3.6,1.6,5.2,1.6c4.5,0,7.5-4.6,7.5-11.8V168.9c0-10.9-6.6-23.6-14.7-28.3l-161.2-93C158.5,46.5,156.7,45.9,155.1,45.9z
					"/>
			</g>
			<g>
				<g>
					<path fill="#E6E7E8" d="M307.7,228.2c-1.2,0-2.5-0.4-3.7-1.1L175.7,153c-4.4-2.5-7.8-9-7.8-14.8V89.6c0-5.5,3.1-8,6.1-8
						c1.2,0,2.5,0.4,3.7,1.1l128.3,74c0.6,0.3,1.1,0.7,1.6,1.1c3.7,3.1,6.2,8.7,6.2,13.7v48.7C313.8,225.7,310.8,228.2,307.7,228.2z
						"/>
				</g>
				<g>
					<path fill="#231F20" d="M174,83.6c0.8,0,1.7,0.3,2.7,0.8l65.1,37.6l49.8,28.7l13.4,7.7c0.4,0.3,0.9,0.6,1.3,0.9
						c3.1,2.6,5.5,7.7,5.5,12.1v48.7c0,3.7-1.7,6-4.1,6c-0.8,0-1.8-0.3-2.7-0.8l-34.5-19.9l-21.7-12.5l-14.8-8.6l-49.8-28.7
						l-7.5-4.3c-3.8-2.2-6.8-8-6.8-13.1V89.6C169.9,85.8,171.6,83.6,174,83.6 M174,79.6L174,79.6c-3.9,0-8.1,3.1-8.1,10v48.7
						c0,6.5,3.8,13.6,8.8,16.5l7.5,4.3l49.8,28.7l14.8,8.6l21.7,12.5l34.5,19.9c1.6,0.9,3.1,1.4,4.7,1.4c3.9,0,8.1-3.1,8.1-10v-48.7
						c0-5.5-2.9-11.8-7-15.2c-0.6-0.5-1.2-0.9-1.9-1.3l-13.4-7.7l-49.8-28.7L178.6,81C177.2,80,175.6,79.6,174,79.6L174,79.6z"/>
				</g>
			</g>
			<g>
				<path fill="#FFFFFF" d="M311.8,171.5v9.8l-41.4,24.1l-21.7-12.5l57.5-33.5C309.5,162,311.8,167.1,311.8,171.5z"/>
			</g>
			<g>
				<polygon fill="#FFFFFF" points="291.6,150.7 233.9,184.3 184.2,155.6 241.8,122 				"/>
			</g>
			<g>
				<g>
					<g>
						<g>
							<path fill="#FFFFFF" d="M202.3,228c-1.3,0-2.5-0.4-3.8-1.1l-19.8-11.4c-4.6-2.6-8.2-9.4-8.2-15.4v-11.2
								c0-5.7,3.2-8.3,6.3-8.3c1.3,0,2.5,0.4,3.8,1.1l19.8,11.4c4.6,2.6,8.2,9.4,8.2,15.4v11.2C208.6,225.5,205.5,228,202.3,228z"/>
						</g>
						<g>
							<path fill="#231F20" d="M176.8,182.6c0.9,0,1.8,0.3,2.8,0.9l19.8,11.4c4,2.3,7.2,8.4,7.2,13.7v11.2c0,3.9-1.8,6.3-4.3,6.3
								c-0.9,0-1.8-0.3-2.8-0.9l-19.8-11.4c-4-2.3-7.2-8.4-7.2-13.7v-11.2C172.5,184.9,174.3,182.6,176.8,182.6 M176.8,178.6
								L176.8,178.6c-4,0-8.3,3.2-8.3,10.3v11.2c0,6.8,3.9,14.1,9.2,17.1l19.8,11.4c1.6,0.9,3.2,1.4,4.8,1.4c4,0,8.3-3.2,8.3-10.3
								v-11.2c0-6.8-3.9-14.1-9.2-17.1L181.7,180C180.1,179.1,178.4,178.6,176.8,178.6L176.8,178.6z"/>
						</g>
					</g>
					<g>
						<path fill="#BCBEC0" d="M202.9,198c0.3,1.2,0.5,2.4,0.5,3.6v11.2c0,5.3-3.2,7.7-7.2,5.4l-19.8-11.4c-1.2-0.7-2.4-1.8-3.4-3.1
							c1,4.2,3.6,8.3,6.7,10.1l19.8,11.4c4,2.3,7.2-0.1,7.2-5.4v-11.2C206.6,204.9,205.1,200.9,202.9,198z"/>
					</g>
				</g>
				<g>
					<g>
						<g>
							<path fill="#FFFFFF" d="M251.2,256.3c-1.3,0-2.5-0.4-3.8-1.1l-19.8-11.4c-4.6-2.6-8.2-9.4-8.2-15.4v-11.2
								c0-5.7,3.2-8.3,6.3-8.3c1.3,0,2.5,0.4,3.8,1.1l19.8,11.4c4.6,2.6,8.2,9.4,8.2,15.4V248C257.5,253.7,254.3,256.3,251.2,256.3z
								"/>
						</g>
						<g>
							<path fill="#231F20" d="M225.7,210.8c0.9,0,1.8,0.3,2.8,0.9l19.8,11.4c4,2.3,7.2,8.4,7.2,13.7V248c0,3.9-1.8,6.3-4.3,6.3
								c-0.9,0-1.8-0.3-2.8-0.9L228.5,242c-4-2.3-7.2-8.4-7.2-13.7v-11.2C221.4,213.1,223.1,210.8,225.7,210.8 M225.7,206.8
								L225.7,206.8c-4,0-8.3,3.2-8.3,10.3v11.2c0,6.8,3.9,14.1,9.2,17.1l19.8,11.4c1.6,0.9,3.2,1.4,4.8,1.4c4,0,8.3-3.2,8.3-10.3
								v-11.2c0-6.8-3.9-14.1-9.2-17.1l-19.8-11.4C228.9,207.3,227.3,206.8,225.7,206.8L225.7,206.8z"/>
						</g>
					</g>
					<g>
						<path fill="#BCBEC0" d="M251.7,226.2c0.3,1.2,0.5,2.4,0.5,3.6V241c0,5.3-3.2,7.7-7.2,5.4L225.2,235c-1.2-0.7-2.4-1.8-3.4-3.1
							c1,4.2,3.6,8.3,6.7,10.1l19.8,11.4c4,2.3,7.2-0.1,7.2-5.4v-11.2C255.5,233.1,254,229.1,251.7,226.2z"/>
					</g>
				</g>
				<g>
					<g>
						<g>
							<path fill="#FFFFFF" d="M300,284.5c-1.3,0-2.5-0.4-3.8-1.1L276.4,272c-4.6-2.6-8.2-9.4-8.2-15.4v-11.2c0-5.7,3.2-8.3,6.3-8.3
								c1.3,0,2.5,0.4,3.8,1.1l19.8,11.4c4.6,2.6,8.2,9.4,8.2,15.4v11.2C306.3,281.9,303.2,284.5,300,284.5z"/>
						</g>
						<g>
							<path fill="#231F20" d="M274.5,239c0.9,0,1.8,0.3,2.8,0.9l19.8,11.4c4,2.3,7.2,8.4,7.2,13.7v11.2c0,3.9-1.8,6.3-4.3,6.3
								c-0.9,0-1.8-0.3-2.8-0.9l-19.8-11.4c-4-2.3-7.2-8.4-7.2-13.7v-11.2C270.2,241.3,272,239,274.5,239 M274.5,235L274.5,235
								c-4,0-8.3,3.2-8.3,10.3v11.2c0,6.8,3.9,14.1,9.2,17.1l19.8,11.4c1.6,0.9,3.2,1.4,4.8,1.4c4,0,8.3-3.2,8.3-10.3V265
								c0-6.8-3.9-14.1-9.2-17.1l-19.8-11.4C277.8,235.5,276.1,235,274.5,235L274.5,235z"/>
						</g>
					</g>
					<g>
						<path fill="#BCBEC0" d="M300.6,254.4c0.3,1.2,0.5,2.4,0.5,3.6v11.2c0,5.3-3.2,7.7-7.2,5.4l-19.8-11.4
							c-1.2-0.7-2.4-1.8-3.4-3.1c1,4.2,3.6,8.3,6.7,10.1l19.8,11.4c4,2.3,7.2-0.1,7.2-5.4V265C304.3,261.3,302.8,257.3,300.6,254.4z
							"/>
					</g>
				</g>
				<g>
					<g>
						<g>
							<g>
								<path fill="#FFFFFF" d="M202.3,274.3c-1.3,0-2.5-0.4-3.8-1.1l-19.8-11.4c-4.6-2.6-8.2-9.4-8.2-15.4v-11.2
									c0-5.7,3.2-8.3,6.3-8.3c1.3,0,2.5,0.4,3.8,1.1l19.8,11.4c4.6,2.6,8.2,9.4,8.2,15.4V266C208.6,271.8,205.5,274.3,202.3,274.3
									z"/>
							</g>
							<g>
								<path fill="#231F20" d="M176.8,228.9c0.9,0,1.8,0.3,2.8,0.9l19.8,11.4c4,2.3,7.2,8.4,7.2,13.7V266c0,3.9-1.8,6.3-4.3,6.3
									c-0.9,0-1.8-0.3-2.8-0.9L179.7,260c-4-2.3-7.2-8.4-7.2-13.7v-11.2C172.5,231.2,174.3,228.9,176.8,228.9 M176.8,224.9
									L176.8,224.9c-4,0-8.3,3.2-8.3,10.3v11.2c0,6.8,3.9,14.1,9.2,17.1l19.8,11.4c1.6,0.9,3.2,1.4,4.8,1.4c4,0,8.3-3.2,8.3-10.3
									v-11.2c0-6.8-3.9-14.1-9.2-17.1l-19.8-11.4C180.1,225.3,178.4,224.9,176.8,224.9L176.8,224.9z"/>
							</g>
						</g>
						<g>
							<path fill="#BCBEC0" d="M202.9,244.3c0.3,1.2,0.5,2.4,0.5,3.6v11.2c0,5.3-3.2,7.7-7.2,5.4l-19.8-11.4
								c-1.2-0.7-2.4-1.8-3.4-3.1c1,4.2,3.6,8.3,6.7,10.1l19.8,11.4c4,2.3,7.2-0.1,7.2-5.4v-11.2
								C206.6,251.2,205.1,247.2,202.9,244.3z"/>
						</g>
					</g>
					<g>
						<g>
							<g>
								<path fill="#FFFFFF" d="M251.2,302.5c-1.3,0-2.5-0.4-3.8-1.1L227.5,290c-4.6-2.6-8.2-9.4-8.2-15.4v-11.2
									c0-2.3,0.5-4.3,1.6-5.8c1.1-1.6,2.8-2.5,4.7-2.5c1.3,0,2.5,0.4,3.8,1.1l19.8,11.4c4.6,2.6,8.2,9.4,8.2,15.4v11.2
									C257.5,300,254.3,302.5,251.2,302.5z"/>
							</g>
							<g>
								<path fill="#231F20" d="M225.7,257.1c0.9,0,1.8,0.3,2.8,0.9l19.8,11.4c4,2.3,7.2,8.4,7.2,13.7v11.2c0,3.9-1.8,6.3-4.3,6.3
									c-0.9,0-1.8-0.3-2.8-0.9l-19.8-11.4c-4-2.3-7.2-8.4-7.2-13.7v-11.2C221.4,259.4,223.1,257.1,225.7,257.1 M225.7,253.1
									L225.7,253.1c-2.5,0-4.9,1.2-6.4,3.4c-1.3,1.8-1.9,4.2-1.9,6.9v11.2c0,6.8,3.9,14.1,9.2,17.1l19.8,11.4
									c1.6,0.9,3.2,1.4,4.8,1.4c4,0,8.3-3.2,8.3-10.3V283c0-6.8-3.9-14.1-9.2-17.1l-19.8-11.4
									C228.9,253.5,227.3,253.1,225.7,253.1L225.7,253.1z"/>
							</g>
						</g>
						<g>
							<path fill="#BCBEC0" d="M251.7,272.5c0.3,1.2,0.5,2.4,0.5,3.6v11.2c0,5.3-3.2,7.7-7.2,5.4l-19.8-11.4
								c-1.2-0.7-2.4-1.8-3.4-3.1c1,4.2,3.6,8.3,6.7,10.1l19.8,11.4c4,2.3,7.2-0.1,7.2-5.4V283C255.5,279.4,254,275.4,251.7,272.5z"
								/>
						</g>
					</g>
					<g>
						<g>
							<g>
								<path fill="#FFFFFF" d="M300,330.7c-1.3,0-2.5-0.4-3.8-1.1l-19.8-11.4c-4.6-2.6-8.2-9.4-8.2-15.4v-11.2
									c0-5.7,3.2-8.3,6.3-8.3c1.3,0,2.5,0.4,3.8,1.1l19.8,11.4c4.6,2.6,8.2,9.4,8.2,15.4v11.2C306.3,328.2,303.2,330.7,300,330.7z
									"/>
							</g>
							<g>
								<path fill="#231F20" d="M274.5,285.3c0.9,0,1.8,0.3,2.8,0.9l19.8,11.4c4,2.3,7.2,8.4,7.2,13.7v11.2c0,3.9-1.8,6.3-4.3,6.3
									c-0.9,0-1.8-0.3-2.8-0.9l-19.8-11.4c-4-2.3-7.2-8.4-7.2-13.7v-11.2C270.2,287.6,272,285.3,274.5,285.3 M274.5,281.3
									L274.5,281.3c-4,0-8.3,3.2-8.3,10.3v11.2c0,6.8,3.9,14.1,9.2,17.1l19.8,11.4c1.6,0.9,3.2,1.4,4.8,1.4c4,0,8.3-3.2,8.3-10.3
									v-11.2c0-6.8-3.9-14.1-9.2-17.1l-19.8-11.4C277.8,281.7,276.1,281.3,274.5,281.3L274.5,281.3z"/>
							</g>
						</g>
						<g>
							<path fill="#BCBEC0" d="M300.6,300.7c0.3,1.2,0.5,2.4,0.5,3.6v11.2c0,5.3-3.2,7.7-7.2,5.4l-19.8-11.4
								c-1.2-0.7-2.4-1.8-3.4-3.1c1,4.2,3.6,8.3,6.7,10.1l19.8,11.4c4,2.3,7.2-0.1,7.2-5.4v-11.2
								C304.3,307.6,302.8,303.6,300.6,300.7z"/>
						</g>
					</g>
				</g>
				<g>
					<g>
						<g>
							<g>
								<path fill="#FFFFFF" d="M202.3,320.6c-1.3,0-2.5-0.4-3.8-1.1L178.7,308c-4.6-2.6-8.2-9.4-8.2-15.4v-11.2
									c0-5.7,3.2-8.3,6.3-8.3c1.3,0,2.5,0.4,3.8,1.1l19.8,11.4c4.6,2.6,8.2,9.4,8.2,15.4v11.2C208.6,318,205.5,320.6,202.3,320.6z
									"/>
							</g>
							<g>
								<path fill="#231F20" d="M176.8,275.1c0.9,0,1.8,0.3,2.8,0.9l19.8,11.4c4,2.3,7.2,8.4,7.2,13.7v11.2c0,3.9-1.8,6.3-4.3,6.3
									c-0.9,0-1.8-0.3-2.8-0.9l-19.8-11.4c-4-2.3-7.2-8.4-7.2-13.7v-11.2C172.5,277.5,174.3,275.1,176.8,275.1 M176.8,271.1
									L176.8,271.1c-4,0-8.3,3.2-8.3,10.3v11.2c0,6.8,3.9,14.1,9.2,17.1l19.8,11.4c1.6,0.9,3.2,1.4,4.8,1.4c4,0,8.3-3.2,8.3-10.3
									V301c0-6.8-3.9-14.1-9.2-17.1l-19.8-11.4C180.1,271.6,178.4,271.1,176.8,271.1L176.8,271.1z"/>
							</g>
						</g>
						<g>
							<path fill="#BCBEC0" d="M202.9,290.5c0.3,1.2,0.5,2.4,0.5,3.6v11.2c0,5.3-3.2,7.7-7.2,5.4l-19.8-11.4
								c-1.2-0.7-2.4-1.8-3.4-3.1c1,4.2,3.6,8.3,6.7,10.1l19.8,11.4c4,2.3,7.2-0.1,7.2-5.4v-11.2
								C206.6,297.5,205.1,293.4,202.9,290.5z"/>
						</g>
					</g>
					<g>
						<g>
							<g>
								<path fill="#FFFFFF" d="M251.2,348.8c-1.3,0-2.5-0.4-3.8-1.1l-19.8-11.4c-4.6-2.6-8.2-9.4-8.2-15.4v-11.2
									c0-5.7,3.2-8.3,6.3-8.3c1.3,0,2.5,0.4,3.8,1.1l19.8,11.4c4.6,2.6,8.2,9.4,8.2,15.4v11.2
									C257.5,346.2,254.3,348.8,251.2,348.8z"/>
							</g>
							<g>
								<path fill="#231F20" d="M225.7,303.3c0.9,0,1.8,0.3,2.8,0.9l19.8,11.4c4,2.3,7.2,8.4,7.2,13.7v11.2c0,3.9-1.8,6.3-4.3,6.3
									c-0.9,0-1.8-0.3-2.8-0.9l-19.8-11.4c-4-2.3-7.2-8.4-7.2-13.7v-11.2C221.4,305.7,223.1,303.3,225.7,303.3 M225.7,299.3
									L225.7,299.3c-4,0-8.3,3.2-8.3,10.3v11.2c0,6.8,3.9,14.1,9.2,17.1l19.8,11.4c1.6,0.9,3.2,1.4,4.8,1.4c4,0,8.3-3.2,8.3-10.3
									v-11.2c0-6.8-3.9-14.1-9.2-17.1l-19.8-11.4C228.9,299.8,227.3,299.3,225.7,299.3L225.7,299.3z"/>
							</g>
						</g>
						<g>
							<path fill="#BCBEC0" d="M251.7,318.7c0.3,1.2,0.5,2.4,0.5,3.6v11.2c0,5.3-3.2,7.7-7.2,5.4l-19.8-11.4
								c-1.2-0.7-2.4-1.8-3.4-3.1c1,4.2,3.6,8.3,6.7,10.1l19.8,11.4c4,2.3,7.2-0.1,7.2-5.4v-11.2C255.5,325.7,254,321.6,251.7,318.7
								z"/>
						</g>
					</g>
					<g>
						<g>
							<g>
								<path fill="#FFFFFF" d="M300,377c-1.3,0-2.5-0.4-3.8-1.1l-19.8-11.4c-4.6-2.6-8.2-9.4-8.2-15.4v-11.2c0-2.3,0.5-4.3,1.6-5.8
									c1.1-1.6,2.8-2.5,4.7-2.5c1.3,0,2.5,0.4,3.8,1.1l19.8,11.4c4.6,2.6,8.2,9.4,8.2,15.4v11.2C306.3,374.4,303.2,377,300,377z"
									/>
							</g>
							<g>
								<path fill="#231F20" d="M274.5,331.5c0.9,0,1.8,0.3,2.8,0.9l19.8,11.4c4,2.3,7.2,8.4,7.2,13.7v11.2c0,3.9-1.8,6.3-4.3,6.3
									c-0.9,0-1.8-0.3-2.8-0.9l-19.8-11.4c-4-2.3-7.2-8.4-7.2-13.7v-11.2C270.2,333.9,272,331.5,274.5,331.5 M274.5,327.5
									L274.5,327.5c-2.5,0-4.9,1.2-6.4,3.4c-1.3,1.8-1.9,4.2-1.9,6.9V349c0,6.8,3.9,14.1,9.2,17.1l19.8,11.4
									c1.6,0.9,3.2,1.4,4.8,1.4c4,0,8.3-3.2,8.3-10.3v-11.2c0-6.8-3.9-14.1-9.2-17.1l-19.8-11.4
									C277.8,328,276.1,327.5,274.5,327.5L274.5,327.5z"/>
							</g>
						</g>
						<g>
							<path fill="#BCBEC0" d="M300.6,346.9c0.3,1.2,0.5,2.4,0.5,3.6v11.2c0,5.3-3.2,7.7-7.2,5.4l-19.8-11.4
								c-1.2-0.7-2.4-1.8-3.4-3.1c1,4.2,3.6,8.3,6.7,10.1l19.8,11.4c4,2.3,7.2-0.1,7.2-5.4v-11.2
								C304.3,353.9,302.8,349.8,300.6,346.9z"/>
						</g>
					</g>
				</g>
				<g>
					<g>
						<path fill="#8DC63F" d="M202.3,366.8c-1.3,0-2.5-0.4-3.8-1.1l-19.8-11.4c-4.6-2.6-8.2-9.4-8.2-15.4v-11.2
							c0-5.7,3.2-8.3,6.3-8.3c1.3,0,2.5,0.4,3.8,1.1l19.8,11.4c4.6,2.6,8.2,9.4,8.2,15.4v11.2C208.6,364.3,205.5,366.8,202.3,366.8z
							"/>
					</g>
					<g>
						<path fill="#231F20" d="M176.8,321.4c0.9,0,1.8,0.3,2.8,0.9l19.8,11.4c4,2.3,7.2,8.4,7.2,13.7v11.2c0,3.9-1.8,6.3-4.3,6.3
							c-0.9,0-1.8-0.3-2.8-0.9l-19.8-11.4c-4-2.3-7.2-8.4-7.2-13.7v-11.2C172.5,323.7,174.3,321.4,176.8,321.4 M176.8,317.4
							L176.8,317.4c-4,0-8.3,3.2-8.3,10.3v11.2c0,6.8,3.9,14.1,9.2,17.1l19.8,11.4c1.6,0.9,3.2,1.4,4.8,1.4c4,0,8.3-3.2,8.3-10.3
							v-11.2c0-6.8-3.9-14.1-9.2-17.1l-19.8-11.4C180.1,317.9,178.4,317.4,176.8,317.4L176.8,317.4z"/>
					</g>
				</g>
				<g>
					<path fill="#7BA538" d="M202.9,336.8c0.3,1.2,0.5,2.4,0.5,3.6v11.2c0,5.3-3.2,7.7-7.2,5.4l-19.8-11.4c-1.2-0.7-2.4-1.8-3.4-3.1
						c1,4.2,3.6,8.3,6.7,10.1l19.8,11.4c4,2.3,7.2-0.1,7.2-5.4v-11.2C206.6,343.7,205.1,339.7,202.9,336.8z"/>
				</g>
				<g>
					<g>
						<g>
							<path fill="#FFFFFF" d="M251.2,395.1c-1.3,0-2.5-0.4-3.8-1.1l-19.8-11.4c-4.6-2.6-8.2-9.4-8.2-15.4V356
								c0-5.7,3.2-8.3,6.3-8.3c1.3,0,2.5,0.4,3.8,1.1l19.8,11.4c4.6,2.6,8.2,9.4,8.2,15.4v11.2C257.5,392.5,254.3,395.1,251.2,395.1
								z"/>
						</g>
						<g>
							<path fill="#231F20" d="M225.7,349.6c0.9,0,1.8,0.3,2.8,0.9l19.8,11.4c4,2.3,7.2,8.4,7.2,13.7v11.2c0,3.9-1.8,6.3-4.3,6.3
								c-0.9,0-1.8-0.3-2.8-0.9l-19.8-11.4c-4-2.3-7.2-8.4-7.2-13.7v-11.2C221.4,351.9,223.1,349.6,225.7,349.6 M225.7,345.6
								L225.7,345.6c-4,0-8.3,3.2-8.3,10.3v11.2c0,6.8,3.9,14.1,9.2,17.1l19.8,11.4c1.6,0.9,3.2,1.4,4.8,1.4c4,0,8.3-3.2,8.3-10.3
								v-11.2c0-6.8-3.9-14.1-9.2-17.1L230.5,347C228.9,346.1,227.3,345.6,225.7,345.6L225.7,345.6z"/>
						</g>
					</g>
					<g>
						<path fill="#BCBEC0" d="M251.7,365c0.3,1.2,0.5,2.4,0.5,3.6v11.2c0,5.3-3.2,7.7-7.2,5.4l-19.8-11.4c-1.2-0.7-2.4-1.8-3.4-3.1
							c1,4.2,3.6,8.3,6.7,10.1l19.8,11.4c4,2.3,7.2-0.1,7.2-5.4v-11.2C255.5,371.9,254,367.9,251.7,365z"/>
					</g>
				</g>
				<g>
					<g>
						<path fill="#D64550" d="M300,423.3c-1.3,0-2.5-0.4-3.8-1.1l-19.8-11.4c-4.6-2.6-8.2-9.4-8.2-15.4v-11.2c0-5.7,3.2-8.3,6.3-8.3
							c1.3,0,2.5,0.4,3.8,1.1l19.8,11.4c4.6,2.6,8.2,9.4,8.2,15.4V415C306.3,420.7,303.2,423.3,300,423.3z"/>
					</g>
					<g>
						<path fill="#231F20" d="M274.5,377.8c0.9,0,1.8,0.3,2.8,0.9l19.8,11.4c4,2.3,7.2,8.4,7.2,13.7V415c0,3.9-1.8,6.3-4.3,6.3
							c-0.9,0-1.8-0.3-2.8-0.9L277.4,409c-4-2.3-7.2-8.4-7.2-13.7v-11.2C270.2,380.1,272,377.8,274.5,377.8 M274.5,373.8
							L274.5,373.8c-4,0-8.3,3.2-8.3,10.3v11.2c0,6.8,3.9,14.1,9.2,17.1l19.8,11.4c1.6,0.9,3.2,1.4,4.8,1.4c4,0,8.3-3.2,8.3-10.3
							v-11.2c0-6.8-3.9-14.1-9.2-17.1l-19.8-11.4C277.8,374.3,276.1,373.8,274.5,373.8L274.5,373.8z"/>
					</g>
				</g>
				<g>
					<path fill="#932E3D" d="M300.6,393.2c0.3,1.2,0.5,2.4,0.5,3.6V408c0,5.3-3.2,7.7-7.2,5.4L274.1,402c-1.2-0.7-2.4-1.8-3.4-3.1
						c1,4.2,3.6,8.3,6.7,10.1l19.8,11.4c4,2.3,7.2-0.1,7.2-5.4v-11.2C304.3,400.1,302.8,396.1,300.6,393.2z"/>
				</g>
			</g>
		</g>
		<g>
			<g>
				<path fill="#231F20" d="M193.1,21.9c1.9,0,4,0.6,6.2,1.9l161.2,93.1c5.7,3.3,10.8,10.3,13.5,18c1.4,3.9,2.2,8.1,2.2,12v294.5
					c0,3.1-0.5,5.7-1.4,7.8c-0.9,2.1-2.2,3.7-3.7,4.7l0,0c-0.2,0.1-0.4,0.3-0.6,0.4L335,474.7c-1.6,1.7-3.7,2.7-6,2.7
					c-1.9,0-4-0.6-6.2-1.9l-16.4-9.5v82l-132.1-76.3v-82l-12.7-7.3c-8.7-5-15.7-18.5-15.7-30V57.9c0-8.4,3.7-13.5,9.1-13.7
					c-0.1,0-0.3,0-0.4,0c-1,0-1.9,0.1-2.7,0.4l36.3-21.1C189.6,22.5,191.3,21.9,193.1,21.9 M193.1,12.9c-3.6,0-7,1.1-9.9,3.2
					l-35.9,20.8l0.1,0.3c-5.9,3.1-10.6,9.9-10.6,20.9v294.5c0,14.9,8.7,31.2,20.2,37.8l8.2,4.7v76.8v5.2l4.5,2.6L301.8,556l13.5,7.8
					V548v-66.4l2.9,1.7c3.6,2.1,7.2,3.1,10.7,3.1c4.3,0,8.3-1.6,11.5-4.4l33.1-19.1h0.2l2.2-1.4c3.1-2,5.6-5.1,7.1-8.8
					c1.4-3.2,2.1-7,2.1-11.2V146.8c0-4.8-0.9-9.9-2.7-15c-3.6-10-10.1-18.6-17.5-22.8l-161-93C200.3,13.9,196.7,12.9,193.1,12.9
					L193.1,12.9z"/>
			</g>
		</g>
	</g>
</g>
</svg>
