<?xml version="1.0" encoding="utf-8"?>
<!-- Generator: Adobe Illustrator 25.3.1, SVG Export Plug-In . SVG Version: 6.00 Build 0)  -->
<svg version="1.1" id="Layer_1" xmlns="http://www.w3.org/2000/svg" xmlns:xlink="http://www.w3.org/1999/xlink" x="0px" y="0px"
	 width="471.7px" height="508.4px" viewBox="0 0 471.7 508.4" enable-background="new 0 0 471.7 508.4" xml:space="preserve">
<g id="Layer_1_1_" display="none">
	<polygon display="inline" fill="none" stroke="#231F20" stroke-miterlimit="10" points="433.1,373 227.3,491.8 21.5,373 
		21.5,135.4 227.3,16.6 433.1,135.4 	"/>
</g>
<path opacity="0.25" fill="#000000" enable-background="new    " d="M381.5,429.4c4.6,30.9-55.3,54.8-141.1,35.6S75.3,390.9,70.7,359.9
	c-4.6-30.9,58.1-54.7,143.9-35.5S376.9,398.5,381.5,429.4z"/>
<g id="Layer_2_1_">
	<g>
		<g>
			<path fill="#A7A9AC" d="M349.6,249.2L284,287c-1.5-7.5-3.8-15-6.7-22.3c-9.3-23.5-24.9-44.5-42.6-54.7l-0.2-0.1
				c-6.5-3.8-12.7-5.7-18.4-6.1l65.5-37.8c5.7,0.4,11.9,2.4,18.4,6.1l0.2,0.1c8.2,4.7,16,11.8,22.9,20.3
				C335.7,208.1,345.4,228.6,349.6,249.2z"/>
		</g>
		<g>
			<path fill="#A7A9AC" d="M281.6,166l-65.5,37.8c-0.9-9.5-3-19.1-5.9-28.6c-10.1-32.4-30.7-62.6-54.6-76.4
				c-8.6-5-16.8-7.3-24.3-7.3c-5.7,0-10.9,1.4-15.6,4l65.8-38l0.1,0.1c10.7-5.9,24.4-5.2,39.5,3.5c14,8.1,26.8,21.7,37.1,38.2
				C270.7,119.1,279.4,143,281.6,166z"/>
		</g>
		<g>
			<path fill="#BCBEC0" d="M317.7,423.6C317.8,423.6,317.8,423.6,317.7,423.6L317.7,423.6L317.7,423.6z"/>
		</g>
		<g>
			<path fill="#D1D3D4" d="M400.9,345.3c0,19.6-6.4,33.6-16.5,39.9l0,0l0,0c-0.4,0.3-0.9,0.5-1.3,0.8l-64.6,37.2
				c10.4-6.2,17-20.2,17-40.2c0-36.7-22.3-79.4-49.9-95.3L284,287l65.5-37.8l1.5,0.8C378.6,265.9,400.9,308.6,400.9,345.3z"/>
		</g>
		<g>
			<path fill="#A7A9AC" d="M334.8,373.3c0.3,3.3,0.5,6.5,0.5,9.7c0,19.9-6.6,34-17,40.2L383,386c0.5-0.2,0.9-0.5,1.3-0.8h0.1l0,0
				c10.2-6.3,16.5-20.3,16.5-39.9c0-14.3-3.4-29.5-9.2-43.7C377.9,329.3,358.5,353.8,334.8,373.3z"/>
		</g>
		<g>
			<path fill="#D1D3D4" d="M323.1,192.5c-7.4,28.7-23.7,53.8-45.8,72.2c-9.3-23.5-24.9-44.5-42.6-54.7l-0.2-0.1
				c-6.5-3.8-12.7-5.7-18.4-6.1l65.5-37.8c5.7,0.4,11.9,2.4,18.4,6.1l0.2,0.1C308.5,176.9,316.2,184,323.1,192.5z"/>
		</g>
		<g>
			<path fill="#D1D3D4" d="M258.3,99.2c-10,29-26.7,54.9-48.1,76c-10.1-32.4-30.7-62.6-54.6-76.4c-8.6-5-16.8-7.3-24.3-7.3
				c-5.7,0-10.9,1.4-15.6,4l65.8-38l0.1,0.1c10.7-5.9,24.4-5.2,39.5,3.5C235.1,69.1,248,82.7,258.3,99.2z"/>
		</g>
		<g>
			<path fill="#231F20" d="M196.9,53.7c7.4,0,15.6,2.4,24.3,7.3c14,8.1,26.8,21.7,37.1,38.2c12.4,19.9,21.1,43.8,23.4,66.8
				c5.7,0.4,11.9,2.4,18.4,6.1l0.2,0.1c8.2,4.7,16,11.8,22.9,20.3c12.6,15.6,22.3,36.1,26.4,56.7l1.5,0.8
				c19.5,11.2,36.3,35.9,44.5,62.3c0,0,0,0,0,0.1c0.3,0.9,0.5,1.7,0.8,2.6c0,0.1,0.1,0.3,0.1,0.4c0.7,2.5,1.3,4.9,1.9,7.4
				c0.1,0.3,0.1,0.5,0.2,0.8c0.1,0.6,0.3,1.3,0.4,1.9c0.1,0.4,0.2,0.9,0.2,1.3c0.1,0.6,0.2,1.2,0.3,1.8c0.1,0.5,0.2,1,0.2,1.6
				c0.1,0.5,0.2,1,0.2,1.5c0.1,1,0.3,2,0.4,2.9c0,0.4,0.1,0.8,0.1,1.2c0.1,0.7,0.1,1.3,0.2,2c0,0.4,0.1,0.9,0.1,1.3
				c0,0.7,0.1,1.3,0.1,2c0,0.4,0,0.8,0.1,1.2c0,0.9,0,1.8,0.1,2.8c0,0.1,0,0.2,0,0.3c0,12.3-2.5,22.3-6.8,29.7
				c-2.6,4.4-5.9,7.9-9.7,10.2l0,0l0,0l0,0c-0.2,0.1-0.4,0.2-0.6,0.3c-0.3,0.2-0.5,0.3-0.8,0.4l-64.6,37.2c-0.2,0.1-0.4,0.2-0.6,0.4
				l0,0h-0.1l0,0c-3.7,2.1-7.9,3.2-12.5,3.2c-6.1,0-12.8-1.9-19.8-6l-182-105c-27.5-15.9-49.9-58.5-49.9-95.3
				c0-27.3,12.4-43.7,30.1-43.7c4.9,0,10.2,1.3,15.8,3.9c-3.3-11.9-5.1-24-5.1-35.7c0-24.8,8.3-42.2,21.4-49.6h-0.1l65.9-38
				C186.2,55,191.3,53.7,196.9,53.7 M196.9,44.7c-7.1,0-13.7,1.7-19.6,5h-0.1h-0.1l-65.9,38l0,0C94.8,97,85.4,117.9,85.4,145
				c0,7.4,0.7,15.1,2,23c-1.3-0.1-2.5-0.2-3.7-0.2c-11.7,0-22,5.5-29,15.4c-6.6,9.3-10.1,22.2-10.1,37.3c0,19.2,5.5,40.4,15.6,59.6
				c10.2,19.5,24,34.9,38.7,43.4l182,105.1c8.2,4.8,16.4,7.2,24.3,7.2c6.1,0,11.7-1.4,16.8-4.3l0,0h0.1l-0.2-0.3l0.2,0.3
				c0.2-0.1,0.5-0.3,0.7-0.4l64.4-37.1c0.2-0.1,0.5-0.3,0.7-0.4l0.2-0.1h0.1c0.1-0.1,0.3-0.2,0.4-0.2l4.6-2.5V390
				c3.2-2.8,6.1-6.2,8.4-10.2c5.3-9,8.1-20.8,8.1-34.3c0-0.2,0-0.3,0-0.5c0-0.9,0-1.9-0.1-2.9c0-0.3,0-0.6,0-1v-0.3
				c0-0.7-0.1-1.4-0.1-2.2c0-0.5-0.1-1-0.1-1.4c-0.1-0.7-0.1-1.4-0.2-2.2v-0.4c0-0.3-0.1-0.6-0.1-0.9c-0.1-1.2-0.3-2.2-0.4-3.2
				c-0.1-0.4-0.1-0.8-0.2-1.2l-0.1-0.4c-0.1-0.6-0.2-1.1-0.3-1.7c-0.1-0.7-0.2-1.3-0.3-1.9c-0.1-0.4-0.2-0.9-0.3-1.3
				c-0.1-0.7-0.3-1.4-0.4-2.1c0-0.2-0.1-0.4-0.1-0.6l-0.1-0.2c-0.6-2.6-1.2-5.3-2-7.9l-0.1-0.2l-0.1-0.2c-0.3-1-0.5-1.9-0.8-2.8
				l-0.1-0.2l0,0c-8.9-28.6-26.6-53.6-46.6-66.1c-4.8-20.4-14.7-40.8-27.4-56.6c-7.8-9.7-16.3-17.2-25.3-22.4l-0.1-0.1h-0.1h-0.1
				c-5-2.9-9.9-4.9-14.8-6.1c-3.2-21.8-11.6-44.1-23.9-63.7C254,76.4,240,62.1,225.2,53.6C215.8,47.5,206.1,44.7,196.9,44.7
				L196.9,44.7z"/>
		</g>
		<g>
			<path fill="#FFFFFF" d="M285.5,287.8L284,287c-6.5-31.8-26.1-63.6-49.3-77l-0.2-0.1c-6.5-3.7-12.7-5.7-18.4-6.1
				c-4.2-42-29.7-87.2-60.5-105C121.8,79.3,94.4,100,94.4,145c0,11.6,1.8,23.8,5.1,35.7c-25.7-12.1-45.9,4.8-45.9,39.8
				c0,36.7,22.3,79.4,49.9,95.3l182,105.1c27.5,15.9,49.9-1,49.9-37.7S313,303.7,285.5,287.8z"/>
			<path fill="#231F20" d="M305.3,428.7L305.3,428.7c-6.6,0-13.6-2.1-20.8-6.2l-182-105.1c-28-16.2-50.9-59.7-50.9-97
				c0-27.7,12.6-45.7,32.1-45.7c4.1,0,8.4,0.8,12.9,2.5c-2.8-11.1-4.2-21.9-4.2-32.3c0-33.7,15.3-55.6,38.9-55.6
				c8,0,16.5,2.6,25.3,7.6c30.4,17.5,56.6,62.4,61.3,104.9c5.7,0.7,11.6,2.8,17.6,6.2l0.2,0.1c23,13.3,43.1,44.3,50.1,77.4l0.7,0.4
				c28,16.2,50.9,59.7,50.9,97c0,13.6-3,25.1-8.8,33.2C322.8,424.4,314.8,428.7,305.3,428.7z M83.7,178.8c-17,0-28.1,16.4-28.1,41.7
				c0,36,21.9,78,48.9,93.5l182,105.1c6.6,3.8,12.9,5.7,18.8,5.7l0,0c8.1,0,15.1-3.7,20-10.7c5.3-7.4,8-18.1,8-30.9
				c0-36-21.9-78-48.9-93.5l-2.2-1.3l-0.2-0.9c-6.5-31.9-26.4-63-48.3-75.7l-0.2-0.1c-6.1-3.5-12-5.5-17.5-5.8l-1.7-0.1l-0.2-1.7
				c-4.2-41.8-29.8-86.2-59.5-103.4c-8.1-4.7-16-7.1-23.3-7.1c-21.2,0-34.9,20.2-34.9,51.6c0,11.2,1.7,23,5.1,35.1l1.2,4.2l-3.9-1.9
				C93.5,180,88.5,178.8,83.7,178.8z"/>
		</g>
		<g>
			<line fill="none" x1="281.6" y1="166" x2="216.1" y2="203.7"/>
			<path fill="#231F20" d="M216.1,205.7c-0.7,0-1.4-0.4-1.7-1c-0.6-1-0.2-2.2,0.7-2.7l65.6-37.8c1-0.6,2.2-0.2,2.7,0.7
				c0.6,1,0.2,2.2-0.7,2.7l-65.6,37.8C216.8,205.7,216.4,205.7,216.1,205.7z"/>
		</g>
		<g>
			<line fill="none" x1="284" y1="287" x2="349.6" y2="249.2"/>
			<path fill="#231F20" d="M284,289c-0.7,0-1.4-0.4-1.7-1c-0.6-1-0.2-2.2,0.7-2.7l65.6-37.8c1-0.6,2.2-0.2,2.7,0.7
				c0.6,1,0.2,2.2-0.7,2.7L285,288.7C284.7,288.9,284.4,289,284,289z"/>
		</g>
	</g>
</g>
</svg>
