<?xml version="1.0" encoding="utf-8"?>
<!-- Generator: Adobe Illustrator 25.3.1, SVG Export Plug-In . SVG Version: 6.00 Build 0)  -->
<svg version="1.1" id="Layer_1" xmlns="http://www.w3.org/2000/svg" xmlns:xlink="http://www.w3.org/1999/xlink" x="0px" y="0px"
	 width="446.6px" height="470.7px" viewBox="0 0 446.6 470.7" enable-background="new 0 0 446.6 470.7" xml:space="preserve">
<g id="Layer_2_1_">
</g>
<g id="Layer_1_2_">
	<g id="Layer_1_1_" display="none">
		<polygon display="inline" fill="none" stroke="#A7A9AC" stroke-width="4" stroke-miterlimit="10" points="429.9,362.1 
			214.5,486.5 -0.9,362.1 -0.9,113.3 214.5,-11 429.9,113.3 		"/>
	</g>
	<path fill="#F0F7FF" d="M219.1,360.5c9.6,0,19.3,2.4,26.7,6.7c1.4,0.8,2.6,1.6,3.8,2.5c3.5-2.6,5.3-5.7,5.2-9.2
		c-0.1-4.8-4-9.6-10.5-13.4c-1.4-0.8-2.8-1.5-4.4-2.2c-6.2-2.6-13.6-4.1-20.8-4.1c-7.5,0-14.3,1.6-19.2,4.4
		c-4.4,2.5-6.9,5.8-7.2,9.4s1.6,7.4,5.3,10.8c0.1-0.1,0.2-0.1,0.3-0.2c2.7-1.5,5.8-2.7,9.4-3.6C211.3,360.9,215.1,360.5,219.1,360.5
		z"/>
	<path fill="#F0F7FF" d="M303.5,267.4c5.7,0,11.5,1.5,15.9,4c0.7,0.4,1.3,0.8,1.9,1.2c1.6-1.3,2.5-2.9,2.4-4.6
		c-0.1-2.6-2.2-5.2-5.8-7.3c-0.8-0.5-1.6-0.9-2.5-1.2c-3.5-1.5-7.8-2.3-11.9-2.3c-4.3,0-8.1,0.9-10.9,2.5c-2.4,1.4-3.7,3.1-3.9,5
		c-0.1,1.8,0.8,3.7,2.6,5.5c1.6-0.9,3.4-1.6,5.4-2C298.8,267.7,301.1,267.4,303.5,267.4z"/>
	<g id="Layer_2_2_">
		<g>
			<path fill="#231F20" d="M181.9,17.7c8.3,0,16,1.9,22.9,5.4l0,0c1.4,0.7,2.8,1.5,4.1,2.4l24.2,14.1l0,0l0,0l0,0
				c22.3,10.7,36.5,38.8,36.5,79.7c0,58.5-29.3,124.7-69.4,163.5l31,1.3l15.8,23.1c3.2,0.7,6.3,1.5,9.4,2.4l-7.3-4.2v-13.2l0,0l0,0
				l3.2-4.2l0,0l0,0l-21.3-5l-1.4-11.1v-13.2l0,0l0,0l17.8-2.7l0,0l-4.9-5.1v-13.2l0,0l0,0l12.6-7.3l22.3,7.1
				c2.6-0.7,5.4-1.3,8.2-1.7l6-12.9l19.2,0.8l9.3,13.5c3,0.7,5.9,1.5,8.7,2.4l20.8-5.3l14.6,8.4l0,0l0,0v13.2l-3.2,4.2l21.5,4.9
				l1.4,11.1v13.2l-17.8,2.7l4.9,5.1v13.2l-12.6,7.3l0,0l0,0l0,0l-22.3-7.1c-2.6,0.7-5.4,1.3-8.2,1.7l-5.3,11.4v15.5l-5.6,7.2
				l36.8,8.4l2.4,19v22.7l-30.4,4.7l8.3,8.7l0,0l0,0v22.7L312.5,445l0,0l0,0l0,0l-38.2-12.2c-4.5,1.2-9.2,2.2-14,2.9l-10.2,22
				l-32.9-1.4l-15.8-23.1c-5.1-1.1-10-2.5-14.9-4.1l-35.5,9.1l0,0l0,0l-24.9-14.4v-22.7l0,0l0,0l5.6-7.2l0,0l0,0l-36.8-8.4l-2.4-19
				V344v0.1V344l30.4-4.7l0,0l0,0l-8.3-8.7v-19.8c-2-0.9-3.9-1.9-5.7-3.1L83,292.6c-1.5-0.8-3-1.6-4.4-2.6l0,0l0,0
				c-19-12.5-31-39.2-31-76.5c0-49,20.6-103.4,50.8-142.6c11.8-15.3,25.2-28.3,39.3-37.7c2.1-1.4,4.2-2.7,6.3-3.9
				C157.2,21.4,170.2,17.7,181.9,17.7 M181.9,9.7c-13.5,0-27.7,4.3-42.3,12.6c-2.3,1.3-4.5,2.7-6.7,4.2c-14.6,9.7-28.5,23-41.2,39.5
				c-32.3,41.9-52.4,98.4-52.4,147.5c0,19.3,3,36.3,9,50.6c5.9,14.3,14.5,25.2,25.4,32.4c0.2,0.1,0.4,0.2,0.5,0.4
				c1.5,1,3.1,1.9,4.7,2.7l25.7,15c0.6,0.4,1.2,0.8,1.9,1.1v14.9c0,1.1,0.2,2.1,0.6,3.1l-15.7,2.4c-3.9,0.5-7,3.9-7,7.9v22.7
				c0,0.3,0,0.7,0.1,1l2.4,19c0.4,3.3,2.9,6.1,6.2,6.8l25.3,5.8c-0.2,0.7-0.3,1.3-0.3,2V424c0,2.9,1.5,5.5,4,6.9l24.9,14.4
				c1.2,0.7,2.6,1.1,4,1.1c0.2,0,0.4,0,0.6,0c0.5,0,0.9-0.1,1.4-0.2l33.3-8.6c3.4,1,6.8,2,10.3,2.8l14.1,20.6
				c1.4,2.1,3.7,3.4,6.3,3.5l32.9,1.4c0.1,0,0.2,0,0.3,0c3.1,0,5.9-1.8,7.3-4.6l8.4-18.2c2.8-0.5,5.6-1.1,8.3-1.8l35.8,11.4
				c0.8,0.3,1.7,0.4,2.6,0.4c0.2,0,0.4,0,0.6,0c1.2-0.1,2.3-0.4,3.4-1l21.6-12.5c2.5-1.4,4-4.1,4-6.9V410c0-1.1-0.2-2.1-0.6-3.1
				l15.9-2.5c3.9-0.6,6.8-4,6.8-7.9v-22.7c0-0.3,0-0.7-0.1-1l-2.4-19c-0.4-3.3-2.9-6.1-6.2-6.8l-25.3-5.8c0.2-0.7,0.3-1.3,0.3-2
				v-13.8l2.8-6c0.8-0.2,1.6-0.3,2.4-0.5l20,6.4c0.8,0.3,1.7,0.4,2.6,0.4c0.2,0,0.5,0,0.7,0l0,0l0,0c1.1-0.1,2.3-0.5,3.3-1l12.6-7.3
				c2.5-1.4,4-4.1,4-6.9v-12.2l6.1-0.9c3.9-0.6,6.8-4,6.8-7.9v-13.2c0-0.3,0-0.7-0.1-1l-1.4-11.1c-0.4-3.3-2.9-6.1-6.2-6.8
				l-12.1-2.8v-11.8c0-2.9-1.6-5.6-4.1-7l-14.5-8.4c-1.2-0.7-2.6-1.1-4-1.1c-0.7,0-1.3,0.1-2,0.3l-18.6,4.8
				c-1.3-0.4-2.7-0.8-4.1-1.1l-7.5-11c-1.4-2.1-3.7-3.4-6.3-3.5l-19.2-0.8c-0.1,0-0.2,0-0.3,0c-3.1,0-5.9,1.8-7.3,4.6l-4.2,9.1
				c-0.8,0.2-1.6,0.3-2.5,0.5l-20.2-6.4c-0.8-0.3-1.6-0.4-2.4-0.4c-1,0-2,0.2-2.9,0.6c1.8-3.7,3.5-7.5,5.2-11.3
				c13.3-30.9,20.3-62.8,20.3-92.3c0-42.5-14.8-74-40.7-86.7l-23.7-13.9c-1.5-0.9-3-1.8-4.5-2.6c-0.1,0-0.1-0.1-0.2-0.1
				C200.4,11.8,191.4,9.7,181.9,9.7z M218,275.5c1.2-1.4,2.4-2.8,3.6-4.3v0.7c0,0.3,0,0.7,0.1,1l0.3,2.8L218,275.5L218,275.5z"/>
		</g>
		<g>
			<g>
				<path fill="#CDD9EE" d="M232.6,38.9c-16.5-7.9-37.3-6.3-59.9,6.8c-2.1,1.2-4.1,2.5-6.2,3.9C152.3,59,139,72,127.1,87.3
					c-23.5,30.4-41.1,69.9-47.9,109c-2,11.3-3,22.6-3,33.6c0,18.9,3.1,35.1,8.6,48.1s13.5,22.8,23.2,28.9l-26-15.1
					c-1.5-0.8-3-1.6-4.4-2.6l0,0c-9.5-6.2-17.3-16-22.6-29c-5.4-12.9-8.4-28.9-8.4-47.6c0-12.3,1.3-24.9,3.7-37.5
					C57.5,137.3,74.7,99.4,97.4,70c11.9-15.3,25.2-28.3,39.3-37.7c2.1-1.4,4.2-2.7,6.3-3.9c13.6-7.9,26.5-11.6,38.3-11.6
					c8.3,0,16,1.9,22.9,5.4l0,0c1.4,0.7,2.8,1.5,4.1,2.4L232.6,38.9z"/>
			</g>
			<g>
				<path fill="#F0F7FF" d="M232.6,38.9c-16.5-7.9-37.3-6.3-59.9,6.8c-1.7,1-3.4,2-5,3.1c-0.4,0.2-0.8,0.5-1.2,0.8
					C152.3,59,139,72,127.1,87.3c-23.5,30.4-41.1,69.9-47.9,109c-10.3-6-20-13.1-28.9-21c7.2-37.8,24.4-75.7,47.1-105.1
					c11.9-15.3,25.2-28.3,39.3-37.7c0.9-0.6,1.7-1.1,2.6-1.7c1.2-0.8,2.5-1.5,3.7-2.2c13.6-7.9,26.5-11.6,38.3-11.6
					c8.3,0,16,1.9,22.9,5.4l0,0c1.4,0.7,2.8,1.5,4.1,2.4L232.6,38.9z"/>
			</g>
			<g>
				<path fill="#CDD9EE" d="M232.6,38.9c-16.5-7.9-37.3-6.3-59.9,6.8c-1.7,1-3.4,2-5,3.1c-10-5.2-19.4-11.2-28.2-18
					c1.2-0.8,2.5-1.5,3.7-2.2c13.6-7.9,26.5-11.6,38.3-11.6c8.3,0,16,1.9,22.9,5.4l0,0c1.4,0.7,2.8,1.5,4.1,2.4L232.6,38.9z"/>
			</g>
			<g>
				<g>
					<path fill="#6885A9" stroke="#000000" stroke-width="2" stroke-miterlimit="10" d="M76.3,229.9c0,71,43.2,103.6,96.4,72.9
						s96.4-113.2,96.4-184.2S225.9,15,172.7,45.7S76.3,158.9,76.3,229.9z"/>
					<path fill="#6885A9" stroke="#000000" stroke-width="2" stroke-miterlimit="10" d="M134.4,315.8L134.4,315.8
						c-36.2,0-59.6-33.7-59.6-86c0-71.4,43.6-154.6,97.2-185.5c13.5-7.8,26.7-11.8,39-11.8c17.6,0,32.5,8,43.1,23
						c10.8,15.3,16.5,37,16.5,62.9c0,71.4-43.6,154.6-97.2,185.5C159.9,311.9,146.8,315.8,134.4,315.8z"/>
				</g>
				<g>
					<path fill="#3E6387" d="M255.7,126.3c0,61.2-37.2,132.2-83,158.7c-13.4,7.7-26,10.8-37.1,9.8c-27.2-2.5-45.9-29.2-45.9-72.6
						c0-61.1,37.2-132.2,83-158.7c10.1-5.8,19.7-9,28.7-9.8C233.1,51,255.7,78.6,255.7,126.3z"/>
					<path fill="#231F20" d="M139.7,296.4c-1.4,0-2.9-0.1-4.3-0.2c-14-1.3-25.9-8.8-34.3-21.6c-8.5-13.1-13-31.2-13-52.4
						c0-61.5,37.6-133.3,83.8-160c10.1-5.8,19.9-9.2,29.3-10c1.5-0.1,3-0.2,4.4-0.2c31.3,0,51.6,29.1,51.6,74.2
						c0,61.5-37.6,133.3-83.8,160C161.8,293,150.4,296.4,139.7,296.4z M205.7,55c-1.4,0-2.8,0.1-4.1,0.2c-8.9,0.8-18.4,4-28.1,9.6
						C128.1,91,91.2,161.6,91.2,222.2c0,41.3,17.1,68.6,44.5,71.1c1.3,0.1,2.7,0.2,4,0.2c10.2,0,21-3.3,32.2-9.8
						c45.4-26.2,82.3-96.8,82.3-157.4C254.2,83,235.2,55,205.7,55z"/>
				</g>
				<g>
					<g>
						<path fill="#E6E7E8" d="M247.3,126.3c0,61.2-37.2,132.2-83,158.7c-10.1,5.8-19.7,9-28.7,9.8c-27.2-2.5-45.9-29.2-45.9-72.6
							c0-61.1,37.2-132.2,83-158.7c10.1-5.8,19.7-9,28.7-9.8C228.6,56.2,247.3,82.9,247.3,126.3z"/>
					</g>
					<g>
						<path fill="#231F20" d="M135.6,296.2h-0.1c-14-1.3-25.9-8.8-34.3-21.6c-8.5-13.1-13-31.2-13-52.4c0-61.5,37.6-133.3,83.8-160
							c10.1-5.8,19.9-9.2,29.3-10h0.1h0.1c14,1.3,25.9,8.8,34.3,21.6c8.5,13.1,13,31.2,13,52.4c0,61.5-37.6,133.3-83.8,160
							c-10.1,5.8-19.9,9.2-29.3,10H135.6z M201.4,55.2c-8.9,0.8-18.3,4-27.9,9.6C128.1,91,91.2,161.6,91.2,222.2
							c0,41.3,17,68.5,44.4,71.1c8.9-0.8,18.3-4,27.9-9.6c45.4-26.2,82.3-96.8,82.3-157.4C245.8,85,228.8,57.8,201.4,55.2z"/>
					</g>
				</g>
				<g>
					<g>
						<polygon fill="#231F20" points="178,173.1 186.8,168 186.8,73.4 178,78.5 						"/>
					</g>
					<g>
						<path fill="#231F20" d="M176.5,175.7V77.6l11.8-6.8v98.1L176.5,175.7z M179.5,79.4v91.1l5.8-3.4V76L179.5,79.4z"/>
					</g>
				</g>
				<g>
					<g>
						<polygon fill="#231F20" points="182.5,160.2 184.5,167.9 132,220.4 130,212.7 						"/>
					</g>
					<g>
						<path fill="#231F20" d="M131.3,223.3l-3-11.1l55-55l3,11.1L131.3,223.3z M131.6,213.1l1.2,4.4l50.1-50.1l-1.2-4.4L131.6,213.1
							z"/>
					</g>
				</g>
			</g>
			<g>
				<path fill="#231F20" d="M133.8,315.8L133.8,315.8c-9.9,0-19.1-2.6-27.1-7.6l-25.9-15.1c-1.5-0.7-3-1.6-4.4-2.6l-0.8-0.4V290
					c-19.7-13.4-31-41.5-31-77.3c0-47.7,19.5-102.7,51-143.5c12.3-16,25.7-28.8,39.7-38.1c2.1-1.4,4.2-2.7,6.4-4
					c13.5-7.8,26.7-11.8,39-11.8c8.5,0,16.4,1.9,23.6,5.6l0.1,0.1c1.4,0.7,2.8,1.6,4.2,2.4l24.1,14.1c23.7,11.5,37.3,41,37.3,81
					c0,71.4-43.6,154.6-97.2,185.5C159.3,311.9,146.1,315.8,133.8,315.8z M77.9,288L77.9,288c1.4,0.9,2.8,1.7,4.3,2.5l26,15.2
					c7.6,4.8,16.2,7.2,25.6,7.2l0,0c11.8,0,24.5-3.8,37.5-11.4C224,271,266.9,189,266.9,118.6c0-38.9-13-67.4-35.7-78.3l0.4-0.8
					l-0.4,0.7L207,26.1c-1.4-0.9-2.7-1.7-4.1-2.4l-0.1-0.1c-6.7-3.5-14.2-5.2-22.1-5.2c-11.8,0-24.5,3.8-37.5,11.4
					c-2.1,1.2-4.2,2.5-6.2,3.9c-13.7,9.1-26.9,21.7-39,37.4c-31.1,40.3-50.5,94.6-50.5,141.7C47.6,247.9,58.6,275.3,77.9,288
					L77.9,288z"/>
			</g>
			<g>
				<g>
					<g>
						<path fill="#CDD9EE" d="M363.6,241.9l-14.6-8.4l-20.8,5.3c-2.8-0.9-5.8-1.7-8.7-2.4l-9.3-13.5l-19.2-0.8l-6,12.9
							c-2.8,0.4-5.6,1-8.2,1.7l-22.3-7.1l-12.6,7.3l12.3,12.9c-1.2,1.5-2.2,3.1-2.9,4.7l-22.3,3.4l1.4,11.1l23.4,5.3
							c1.1,1.7,2.5,3.4,4.1,5l-9.2,12l14.6,8.4l20.8-5.3c2.8,0.9,5.8,1.7,8.7,2.4l9.3,13.5l19.2,0.8l6-12.9c2.8-0.4,5.6-1,8.2-1.7
							l22.3,7.1l12.6-7.3l-12.3-12.9c1.2-1.5,2.2-3.1,2.9-4.7l22.3-3.5l-1.4-11.1l-23.4-5.3c-1.1-1.7-2.5-3.4-4.1-5L363.6,241.9z
							 M320.5,274.9c-6.9,4-18.9,3.5-26.8-1.1s-8.8-11.5-1.9-15.5s18.9-3.5,26.8,1.1C326.5,264.1,327.4,271,320.5,274.9z"/>
					</g>
					<g>
						<path fill="#231F20" d="M322.2,312.7l-21-0.9l-9.3-13.6c-2.7-0.6-5.3-1.3-7.9-2.1l-20.9,5.4l-16.6-9.6l9.5-12.3
							c-1.1-1.2-2.2-2.5-3.1-3.8l-23.8-5.4l-1.7-13.6l22.9-3.5c0.5-1.1,1.2-2.2,2-3.3l-12.8-13.3l14.8-8.6l22.5,7.2
							c2.3-0.6,4.7-1.1,7.2-1.5l6.1-13.1l21,0.9l9.3,13.6c2.7,0.6,5.3,1.3,7.9,2.1l20.9-5.4l16.6,9.6l-9.5,12.3
							c1.1,1.2,2.2,2.5,3,3.8l23.9,5.4l1.7,13.6l-23,3.6c-0.5,1.1-1.2,2.2-2,3.3l12.8,13.4l-14.8,8.6l-22.5-7.2
							c-2.3,0.6-4.7,1.1-7.1,1.5L322.2,312.7z M302.9,308.9l17.5,0.7l5.9-12.7l0.8-0.1c2.8-0.4,5.5-1,8-1.6l0.4-0.1l22.1,7l10.4-6
							l-11.9-12.5l0.8-1c1.1-1.4,2-2.9,2.7-4.4l0.3-0.8l21.7-3.4l-1.1-8.6l-23-5.2l-0.3-0.5c-1.1-1.6-2.4-3.3-3.9-4.8l-0.9-0.9
							l9-11.7l-12.5-7.2l-20.6,5.3l-0.4-0.1c-2.8-0.9-5.7-1.7-8.6-2.3l-0.6-0.1l-9.2-13.4l-17.5-0.7l-5.9,12.7l-0.8,0.1
							c-2.8,0.4-5.5,1-8.1,1.6l-0.4,0.1l-22.1-7l-10.4,6l11.9,12.4l-0.8,1c-1.1,1.4-2,2.9-2.7,4.4l-0.3,0.8l-21.7,3.4l1.1,8.6
							l23,5.2l0.3,0.5c1.1,1.6,2.4,3.3,3.9,4.8l0.9,0.9l-9,11.7l12.5,7.2l20.6-5.3l0.4,0.1c2.8,0.9,5.7,1.7,8.6,2.3l0.6,0.1
							L302.9,308.9z M308.9,279.1c-5.7,0-11.5-1.5-15.9-4c-4.6-2.7-7.3-6.3-7.3-10.1c0-3.2,1.9-6,5.4-8c3.2-1.9,7.6-2.9,12.4-2.9
							c5.7,0,11.5,1.5,15.9,4c4.6,2.7,7.3,6.3,7.3,10c0,3.2-1.9,6-5.4,8C318.1,278.1,313.7,279.1,308.9,279.1z M303.5,257.2
							c-4.3,0-8.1,0.9-10.9,2.5c-2.5,1.5-3.9,3.3-3.9,5.4c0,2.6,2.1,5.3,5.8,7.5c3.9,2.3,9.2,3.6,14.4,3.6c4.3,0,8.1-0.9,10.9-2.5
							c2.5-1.5,3.9-3.3,3.9-5.4c0-2.6-2.1-5.3-5.8-7.5C313.9,258.5,308.7,257.2,303.5,257.2z"/>
					</g>
				</g>
				<g>
					<g>
						<g>
							<path fill="#4B6E98" d="M251.4,254.5c0.7-1.6,1.7-3.2,2.9-4.7L242,236.9v13.2l4.9,5.1L251.4,254.5z"/>
						</g>
						<g>
							<path fill="#231F20" d="M246.3,256.8l-5.8-6.1v-17.6l15.8,16.5l-0.8,1c-1.1,1.4-2,2.9-2.7,4.4l-0.3,0.8L246.3,256.8z
								 M243.5,249.5l3.9,4.1l3-0.5c0.5-1.1,1.2-2.2,2-3.3l-8.9-9.3V249.5z"/>
						</g>
					</g>
					<g>
						<g>
							<path fill="#4B6E98" d="M356.6,251.1l-2.2,2.8c1.6,1.6,3,3.3,4.1,5l1.9,0.4l3.2-4.2v-13.2L356.6,251.1L356.6,251.1z"/>
						</g>
						<g>
							<path fill="#231F20" d="M361,261l-3.4-0.8l-0.3-0.5c-1.1-1.6-2.4-3.3-3.9-4.8l-0.9-0.9l12.7-16.5v18.2L361,261z M359.4,257.6
								l0.4,0.1l2.3-3v-8.3l-5.8,7.5C357.5,255,358.5,256.3,359.4,257.6z"/>
						</g>
					</g>
					<g>
						<g>
							<path fill="#6885A9" d="M321.2,274.5c-0.8-0.6-1.6-1.2-2.6-1.8c-6.2-3.6-14.8-4.6-21.5-3.1c4.9-5.6,11.4-9.6,18.9-11.5
								c0.9,0.4,1.8,0.8,2.7,1.3C326.3,263.9,327.3,270.5,321.2,274.5z"/>
						</g>
					</g>
					<g>
						<g>
							<path fill="none" d="M321.2,274.5c-0.8-0.6-1.6-1.2-2.6-1.8c-6.2-3.6-14.8-4.6-21.5-3.1c-1.9,0.4-3.7,1.1-5.2,2
								c-0.2,0.1-0.5,0.3-0.7,0.4c-5.4-4.4-5.3-10.2,0.7-13.7c6.1-3.5,16.4-3.5,24.1-0.2c0.9,0.4,1.8,0.8,2.7,1.3
								C326.3,263.9,327.3,270.5,321.2,274.5z"/>
						</g>
						<g>
							<path fill="#231F20" d="M321.1,276.4l-0.9-0.7c-0.7-0.6-1.5-1.1-2.4-1.7c-3.9-2.3-9.2-3.6-14.4-3.6c-2.1,0-4.2,0.2-6.1,0.6
								c-1.8,0.4-3.5,1-4.8,1.8c-0.2,0.1-0.4,0.3-0.6,0.4l-0.9,0.6l-0.9-0.7c-3.1-2.6-4.7-5.7-4.5-8.7c0.2-2.9,2.1-5.5,5.4-7.4
								c3.2-1.9,7.6-2.9,12.4-2.9c4.5,0,9.2,0.9,13.1,2.6c1,0.4,1.9,0.9,2.8,1.4c4.5,2.6,7.2,6.2,7.3,9.8c0.1,3-1.5,5.8-4.6,7.8
								L321.1,276.4z M303.5,267.4c5.7,0,11.5,1.5,15.9,4c0.7,0.4,1.3,0.8,1.9,1.2c1.6-1.3,2.5-2.9,2.4-4.6
								c-0.1-2.6-2.2-5.2-5.8-7.3c-0.8-0.5-1.6-0.9-2.5-1.2c-3.5-1.5-7.8-2.3-11.9-2.3c-4.3,0-8.1,0.9-10.9,2.5
								c-2.4,1.4-3.7,3.1-3.9,5c-0.1,1.8,0.8,3.7,2.6,5.5c1.6-0.9,3.4-1.6,5.4-2C298.8,267.7,301.1,267.4,303.5,267.4z"/>
						</g>
					</g>
					<g>
						<g>
							<path fill="#4B6E98" d="M361,278.8c-0.7,1.6-1.7,3.2-2.9,4.7l7.5,7.8l17.8-2.7v-13.2L361,278.8z"/>
						</g>
						<g>
							<path fill="#231F20" d="M365,293l-8.9-9.3l0.8-1c1.1-1.4,2-2.9,2.7-4.4l0.3-0.8l24.9-3.8V290L365,293z M360,283.4l6,6.3
								l15.7-2.4v-10.2l-19.8,3.1C361.4,281.3,360.8,282.4,360,283.4z"/>
						</g>
					</g>
					<g>
						<g>
							<path fill="#6885A9" d="M362.2,301.2l-4.5,2.6l-22.3-7.1c-2.6,0.7-5.4,1.3-8.2,1.7l-6,12.9l-19.2-0.8l-9.3-13.5
								c-3-0.7-5.9-1.4-8.7-2.4l-20.8,5.3l-7.5-4.3l0,0l-7.1-4.1v13.2l14.6,8.4l20.8-5.3c2.8,0.9,5.8,1.7,8.7,2.4l9.3,13.5l19.2,0.8
								l6-12.9c2.8-0.4,5.6-1,8.2-1.7l22.3,7.1l12.6-7.3v-13.2L362.2,301.2L362.2,301.2z"/>
						</g>
						<g>
							<path fill="#231F20" d="M322.2,325.9l-21-0.9l-9.3-13.6c-2.7-0.6-5.3-1.3-7.9-2.1l-20.9,5.4l-15.8-9.1v-16.7l16.3,9.4
								l20.6-5.3l0.4,0.1c2.8,0.9,5.7,1.7,8.6,2.3l0.6,0.1l9.2,13.4l17.5,0.7l5.9-12.7l0.8-0.1c2.8-0.4,5.5-1,8-1.6l0.4-0.1l22.1,7
								l14.3-8.2v16.7l-13.9,8l-22.5-7.2c-2.3,0.6-4.7,1.1-7.1,1.5L322.2,325.9z M302.9,322.1l17.5,0.7l5.9-12.7l0.8-0.1
								c2.8-0.4,5.5-1,8-1.6l0.4-0.1l22.1,7l11.3-6.5V299l-10.9,6.3l-22.5-7.2c-2.3,0.6-4.7,1.1-7.1,1.5l-6.1,13.1l-21-0.9
								l-9.3-13.6c-2.7-0.6-5.3-1.3-7.9-2.1l-20.9,5.4l-12.8-7.4v9.8l13.3,7.7l20.6-5.3l0.4,0.1c2.8,0.9,5.7,1.7,8.6,2.3l0.6,0.1
								L302.9,322.1z"/>
						</g>
					</g>
					<g>
						<g>
							<path fill="#4B6E98" d="M258,279.4c-1.6-1.6-3-3.3-4.1-5l-23.4-5.3l-1.4-11.1v13.2l1.4,11.1l21.5,4.9L258,279.4z"/>
						</g>
						<g>
							<path fill="#231F20" d="M252.6,288.9l-23.5-5.4l-1.5-12.3V258l3-0.2l1.2,10l23,5.2l0.3,0.5c1.1,1.6,2.4,3.3,3.9,4.8l0.9,0.9
								L252.6,288.9z M231.8,281l19.6,4.5l4.6-6c-1.1-1.2-2.2-2.5-3.1-3.8l-22.4-5.1v0.5L231.8,281z"/>
						</g>
					</g>
				</g>
				<g>
					<g>
						<polygon fill="#F0F7FF" points="248.8,291.4 248.8,304.6 263.3,313 263.3,299.8 						"/>
					</g>
					<g>
						<path fill="#231F20" d="M264.8,315.6l-17.6-10.1v-16.7l17.6,10.1V315.6z M250.3,303.8l11.6,6.7v-9.8l-11.6-6.7L250.3,303.8
							L250.3,303.8z"/>
					</g>
				</g>
				<g>
					<g>
						<polygon fill="#F0F7FF" points="357.8,303.7 357.8,317 370.4,309.7 370.4,296.4 						"/>
					</g>
					<g>
						<path fill="#231F20" d="M356.3,319.6v-16.7l15.6-9v16.7L356.3,319.6z M359.3,304.6v9.8l9.6-5.5V299L359.3,304.6z"/>
					</g>
				</g>
				<g>
					<g>
						<polygon fill="#6885A9" points="363.6,241.9 363.6,255.1 360.4,259.4 358.5,258.9 354.4,253.9 						"/>
					</g>
					<g>
						<path fill="#231F20" d="M361,261l-3.3-0.8l-5.2-6.4l12.6-16.4v18.2L361,261z M359.3,257.6l0.4,0.1l2.3-3v-8.3l-5.8,7.6
							L359.3,257.6z"/>
					</g>
				</g>
				<g>
					<g>
						<polygon fill="#6885A9" points="242,236.9 242,250.1 246.8,255.2 251.4,254.5 254.3,249.7 						"/>
					</g>
					<g>
						<path fill="#231F20" d="M246.3,256.8l-5.8-6.1v-17.6l15.7,16.4l-3.9,6.3L246.3,256.8z M243.5,249.5l3.9,4.1l3.1-0.5l1.9-3.2
							l-8.9-9.3V249.5L243.5,249.5z"/>
					</g>
				</g>
				<g>
					<g>
						<polygon fill="#6885A9" points="229.1,257.9 229.1,271.2 230.5,282.3 252,287.2 258,279.4 253.9,274.4 230.5,269 						"/>
					</g>
					<g>
						<path fill="#231F20" d="M252.6,288.9l-23.5-5.4l-1.5-12.3V258l3-0.2l1.2,10l22.9,5.2l5.2,6.4L252.6,288.9z M231.8,281
							l19.6,4.5l4.7-6.1l-3-3.7l-22.4-5.1v0.5L231.8,281z"/>
					</g>
				</g>
				<g>
					<g>
						<polygon fill="#6885A9" points="383.3,275.4 383.3,288.6 365.5,291.4 358.1,283.6 361,278.8 						"/>
					</g>
					<g>
						<path fill="#231F20" d="M365,293l-8.8-9.2l3.9-6.3l24.7-3.8V290L365,293z M359.9,283.4l6.1,6.4l15.7-2.4v-10.2l-19.9,3.1
							L359.9,283.4z"/>
					</g>
				</g>
			</g>
			<g>
				<g>
					<g>
						<path fill="#CDD9EE" d="M322,315.8l-24.9-14.4l-35.5,9.1c-4.9-1.6-9.9-2.9-14.9-4.1l-15.8-23.1l-32.9-1.4l-10.2,22
							c-4.8,0.7-9.5,1.7-14.1,2.9l-38.2-12.2l-21.6,12.5l21.1,22c-2.1,2.6-3.7,5.3-5,8.1l-38.2,5.9l2.4,19l40,9.1
							c1.9,2.9,4.3,5.8,7,8.6l-15.8,20.5l24.9,14.4l35.5-9.1c4.9,1.6,9.9,2.9,14.9,4.1l15.8,23.1l32.9,1.4l10.2-22
							c4.8-0.7,9.5-1.7,14-2.9l38.2,12.2l21.6-12.5l-20.9-22c2.1-2.6,3.7-5.3,5-8.1l38.2-5.9l-2.4-19l-40.1-9.1
							c-1.9-2.9-4.3-5.8-7-8.6L322,315.8z M248.3,372.3c-11.8,6.8-32.3,5.9-45.8-1.9c-13.6-7.8-15-19.7-3.3-26.5s32.3-5.9,45.8,1.9
							C258.6,353.7,260,365.5,248.3,372.3z"/>
					</g>
					<g>
						<path fill="#231F20" d="M250.5,435.8l-34.6-1.4L200,411.1c-4.8-1.1-9.5-2.4-14.1-3.8l-35.7,9.2l-26.9-15.6l16.1-20.9
							c-2.3-2.4-4.3-4.9-6-7.4l-40.5-9.2l-2.7-21.5l38.8-6c1.1-2.3,2.4-4.5,4-6.7l-21.5-22.5l23.8-13.7l38.4,12.2
							c4.2-1.1,8.5-2,13-2.7l10.3-22.2l34.6,1.4l15.9,23.2c4.8,1.1,9.5,2.4,14.1,3.8l35.7-9.2l26.9,15.6L308.1,336
							c2.3,2.4,4.3,4.9,6,7.4l40.5,9.2l2.7,21.5l-38.8,6c-1.1,2.3-2.4,4.5-4,6.6l21.5,22.5l-23.8,13.7l-38.4-12.2
							c-4.2,1.1-8.5,2-13,2.7L250.5,435.8z M217.5,431.5l31.1,1.3l10.1-21.9l0.8-0.1c4.8-0.7,9.4-1.7,13.9-2.8l0.4-0.1l0.4,0.1
							l37.6,12l19.4-11.2l-20.7-21.6l0.8-1c2-2.5,3.6-5.1,4.8-7.8l0.3-0.8l37.6-5.8l-2.1-16.5l-39.6-9l-0.3-0.5
							c-1.9-2.8-4.2-5.7-6.9-8.4l-0.9-0.9l15.5-20.2L296.8,303l-35.4,9.1L261,312c-4.8-1.6-9.8-2.9-14.8-4l-0.6-0.1l-15.7-23
							l-31.1-1.3l-10.1,21.9l-0.8,0.1c-4.8,0.7-9.5,1.7-13.9,2.8l-0.4,0.1l-38-12.1l-19.4,11.2l20.7,21.6l-0.8,1
							c-2,2.5-3.6,5.1-4.8,7.8l-0.3,0.8l-37.5,5.8l2.1,16.5l39.6,9l0.3,0.5c1.9,2.8,4.2,5.7,6.9,8.4l0.9,0.9L127.7,400l22.9,13.2
							l35.4-9.1l0.4,0.1c4.8,1.6,9.8,2.9,14.8,4l0.6,0.1L217.5,431.5z M228.4,378.4c-9.6,0-19.3-2.4-26.7-6.7
							c-7.6-4.4-12-10.3-12-16.3c0-5,3.1-9.6,8.7-12.8c5.3-3.1,12.7-4.8,20.7-4.8c9.6,0,19.3,2.4,26.7,6.7c7.6,4.4,12,10.3,12,16.3
							c0,5-3.1,9.6-8.7,12.8C243.7,376.7,236.3,378.4,228.4,378.4z M219,340.9c-7.5,0-14.3,1.6-19.2,4.4c-4.6,2.7-7.2,6.3-7.2,10.2
							c0,4.8,3.8,9.8,10.5,13.7c6.9,4,16.1,6.3,25.2,6.3c7.5,0,14.3-1.6,19.2-4.4c4.6-2.7,7.2-6.3,7.2-10.2c0-4.8-3.8-9.8-10.5-13.7
							C237.3,343.1,228.1,340.9,219,340.9z"/>
					</g>
				</g>
				<g>
					<g>
						<path fill="#6885A9" d="M129.9,337.3c1.2-2.8,2.9-5.5,5-8.1l-21.1-22v22.7l8.3,8.7L129.9,337.3z"/>
					</g>
					<g>
						<path fill="#231F20" d="M121.6,340.1l-9.3-9.7v-27l24.6,25.7l-0.8,1c-2,2.5-3.6,5.1-4.8,7.8l-0.3,0.8L121.6,340.1z
							 M115.3,329.2l7.4,7.7l6.2-1c1.1-2.3,2.4-4.5,4-6.7l-17.6-18.4C115.3,310.8,115.3,329.2,115.3,329.2z"/>
					</g>
				</g>
				<g>
					<g>
						<path fill="#4B6E98" d="M309.9,331.5l-3.7,4.8c2.7,2.8,5.1,5.7,7,8.6l3.2,0.7l5.6-7.2v-22.7L309.9,331.5L309.9,331.5z"/>
					</g>
					<g>
						<path fill="#231F20" d="M317,347.3l-4.7-1.1l-0.3-0.5c-1.9-2.8-4.2-5.7-6.9-8.4l-0.9-0.9l19.3-25V339L317,347.3z M314.1,343.6
							l1.7,0.4l4.7-6v-17.7l-12.3,16C310.4,338.6,312.4,341.1,314.1,343.6z"/>
					</g>
				</g>
				<g>
					<g>
						<path fill="#6885A9" d="M249.5,371.6c-1.3-1.1-2.8-2.1-4.5-3.1c-10.5-6.1-25.3-8-36.9-5.3c8.4-9.5,19.6-16.5,32.3-19.6
							c1.6,0.7,3.1,1.4,4.6,2.3C258.1,353.4,259.9,364.7,249.5,371.6z"/>
					</g>
				</g>
				<g>
					<g>
						<path fill="none" d="M249.5,371.6c-1.3-1.1-2.8-2.1-4.5-3.1c-10.5-6.1-25.3-8-36.9-5.3c-3.3,0.8-6.4,1.9-9,3.4
							c-0.4,0.2-0.8,0.5-1.2,0.7c-9.2-7.6-9.1-17.4,1.2-23.4c10.5-6.1,28-6,41.3-0.4c1.6,0.7,3.1,1.4,4.6,2.3
							C258.1,353.4,259.9,364.7,249.5,371.6z"/>
					</g>
					<g>
						<path fill="#231F20" d="M249.4,373.4l-0.9-0.7c-1.2-1-2.7-2-4.3-2.9c-6.9-4-16.1-6.3-25.2-6.3c-3.7,0-7.3,0.4-10.6,1.1
							s-6.1,1.8-8.6,3.2c-0.4,0.2-0.8,0.5-1.1,0.7l-0.9,0.6l-0.9-0.7c-5.1-4.2-7.7-9.2-7.2-14.1c0.4-4.6,3.5-8.8,8.6-11.8
							c5.3-3.1,12.7-4.8,20.7-4.8c7.6,0,15.4,1.5,22,4.3c1.7,0.7,3.3,1.5,4.7,2.3c7.4,4.3,11.8,10.1,12,15.9
							c0.1,4.7-2.5,9.1-7.4,12.4L249.4,373.4z M219.1,360.5c9.6,0,19.3,2.4,26.7,6.7c1.4,0.8,2.6,1.6,3.8,2.5
							c3.5-2.6,5.3-5.7,5.2-9.2c-0.1-4.8-4-9.6-10.5-13.4c-1.4-0.8-2.8-1.5-4.4-2.2c-6.2-2.6-13.6-4.1-20.8-4.1
							c-7.5,0-14.3,1.6-19.2,4.4c-4.4,2.5-6.9,5.8-7.2,9.4s1.6,7.4,5.3,10.8c0.1-0.1,0.2-0.1,0.3-0.2c2.7-1.5,5.8-2.7,9.4-3.6
							C211.3,360.9,215.1,360.5,219.1,360.5z"/>
					</g>
				</g>
				<g>
					<g>
						<path fill="#4B6E98" d="M317.4,378.9c-1.2,2.8-2.9,5.5-5,8.1l12.8,13.3l30.4-4.7V373L317.4,378.9z"/>
					</g>
					<g>
						<path fill="#231F20" d="M324.7,402l-14.2-14.9l0.8-1c2-2.5,3.6-5.1,4.8-7.8l0.3-0.8l40.7-6.3V397L324.7,402z M314.5,386.9
							l11.3,11.8l28.3-4.4v-19.6l-35.7,5.5C317.4,382.6,316.1,384.8,314.5,386.9z"/>
					</g>
				</g>
				<g>
					<g>
						<path fill="#6885A9" d="M319.6,417.2l-7.6,4.4l-38.2-12.2c-4.5,1.2-9.2,2.2-14,2.9l-10.2,22l-32.9-1.4l-15.8-23.1
							c-5.1-1.1-10-2.5-14.9-4.1l-35.5,9.1l-12.8-7.4l0,0l-12.1-7v22.7l24.9,14.4l35.5-9.1c4.9,1.6,9.9,2.9,14.9,4.1l15.8,23.1
							l32.9,1.4l10.2-22c4.8-0.7,9.5-1.7,14-2.9l38.2,12.2l21.6-12.5v-22.7L319.6,417.2L319.6,417.2z"/>
					</g>
					<g>
						<path fill="#231F20" d="M250.5,458.5l-34.6-1.4L200,433.8c-4.8-1.1-9.5-2.4-14.1-3.8l-35.7,9.2L123.9,424v-26.1l26.6,15.4
							l35.4-9.1l0.4,0.1c4.8,1.6,9.8,2.9,14.8,4l0.6,0.1l15.8,23l31.1,1.3l10.1-21.9l0.8-0.1c4.8-0.7,9.4-1.7,13.9-2.8l0.4-0.1
							l38,12.1l23.3-13.4v26.1l-22.9,13.2l-38.4-12.2c-4.2,1.1-8.5,2-13,2.7L250.5,458.5z M217.5,454.1l31.1,1.3l10.1-21.9l0.8-0.1
							c4.8-0.7,9.4-1.7,13.9-2.8l0.4-0.1l0.4,0.1l37.6,12l20.3-11.7v-19.2l-19.9,11.5L273.8,411c-4.2,1.1-8.5,2-13,2.7l-10.3,22.2
							l-34.6-1.4L200,411.2c-4.8-1.1-9.5-2.4-14.1-3.8l-35.7,9.2L127,403.2v19.2l23.6,13.6l35.4-9.1l0.4,0.1c4.8,1.6,9.7,2.9,14.8,4
							l0.6,0.1L217.5,454.1z"/>
					</g>
				</g>
				<g>
					<g>
						<path fill="#4B6E98" d="M141.2,380c-2.7-2.8-5.1-5.7-7-8.6l-40-9.1l-2.4-19V366l2.4,19l36.8,8.4L141.2,380z"/>
					</g>
					<g>
						<path fill="#231F20" d="M131.6,394.9L92.8,386l-2.5-20.2v-22.7l3-0.2l2.2,17.9l39.6,9l0.3,0.5c1.9,2.8,4.2,5.7,6.9,8.4
							l0.9,0.9L131.6,394.9z M95.5,383.6l34.9,8l8.9-11.5c-2.3-2.4-4.3-4.9-6-7.4l-40-9.1v2.2L95.5,383.6z"/>
					</g>
				</g>
				<g>
					<polygon fill="#F0F7FF" points="125.4,400.5 125.4,423.1 150.3,437.5 150.3,414.9 					"/>
					<path fill="#231F20" d="M151.8,440.1L123.9,424v-26.1l27.9,16.1V440.1z M126.9,422.3l21.9,12.7v-19.2l-21.9-12.7V422.3z"/>
				</g>
				<g>
					<polygon fill="#F0F7FF" points="312,421.6 312,444.2 333.6,431.8 333.6,409.1 					"/>
					<path fill="#231F20" d="M310.5,446.8v-26.1l24.6-14.2v26.1L310.5,446.8z M313.5,422.4v19.2l18.6-10.7v-19.2L313.5,422.4z"/>
				</g>
				<g>
					<polygon fill="#6885A9" points="322,315.8 322,338.4 316.4,345.6 313.2,344.9 306.2,336.3 					"/>
					<path fill="#231F20" d="M317,347.3l-4.7-1.1l-8.1-9.9l19.2-25v27.6L317,347.3z M314,343.6l1.8,0.4l4.7-6v-17.7l-12.4,16.1
						L314,343.6z"/>
				</g>
				<g>
					<g>
						<polygon fill="#6885A9" points="91.8,343.2 91.8,365.9 94.1,384.9 131,393.3 141.2,380 134.2,371.3 94.1,362.2 						"/>
					</g>
					<g>
						<path fill="#231F20" d="M131.6,394.9L92.8,386l-2.5-20.2v-22.7l3-0.2l2.2,17.9l39.5,9l8.1,9.9L131.6,394.9z M95.5,383.6
							l34.9,8l8.9-11.6l-6-7.3l-40.1-9.1v2.2L95.5,383.6z"/>
					</g>
				</g>
				<g>
					<g>
						<polygon fill="#6885A9" points="355.6,373 355.6,395.7 325.2,400.4 312.5,387 317.4,378.9 						"/>
					</g>
					<g>
						<path fill="#231F20" d="M324.7,402l-14.1-14.7l5.9-9.7l40.6-6.3V397L324.7,402z M314.4,386.8l11.4,11.9l28.3-4.4v-19.6
							l-35.8,5.5L314.4,386.8z"/>
					</g>
				</g>
			</g>
		</g>
	</g>
</g>
</svg>
