<?xml version="1.0" encoding="utf-8"?>
<!-- Generator: Adobe Illustrator 25.3.1, SVG Export Plug-In . SVG Version: 6.00 Build 0)  -->
<svg version="1.1" id="Layer_1" xmlns="http://www.w3.org/2000/svg" xmlns:xlink="http://www.w3.org/1999/xlink" x="0px" y="0px"
	 width="573.5px" height="570.4px" viewBox="0 0 573.5 570.4" enable-background="new 0 0 573.5 570.4" xml:space="preserve">
<g id="Layer_1_1_" display="none">
	<polygon display="inline" fill="none" stroke="#A7A9AC" stroke-width="4" stroke-miterlimit="10" points="482.9,406.6 267.5,530.9 
		52.1,406.6 52.1,157.8 267.5,33.4 482.9,157.8 	"/>
</g>
<g id="Layer_2_1_">
	<g>
		<g>
			<path fill="#4B6E98" d="M344.6,405c-20,0-40.2-5.1-55.4-13.9c-15.6-9-24.6-21.1-24.6-33.2v-10h4c0,10.6,8.2,21.4,22.6,29.7
				c14.7,8.5,34.1,13.3,53.4,13.3l0,0c15.9,0,30.4-3.3,40.8-9.3c10-5.8,15.5-13.6,15.6-22.1v-3.2l4,2v1.2v9.8
				c0,10.1-6.3,19.2-17.6,25.8C376.4,401.5,361.2,405,344.6,405z"/>
			<path fill="#231F20" d="M266.7,347.9c0,10.9,8,22.4,23.6,31.4s35.5,13.6,54.4,13.6c15.7,0,30.6-3.2,41.8-9.6
				c11-6.4,16.5-14.9,16.6-23.8l0,0v9.7c0,0,0,0,0,0.1v0.1l0,0c0,9-5.5,17.6-16.6,24c-11.2,6.5-26.1,9.6-41.8,9.6
				c-18.9,0-38.9-4.6-54.4-13.6c-15.6-9-23.6-20.5-23.6-31.4V347.9 M270.7,347.9h-8v10c0,12.8,9.3,25.5,25.6,34.9
				c15.6,9,36.1,14.1,56.4,14.1c16.9,0,32.5-3.6,43.8-10.1c10.5-6.1,16.9-14.3,18.3-23.5h0.3v-4v-0.1v-0.1v-9.7v-2.5l-2.2-1.1
				l-5.7-2.9l-0.1,6.4c-0.1,7.8-5.3,15-14.6,20.4c-10.1,5.9-24.3,9.1-39.8,9.1c-18.9,0-38-4.8-52.4-13.1
				C278.5,368,270.7,357.8,270.7,347.9L270.7,347.9z"/>
		</g>
		<g>
			<path fill="#B1CAEC" d="M344.6,395c-20,0-40.2-5.1-55.4-13.9c-15.6-9-24.6-21.1-24.6-33.2c0-10.1,6.3-19.3,17.6-25.9
				c11-6.4,26.2-9.9,42.8-9.9c2.6,0,5.3,0.1,7.9,0.3h0.5l70.9,41l0.2,0.9c2.3,11.9-3.9,23.1-17.2,30.7
				C376.4,391.4,361.2,395,344.6,395L344.6,395z"/>
			<path fill="#231F20" d="M325.1,314.2c2.6,0,5.2,0.1,7.8,0.3l69.8,40.3c2.1,10.6-3.2,21.1-16.2,28.6c-11.2,6.5-26.1,9.6-41.8,9.6
				c-18.9,0-38.9-4.6-54.4-13.6c-28.5-16.4-31.6-41.3-6.9-55.6C294.5,317.4,309.4,314.2,325.1,314.2 M325.1,310.2
				c-16.9,0-32.5,3.6-43.8,10.1c-12,6.9-18.6,16.7-18.6,27.6c0,12.8,9.3,25.5,25.6,34.9c15.6,9,36.1,14.1,56.4,14.1
				c16.9,0,32.5-3.6,43.8-10.1c14-8.1,20.6-20.1,18.1-32.9l-0.4-1.8l-1.6-0.9L334.9,311l-0.8-0.5l-0.9-0.1
				C330.5,310.3,327.7,310.2,325.1,310.2L325.1,310.2z"/>
		</g>
		<g>
			<path fill="#4B6E98" d="M362,362.5c-0.3,0-0.7-0.1-1-0.3c-0.6-0.4-1-1-1-1.7v-29.2c0-0.7,0.4-1.4,1-1.7c0.3-0.2,0.7-0.3,1-0.3
				s0.7,0.1,1,0.3l10,5.8c0.6,0.4,1,1,1,1.7v17.7c0,0.7-0.4,1.4-1,1.7l-10,5.8C362.7,362.4,362.4,362.5,362,362.5z"/>
			<path fill="#231F20" d="M362,331.3l10,5.8v17.7l-10,5.8V331.3 M362,327.3c-0.7,0-1.4,0.2-2,0.5c-1.2,0.7-2,2-2,3.5v29.2
				c0,1.4,0.8,2.8,2,3.5c0.6,0.4,1.3,0.5,2,0.5s1.4-0.2,2-0.5l10-5.8c1.2-0.7,2-2,2-3.5V337c0-1.4-0.8-2.7-2-3.5l-10-5.8
				C363.4,327.4,362.7,327.3,362,327.3L362,327.3z"/>
		</g>
		<g>
			<path fill="#6885A9" d="M362,362.5c-0.3,0-0.7-0.1-1-0.3l-50.1-28.9c-0.6-0.4-1-1-1-1.7v-29.2c0-0.7,0.4-1.4,1-1.7
				c0.3-0.2,0.7-0.3,1-0.3s0.7,0.1,1,0.3l50.1,28.9c0.6,0.4,1,1,1,1.7v29.2c0,0.7-0.4,1.4-1,1.7C362.7,362.4,362.4,362.5,362,362.5z
				"/>
			<path fill="#231F20" d="M311.9,302.4l50.1,28.9v29.2l-50.1-28.9V302.4 M311.9,298.4c-0.7,0-1.4,0.2-2,0.5c-1.2,0.7-2,2-2,3.5
				v29.2c0,1.4,0.8,2.8,2,3.5L360,364c0.6,0.4,1.3,0.5,2,0.5s1.4-0.2,2-0.5c1.2-0.7,2-2,2-3.5v-29.2c0-1.4-0.8-2.8-2-3.5l-50.1-28.9
				C313.3,298.5,312.6,298.4,311.9,298.4L311.9,298.4z"/>
		</g>
		<g>
			<g>
				<polygon fill="#B1CAEC" points="473.6,182 195.8,21.4 220.9,6.9 498.6,167.5 498.6,386.7 473.6,401.2 				"/>
			</g>
		</g>
		<g>
			<g>
				<polygon fill="#4B6E98" points="473.6,179.7 498.6,165.2 498.6,386.7 473.6,401.2 				"/>
				<path fill="#231F20" d="M496.6,168.7v216.9l-21.1,12.2V180.9L496.6,168.7 M500.6,161.7l-6,3.5l-21.1,12.2l-2,1.2v2.3v216.9v6.9
					l6-3.5l21.1-12.2l2-1.2v-2.3V168.7V161.7L500.6,161.7z"/>
			</g>
		</g>
		<g>
			<polygon fill="#CDD9EE" points="197.8,239.5 197.8,17.9 474,179.2 474,400.7 			"/>
			<path fill="#231F20" d="M199.8,21.4l272.2,159v216.9l-272.2-159L199.8,21.4 M195.8,14.5v6.9v216.9v2.3l2,1.2l272.2,159l6-2.5
				v-0.9V180.5V178l-2-1.2l-272.2-159L195.8,14.5L195.8,14.5z"/>
		</g>
		<g>
			<polygon fill="#F0F7FF" points="436.6,159.7 300.2,295.5 199.9,238.3 199.9,232.9 337.4,101.8 			"/>
		</g>
		<g>
			<polygon fill="#F0F7FF" points="461,173.9 472,180.4 472,240.8 374.5,338.4 324.8,309.8 			"/>
		</g>
		<g>
			<g>
				<polygon fill="#6885A9" points="41,420.8 41,397.4 258.9,523.3 364,462.6 364,486 258.9,546.7 				"/>
				<path fill="#231F20" d="M43,400.9l216,124.7l103-59.5v18.8l-103,59.5L43,419.7V400.9 M39,394v6.9v18.8v2.3l2,1.2l216,124.7
					l2,1.2l2-1.2l103-59.5l2-1.2v-2.3v-18.8v-6.9l-6,3.5L259,521L45,397.4L39,394L39,394z"/>
			</g>
		</g>
		<g>
			<polygon fill="#4B6E98" stroke="#231F20" stroke-width="4" stroke-miterlimit="10" points="362,466.1 362,484.9 258.9,544.3 
				258.9,525.6 			"/>
		</g>
		<g>
			<polygon fill="#B1CAEC" points="39,400.9 146,339.1 366,466.1 258.9,527.9 			"/>
			<path fill="#231F20" d="M146,341.4l216,124.7l-103,59.5L43,400.9L146,341.4 M146,336.8l-2,1.2L41,397.4l-6,3.5l6,3.5l216,124.7
				l2,1.2l2-1.2l103-59.5l6-3.5l-6-3.5L148,337.9L146,336.8L146,336.8z"/>
		</g>
		<polygon fill="#6885A9" stroke="#231F20" stroke-width="4" stroke-linejoin="round" stroke-miterlimit="10" points="77,402.6 
			256.1,505.2 329.6,462.6 151.1,359 		"/>
	</g>
	<g>
		<g>
			<path fill="#231F20" d="M221,9.2l271.7,157.3v219.9l-21.1,12.2L404.8,359c0.6,4.4,0,5.7-1.8,9.8v0.6c0,9-5.5,17.6-16.7,24
				c-11.2,6.5-26.1,9.6-41.8,9.6c-18.9,0-38.9-4.6-54.4-13.6c-15.6-9-23.6-20.5-23.6-31.4v-0.2c-1.3-3.2-2-6.6-2-9.9
				c0-10.1,6.3-19.3,17.6-25.9c7.6-4.4,17.1-7.4,27.6-8.9v-10.9c0-0.4,0.1-0.7-24.8-14.8l-85.3-49.2V21.4L221,9.2 M221,0l-4,2.3
				l-21.1,12.2l-4,2.3v4.6v216.9v4.6l4,2.3L302,305.8v0.7c-8.9,1.9-17,4.8-23.6,8.7c-14,8.1-21.6,19.7-21.6,32.8
				c0,3.8,0.7,7.6,2,11.4c0.6,13.8,10.6,27.2,27.5,37c16.2,9.3,37.5,14.7,58.4,14.7c17.6,0,33.9-3.8,45.8-10.7
				c12.9-7.5,20.2-18.1,20.6-30c0.2-0.4,0.3-0.8,0.4-1.2l56,33.4l4,2.3l4-2.3l21.1-12.2l4-2.3v-4.6v-217v-4.6l-4-2.3L225,2.3L221,0
				L221,0z"/>
		</g>
		<g>
			<g>
				<path fill="#231F20" d="M146,341.4l216,124.7v18.8l-103,59.5L43,419.7v-18.8L146,341.4 M146,332.2l-4,2.3L39,394l-4,2.3v4.6
					v18.8v4.6l4,2.3l216,124.7l4,2.3l4-2.3l103-59.5l4-2.3v-4.6v-18.8v-4.6l-4-2.3L150,334.5L146,332.2L146,332.2z"/>
			</g>
		</g>
	</g>
</g>
</svg>
