<?xml version="1.0" encoding="utf-8"?>
<!-- Generator: Adobe Illustrator 25.3.1, SVG Export Plug-In . SVG Version: 6.00 Build 0)  -->
<svg version="1.1" id="Layer_8_copy" xmlns="http://www.w3.org/2000/svg" xmlns:xlink="http://www.w3.org/1999/xlink" x="0px"
	 y="0px" width="134px" height="122.4px" viewBox="0 0 134 122.4" enable-background="new 0 0 134 122.4" xml:space="preserve">
<g id="Layer_7_copy">
</g>
<path opacity="0.4" fill="#000000" enable-background="new    " d="M76.1,65.4c-2.8,0-5.6,0.1-8.2,0.3v49.1c2.7,0.1,5.4,0.3,8.2,0.3
	c32,0,57.9-11.1,57.9-24.8C134,76.5,108.1,65.4,76.1,65.4z"/>
<circle fill="#DAE1ED" cx="66.6" cy="61.2" r="53.1"/>
<path fill="#7184A2" d="M116,59.2c0-27.8-22-50.3-49.6-51.1c-28,0.8-50.6,22.6-52.8,50.2c0,0.3,0,0.6,0,0.9
	c0,28.3,22.9,51.2,51.2,51.2S116,87.5,116,59.2z"/>
<path fill="#B9C4D7" d="M104.7,48.6c0-11.6-4.2-22.3-11.2-30.5c-8-6-17.8-9.7-28.5-10C51.4,8.5,39.1,14,29.9,22.8l0,0
	c-9.2,8.8-15.2,20.9-16.3,34.3l0,0c0,0.3,0,0.6,0,0.8c0,3.5,0.4,6.8,1,10.1C22,84.4,38.4,95.7,57.5,95.7
	C83.6,95.7,104.7,74.6,104.7,48.6z"/>
<path fill="#D0D8E9" d="M29.9,22.8L29.9,22.8C22.7,29.6,17.5,38.4,15,48.3c7,12.1,20.1,20.1,35,20.1c22.4,0,40.5-18.1,40.5-40.5
	c0-4.7-0.8-9.1-2.3-13.3C81.4,10.6,73.5,8.2,65,8C51.4,8.5,39.1,14,29.9,22.8z"/>
<circle id="Outline" fill="none" stroke="#000000" stroke-width="3" stroke-miterlimit="10" cx="66.6" cy="61.2" r="53.1"/>
<ellipse fill="none" stroke="#3C506D" stroke-width="2" stroke-miterlimit="10" cx="66.5" cy="46.1" rx="50.4" ry="22.2"/>
<ellipse fill="none" stroke="#3C506D" stroke-width="2" stroke-miterlimit="10" cx="66.5" cy="76.3" rx="50.4" ry="22.2"/>
<ellipse fill="none" stroke="#3C506D" stroke-width="2" stroke-miterlimit="10" cx="66.5" cy="61.2" rx="23.5" ry="53.2"/>
<path opacity="0.4" fill="#000000" enable-background="new    " d="M91.7,85.8H41c-7.2,0-13-5.8-13-13v-5.9c0-7.2,5.8-13,13-13h50.7
	c7.2,0,13,5.8,13,13v5.9C104.7,80,98.9,85.8,91.7,85.8z"/>
<g>
	<path fill="#FFFFFF" d="M96.8,79.4c-20.2,2.2-40.6,2.2-60.9,0c-7.2-0.9-13-7.8-13-14.8c0-1.9,0-3.9,0-5.8c0-7,5.8-13.8,13-14.8
		c20.2-2.2,40.6-2.2,60.9,0c7.2,0.9,13,7.8,13,14.8c0,1.9,0,3.9,0,5.8C109.7,71.7,103.9,78.5,96.8,79.4z"/>
	<path fill="none" stroke="#000000" stroke-width="2" stroke-miterlimit="10" d="M96.8,79.4c-20.2,2.2-40.6,2.2-60.9,0
		c-7.2-0.9-13-7.8-13-14.8c0-1.9,0-3.9,0-5.8c0-7,5.8-13.8,13-14.8c20.2-2.2,40.6-2.2,60.9,0c7.2,0.9,13,7.8,13,14.8
		c0,1.9,0,3.9,0,5.8C109.7,71.7,103.9,78.5,96.8,79.4z"/>
</g>
<g>
	<g>
		<path fill="#000000" d="M33,73c0-7.4,0-14.9,0-22.3c2.7-0.4,5.4-0.8,8.1-1.1c2.2-0.3,4.2,0,6,0.9s3.2,2.3,4.2,4.2s1.5,4.1,1.5,6.5
			c0,0.4,0,0.8,0,1.2c0,2.4-0.5,4.6-1.5,6.5s-2.4,3.3-4.1,4.2c-1.8,0.9-3.8,1.2-6,1C38.5,73.8,35.7,73.4,33,73z M39,54.3
			c0,5,0,10.1,0,15.1c0.7,0.1,1.4,0.1,2.1,0.2c1.7,0.1,3.1-0.4,4-1.6s1.4-3.1,1.4-5.6c0-0.4,0-0.7,0-1.1c0-2.5-0.5-4.3-1.4-5.5
			s-2.3-1.7-4.1-1.6C40.4,54.2,39.7,54.2,39,54.3z"/>
		<path fill="#000000" d="M77.2,75.3c-2,0.1-4.1,0.2-6.1,0.2c-3-5.6-6-11.4-9-17c0,5.7,0,11.4,0,17c-2,0-4.1-0.1-6.1-0.2c0-9,0-18,0-27
			c2-0.1,4.1-0.2,6.1-0.2c3,5.6,6,11.4,9,17c0-5.7,0-11.4,0-17c2,0,4.1,0.1,6.1,0.2C77.2,57.3,77.2,66.3,77.2,75.3z"/>
		<path fill="#000000" d="M94.2,67.5c0-0.8-0.3-1.5-0.9-1.9c-0.6-0.5-1.7-0.9-3.3-1.4c-1.6-0.5-2.9-1-3.9-1.5c-3.3-1.6-4.9-4-4.9-6.9
			c0-1.5,0.4-2.8,1.2-3.8c0.8-1.1,2-1.9,3.5-2.3c1.5-0.5,3.2-0.6,5-0.4c1.8,0.2,3.4,0.7,4.9,1.5c1.4,0.8,2.6,1.8,3.3,2.9
			c0.8,1.2,1.2,2.4,1.2,3.8c-2-0.1-4-0.2-6.1-0.3c0-1-0.3-1.8-0.9-2.3c-0.6-0.6-1.5-0.9-2.6-1s-1.9,0.1-2.6,0.5
			c-0.6,0.4-0.9,1-0.9,1.8c0,0.7,0.3,1.3,1,1.8c0.7,0.6,1.9,1.1,3.7,1.7c1.7,0.6,3.2,1.2,4.3,1.8c2.7,1.5,4.1,3.3,4.1,5.8
			c0,1.9-0.8,3.6-2.5,4.9c-1.7,1.4-3.9,2.3-6.8,2.6c-2,0.2-3.9,0.1-5.6-0.6c-1.7-0.6-2.9-1.6-3.8-2.9c-0.8-1.3-1.3-2.8-1.3-4.6
			c2,0,4.1-0.1,6.1-0.2c0,1.4,0.4,2.4,1.1,3s1.8,0.9,3.4,0.7c1-0.1,1.8-0.3,2.4-0.8C93.9,68.8,94.2,68.2,94.2,67.5z"/>
	</g>
</g>
</svg>
