<?xml version="1.0" encoding="utf-8"?>
<!-- Generator: Adobe Illustrator 25.3.1, SVG Export Plug-In . SVG Version: 6.00 Build 0)  -->
<svg version="1.1" id="Layer_1" xmlns="http://www.w3.org/2000/svg" xmlns:xlink="http://www.w3.org/1999/xlink" x="0px" y="0px"
	 width="578.5px" height="549.3px" viewBox="0 0 578.5 549.3" enable-background="new 0 0 578.5 549.3" xml:space="preserve">
<g>
	<polygon opacity="0.4" fill="#000000" enable-background="new    " points="395.6,519.9 331.9,525.6 261.4,235.8 562.9,417 	"/>
	<g>
		<polygon fill="#FFFFFF" points="86.1,378.5 86.4,63.1 185.3,5.8 430.6,148 430.6,463.1 331.4,520.6 		"/>
		<path fill="#231F20" d="M185.3,11.6L425.6,151v309.3l-94.2,54.6L91.1,375.7L91.4,66L185.3,11.6 M185.3,0l-5,2.9l-94,54.4l-5,2.9
			V66L81,375.7v5.8l5,2.9l240.3,139.2l5,2.9l5-2.9l94.2-54.6l5-2.9v-5.8V150.9v-5.8l-5-2.9L190.3,2.9L185.3,0L185.3,0z"/>
	</g>
	<g>
		<polygon fill="#7F1A0A" points="137.5,246.4 99.2,224.3 91.4,228.8 129.6,250.9 129.6,317.2 137.5,312.7 		"/>
		<polygon fill="#7F1A0A" points="150.2,253.7 142.4,258.2 230.8,309.3 230.8,375.6 238.6,371.1 238.6,304.8 		"/>
		<polygon fill="#7F1A0A" points="251.4,312.1 243.5,316.6 331.9,367.7 331.9,434 339.8,429.5 339.8,363.2 		"/>
	</g>
	<polygon fill="#7F1A0A" points="98.9,142.2 91.1,146.7 179.5,197.8 179.5,264.1 187.3,259.6 187.3,193.3 	"/>
	<polygon fill="#7F1A0A" points="200.9,201.1 193.1,205.6 281.5,256.7 281.5,323 289.3,318.5 289.3,252.2 	"/>
	<polygon fill="#7F1A0A" points="303.5,260.4 295.7,264.9 330.9,286.3 330.9,352.6 338.8,348.1 338.8,281.8 	"/>
	<polygon fill="#7F1A0A" points="98.9,304.9 91.1,309.4 179.5,360.4 179.5,426.7 187.3,422.2 187.3,356 	"/>
	<polygon fill="#7F1A0A" points="200.9,363.8 193.1,368.3 281.5,419.3 281.5,485.6 289.3,481.1 289.3,414.8 	"/>
	<polygon fill="#7F1A0A" points="303.5,423 295.7,427.5 330.9,447.2 330.9,513.5 338.8,509 338.8,442.7 	"/>
	<polygon fill="#7F1A0A" points="137.5,83.8 99.2,61.7 91.4,66.2 129.6,88.3 129.6,154.5 137.5,150.1 	"/>
	<g>
		<polygon fill="#F34139" points="129.6,154.5 91.4,132.5 91.4,66.2 129.6,88.3 		"/>
		<polygon fill="#F34139" points="179.5,264.1 91.1,213 91.1,146.7 179.5,197.8 		"/>
		<polygon fill="#F34139" points="281.5,323 193.1,271.9 193.1,205.6 281.5,256.7 		"/>
		<polygon fill="#F34139" points="330.9,352.6 295.7,331.2 295.7,264.9 330.9,286.3 		"/>
		<polygon fill="#F34139" points="179.5,426.7 91.1,375.7 91.1,309.4 179.5,360.4 		"/>
		<polygon fill="#F34139" points="281.5,485.6 193.1,434.6 193.1,368.3 281.5,419.3 		"/>
		<polygon fill="#F34139" points="330.9,513.5 295.7,493.8 295.7,427.5 330.9,447.2 		"/>
		<polygon fill="#F34139" points="331.9,271.4 243.5,220.3 243.5,154 331.9,205.1 		"/>
		<polygon fill="#F34139" points="129.6,317.2 91.4,295.1 91.4,228.8 129.6,250.9 		"/>
		<polygon fill="#F34139" points="230.8,375.6 142.4,324.5 142.4,258.2 230.8,309.3 		"/>
		<polygon fill="#F34139" points="331.9,434 243.5,382.9 243.5,316.6 331.9,367.7 		"/>
		<polygon fill="#F34139" points="230.8,212.9 142.4,161.9 142.4,95.6 230.8,146.7 		"/>
	</g>
	<polygon fill="#7F1A0A" points="150.2,91.1 142.4,95.6 230.8,146.7 230.8,212.9 238.6,208.5 238.6,142.2 	"/>
	<polygon fill="#7F1A0A" points="251.4,149.5 243.5,154 331.9,205.1 331.9,271.4 339.8,266.9 339.8,200.6 	"/>
	<polygon fill="#F77F7F" points="129.6,88.3 223.8,33.6 185.3,11.6 91.4,66 	"/>
	<polygon fill="#F77F7F" points="142.4,95.6 236.6,41 325,92 230.8,146.7 	"/>
	<polygon fill="#F77F7F" points="243.5,154 337.7,99.4 426.1,150.4 331.9,205.1 	"/>
	<polygon fill="#7F1A0A" points="331.4,270.9 425.6,216.3 425.6,150 331.4,204.6 	"/>
	<polygon fill="#7F1A0A" points="331.4,351.3 425.6,296.6 425.6,230.3 331.4,285 	"/>
	<polygon fill="#7F1A0A" points="331.4,433.8 425.6,379.1 425.6,312.8 331.4,367.5 	"/>
	<polygon fill="#7F1A0A" points="331.4,513.9 425.6,459.3 425.6,393 331.4,447.6 	"/>
	<polygon fill="#7F1A0A" points="426.1,150.4 426.1,158.1 331.9,212.7 331.9,205.1 	"/>
	<polygon fill="#7F1A0A" points="223.7,33.7 223.7,41 129.6,95.6 129.6,88.3 	"/>
	<polygon fill="#7F1A0A" points="230.8,146.7 230.8,154 325,99.4 325,92.1 	"/>
	<polygon fill="#6B0C03" points="425.6,224.5 326.4,281.7 331.4,285 425.6,230.3 	"/>
	<polygon fill="#6B0C03" points="425.6,307.3 326.4,364.5 331.4,367.8 425.6,313.2 	"/>
	<polygon fill="#6B0C03" points="425.6,387.1 326.4,444.3 331.4,447.6 425.6,393 	"/>
	<path opacity="0.59" fill="#231F20" enable-background="new    " d="M213.7,512l51.8,3.2l27.8-16.1c0-36.6,0-60.3,0-96.9
		c0-7.9,0-18.9-5.7-28.5c-6.5-11-9.3-11.7-16.8-16.1c-28.6-16.7-75.2-43.4-103.7-60c-2.9,5-5.8,5.1-8.7,10.1L213.7,512z"/>
	<g id="Layer_2_1_">
		<g>
			<path fill="#FF9600" d="M257.5,378.4v96.8c0,4.9-1.6,8.4-4.2,10l-36.4,21c2.5-1.6,4.1-5.1,4.1-10v-96.8c0-9.2-5.6-20-12.5-24
				l-82.4-47.6c-2.7-1.6-5.3-1.9-7.3-1.1l0,0l34.8-20.1c2.3-1.8,5.5-2,9,0.1l82.4,47.6c3.3,1.9,6.2,5.3,8.5,9.3
				C255.9,368.2,257.5,373.5,257.5,378.4z"/>
		</g>
		<g>
			<path fill="#FFD44D" d="M221,446v-46.6c0-9.2-5.6-20-12.5-24l-82.4-47.6c-2.7-1.6-5.3-1.9-7.3-1.1l0,0l34.8-20.1
				c2.3-1.8,5.5-2,9,0.1l82.4,47.6c3.3,1.9,6.2,5.3,8.5,9.3C251.8,395,239.9,423.5,221,446z"/>
		</g>
		<g>
			<g>
				<path fill="#FFFFFF" d="M223.4,374.6c-0.2,0-0.4,0-0.6,0h-0.1h-0.9l0,0c-3.5-0.2-6.9-1.2-9.6-2.8c-3.7-2.1-5.6-5.1-5-8v-36.3
					c0-20.2-12.3-43.6-27.4-52.4c-3.7-2.1-7.2-3.2-10.6-3.2c-0.2,0-0.5,0-0.7,0c-2.7,4.1-4.1,9.9-4.1,16.8v36.4
					c0.2,2.4-1.1,4.5-3.7,6c-0.4,0.3-0.9,0.5-1.4,0.7c-0.3,0.1-0.7,0.3-1,0.4s-0.7,0.2-1.1,0.3c-0.5,0.1-1.1,0.3-1.7,0.4h-0.1
					c-0.3,0-0.6,0.1-0.9,0.1h-0.2c-0.3,0-0.6,0.1-0.8,0.1h-0.2c-0.3,0-0.5,0-0.8,0H152c-0.2,0-0.4,0-0.6,0v-0.9v0.9h-0.1h-0.9l0,0
					c-3.5-0.2-6.9-1.2-9.6-2.8c-3.6-2.1-5.5-5-5.1-7.9v-37.5c0-10.5,2.1-19.7,6.1-26.5c0.1-0.2,1.6-3.5,5.1-7.3l0.3-0.3
					c0.3-0.3,0.6-0.6,0.9-0.9c0.3-0.3,0.6-0.6,0.9-0.9c0.3-0.3,0.6-0.6,1-0.9c0.3-0.3,0.7-0.6,1-0.9c0.2-0.1,0.3-0.3,0.5-0.4
					c0,0,0.2-0.1,0.2-0.2v-0.5h0.6c0.1-0.1,0.4-0.3,0.4-0.3c0.2-0.1,0.3-0.2,0.5-0.4c0.2-0.1,0.4-0.3,0.6-0.4
					c0.2-0.1,0.4-0.3,0.6-0.4c0,0,0.5-0.3,0.7-0.4l0.3-0.2c0.5-0.3,1-0.6,1.5-0.8c0.1-0.1,0.3-0.2,0.4-0.2c0.1-0.1,0.2-0.1,0.4-0.2
					c0.3-0.1,0.6-0.3,0.9-0.4c0.2-0.1,0.3-0.1,0.5-0.2c0.1,0,0.2-0.1,0.3-0.1c0.1-0.1,0.3-0.1,0.5-0.2c0.2-0.1,0.5-0.2,0.7-0.3
					s0.5-0.2,0.7-0.3h0.1c0.3-0.1,0.5-0.2,0.7-0.3c0.3-0.1,0.5-0.2,0.8-0.3h0.1c0.2-0.1,0.5-0.1,0.7-0.2c0.2-0.1,0.5-0.1,0.7-0.2
					l0.3-0.1c0.2-0.1,0.4-0.1,0.6-0.2c0.2-0.1,0.5-0.1,0.7-0.2c0,0,0.1,0,0.2,0c0.3-0.1,0.5-0.1,0.8-0.2c0.3-0.1,0.6-0.1,0.9-0.1
					c1.9-0.5,3.8-0.7,5.8-0.7c1.3,0,2.5,0.1,3.8,0.3c4.5,0.6,9.2,2.3,14,5.1c24.3,14.1,44.2,51.9,44.2,84.3v39.4l-0.1-0.1
					c-0.4,1.7-1.6,3.2-3.6,4.4c-0.4,0.3-0.9,0.5-1.4,0.7c-0.4,0.1-0.7,0.3-1,0.4s-0.7,0.2-1.1,0.3c-0.5,0.1-1.1,0.3-1.7,0.4h-0.1
					c-0.3,0-0.6,0.1-0.9,0.1h-0.2c-0.3,0-0.6,0.1-0.8,0.1h-0.2c-0.3,0-0.6,0-0.9,0L223.4,374.6z"/>
			</g>
			<g>
				<path fill="#231F20" d="M173.9,240.2c1.2,0,2.4,0.1,3.7,0.3c4.3,0.6,8.9,2.2,13.6,5c24.1,13.9,43.7,51.3,43.7,83.5v37.7l0,0
					c0.2,1.9-0.9,3.8-3.3,5.2c-0.4,0.2-0.9,0.5-1.3,0.6c-0.3,0.1-0.6,0.2-1,0.4c-0.3,0.1-0.7,0.2-1,0.3c-0.5,0.1-1,0.2-1.6,0.3l0,0
					c-0.3,0.1-0.6,0.1-1,0.1c-0.1,0-0.1,0-0.2,0c-0.3,0-0.5,0.1-0.8,0.1c-0.1,0-0.1,0-0.2,0c-0.3,0-0.5,0-0.8,0c-0.1,0-0.1,0-0.2,0
					c-0.1,0-0.2,0-0.3,0c-0.2,0-0.4,0-0.6,0l0,0l0,0l0,0l0,0c-3.5-0.1-7.2-1-10-2.7c-3.5-2-5.1-4.7-4.6-7.1v-36.3
					c0-20.5-12.5-44.3-27.8-53.2c-3.9-2.3-7.7-3.3-11-3.3c-0.4,0-0.8,0-1.2,0l0,0l0,0c-2.9,4.2-4.5,10.2-4.5,17.7v36.5
					c0.2,1.9-0.9,3.8-3.3,5.1c-0.4,0.2-0.9,0.5-1.3,0.6c-0.3,0.1-0.6,0.2-1,0.4c-0.3,0.1-0.7,0.2-1,0.3c-0.5,0.1-1,0.2-1.6,0.3l0,0
					c-0.3,0.1-0.6,0.1-1,0.1c-0.1,0-0.1,0-0.2,0c-0.3,0-0.5,0.1-0.8,0.1c-0.1,0-0.2,0-0.2,0c-0.3,0-0.5,0-0.8,0c-0.1,0-0.2,0-0.3,0
					s-0.1,0-0.2,0c-0.2,0-0.4,0-0.6,0l0,0l0,0c0,0,0,0-0.1,0l0,0c-3.5-0.1-7.1-1-10-2.7c-3.4-2-5-4.6-4.6-7v-37.6
					c0-10.8,2.2-19.6,6-26.1l0,0c0,0,1.5-3.3,5-7c0.1-0.1,0.2-0.2,0.3-0.3c0.3-0.3,0.6-0.6,0.9-0.9c0.3-0.3,0.6-0.6,0.9-0.8
					c0.3-0.3,0.6-0.6,0.9-0.8c0.3-0.3,0.7-0.6,1-0.8c0.2-0.1,0.4-0.3,0.5-0.4c0.2-0.1,0.4-0.3,0.5-0.4l0,0c0.2-0.1,0.3-0.2,0.5-0.4
					l0.1-0.1c0.2-0.1,0.3-0.2,0.5-0.4c0.2-0.1,0.4-0.3,0.6-0.4c0.2-0.1,0.4-0.3,0.6-0.4c0.2-0.1,0.4-0.3,0.6-0.4
					c0.1,0,0.2-0.1,0.3-0.1c0.5-0.3,1-0.6,1.5-0.8c0.1-0.1,0.3-0.1,0.4-0.2c0.1-0.1,0.2-0.1,0.3-0.2c0.3-0.1,0.6-0.3,0.9-0.4
					c0.2-0.1,0.3-0.1,0.5-0.2c0.1,0,0.2-0.1,0.3-0.1c0.2-0.1,0.3-0.1,0.5-0.2c0.2-0.1,0.5-0.2,0.7-0.3s0.5-0.2,0.7-0.3l0,0
					c0.2-0.1,0.5-0.2,0.7-0.3l0,0c0.2-0.1,0.5-0.2,0.8-0.2c0,0,0,0,0.1,0c0.2-0.1,0.5-0.1,0.7-0.2c0.2-0.1,0.5-0.1,0.7-0.2
					c0.1,0,0.2,0,0.3-0.1c0.2-0.1,0.4-0.1,0.6-0.1c0.2-0.1,0.5-0.1,0.7-0.2c0.1,0,0.1,0,0.2,0c0.3-0.1,0.5-0.1,0.8-0.2
					c0.3-0.1,0.6-0.1,0.9-0.1C170.1,240.4,172,240.2,173.9,240.2 M173.9,238.3L173.9,238.3c-2.1,0-4.1,0.2-6,0.7
					c-0.3,0-0.6,0.1-0.8,0.1c-0.3,0-0.5,0.1-0.8,0.2c-0.1,0-0.1,0-0.2,0c-0.2,0.1-0.5,0.1-0.7,0.2c-0.2,0.1-0.4,0.1-0.7,0.2
					l-0.2,0.1h-0.1c-0.3,0.1-0.5,0.1-0.8,0.2c-0.2,0.1-0.5,0.1-0.7,0.2h-0.1l0,0l0,0c-0.3,0.1-0.5,0.2-0.8,0.3l0,0l0,0
					c-0.2,0.1-0.5,0.2-0.7,0.3h-0.1c-0.2,0.1-0.5,0.2-0.7,0.3c-0.3,0.1-0.5,0.2-0.8,0.3c-0.2,0.1-0.3,0.1-0.5,0.2
					c-0.1,0-0.2,0.1-0.3,0.1c-0.2,0.1-0.3,0.1-0.5,0.2c-0.3,0.1-0.6,0.3-0.9,0.4c-0.1,0.1-0.2,0.1-0.4,0.2c-0.2,0.1-0.3,0.2-0.5,0.2
					c-0.5,0.3-1.1,0.6-1.6,0.9l-0.1,0.1l-0.1,0.1l0,0l0,0c-0.2,0.1-0.4,0.2-0.6,0.3h-0.1l0,0l0,0c-0.2,0.1-0.4,0.3-0.6,0.4
					c-0.2,0.1-0.4,0.3-0.6,0.4c-0.2,0.1-0.4,0.2-0.5,0.4l-0.1,0.1l0,0l0,0H151v1c-0.1,0.1-0.3,0.2-0.4,0.3c-0.4,0.3-0.7,0.6-1.1,0.9
					c-0.4,0.3-0.7,0.6-1,0.9c-0.3,0.3-0.6,0.6-0.9,0.9c-0.3,0.3-0.6,0.6-0.9,1c-0.1,0.1-0.2,0.2-0.3,0.4c-3.4,3.7-5,7-5.3,7.5
					c-4.1,6.9-6.2,16.2-6.2,26.9v37.4c-0.5,3.2,1.6,6.5,5.5,8.8c2.6,1.5,5.8,2.5,9.1,2.8v0.1l1.8,0.1h0.1l0,0l0,0c0.2,0,0.4,0,0.6,0
					h0.2c0.1,0,0.2,0,0.3,0c0.3,0,0.6,0,0.8,0h0.1c0.1,0,0.1,0,0.2,0c0.3,0,0.6,0,0.9-0.1h0.1h0.1c0.3,0,0.6-0.1,0.9-0.1l0,0h0.2
					c0.6-0.1,1.2-0.2,1.8-0.4c0.4-0.1,0.8-0.2,1.1-0.3c0.4-0.1,0.7-0.3,1.1-0.4c0.6-0.2,1.1-0.5,1.5-0.8c2.9-1.7,4.4-4.2,4.2-6.9
					V289c0-6.4,1.3-11.9,3.7-15.8c0.1,0,0.1,0,0.2,0c3.2,0,6.5,1,10.1,3.1c14.8,8.6,26.9,31.7,26.9,51.5V364
					c-0.6,3.3,1.5,6.6,5.5,8.9c2.6,1.5,5.8,2.5,9.1,2.8v0.1l1.8,0.1h0.1l0,0c0.2,0,0.4,0,0.6,0c0.1,0,0.2,0,0.3,0s0.1,0,0.2,0
					c0.3,0,0.6,0,0.9,0h0.1h0.1c0.3,0,0.6,0,0.9-0.1h0.1h0.1c0.3,0,0.6-0.1,0.9-0.1l0,0l0,0l0,0h0.1c0.6-0.1,1.2-0.2,1.8-0.4
					c0.4-0.1,0.7-0.2,1.1-0.3c0.4-0.1,0.7-0.2,1.1-0.4c0.6-0.2,1.1-0.5,1.5-0.8c1.7-1,3-2.3,3.6-3.8l0.6,0.4V367v-37.7
					c0-15.9-4.6-33.4-13-49.4c-8.4-16.1-19.6-28.7-31.6-35.7c-4.9-2.8-9.7-4.6-14.3-5.2C176.5,238.4,175.2,238.3,173.9,238.3
					L173.9,238.3z"/>
			</g>
		</g>
		<g>
			<g>
				<path fill="#D1D3D4" d="M168,271.1L168,271.1L168,271.1c-2.9,4.2-4.5,10.2-4.5,17.7v36.5c0.2,1.9-0.9,3.8-3.3,5.1
					c-0.4,0.2-0.9,0.5-1.3,0.6c-0.3,0.1-0.6,0.2-1,0.4c-0.3,0.1-0.7,0.2-1,0.3c-0.5,0.1-1,0.2-1.6,0.3l0,0c-1.3,0.2-2.7,0.3-4.1,0.3
					v-34.8c0-7.5,1.7-13.5,4.5-17.7C157.5,276.6,163.4,271.7,168,271.1C167.9,271.1,167.9,271.1,168,271.1z"/>
			</g>
			<g>
				<path fill="#D1D3D4" d="M234.9,328.9c0-32.2-19.6-69.5-43.7-83.5c-4.8-2.7-9.3-4.4-13.6-5c-3.3-0.5-6.4-0.3-9.3,0.4
					c-10,1.6-16.7,6.7-20.7,11.1c2.5-1.1,5.3-1.9,8.5-2.4c2.9-0.7,6-0.9,9.3-0.4c4.3,0.6,8.9,2.2,13.6,5
					c24.1,13.9,43.7,51.3,43.7,83.5v36.1c3.3,0.1,6.6-0.5,9-1.9s3.4-3.2,3.3-5.2l0,0L234.9,328.9L234.9,328.9z"/>
			</g>
		</g>
		<g>
			<path fill="#231F20" stroke="#000000" stroke-width="2" stroke-linecap="round" stroke-miterlimit="10" d="M174.1,240.2
				c1.2,0,2.4,0.1,3.7,0.3c0.7,0.1,1.4,0.2,2.1,0.4c2.9,0.6,5.8,1.7,8.9,3.2c0.9,0.4,1.8,0.9,2.7,1.4c15,8.6,28.1,26.3,36,46.1
				c0.2,0.6,0.5,1.2,0.7,1.8c0.1,0.2,0.1,0.3,0.2,0.5c4.3,11.5,6.8,23.6,6.8,35l0,0v19.7l10,5.8c3.3,1.9,6.2,5.3,8.5,9.3
				c2.5,4.5,4.1,9.8,4.1,14.7v96.8c0,4.9-1.6,8.4-4.2,10l-36.4,21c-1,0.7-2.2,1-3.5,1c-1.5,0-3.2-0.5-5-1.5l-82.4-47.6
				c-6.9-4-12.5-14.7-12.5-24v-7.8v-89.1c0-5.6,2.1-9.3,5.2-10.6l0,0l0,0l17.8-10.3v-31.5c0-10.8,2.2-19.6,6-26.1l0,0
				c0,0,1.5-3.3,5-7c0.1-0.1,0.2-0.2,0.3-0.3s0.2-0.2,0.2-0.2c0.2-0.2,0.3-0.4,0.5-0.5c0.1-0.1,0.1-0.1,0.1-0.2
				c0.1-0.1,0.1-0.1,0.2-0.2c0.1-0.1,0.3-0.3,0.5-0.4c0.1-0.1,0.2-0.2,0.2-0.2c0.1-0.1,0.3-0.3,0.4-0.4l0.1-0.1
				c0.1-0.1,0.3-0.2,0.4-0.4c0.1-0.1,0.1-0.1,0.2-0.2c0.2-0.2,0.4-0.3,0.6-0.5c0.1-0.1,0.1-0.1,0.2-0.2c0.1-0.1,0.2-0.2,0.4-0.3
				c0.1-0.1,0.2-0.2,0.3-0.3s0.2-0.2,0.4-0.3l0,0c0.2-0.1,0.3-0.2,0.5-0.4l0,0c0,0,0.1,0,0.1-0.1l0,0c0.2-0.1,0.3-0.2,0.5-0.4
				c0.2-0.1,0.3-0.2,0.5-0.3c0.1,0,0.1-0.1,0.2-0.1c0.2-0.1,0.3-0.2,0.5-0.3s0.4-0.2,0.6-0.3l0.1-0.1c0.1,0,0.1-0.1,0.2-0.1
				c0.3-0.2,0.6-0.4,0.9-0.5c0.1-0.1,0.2-0.1,0.3-0.1s0.2-0.1,0.3-0.1c0.1-0.1,0.3-0.1,0.4-0.2c0.1-0.1,0.2-0.1,0.3-0.2h0.1
				c0.1,0,0.2-0.1,0.2-0.1c0.2-0.1,0.4-0.2,0.6-0.3c0.2-0.1,0.3-0.1,0.5-0.2c0.1,0,0.1-0.1,0.2-0.1h0.1c0.2-0.1,0.3-0.1,0.5-0.2
				c0.2-0.1,0.5-0.2,0.7-0.3c0.1,0,0.2-0.1,0.2-0.1s0.1,0,0.1-0.1c0.1,0,0.2-0.1,0.3-0.1l0,0c0.2-0.1,0.5-0.2,0.7-0.3l0,0
				c0.1,0,0.2-0.1,0.3-0.1h0.1c0.1,0,0.2-0.1,0.3-0.1c0,0,0,0,0.1,0c0.2-0.1,0.5-0.1,0.7-0.2c0.2-0.1,0.4-0.1,0.6-0.2l0,0
				c0.1,0,0.1,0,0.2,0c0.1,0,0.2,0,0.3-0.1c0.2-0.1,0.4-0.1,0.6-0.1c0.2-0.1,0.5-0.1,0.7-0.2c0.1,0,0.1,0,0.2,0
				c0.3-0.1,0.5-0.1,0.8-0.2c0.3-0.1,0.6-0.1,0.9-0.1C170.3,240.4,172.1,240.2,174.1,240.2 M168.2,271.1L168.2,271.1L168.2,271.1
				c-2.9,4.2-4.5,10.2-4.5,17.7v18.6l44.7,25.8v-5.6c0-20.5-12.5-44.3-27.8-53.2c-3.9-2.3-7.7-3.3-11-3.3
				C169,271,168.6,271,168.2,271.1 M174.1,235.4c-2.3,0-4.5,0.3-6.6,0.8c-0.3,0-0.5,0.1-0.8,0.1c-0.3,0.1-0.6,0.1-0.8,0.2
				c-0.1,0-0.2,0-0.3,0.1c-0.3,0.1-0.5,0.1-0.8,0.2c-0.2,0.1-0.5,0.1-0.7,0.2l-0.3,0.1c0,0,0,0-0.1,0h-0.1l0,0l0,0h-0.1
				c-0.2,0-0.4,0.1-0.5,0.1c-0.2,0.1-0.5,0.1-0.8,0.2h-0.1c-0.1,0-0.2,0.1-0.3,0.1h-0.1l-0.2,0.1h-0.1c-0.1,0-0.2,0.1-0.3,0.1l0,0
				c-0.3,0.1-0.5,0.2-0.8,0.3c0,0-0.1,0-0.1,0.1c-0.1,0-0.2,0.1-0.2,0.1h-0.1l-0.2,0.1l0,0c-0.1,0-0.2,0.1-0.2,0.1
				c-0.3,0.1-0.5,0.2-0.8,0.3c-0.2,0.1-0.4,0.1-0.5,0.2l0,0l0,0c-0.1,0-0.2,0.1-0.3,0.1c-0.2,0.1-0.3,0.2-0.5,0.2
				c-0.2,0.1-0.3,0.2-0.5,0.2l-0.1,0.1h-0.1c-0.1,0-0.1,0.1-0.2,0.1c0,0-0.1,0-0.1,0.1c-0.1,0.1-0.3,0.1-0.4,0.2
				c-0.2,0.1-0.3,0.2-0.5,0.2c-0.1,0-0.2,0.1-0.2,0.1h-0.1h-0.1c-0.1,0-0.2,0.1-0.3,0.1c-0.4,0.2-0.8,0.4-1.1,0.6
				c-0.1,0-0.1,0.1-0.2,0.1h-0.1l-0.1,0.1l0,0c-0.2,0.1-0.4,0.2-0.6,0.4c0,0,0,0-0.1,0c-0.2,0.1-0.4,0.2-0.6,0.4l-0.2,0.2
				c-0.2,0.1-0.4,0.2-0.5,0.4c-0.2,0.1-0.4,0.3-0.6,0.4l0,0c0,0,0,0-0.1,0c0,0,0,0-0.1,0l0,0l0,0c-0.2,0.1-0.3,0.2-0.5,0.4l0,0
				c-0.1,0.1-0.2,0.2-0.3,0.2l-0.1,0.1c-0.1,0.1-0.3,0.2-0.4,0.3h-0.1c-0.1,0.1-0.2,0.2-0.4,0.3c-0.1,0.1-0.1,0.1-0.2,0.2l0,0l0,0
				c-0.2,0.2-0.4,0.4-0.7,0.6l0,0c-0.1,0.1-0.2,0.1-0.2,0.2c-0.1,0.1-0.3,0.3-0.4,0.4l0,0h-0.1l0,0c-0.2,0.1-0.3,0.3-0.5,0.4l0,0
				c-0.1,0.1-0.1,0.1-0.2,0.2l-0.1,0.1c-0.2,0.2-0.3,0.3-0.5,0.5l0,0c-0.1,0.1-0.1,0.1-0.2,0.2c0,0-0.1,0.1-0.2,0.2l0,0l0,0
				c-0.2,0.2-0.4,0.4-0.6,0.6l0,0c-0.1,0.1-0.1,0.1-0.2,0.2l0,0l0,0c-0.1,0.1-0.2,0.2-0.3,0.3c-3.5,3.8-5.2,7.1-5.7,8
				c-4.3,7.4-6.6,17.1-6.6,28.3v28.7l-15.2,8.8c-4.9,2.1-7.8,7.6-7.8,14.8V426v7.8c0,10.9,6.6,23.2,14.9,28.1l82.4,47.6
				c2.5,1.4,4.9,2.1,7.3,2.1c2.1,0,4.2-0.6,6-1.7l36.3-21l0.1-0.1c4.1-2.6,6.4-7.6,6.4-14.1v-96.8c0-5.5-1.7-11.6-4.7-17
				c-2.7-4.9-6.4-8.9-10.3-11.1l-7.7-4.4v-17c0-11.6-2.4-24.3-7.1-36.7l-0.1-0.2c0-0.1-0.1-0.3-0.1-0.4c-0.2-0.6-0.5-1.2-0.7-1.9
				c-4.1-10.3-9.6-20.1-16-28.4c-6.7-8.7-14.3-15.6-22-20.1c-1-0.6-2-1.1-2.9-1.6c-3.4-1.7-6.7-2.9-10-3.6c-0.8-0.2-1.6-0.3-2.4-0.4
				C177,235.5,175.5,235.4,174.1,235.4L174.1,235.4z M168.4,304.6v-15.8c0-5.1,0.9-9.5,2.5-12.9c2.2,0.3,4.7,1.1,7.2,2.6
				c13.1,7.6,24.3,28.3,25.4,46.4L168.4,304.6L168.4,304.6z"/>
		</g>
		<g>
			<path fill="#FFBC00" d="M221,399.4v96.8c0,9.2-5.6,13.5-12.5,9.5L165.7,481l-26.5-15.3l-12.3-7.1l-0.8-0.5
				c-6.9-4-12.5-14.7-12.5-24v-96.8c0-9.2,5.6-13.5,12.5-9.5l25.5,14.7l44.5,25.7l12.3,7.1l0,0C215.4,379.5,221,390.2,221,399.4z"/>
		</g>
		<path fill="#FFD44D" d="M196.1,368.3l-69.2,90.3l-0.8-0.5c-6.9-4-12.5-14.7-12.5-24v-41.9l38.1-49.6L196.1,368.3z"/>
		<path fill="#FFD44D" d="M221,399.4v9.5L165.7,481l-26.5-15.3l69.2-90.3C215.4,379.5,221,390.2,221,399.4z"/>
		<g>
			<path fill="#231F20" d="M213.5,508.2c-1.7,0-3.6-0.5-5.5-1.6L125.6,459c-7.2-4.1-13-15.3-13-24.8v-96.8c0-7.2,3.3-11.9,8.5-11.9
				c1.7,0,3.6,0.5,5.5,1.6l82.4,47.6c7.2,4.1,13,15.3,13,24.8v96.8C222,503.5,218.6,508.2,213.5,508.2z M121.1,327.3
				c-4,0-6.6,3.9-6.6,10v96.8c0,8.9,5.4,19.3,12.1,23.1l82.4,47.6c1.6,0.9,3.1,1.4,4.5,1.4c4,0,6.6-3.9,6.6-10v-96.8
				c0-8.9-5.4-19.3-12.1-23.1l-82.4-47.6C124,327.8,122.5,327.3,121.1,327.3z"/>
		</g>
		<g>
			<g>
				<path fill="#FF9600" d="M184,404.8c0,7.7-3,12.8-7.6,14v25.3c0,1.4-0.2,2.6-0.5,3.7c-1.2,3.7-4.4,5-8.1,2.8
					c-4.8-2.7-8.6-10.1-8.6-16.5v-25.3c-4.6-6.5-7.6-15-7.6-22.8c0-11.8,7.1-17.4,16-12.4c0.1,0,0.2,0.1,0.3,0.1
					C176.7,379,184,392.9,184,404.8z"/>
			</g>
			<g>
				<path fill="#231F20" d="M171.2,452.6c-1.3,0-2.6-0.4-3.9-1.2c-5-2.9-9.1-10.6-9.1-17.3v-25c-4.8-6.9-7.6-15.5-7.6-23.1
					c0-4.5,1-8.3,2.9-11s4.6-4.2,7.8-4.2c2.1,0,4.4,0.6,6.7,1.9c0.1,0,0.2,0.1,0.3,0.2c9.2,5.3,16.7,19.6,16.7,31.9
					c0,7.6-2.8,13-7.6,14.7v24.6c0,1.5-0.2,2.8-0.6,4C175.8,450.9,173.8,452.6,171.2,452.6z M161.3,372.8c-2.5,0-4.7,1.2-6.3,3.4
					c-1.7,2.4-2.6,5.8-2.6,9.9c0,7.3,2.8,15.6,7.5,22.2l0.2,0.2v25.6c0,6,3.6,13,8.1,15.6c1,0.6,2,0.9,2.9,0.9
					c1.7,0,3.1-1.1,3.8-3.2c0.3-1,0.5-2.1,0.5-3.4v-26l0.7-0.2c4.3-1.1,6.9-6,6.9-13c0-11.6-7.1-25.2-15.8-30.2
					c-0.1,0-0.2-0.1-0.2-0.1C165,373.4,163.1,372.8,161.3,372.8z"/>
			</g>
		</g>
		<g>
			<path fill="#231F20" d="M184,404.8c0,7.7-3,12.8-7.6,14v25.3c0,1.4-0.2,2.6-0.5,3.7c-3.1-3.5-5.3-8.9-5.3-13.6v-25.3
				c-4.6-6.5-7.6-15-7.6-22.8c0-5.9,1.7-10.2,4.6-12.4c0.1,0,0.2,0.1,0.3,0.1C176.7,379,184,392.9,184,404.8z"/>
		</g>
	</g>
</g>
</svg>
