<?xml version="1.0" encoding="utf-8"?>
<!-- Generator: Adobe Illustrator 25.3.1, SVG Export Plug-In . SVG Version: 6.00 Build 0)  -->
<svg version="1.1" id="Layer_1" xmlns="http://www.w3.org/2000/svg" xmlns:xlink="http://www.w3.org/1999/xlink" x="0px" y="0px"
	 width="183.1px" height="136.6px" viewBox="0 0 183.1 136.6" enable-background="new 0 0 183.1 136.6" xml:space="preserve">
<g id="Layer_8">
	<g id="Layer_1_1_">
		<g id="Layer_3">
		</g>
		<g id="Layer_6">
		</g>
		<g id="Layer_7">
			<polygon opacity="0.4" fill="#000000" enable-background="new    " points="119.4,75.7 124.8,75.7 128.3,68.4 143.5,66.9 146.8,56.5 138.6,39.8 
				88.2,40.5 			"/>
		</g>
		<path fill="#CED8EB" stroke="#000000" stroke-linejoin="round" stroke-miterlimit="10" d="M116.2,43.3c-4.1-2.1-10.1-2-13.4,0.2
			c-2.6,1.7-2.8,4.2-0.7,6.2c3.3-2.1,9.3-2.2,13.3-0.1c0.9,0.4,1.6,0.9,2.1,1.5l0.1-0.1C120.9,48.8,120.3,45.3,116.2,43.3z"/>
		<g>
			<g>
				<path fill="#90A6BF" d="M139.2,62.9l-2.1,1.4l-11.4-2.9c-1.3,0.4-2.7,0.8-4,1.1L119,69l-9.6,0.1l-5-6.5c-1.5-0.2-3-0.6-4.4-0.9
					L89.7,65l-3.9-1.9l0,0l-3.7-1.8l0.4,6.6l7.5,3.8l10.2-3.3c1.5,0.4,2.9,0.7,4.4,0.9l5,6.5l9.6-0.1l2.6-6.6c1.4-0.3,2.7-0.7,4-1.1
					l11.4,2.9l6.1-4l-0.4-6.6L139.2,62.9L139.2,62.9z"/>
			</g>
		</g>
		<path fill="#6D84A5" stroke="#000000" stroke-miterlimit="10" d="M100,61.8C100,61.8,99.9,61.8,100,61.8L89.7,65h-0.1l0.4,6.6h0.1
			l10.2-3.3l0,0L100,61.8z"/>
		<g>
			<g>
				<polygon fill="#6D84A5" stroke="#000000" stroke-linejoin="round" stroke-miterlimit="10" points="71.4,45.1 71.7,51.7 
					72.7,57.2 83.7,59.1 86.4,55 84.2,52.6 72.4,50.6 				"/>
			</g>
		</g>
		<g>
			<g>
				<path fill="#6D84A5" stroke="#000000" stroke-linejoin="round" stroke-miterlimit="10" d="M82.4,42.7c0.3-0.8,0.8-1.7,1.3-2.5
					l-6.5-6.1l0.4,6.6l2.6,2.4L82.4,42.7z"/>
			</g>
		</g>
		<g>
			<g>
				<polygon fill="#6D84A5" stroke="#000000" stroke-miterlimit="10" points="149,49.3 149.3,56 140.5,57.9 136.6,54.2 137.9,51.7 
									"/>
			</g>
		</g>
		<g>
			<g>
				<path fill="#526E94" stroke="#000000" stroke-linejoin="round" stroke-miterlimit="10" d="M134.9,38l-1,1.5
					c0.8,0.8,1.6,1.6,2.2,2.4L137,42l1.5-2.2l-0.4-6.6L134.9,38L134.9,38z"/>
			</g>
		</g>
		<g>
			<g>
				<path fill="#CED8EB" stroke="#000000" stroke-linejoin="round" stroke-miterlimit="10" d="M138.2,33.2l-7.5-3.8l-10.2,3.3
					c-1.5-0.4-2.9-0.7-4.4-0.9l-5-6.5l-9.6,0.1L98.8,32c-1.4,0.3-2.7,0.7-4.1,1.1l-11.4-2.9l-6.1,4l6.5,6.1c-0.6,0.8-1,1.6-1.3,2.5
					l-11,2.2l1,5.5l11.8,2c0.6,0.8,1.4,1.6,2.2,2.4l-4.3,6.3l7.5,3.8l10.2-3.3c1.5,0.4,2.9,0.7,4.4,0.9l5,6.5l9.6-0.1l2.6-6.6
					c1.4-0.3,2.7-0.7,4-1.1l11.4,2.9l6.1-4l-6.5-6.1c0.6-0.8,1-1.6,1.3-2.5l11.1-2.4l-1-5.5l-11.9-2c-0.6-0.8-1.4-1.6-2.2-2.4
					L138.2,33.2z M117.6,50.9c-3.3,2.2-9.3,2.3-13.4,0.2s-4.7-5.5-1.4-7.7s9.3-2.3,13.4-0.2C120.3,45.3,120.9,48.8,117.6,50.9z"/>
			</g>
		</g>
		<path fill="#F4F4F4" d="M116,31.7l-5-6.5l-5.4,0.1l-19.3,38l3.4,1.7l10.2-3.3c1.5,0.4,2.9,0.7,4.4,0.9l0.2,0.2l5.2-10.3
			c-2-0.1-3.9-0.6-5.6-1.4c-4.1-2.1-4.7-5.5-1.4-7.7c2.9-1.9,8.1-2.2,12-0.8l5.2-10.1C118.6,32.2,117.3,32,116,31.7z"/>
		<path fill="#6D84A5" d="M114.8,42.7L114.8,42.7c-3.5,1.1-6.6,2.9-8.8,5.6c3.1-0.5,6.6-0.1,9.3,1.3c0.9,0.4,1.6,0.9,2.1,1.5
			l0.1-0.1c1.4-0.9,2.1-2.1,2.1-3.3v-0.1c0-0.3-0.1-0.6-0.2-0.8c0-0.1-0.1-0.2-0.1-0.3s0-0.1-0.1-0.2c0-0.1-0.1-0.2-0.2-0.3
			c0-0.1-0.1-0.1-0.1-0.2c-0.1-0.1-0.1-0.2-0.2-0.3s-0.1-0.1-0.2-0.2c-0.1-0.1-0.1-0.2-0.2-0.2c-0.1-0.1-0.2-0.2-0.2-0.2
			c-0.1-0.1-0.1-0.1-0.2-0.2c-0.1-0.1-0.2-0.2-0.3-0.2c-0.1-0.1-0.2-0.1-0.2-0.2c-0.1-0.1-0.3-0.2-0.4-0.3c-0.1,0-0.1-0.1-0.2-0.1
			c-0.2-0.1-0.5-0.3-0.7-0.4c-0.2-0.1-0.4-0.2-0.7-0.3C115.3,42.9,115,42.8,114.8,42.7z"/>
		<path fill="none" stroke="#000000" stroke-linejoin="round" stroke-miterlimit="10" d="M116.2,43.3c-4.1-2.1-10.1-2-13.4,0.2
			c-2.6,1.7-2.8,4.2-0.7,6.2c3.3-2.1,9.3-2.2,13.3-0.1c0.9,0.4,1.6,0.9,2.1,1.5l0.1-0.1C120.9,48.8,120.3,45.3,116.2,43.3z"/>
		<g>
			<g>
				<path fill="none" stroke="#000000" stroke-linejoin="round" stroke-miterlimit="10" d="M139.2,62.9l-2.1,1.4l-11.4-2.9
					c-1.3,0.4-2.7,0.8-4,1.1L119,69l-9.6,0.1l-5-6.5c-1.5-0.2-3-0.6-4.4-0.9L89.7,65l-3.9-1.9l0,0l-3.7-1.8l0.4,6.6l7.5,3.8
					l10.2-3.3c1.5,0.4,2.9,0.7,4.4,0.9l5,6.5l9.6-0.1l2.6-6.6c1.4-0.3,2.7-0.7,4-1.1l11.4,2.9l6.1-4l-0.4-6.6L139.2,62.9L139.2,62.9
					z"/>
			</g>
		</g>
		<polygon fill="#CED8EB" stroke="#000000" stroke-linejoin="round" stroke-miterlimit="10" points="104.4,62.7 104.7,69.3 
			109.8,75.8 109.4,69.2 		"/>
		<polygon fill="#6D84A5" stroke="#000000" stroke-linejoin="round" stroke-miterlimit="10" points="119,69 119.4,75.7 122,69.1 
			121.6,62.4 		"/>
		<path fill="#CED8EB" stroke="#000000" stroke-linejoin="round" stroke-miterlimit="10" d="M125.7,61.4h-0.2l0.4,6.6h0.1l11.4,2.9
			l-0.4-6.6L125.7,61.4z"/>
		<polygon fill="#CED8EB" stroke="#000000" stroke-linejoin="round" stroke-miterlimit="10" points="72.8,57.2 83.7,59.1 84.5,57.8 
			84.2,52.6 72.4,50.6 		"/>
		<polygon fill="#CED8EB" stroke="#000000" stroke-linejoin="round" stroke-miterlimit="10" points="85.9,63.1 82.2,61.2 82.6,67.9 
			90.1,71.6 89.7,65 		"/>
		<path fill="#E8EBEF" d="M128.9,30l-7.4,2.4L116,43.3h0.1c4.1,2.1,4.7,5.5,1.4,7.7c-1.6,1.1-3.9,1.6-6.2,1.7l-5.8,11.6l3.8,4.9
			L128.9,30z"/>
		<g>
			<g>
				<path fill="none" stroke="#000000" stroke-linejoin="round" stroke-miterlimit="10" d="M138.2,33.2l-7.5-3.8l-10.2,3.3
					c-1.5-0.4-2.9-0.7-4.4-0.9l-5-6.5l-9.6,0.1L98.8,32c-1.4,0.3-2.7,0.7-4.1,1.1l-11.4-2.9l-6.1,4l6.5,6.1c-0.6,0.8-1,1.6-1.3,2.5
					l-11,2.2l1,5.5l11.8,2c0.6,0.8,1.4,1.6,2.2,2.4l-4.3,6.3l7.5,3.8l10.2-3.3c1.5,0.4,2.9,0.7,4.4,0.9l5,6.5l9.6-0.1l2.6-6.6
					c1.4-0.3,2.7-0.7,4-1.1l11.4,2.9l6.1-4l-6.5-6.1c0.6-0.8,1-1.6,1.3-2.5l11.1-2.4l-1-5.5l-11.9-2c-0.6-0.8-1.4-1.6-2.2-2.4
					L138.2,33.2z M117.6,50.9c-3.3,2.2-9.3,2.3-13.4,0.2s-4.7-5.5-1.4-7.7s9.3-2.3,13.4-0.2C120.3,45.3,120.9,48.8,117.6,50.9z"/>
			</g>
		</g>
	</g>
	<g>
		<path d="M111,25.2l5,6.5l4.4,0.9l10.2-3.3l7.5,3.8l0.4,6.6L137,42l10.9,1.8l1,5.5l0.4,6.6l-8.8,1.9l2.5,2.4l0.4,6.7l-6.1,4L126,68
			l-4,1.1l-2.6,6.6l-9.6,0.1l-5-6.5l-4.4-0.9l-10.2,3.3l-7.5-3.8l-0.4-6.7l1.5-2.1l-10.9-1.8l-1-5.5L71.4,45l8.8-1.8l-2.6-2.4
			l-0.4-6.7l6.1-4L94.7,33l4.1-1.1l2.6-6.6L111,25.2 M112,23.2h-1l-9.6,0.1h-1.3l-0.5,1.2l-2.2,5.7L94.7,31l-10.9-2.8L83,28
			l-0.7,0.5l-6.1,4l-1,0.6l0.1,1.1l0.4,6.7v0.8L76,42l-5,1l-1.7,0.4l0.1,1.7l0.4,6.7v0.1V52l1,5.5l0.3,1.4l1.4,0.2l7.7,1.3l-0.1,0.1
			v0.7l0.4,6.7l0.1,1.1l1,0.5l7.5,3.8l0.7,0.4l0.8-0.2l9.7-3.1l3.2,0.7l4.6,5.9l0.6,0.8h1l9.6-0.1h1.3l0.5-1.2l2.2-5.7l2.6-0.7
			l10.9,2.8l0.9,0.2l0.7-0.5l6.1-4l1-0.6l-0.1-1.2l-0.4-6.7l-0.1-0.8l-0.3-0.3l5.1-1.1l1.7-0.4l-0.1-1.7l-0.4-6.6v-0.1V49l-1-5.5
			l-0.3-1.4l-1.4-0.2l-7.8-1.3l0.1-0.2v-0.7l-0.4-6.6l-0.1-1.2l-1-0.5l-7.5-3.8l-0.7-0.4l-0.8,0.2l-9.7,3.1l-3.2-0.7l-4.6-5.9
			L112,23.2L112,23.2z"/>
	</g>
</g>
<g id="Layer_8_copy">
	<g id="Layer_1_copy">
		<g id="Layer_3_copy">
		</g>
		<g id="Layer_6_copy">
		</g>
		<g id="Layer_7_copy">
			<polygon opacity="0.4" fill="#000000" enable-background="new    " points="85.4,133.1 92,131.1 97.1,120.5 121.3,119.4 124.1,103.2 112,78.8 
				38.5,79.9 			"/>
		</g>
		<path fill="#CED8EB" stroke="#000000" stroke-linejoin="round" stroke-miterlimit="10" d="M79.4,83.8c-5.9-3-14.8-2.9-19.6,0.3
			c-3.8,2.5-4,6.2-1.1,9.1c4.9-3.1,13.5-3.1,19.4-0.2c1.3,0.6,2.3,1.4,3.1,2.2c0.1,0,0.1-0.1,0.2-0.1C86.3,91.9,85.4,86.9,79.4,83.8
			z"/>
		<g>
			<g>
				<path fill="#90A6BF" d="M112.9,112.5l-3.1,2.1l-16.6-4.3c-1.9,0.6-3.9,1.2-5.9,1.6l-3.8,9.6l-14.1,0.2l-7.3-9.5
					c-2.2-0.3-4.3-0.8-6.5-1.4l-14.9,4.8l-5.6-2.8l0,0l-5.3-2.7l0.6,9.7l11,5.5l14.9-4.8c2.1,0.6,4.3,1,6.5,1.4l7.3,9.5l14.1-0.2
					l3.8-9.6c2-0.4,4-1,5.9-1.6l16.6,4.3l8.9-5.9l-0.6-9.7L112.9,112.5L112.9,112.5z"/>
			</g>
		</g>
		<path fill="#6D84A5" stroke="#000000" stroke-miterlimit="10" d="M55.7,110.8L55.7,110.8l-14.9,4.7l-0.1-0.1l0.6,9.7l0.1,0.1
			l14.9-4.8l0,0L55.7,110.8z"/>
		<g>
			<g>
				<polygon fill="#6D84A5" stroke="#000000" stroke-linejoin="round" stroke-miterlimit="10" points="14,86.5 14.5,96.2 16,104.2 
					31.9,106.9 35.9,101 32.7,97.4 15.4,94.5 				"/>
			</g>
		</g>
		<g>
			<g>
				<path fill="#6D84A5" stroke="#000000" stroke-linejoin="round" stroke-miterlimit="10" d="M30.1,83c0.4-1.2,1.1-2.4,1.9-3.6
					l-9.5-8.9l0.6,9.7l3.8,3.5L30.1,83z"/>
			</g>
		</g>
		<g>
			<g>
				<polygon fill="#6D84A5" stroke="#000000" stroke-miterlimit="10" points="127.2,92.7 127.8,102.4 114.9,105.1 109.2,99.7 
					111.1,96.2 				"/>
			</g>
		</g>
		<g>
			<g>
				<path fill="#526E94" stroke="#000000" stroke-linejoin="round" stroke-miterlimit="10" d="M106.7,76.1l-1.5,2.1
					c1.2,1.1,2.3,2.3,3.2,3.5l1.4,0.2l2.2-3.2l-0.6-9.7L106.7,76.1L106.7,76.1z"/>
			</g>
		</g>
		<g>
			<g>
				<path fill="#CED8EB" stroke="#000000" stroke-linejoin="round" stroke-miterlimit="10" d="M111.5,69.1l-11-5.5l-14.9,4.8
					c-2.1-0.6-4.3-1-6.5-1.4l-7.3-9.5l-14.1,0.2l-3.8,9.6c-2,0.4-4,1-5.9,1.6l-16.6-4.3l-8.9,5.9l9.5,8.9c-0.8,1.2-1.4,2.4-1.9,3.6
					L14,86.4l1.5,8l17.3,2.9c0.9,1.2,2,2.4,3.2,3.5l-6.2,9.1l11,5.5l14.9-4.8c2.1,0.6,4.3,1,6.5,1.4l7.3,9.5l14.1-0.2l3.8-9.6
					c2-0.4,4-1,5.9-1.6l16.6,4.3l8.9-5.9l-9.5-8.9c0.8-1.2,1.4-2.4,1.9-3.6l16.1-3.5l-1.5-8l-17.3-2.9c-0.9-1.2-2-2.4-3.2-3.5
					L111.5,69.1z M81.4,95c-4.9,3.2-13.6,3.3-19.6,0.3s-6.9-8-2.1-11.2s13.6-3.3,19.6-0.3C85.4,86.9,86.3,91.9,81.4,95z"/>
			</g>
		</g>
		<path fill="#F4F4F4" d="M79.1,67l-7.3-9.5l-7.9,0.1L35.7,113l4.9,2.5l14.9-4.8c2.1,0.6,4.3,1,6.5,1.4l0.3,0.3L70,97.5
			c-2.9-0.2-5.7-0.9-8.1-2.1c-6-3-6.9-8-2.1-11.2c4.3-2.8,11.8-3.2,17.6-1.2l7.5-14.8C83,67.7,81.1,67.3,79.1,67z"/>
		<path fill="#6D84A5" d="M77.4,83L77.4,83c-5.1,1.6-9.6,4.2-12.9,8.2C69,90.4,74.2,91,78.1,93c1.3,0.6,2.3,1.4,3.1,2.2
			c0.1,0,0.1-0.1,0.2-0.1c2.1-1.4,3.1-3.1,3.1-4.9V90c0-0.4-0.1-0.8-0.2-1.2c-0.1-0.2-0.1-0.3-0.2-0.5c0-0.1-0.1-0.2-0.1-0.2
			c-0.1-0.1-0.1-0.3-0.2-0.4s-0.1-0.2-0.2-0.3c-0.1-0.1-0.2-0.3-0.3-0.4c-0.1-0.1-0.2-0.2-0.3-0.3c-0.1-0.1-0.2-0.2-0.3-0.3
			c-0.1-0.1-0.2-0.2-0.3-0.3c-0.1-0.1-0.2-0.2-0.3-0.3c-0.1-0.1-0.3-0.2-0.4-0.4c-0.1-0.1-0.2-0.2-0.3-0.3c-0.2-0.1-0.4-0.3-0.6-0.4
			c-0.1-0.1-0.2-0.1-0.3-0.2c-0.3-0.2-0.7-0.4-1-0.6s-0.7-0.3-1-0.5C78,83.2,77.7,83.1,77.4,83z"/>
		<path fill="none" stroke="#000000" stroke-linejoin="round" stroke-miterlimit="10" d="M79.4,83.8c-5.9-3-14.8-2.9-19.6,0.3
			c-3.8,2.5-4,6.2-1.1,9.1c4.9-3.1,13.5-3.1,19.4-0.2c1.3,0.6,2.3,1.4,3.1,2.2c0.1,0,0.1-0.1,0.2-0.1C86.3,91.9,85.4,86.9,79.4,83.8
			z"/>
		<g>
			<g>
				<path fill="none" stroke="#000000" stroke-linejoin="round" stroke-miterlimit="10" d="M112.9,112.5l-3.1,2.1l-16.6-4.3
					c-1.9,0.6-3.9,1.2-5.9,1.6l-3.8,9.6l-14.1,0.2l-7.3-9.5c-2.2-0.3-4.3-0.8-6.5-1.4l-14.9,4.8l-5.6-2.8l0,0l-5.3-2.7l0.6,9.7
					l11,5.5l14.9-4.8c2.1,0.6,4.3,1,6.5,1.4l7.3,9.5l14.1-0.2l3.8-9.6c2-0.4,4-1,5.9-1.6l16.6,4.3l8.9-5.9l-0.6-9.7L112.9,112.5
					L112.9,112.5z"/>
			</g>
		</g>
		<polygon fill="#CED8EB" stroke="#000000" stroke-linejoin="round" stroke-miterlimit="10" points="62.1,112.2 62.7,121.9 
			70,131.4 69.4,121.7 		"/>
		<polygon fill="#6D84A5" stroke="#000000" stroke-linejoin="round" stroke-miterlimit="10" points="83.5,121.5 84.1,131.1 
			87.9,121.5 87.3,111.8 		"/>
		<path fill="#CED8EB" stroke="#000000" stroke-linejoin="round" stroke-miterlimit="10" d="M93.3,110.3H93l0.6,9.7h0.1l16.6,4.3
			l-0.6-9.7L93.3,110.3z"/>
		<polygon fill="#CED8EB" stroke="#000000" stroke-linejoin="round" stroke-miterlimit="10" points="16,104.2 31.9,106.9 33.2,105 
			32.7,97.4 15.5,94.5 		"/>
		<polygon fill="#CED8EB" stroke="#000000" stroke-linejoin="round" stroke-miterlimit="10" points="35.1,112.7 29.8,110 
			30.3,119.7 41.3,125.3 40.8,115.6 		"/>
		<path fill="#E8EBEF" d="M98,64.4l-10.8,3.4l-8,15.9c0,0,0.1,0,0.1,0.1c6,3,6.9,8,2.1,11.2c-2.4,1.6-5.7,2.4-9.1,2.5l-8.5,17
			l5.5,7.1L98,64.4z"/>
		<g>
			<g>
				<path fill="none" stroke="#000000" stroke-linejoin="round" stroke-miterlimit="10" d="M111.5,69.1l-11-5.5l-14.9,4.8
					c-2.1-0.6-4.3-1-6.5-1.4l-7.3-9.5l-14.1,0.2l-3.8,9.6c-2,0.4-4,1-5.9,1.6l-16.6-4.3l-8.9,5.9l9.5,8.9c-0.8,1.2-1.4,2.4-1.9,3.6
					L14,86.4l1.5,8l17.3,2.9c0.9,1.2,2,2.4,3.2,3.5l-6.2,9.1l11,5.5l14.9-4.8c2.1,0.6,4.3,1,6.5,1.4l7.3,9.5l14.1-0.2l3.8-9.6
					c2-0.4,4-1,5.9-1.6l16.6,4.3l8.9-5.9l-9.5-8.9c0.8-1.2,1.4-2.4,1.9-3.6l16.1-3.5l-1.5-8l-17.3-2.9c-0.9-1.2-2-2.4-3.2-3.5
					L111.5,69.1z M81.4,95c-4.9,3.2-13.6,3.3-19.6,0.3s-6.9-8-2.1-11.2s13.6-3.3,19.6-0.3C85.4,86.9,86.3,91.9,81.4,95z"/>
			</g>
		</g>
	</g>
	<g>
		<path d="M71.8,57.5l7.3,9.5l6.5,1.4l14.9-4.8l11,5.5l0.6,9.6l-2.2,3.2l15.9,2.7l1.5,8l0.5,9.7l-12.9,2.8l3.7,3.5l0.6,9.7l-8.9,5.9
			l-16.6-4.3l-5.9,1.6l-3.8,9.6l-14,0.3l-7.3-9.5l-6.5-1.4l-14.9,4.8l-11-5.5l-0.6-9.7l2.2-3.1L16,104.2l-1.5-8.1L14,86.4l12.8-2.7
			L23,80.3l-0.5-9.7l8.9-5.9L48,68.9l5.9-1.6l3.8-9.6L71.8,57.5 M72.8,55.5h-1l-14.1,0.2h-1.3L55.9,57l-3.4,8.7L48,66.9l-16.1-4.1
			L31,62.5L30.3,63l-8.9,5.9l-1,0.6l0.1,1.1l0.5,9.7v0.8l0.6,0.6l0.9,0.9l-9,1.9l-1.7,0.4l0.1,1.7l0.6,9.7v0.1v0.1l1.5,8.1l0.3,1.4
			l1.4,0.2l12.8,2.1l-0.4,0.5l-0.4,0.6v0.7l0.6,9.7l0.1,1.1l1,0.5l11,5.5l0.7,0.4l0.8-0.2l14.4-4.6l5.2,1.1l6.9,8.9l0.6,0.8h1
			l14.1-0.2h1.3l0.5-1.2l3.4-8.7l4.4-1.2l16.1,4.1l0.9,0.2l0.7-0.5l8.9-5.9l1-0.6l-0.1-1.2l-0.6-9.7l-0.1-0.8l-0.6-0.5l-0.9-0.9
			l9.1-1.9l1.7-0.4l-0.1-1.7l-0.5-9.7v-0.1v-0.1l-1.5-8l-0.3-1.4l-1.4-0.2l-12.8-2.2l0.4-0.6l0.4-0.6v-0.7l-0.6-9.6l-0.1-1.2l-1-0.5
			l-11-5.5l-0.7-0.4l-0.8,0.2l-14.4,4.6l-5.2-1.1l-6.9-8.9L72.8,55.5L72.8,55.5z"/>
	</g>
</g>
</svg>
