<?xml version="1.0" encoding="utf-8"?>
<!-- Generator: Adobe Illustrator 25.3.1, SVG Export Plug-In . SVG Version: 6.00 Build 0)  -->
<svg version="1.1" id="Layer_1" xmlns="http://www.w3.org/2000/svg" xmlns:xlink="http://www.w3.org/1999/xlink" x="0px" y="0px"
	 width="541.1px" height="513.1px" viewBox="0 0 541.1 513.1" enable-background="new 0 0 541.1 513.1" xml:space="preserve">
<g>
	<path opacity="0.4" fill="#000000" enable-background="new    " d="M274.6,471.5l17.2,9.5c1.8,1,3.9,1,5.7,0L538.1,343c3.9-2.2,3.9-7.8,0-10.1
		L344.6,220.8c-3.3-1.9-7.6-0.2-8.5,3.5l-64.3,240.5C271.1,467.4,272.2,470.2,274.6,471.5z"/>
</g>
<g>
	<g>
		<g>
			<polygon fill="#CDD9EE" points="198.2,218.1 38.8,310.1 270.4,443.3 429.3,351.5 			"/>
			<polygon fill="#CDD9EE" points="199.5,18.3 199.5,218.1 429.3,351.5 429.5,151.8 			"/>
			<polygon fill="#4B6E98" points="445.2,177.1 445.3,142.7 429.5,151.8 429.3,327.7 429.3,335.3 429.4,335.3 429.3,351.5 
				429.3,351.5 427.5,352.6 270.4,443.3 270.4,461.5 427,371 427,371 445,360.6 445.1,344.5 445.1,344.5 445.3,177.1 			"/>
			<polygon fill="#6885A9" points="121.5,345.7 197.7,389.7 243.1,363.5 166.9,319.5 			"/>
			<path fill="#231F20" d="M197.7,392l-80.2-46.3l49.4-28.5l80.2,46.3L197.7,392z M125.5,345.7l72.2,41.7l41.4-23.9l-72.2-41.7
				L125.5,345.7z"/>
			<polygon fill="#F0F7FF" points="426.8,186.8 426.8,186.8 426.8,154.3 260.8,251 292.8,269.5 426.8,191.4 			"/>
			<polygon fill="#B5C5DC" points="38.8,327.8 38.8,310.1 270.4,443.3 270.4,461.5 			"/>
			<polygon fill="#B1CAEC" points="199.5,18.3 429.5,151.8 445.3,142.7 215.2,9.2 			"/>
			<polygon fill="#6885A9" points="394.3,350.4 267,277 266.9,277.1 200.1,238.5 124.3,282.2 251.5,355.7 251.6,355.6 318.5,394.2 
							"/>
			<path fill="#231F20" d="M318.5,396.5l-66.8-38.6l-0.1,0.1l-1-0.6l-130.2-75.2l79.8-46.1l66.8,38.6l0.1-0.1l1,0.6l130.2,75.2
				L318.5,396.5z M251.6,353.3l66.8,38.6l71.8-41.5L267,279.3l-0.1,0.1l-66.8-38.6l-71.8,41.5l123.2,71.1L251.6,353.3z"/>
			<polygon fill="#F0F7FF" points="332.3,98.7 201.5,174.9 201.5,216.8 238.9,238.4 405.6,141.2 			"/>
			<g>
				<polygon fill="#231F20" points="431.9,352.7 431.9,352.6 431.6,352.8 				"/>
				<path fill="#231F20" d="M215.6,0l-23.7,13.7v199.8l-160.6,92v26.9l238.5,137.7l1,0.6l182.9-105.4V138.1L215.6,0z M43.2,310.1
					l155.4-89.7l227.1,131.1l-155,89.5L43.2,310.1z M268.7,444.5V458L41.2,326.6v-13L268.7,444.5z M427.9,152.9l-0.2,195.1
					L201.8,217V21.8L427.9,152.9z M203.8,18.3l11.7-6.8l226.1,131.2l-7.9,4.6l-3.8,2.2L203.8,18.3z M272.7,444.5l157.1-90.6l2.1-1.3
					v-2.1V152.9l10.2-5.9l1.5-0.9l-0.2,213.3l-14.5,8.5l-156.2,90L272.7,444.5L272.7,444.5z"/>
			</g>
		</g>
	</g>
</g>
</svg>
