<?xml version="1.0" encoding="utf-8"?>
<!-- Generator: Adobe Illustrator 25.3.1, SVG Export Plug-In . SVG Version: 6.00 Build 0)  -->
<svg version="1.1" id="Layer_1" xmlns="http://www.w3.org/2000/svg" xmlns:xlink="http://www.w3.org/1999/xlink" x="0px" y="0px"
	 width="634.4px" height="548.1px" viewBox="0 0 634.4 548.1" enable-background="new 0 0 634.4 548.1" xml:space="preserve">
<g id="Layer_2_1_">
	<polyline opacity="0.4" fill="#231F20" enable-background="new    " points="279.7,492.1 330.8,486.6 401.9,449.6 435.5,468.2 
		571.8,383.3 472.3,328.3 279.7,492.1 	"/>
</g>
<g id="Layer_1_2_">
	<g id="Layer_1_1_" display="none">
		<polygon display="inline" fill="none" stroke="#A7A9AC" stroke-width="4" stroke-miterlimit="10" points="533.7,391.9 
			318.3,516.3 102.8,391.9 102.8,143.1 318.3,18.8 533.7,143.1 		"/>
	</g>
	<g id="Layer_2_2_">
		<g>
			<g>
				<g>
					<path fill="#CDD9EE" d="M279.7,482.5c-0.3,0-0.7-0.1-1-0.3l-110.1-63.5c-0.8-0.5-1.2-1.4-0.9-2.3l55-184.2
						c0.3-0.9,1-1.4,1.9-1.4c0,0,0,0,0.1,0c0.9,0,1.7,0.7,1.9,1.6l55,247.7c0.2,0.8-0.1,1.6-0.8,2
						C280.5,482.4,280.1,482.5,279.7,482.5z"/>
				</g>
				<g>
					<path fill="#231F20" d="M224.7,232.8l55,247.7l-110-63.5L224.7,232.8 M169.7,417l110.1,63.5L169.7,417 M224.7,228.8
						c-1.8,0-3.3,1.2-3.8,2.9l-55,184.1c-0.2,0.5-0.2,1-0.2,1.5c0,0.3,0.1,0.6,0.2,0.9l0,0l0,0c0.3,0.9,0.9,1.7,1.8,2.2l0,0l0,0l0,0
						l0,0l0,0l0,0l0,0l110,63.6l0,0c0.6,0.4,1.3,0.5,2,0.5c0.3,0,0.5,0,0.8-0.1c0.2,0,0.5-0.1,0.7-0.2c0.8-0.3,1.4-0.8,1.9-1.6
						c0.1-0.1,0.1-0.2,0.2-0.3c0.5-0.9,0.6-1.9,0.4-2.8l-55-247.7c-0.4-1.8-1.9-3.1-3.8-3.1C224.8,228.8,224.7,228.8,224.7,228.8
						L224.7,228.8z"/>
				</g>
			</g>
			<g>
				<g>
					<path fill="#6885A9" d="M279.7,482.5c-0.3,0-0.5-0.1-0.8-0.2c-0.6-0.3-1-0.8-1.1-1.4l-55-247.7c-0.2-0.9,0.2-1.7,1-2.2
						l151.9-87.6c0.3-0.2,0.7-0.3,1-0.3s0.5,0.1,0.8,0.2c0.6,0.3,1,0.8,1.1,1.4l55,247.7c0.2,0.9-0.2,1.7-1,2.2l-151.8,87.6
						C280.4,482.4,280,482.5,279.7,482.5z"/>
				</g>
				<g>
					<path fill="#231F20" d="M376.5,145.2l55,247.7l-71.4,41.2l-80.4,46.4l-36.2-163l-18.8-84.7L376.5,145.2 M376.5,141.2
						c-0.7,0-1.4,0.2-2,0.5l-151.9,87.6c-1.5,0.9-2.3,2.6-1.9,4.3l18.8,84.7l36.2,163c0.3,1.2,1.1,2.3,2.3,2.8
						c0.5,0.2,1.1,0.3,1.6,0.3c0.7,0,1.4-0.2,2-0.5l80.4-46.4l71.4-41.2c1.5-0.9,2.3-2.6,1.9-4.3l-55-247.7
						c-0.3-1.2-1.1-2.3-2.3-2.8C377.6,141.3,377.1,141.2,376.5,141.2L376.5,141.2z"/>
				</g>
			</g>
			<g>
				<polygon fill="#416787" points="431.5,392.9 360.1,434.1 243.5,317.5 224.7,232.8 376.5,145.2 				"/>
			</g>
			<g>
				<polygon fill="#CDD9EE" points="73.9,145 406,336.7 562.7,246.3 230.6,54.5 				"/>
				<path fill="#231F20" d="M406,339.1l-1-0.6L69.9,145l160.7-92.8l1,0.6l335.1,193.5L406,339.1z M77.9,145L406,334.4l152.7-88.2
					L230.6,56.8L77.9,145z"/>
			</g>
			<g>
				<polygon fill="#6885A9" points="406,336.7 73.9,145 73.9,173.3 406,365.1 562.7,274.6 562.7,246.3 				"/>
				<path fill="#231F20" d="M406,367.4l-1-0.6L71.9,174.5v-33L406,334.4l158.7-91.6v32.9l-1,0.6L406,367.4z M75.9,172.2L406,362.8
					l154.7-89.3v-23.7L406,339.1l-1-0.6l-329.1-190C75.9,148.5,75.9,172.2,75.9,172.2z"/>
			</g>
			<g>
				<path fill="#231F20" d="M230.6,54.5l332.1,191.7v28.3L423.2,355l8.4,37.8L360.2,434l-80.4,46.4L169.7,417l48-160.6l-143.8-83
					V145L230.6,54.5 M230.6,43l-5,2.9L68.9,136.3l-5,2.9v5.8v28.3v5.8l5,2.9l136.9,79l-45.7,153.1l-2.3,7.6l6.8,4l110.1,63.5l5,2.9
					l5-2.9l80.4-46.4l71.4-41.2l6.4-3.7l-1.6-7.2l-6.8-30.6l133.2-76.9l5-2.9v-5.8v-28.3v-5.8l-5-2.9L235.6,45.9L230.6,43L230.6,43z
					"/>
			</g>
		</g>
	</g>
</g>
</svg>
