<?xml version="1.0" encoding="utf-8"?>
<!-- Generator: Adobe Illustrator 25.3.1, SVG Export Plug-In . SVG Version: 6.00 Build 0)  -->
<svg version="1.1" id="Layer_1" xmlns="http://www.w3.org/2000/svg" xmlns:xlink="http://www.w3.org/1999/xlink" x="0px" y="0px"
	 width="203.9px" height="210px" viewBox="0 0 203.9 210" enable-background="new 0 0 203.9 210" xml:space="preserve">
<g id="Layer_1_1_">
	<path opacity="0.4" fill="#000000" enable-background="new    " d="M115.6,190.6l40-1.8l18.7-11c3-1.8,4.6-4.8,3.6-7.2c-1.3-3-8.9-8-12.5-10.5
		c0.8-2.9-4.5-11.6-21.2-18.6c-40.3-23.4-34,23.6-34,23.6L115.6,190.6z"/>
	<g id="Layer_3">
	</g>
	<g id="Layer_2_1_">
		<g>
			<path fill="#F09938" d="M145.1,103.6v62.5c0,3.2-1,5.4-2.7,6.5l-23.5,13.5c1.6-1,2.6-3.3,2.6-6.5v-62.5c0-5.9-3.6-12.9-8.1-15.5
				L60.3,71c-1.7-1-3.4-1.2-4.7-0.7l0,0l22.5-13c1.5-1.2,3.5-1.3,5.8,0.1l53.2,30.7c2.1,1.2,4,3.4,5.5,6
				C144.1,97.1,145.1,100.5,145.1,103.6z"/>
		</g>
		<g>
			<path fill="#F8D466" d="M121.6,147.3v-30.1c0-5.9-3.6-12.9-8.1-15.5L60.3,71c-1.7-1-3.4-1.2-4.7-0.7l0,0l22.5-13
				c1.5-1.2,3.5-1.3,5.8,0.1l53.2,30.7c2.1,1.2,4,3.4,5.5,6C141.5,114.4,133.8,132.7,121.6,147.3z"/>
		</g>
		<g>
			<path fill="#221F20" stroke="#000000" stroke-width="2" stroke-linecap="round" stroke-miterlimit="10" d="M91.3,14.5
				c0.8,0,1.5,0.1,2.4,0.2c0.5,0.1,0.9,0.1,1.4,0.3c1.9,0.4,3.7,1.1,5.7,2.1c0.6,0.3,1.2,0.6,1.7,0.9c9.7,5.5,18.1,17,23.2,29.7
				c0.1,0.4,0.3,0.8,0.5,1.2c0.1,0.1,0.1,0.2,0.1,0.3c2.8,7.4,4.4,15.2,4.4,22.6l0,0v12.7l6.5,3.7c2.1,1.2,4,3.4,5.5,6
				c1.6,2.9,2.6,6.3,2.6,9.5v62.5c0,3.2-1,5.4-2.7,6.5l-23.5,13.5c-0.6,0.5-1.4,0.6-2.3,0.6c-1,0-2.1-0.3-3.2-1l-53.2-30.7
				c-4.5-2.6-8.1-9.5-8.1-15.5v-5V77.1c0-3.6,1.4-6,3.4-6.8l0,0l0,0l11.5-6.6V43.3c0-7,1.4-12.6,3.9-16.8l0,0c0,0,1-2.1,3.2-4.5
				c0.1-0.1,0.1-0.1,0.2-0.2s0.1-0.1,0.1-0.1c0.1-0.1,0.2-0.3,0.3-0.3c0.1-0.1,0.1-0.1,0.1-0.1c0.1-0.1,0.1-0.1,0.1-0.1
				c0.1-0.1,0.2-0.2,0.3-0.3c0.1-0.1,0.1-0.1,0.1-0.1c0.1-0.1,0.2-0.2,0.3-0.3l0.1-0.1c0.1-0.1,0.2-0.1,0.3-0.3
				c0.1-0.1,0.1-0.1,0.1-0.1c0.1-0.1,0.3-0.2,0.4-0.3c0.1-0.1,0.1-0.1,0.1-0.1c0.1-0.1,0.1-0.1,0.3-0.2c0.1-0.1,0.1-0.1,0.2-0.2
				s0.1-0.1,0.3-0.2l0,0c0.1-0.1,0.2-0.1,0.3-0.3l0,0c0,0,0.1,0,0.1-0.1l0,0c0.1-0.1,0.2-0.1,0.3-0.3c0.1-0.1,0.2-0.1,0.3-0.2
				c0.1,0,0.1-0.1,0.1-0.1c0.1-0.1,0.2-0.1,0.3-0.2c0.1-0.1,0.3-0.1,0.4-0.2l0.1-0.1c0.1,0,0.1-0.1,0.1-0.1c0.2-0.1,0.4-0.3,0.6-0.3
				c0.1-0.1,0.1-0.1,0.2-0.1s0.1-0.1,0.2-0.1c0.1-0.1,0.2-0.1,0.3-0.1c0.1-0.1,0.1-0.1,0.2-0.1h0.1c0.1,0,0.1-0.1,0.1-0.1
				c0.1-0.1,0.3-0.1,0.4-0.2s0.2-0.1,0.3-0.1c0.1,0,0.1-0.1,0.1-0.1h0.1c0.1-0.1,0.2-0.1,0.3-0.1c0.1-0.1,0.3-0.1,0.5-0.2
				c0.1,0,0.1-0.1,0.1-0.1s0.1,0,0.1-0.1c0.1,0,0.1-0.1,0.2-0.1l0,0c0.1-0.1,0.3-0.1,0.5-0.2l0,0c0.1,0,0.1-0.1,0.2-0.1H84
				c0.1,0,0.1-0.1,0.2-0.1c0,0,0,0,0.1,0c0.1-0.1,0.3-0.1,0.5-0.1c0.1-0.1,0.3-0.1,0.4-0.1l0,0c0.1,0,0.1,0,0.1,0
				c0.1,0,0.1,0,0.2-0.1s0.3-0.1,0.4-0.1c0.1-0.1,0.3-0.1,0.5-0.1c0.1,0,0.1,0,0.1,0c0.2-0.1,0.3-0.1,0.5-0.1
				c0.2-0.1,0.4-0.1,0.6-0.1C88.9,14.6,90,14.5,91.3,14.5 M87.5,34.4L87.5,34.4L87.5,34.4c-1.9,2.7-2.9,6.6-2.9,11.4v12l28.8,16.6
				v-3.6c0-13.2-8.1-28.6-17.9-34.3c-2.5-1.5-5-2.1-7.1-2.1C88,34.4,87.8,34.4,87.5,34.4 M91.3,11.4c-1.5,0-2.9,0.2-4.3,0.5
				c-0.2,0-0.3,0.1-0.5,0.1c-0.1,0-0.3,0-0.5,0.1c-0.1,0-0.1,0-0.2,0.1c-0.2,0.1-0.3,0.1-0.5,0.1c-0.1,0.1-0.3,0.1-0.5,0.1l-0.2,0.1
				c0,0,0,0-0.1,0h-0.1l0,0l0,0h-0.1c-0.1,0-0.3,0.1-0.3,0.1c-0.1,0.1-0.3,0.1-0.5,0.1h-0.1c-0.1,0-0.1,0.1-0.2,0.1h-0.1L83,12.9
				h-0.1c-0.1,0-0.1,0.1-0.2,0.1l0,0c-0.2,0.1-0.3,0.1-0.5,0.2c0,0-0.1,0-0.1,0.1c-0.1,0-0.1,0.1-0.1,0.1h-0.1l0.1-0.1l0,0
				c-0.1,0-0.1,0.1-0.1,0.1c-0.2,0.1-0.3,0.1-0.5,0.2c-0.1,0.1-0.3,0.1-0.3,0.1l0,0l0,0c-0.1,0-0.1,0.1-0.2,0.1
				c-0.1,0.1-0.2,0.1-0.3,0.1C80.5,14,80.4,14,80.3,14l-0.1,0h-0.1C80,14,80,14.1,80,14.1s-0.1,0-0.1,0.1c-0.1,0.1-0.2,0.1-0.3,0.1
				c-0.1,0.1-0.2,0.1-0.3,0.1c-0.1,0-0.1,0.1-0.1,0.1h-0.1H79c-0.1,0-0.1,0.1-0.2,0.1c-0.3,0.1-0.5,0.3-0.7,0.4
				C78,15,78,15.1,78,15.1h0l-0.1,0.1l0,0c-0.1,0.1-0.3,0.1-0.4,0.3c0,0,0,0-0.1,0c-0.1,0.1-0.3,0.1-0.4,0.3l-0.1,0.1
				c-0.1,0.1-0.3,0.1-0.3,0.3c-0.1,0.1-0.3,0.2-0.4,0.3l0,0c0,0,0,0-0.1,0c0,0,0,0-0.1,0l0,0l0,0c-0.1,0.1-0.2,0.1-0.3,0.3l0,0
				c-0.1,0.1-0.1,0.1-0.2,0.1L75.4,17c-0.1,0.1-0.2,0.1-0.3,0.2H75c-0.1,0.1-0.1,0.1-0.3,0.2c-0.1,0.1-0.1,0.1-0.1,0.1l0,0l0,0
				c-0.1,0.1-0.3,0.3-0.5,0.4l0,0C74,18,74,18,74,18c0.2-0.2,0-0.1,0,0l0,0h-0.1l0,0c-0.1,0.1-0.2,0.2-0.3,0.3l0,0
				c-0.1,0.1-0.1,0.1-0.1,0.1l-0.1,0.1c-0.1,0.1-0.2,0.2-0.3,0.3l0,0C73,18.9,73,18.9,73,18.9L72.9,19l0,0l0,0
				c-0.1,0.1-0.3,0.3-0.4,0.4l0,0c-0.1,0.1-0.1,0.1-0.1,0.1l0,0l0,0c-0.1,0.1-0.1,0.1-0.2,0.2c-2.3,2.5-3.4,4.6-3.7,5.2
				c-2.8,4.8-4.3,11-4.3,18.3v18.5l-9.8,5.7c-3.2,1.4-5,4.9-5,9.5v57.5v5c0,7,4.3,15,9.6,18.1l53.2,30.7c1.6,0.9,3.2,1.4,4.7,1.4
				c1.4,0,2.7-0.4,3.9-1.1l23.4-13.5l0.1-0.1c2.6-1.7,4.1-4.9,4.1-9.1v-62.5c0-3.5-1.1-7.5-3-11c-1.7-3.2-4.1-5.7-6.6-7.2l-5-2.8
				v-11c0-7.5-1.5-15.7-4.6-23.7l-0.1-0.1c0-0.1-0.1-0.2-0.1-0.3c-0.1-0.4-0.3-0.8-0.5-1.2c-2.6-6.6-6.2-13-10.3-18.3
				c-4.3-5.6-9.2-10.1-14.2-13c-0.6-0.4-1.3-0.7-1.9-1c-2.2-1.1-4.3-1.9-6.5-2.3c-0.5-0.1-1-0.2-1.5-0.3
				C93.2,11.4,92.2,11.4,91.3,11.4L91.3,11.4z M87.6,56V45.8c0-3.3,0.6-6.1,1.6-8.3c1.4,0.2,3,0.7,4.6,1.7
				c8.5,4.9,15.7,18.3,16.4,29.9L87.6,56L87.6,56z"/>
		</g>
		<g>
			<path fill="#F5BD41" d="M121.6,117.2v62.5c0,5.9-3.6,8.7-8.1,6.1l-27.6-15.9L68.8,160l-7.9-4.6l-0.5-0.3
				c-4.5-2.6-8.1-9.5-8.1-15.5V77.1c0-5.9,3.6-8.7,8.1-6.1l16.5,9.5l28.7,16.6l7.9,4.6l0,0C118,104.4,121.6,111.3,121.6,117.2z"/>
		</g>
		<path fill="#F8D466" d="M105.5,97.1l-44.6,58.3l-0.5-0.3c-4.5-2.6-8.1-9.5-8.1-15.5v-27l24.6-32L105.5,97.1z"/>
		<g>
			<g>
				<path fill="#FFFFFF" d="M123.1,101.2c-0.1,0-0.3,0-0.4,0h-0.1H122l0,0c-2.3-0.1-4.5-0.8-6.2-1.8c-2.4-1.4-3.6-3.3-3.2-5.2V70.8
					c0-13-7.9-28.1-17.7-33.8c-2.4-1.4-4.6-2.1-6.8-2.1c-0.1,0-0.3,0-0.5,0c-1.7,2.6-2.6,6.4-2.6,10.8v23.5c0.1,1.5-0.7,2.9-2.4,3.9
					c-0.3,0.2-0.6,0.3-0.9,0.5c-0.2,0.1-0.5,0.2-0.6,0.3c-0.2,0.1-0.5,0.1-0.7,0.2c-0.3,0.1-0.7,0.2-1.1,0.3h-0.1
					c-0.2,0-0.4,0.1-0.6,0.1h-0.1c-0.2,0-0.4,0.1-0.5,0.1h-0.1c-0.2,0-0.3,0-0.5,0h-0.3c-0.1,0-0.3,0-0.4,0V74v0.6h-0.1H76l0,0
					c-2.3-0.1-4.5-0.8-6.2-1.8c-2.3-1.4-3.5-3.2-3.3-5.1V43.3c0-6.8,1.4-12.7,3.9-17.1c0.1-0.1,1-2.3,3.3-4.7l0.2-0.2
					c0.2-0.2,0.4-0.4,0.6-0.6s0.4-0.4,0.6-0.6s0.4-0.4,0.6-0.6s0.5-0.4,0.6-0.6c0.1-0.1,0.2-0.2,0.3-0.3l0.1-0.1v-0.3h0.4
					c0.1-0.1,0.3-0.2,0.3-0.2c0.1-0.1,0.2-0.1,0.3-0.3c0.1-0.1,0.3-0.2,0.4-0.3c0.1-0.1,0.3-0.2,0.4-0.3c0,0,0.3-0.2,0.5-0.3
					l0.2-0.1c0.3-0.2,0.6-0.4,1-0.5c0.1-0.1,0.2-0.1,0.3-0.1c0.1-0.1,0.1-0.1,0.3-0.1c0.2-0.1,0.4-0.2,0.6-0.3
					c0.1-0.1,0.2-0.1,0.3-0.1c0.1,0,0.1-0.1,0.2-0.1c0.1-0.1,0.2-0.1,0.3-0.1c0.1-0.1,0.3-0.1,0.5-0.2c0.1-0.1,0.3-0.1,0.5-0.2h0.1
					c0.2-0.1,0.3-0.1,0.5-0.2c0.2-0.1,0.3-0.1,0.5-0.2h0.1c0.1-0.1,0.3-0.1,0.5-0.1c0.1-0.1,0.3-0.1,0.5-0.1l0.2-0.1
					c0.1-0.1,0.3-0.1,0.4-0.1c0.1-0.1,0.3-0.1,0.5-0.1h0.1c0.2-0.1,0.3-0.1,0.5-0.1c0.2-0.1,0.4-0.1,0.6-0.1
					c1.2-0.3,2.5-0.5,3.7-0.5c0.8,0,1.6,0.1,2.5,0.2c2.9,0.4,5.9,1.5,9,3.3c15.7,9.1,28.5,33.5,28.5,54.4v25.4l-0.1-0.1
					c-0.3,1.1-1,2.1-2.3,2.8c-0.3,0.2-0.6,0.3-0.9,0.5c-0.3,0.1-0.5,0.2-0.6,0.3c-0.2,0.1-0.5,0.1-0.7,0.2c-0.3,0.1-0.7,0.2-1.1,0.3
					h-0.1c-0.2,0-0.4,0.1-0.6,0.1h-0.1c-0.2,0-0.4,0.1-0.5,0.1h-0.1c-0.2,0-0.4,0-0.6,0L123.1,101.2z"/>
			</g>
			<g>
				<path fill="#221F20" d="M91.2,14.5c0.8,0,1.5,0.1,2.4,0.2c2.8,0.4,5.7,1.4,8.8,3.2c15.5,9,28.2,33.1,28.2,53.9v24.3l0,0
					c0.1,1.2-0.6,2.5-2.1,3.4c-0.3,0.1-0.6,0.3-0.8,0.4c-0.2,0.1-0.4,0.1-0.6,0.3c-0.2,0.1-0.5,0.1-0.6,0.2c-0.3,0.1-0.6,0.1-1,0.2
					l0,0c-0.2,0.1-0.4,0.1-0.6,0.1c-0.1,0-0.1,0-0.1,0c-0.2,0-0.3,0.1-0.5,0.1c-0.1,0-0.1,0-0.1,0c-0.2,0-0.3,0-0.5,0
					c-0.1,0-0.1,0-0.1,0s-0.1,0-0.2,0s-0.3,0-0.4,0l0,0l0,0l0,0l0,0c-2.3-0.1-4.6-0.6-6.5-1.7c-2.3-1.3-3.3-3-3-4.6V70.9
					c0-13.2-8.1-28.6-17.9-34.3c-2.5-1.5-5-2.1-7.1-2.1c-0.3,0-0.5,0-0.8,0l0,0l0,0c-1.9,2.7-2.9,6.6-2.9,11.4v23.6
					c0.1,1.2-0.6,2.5-2.1,3.3c-0.3,0.1-0.6,0.3-0.8,0.4c-0.2,0.1-0.4,0.1-0.6,0.3c-0.2,0.1-0.5,0.1-0.6,0.2c-0.3,0.1-0.6,0.1-1,0.2
					l0,0C79.5,74,79.3,74,79.1,74C79,74,79,74,79,74c-0.2,0-0.3,0.1-0.5,0.1c-0.1,0-0.1,0-0.1,0c-0.2,0-0.3,0-0.5,0
					c-0.1,0-0.1,0-0.2,0s-0.1,0-0.1,0c-0.1,0-0.3,0-0.4,0l0,0l0,0c0,0,0,0-0.1,0l0,0c-2.3-0.1-4.6-0.6-6.5-1.7c-2.2-1.3-3.2-3-3-4.5
					V43.3c0-7,1.4-12.6,3.9-16.8l0,0c0,0,1-2.1,3.2-4.5c0.1-0.1,0.1-0.1,0.2-0.2c0.2-0.2,0.4-0.4,0.6-0.6s0.4-0.4,0.6-0.5
					c0.2-0.2,0.4-0.4,0.6-0.5c0.2-0.2,0.5-0.4,0.6-0.5s0.3-0.2,0.3-0.3c0.1-0.1,0.3-0.2,0.3-0.3l0,0c0.1-0.1,0.2-0.1,0.3-0.3
					l0.1-0.1c0.1-0.1,0.2-0.1,0.3-0.3c0.1-0.1,0.3-0.2,0.4-0.3c0.1-0.1,0.3-0.2,0.4-0.3c0.1-0.1,0.3-0.2,0.4-0.3
					c0.1,0,0.1-0.1,0.2-0.1c0.3-0.2,0.6-0.4,1-0.5c0.1-0.1,0.2-0.1,0.3-0.1c0.1-0.1,0.1-0.1,0.2-0.1c0.2-0.1,0.4-0.2,0.6-0.3
					c0.1-0.1,0.2-0.1,0.3-0.1c0.1,0,0.1-0.1,0.2-0.1c0.1-0.1,0.2-0.1,0.3-0.1c0.1-0.1,0.3-0.1,0.5-0.2c0.1-0.1,0.3-0.1,0.5-0.2l0,0
					c0.1-0.1,0.3-0.1,0.5-0.2l0,0c0.1-0.1,0.3-0.1,0.5-0.1c0,0,0,0,0.1,0c0.1-0.1,0.3-0.1,0.5-0.1c0.1-0.1,0.3-0.1,0.5-0.1
					c0.1,0,0.1,0,0.2-0.1s0.3-0.1,0.4-0.1c0.1-0.1,0.3-0.1,0.5-0.1c0.1,0,0.1,0,0.1,0c0.2-0.1,0.3-0.1,0.5-0.1
					c0.2-0.1,0.4-0.1,0.6-0.1C88.7,14.6,90,14.5,91.2,14.5 M91.2,13.3L91.2,13.3c-1.4,0-2.6,0.1-3.9,0.5c-0.2,0-0.4,0.1-0.5,0.1
					c-0.2,0-0.3,0.1-0.5,0.1c-0.1,0-0.1,0-0.1,0c-0.2,0-0.4,0-0.5,0c-0.1,0.1-0.3,0.1-0.5,0.1l-0.1,0.1H85c-0.2,0.1-0.3,0.1-0.5,0.1
					c-0.1,0.1-0.3,0.1-0.5,0.1l0,0l0,0l0,0c-0.2,0.1-0.3,0.1-0.5,0.2l0,0l0,0c-0.1,0.1-0.3,0.1-0.5,0.2l0,0
					c-0.1,0.1-0.3,0.1-0.5,0.2c-0.2,0.1-0.3,0.1-0.5,0.2c-0.1,0.1-0.2,0.1-0.3,0.1c-0.1,0-0.1,0.1-0.2,0.1c-0.1,0.1-0.2,0.1-0.3,0.1
					c-0.2,0.1-0.4,0.2-0.6,0.3c-0.1,0.1-0.1,0.1-0.3,0.1C80.2,16,80.1,16,80,16c-0.3,0.2-0.7,0.4-1,0.6l-0.1,0.1l-0.1,0.1l0,0l0,0
					c-0.1,0.1-0.3,0.1-0.4,0.2h-0.1l0,0l0,0c-0.1,0.1-0.3,0.2-0.4,0.3c-0.1,0.1-0.3,0.2-0.4,0.3c-0.1,0.1-0.3,0.1-0.3,0.3L77.1,18
					l0,0l0,0h-0.8v0.6c-0.1,0.1-0.2,0.1-0.3,0.2c-0.3,0.2-0.5,0.4-0.7,0.6c-0.3,0.2-0.5,0.4-0.6,0.6c-0.2,0.2-0.4,0.4-0.6,0.6
					s-0.4,0.4-0.6,0.6c-0.1,0.1-0.1,0.1-0.2,0.3c-2.2,2.4-3.2,4.5-3.4,4.8c-2.6,4.5-4,10.5-4,17.4v24.1c-0.3,2.1,1,4.2,3.5,5.7
					c1.7,1,3.7,1.6,5.9,1.8v0.1l1.2,0.1h0.1l0,0l0,0c0.1,0,0.3,0,0.4,0h0.1c0.1,0,0.1,0,0.2,0c0.2,0,0.4,0,0.5,0H78
					c0.1,0,0.1,0,0.1,0c0.2,0,0.4,0,0.6-0.1h0.1h0.1c0.2,0,0.4-0.1,0.6-0.1l0,0h0.1c0.4-0.1,0.8-0.1,1.2-0.3
					c0.3-0.1,0.5-0.1,0.7-0.2c0.3-0.1,0.5-0.2,0.7-0.3c0.4-0.1,0.7-0.3,1-0.5c1.9-1.1,2.8-2.7,2.7-4.5V46c0-4.1,0.8-7.7,2.4-10.2
					c0.1,0,0.1,0,0.1,0c2.1,0,4.2,0.6,6.5,2c9.5,5.5,17.4,20.5,17.4,33.2v23.4c-0.4,2.1,1,4.3,3.5,5.7c1.7,1,3.7,1.6,5.9,1.8v0.1
					l1.2,0.1h0.1l0,0c0.1,0,0.3,0,0.4,0s0.1,0,0.2,0s0.1,0,0.1,0c0.2,0,0.4,0,0.6,0h0.1h0.1c0.2,0,0.4,0,0.6-0.1h0.1h0.1
					c0.2,0,0.4-0.1,0.6-0.1l0,0l0,0l0,0h0.1c0.4-0.1,0.8-0.1,1.2-0.3c0.3-0.1,0.5-0.1,0.7-0.2c0.3-0.1,0.5-0.1,0.7-0.3
					c0.4-0.1,0.7-0.3,1-0.5c1.1-0.6,1.9-1.5,2.3-2.5l0.4,0.3v-2.2V72c0-10.3-3-21.5-8.4-31.9s-12.6-18.5-20.4-23
					c-3.2-1.8-6.3-3-9.2-3.4C92.9,13.3,92,13.3,91.2,13.3L91.2,13.3z"/>
			</g>
		</g>
		<path fill="#F8D466" d="M121.6,117.2v6.1l-35.7,46.5L68.8,160l44.6-58.3C118,104.4,121.6,111.3,121.6,117.2z"/>
		<g>
			<path fill="#221F20" d="M116.7,187.4c-1.1,0-2.3-0.3-3.5-1L60,155.6c-4.6-2.6-8.4-9.9-8.4-16V77.2c0-4.6,2.1-7.7,5.5-7.7
				c1.1,0,2.3,0.3,3.5,1l53.2,30.7c4.6,2.6,8.4,9.9,8.4,16v62.5C122.2,184.4,120,187.4,116.7,187.4z M57.1,70.7
				c-2.6,0-4.3,2.5-4.3,6.5v62.5c0,5.7,3.5,12.5,7.8,14.9l53.2,30.7c1,0.6,2,0.9,2.9,0.9c2.6,0,4.3-2.5,4.3-6.5v-62.5
				c0-5.7-3.5-12.5-7.8-14.9L60,71.6C59,71,58,70.7,57.1,70.7z"/>
		</g>
		<g>
			<g>
				<path fill="#F09938" d="M97.7,120.7c0,5-1.9,8.3-4.9,9V146c0,0.9-0.1,1.7-0.3,2.4c-0.8,2.4-2.8,3.2-5.2,1.8
					c-3.1-1.7-5.5-6.5-5.5-10.6v-16.3c-3-4.2-4.9-9.7-4.9-14.7c0-7.6,4.6-11.2,10.3-8c0.1,0,0.1,0.1,0.2,0.1
					C93,104,97.7,113,97.7,120.7z"/>
			</g>
			<g>
				<path fill="#221F20" d="M89.4,151.5c-0.8,0-1.7-0.3-2.5-0.8c-3.2-1.9-5.9-6.8-5.9-11.2v-16.1c-3.1-4.5-4.9-10-4.9-14.9
					c0-2.9,0.6-5.4,1.9-7.1c1.2-1.7,3-2.7,5-2.7c1.4,0,2.8,0.4,4.3,1.2c0.1,0,0.1,0.1,0.2,0.1c5.9,3.4,10.8,12.6,10.8,20.6
					c0,4.9-1.8,8.4-4.9,9.5V146c0,1-0.1,1.8-0.4,2.6C92.4,150.4,91.1,151.5,89.4,151.5z M83.1,100c-1.6,0-3,0.8-4.1,2.2
					c-1.1,1.5-1.7,3.7-1.7,6.4c0,4.7,1.8,10.1,4.8,14.3l0.1,0.1v16.5c0,3.9,2.3,8.4,5.2,10.1c0.6,0.4,1.3,0.6,1.9,0.6
					c1.1,0,2-0.7,2.5-2.1c0.2-0.6,0.3-1.4,0.3-2.2v-16.8l0.5-0.1c2.8-0.7,4.5-3.9,4.5-8.4c0-7.5-4.6-16.3-10.2-19.5
					c-0.1,0-0.1-0.1-0.1-0.1C85.4,100.4,84.2,100,83.1,100z"/>
			</g>
		</g>
		<g>
			<path fill="#221F20" d="M97.7,120.7c0,5-1.9,8.3-4.9,9V146c0,0.9-0.1,1.7-0.3,2.4c-2-2.3-3.4-5.7-3.4-8.8v-16.3
				c-3-4.2-4.9-9.7-4.9-14.7c0-3.8,1.1-6.6,3-8c0.1,0,0.1,0.1,0.2,0.1C93,104,97.7,113,97.7,120.7z"/>
		</g>
		<g>
			<g>
				<path fill="#D0D2D3" d="M130.5,71.7c0-20.8-12.6-44.8-28.2-53.9c-3.1-1.7-6-2.8-8.8-3.2c-2.1-0.3-4.1-0.2-6,0.3
					c-6.5,1-10.8,4.3-13.4,7.2c1.6-0.7,3.4-1.2,5.5-1.5c1.9-0.5,3.9-0.6,6-0.3c2.8,0.4,5.7,1.4,8.8,3.2c15.5,9,28.2,33.1,28.2,53.9
					v23.3c2.1,0.1,4.3-0.3,5.8-1.2c1.5-0.9,2.2-2.1,2.1-3.4l0,0L130.5,71.7L130.5,71.7z"/>
			</g>
			<g>
				<path fill="#D0D2D3" d="M87.4,34.4L87.4,34.4L87.4,34.4c-1.9,2.7-2.9,6.6-2.9,11.4v23.6c0.1,1.2-0.6,2.5-2.1,3.3
					c-0.3,0.1-0.6,0.3-0.8,0.4c-0.2,0.1-0.4,0.1-0.6,0.3c-0.2,0.1-0.5,0.1-0.6,0.2c-0.3,0.1-0.6,0.1-1,0.2l0,0
					c-0.8,0.1-1.7,0.2-2.6,0.2V51.4c0-4.8,1.1-8.7,2.9-11.4C80.6,38,84.4,34.8,87.4,34.4C87.3,34.4,87.3,34.4,87.4,34.4z"/>
			</g>
		</g>
	</g>
</g>
<g id="Layer_2_2_">
</g>
</svg>
