<?xml version="1.0" encoding="utf-8"?>
<!-- Generator: Adobe Illustrator 25.3.1, SVG Export Plug-In . SVG Version: 6.00 Build 0)  -->
<svg version="1.1" id="Capa_1" xmlns="http://www.w3.org/2000/svg" xmlns:xlink="http://www.w3.org/1999/xlink" x="0px" y="0px"
	 width="790.4px" height="622.9px" viewBox="0 0 790.4 622.9" enable-background="new 0 0 790.4 622.9" xml:space="preserve">
<g>
	<g>
		<polygon fill="#FFB21A" points="546.7,200.4 546.7,484.2 546.4,484.4 518.1,500.7 518.1,216.6 518.3,216.5 546.4,200.3 		"/>
		<g>
			<polygon fill="#FFB21A" points="518.3,216.6 518.3,500.7 191.6,312.1 191.6,28 192.9,28.8 518.1,216.5 			"/>
			
				<path fill="#FFC93E" stroke="#000000" stroke-width="4" stroke-linecap="round" stroke-linejoin="round" stroke-miterlimit="10" d="
				M517,500.4L191.8,312.7L312,247.1l21.6,39.6c7,12.9,23.2,17.7,36.1,10.6l28.1-15.3L517,500.4z"/>
			<path d="M519.1,216.6c-177.3,117.6-150.1,152.1-212,32.7C284.3,205.2,214.2,72,191.6,28C263.7,73.7,463,214,519.1,216.6z"/>
			
				<path fill="#FFC93E" stroke="#000000" stroke-width="4" stroke-linecap="round" stroke-linejoin="round" stroke-miterlimit="10" d="
				M518.1,216.5l-120.2,65.6l-24.1,13.2c-15.1,8.2-34.1,2.7-42.3-12.4l-4.8-8.9l-12.5-22.8l-2.2-4l-6.5-11.9L272,173.8l-79.1-145
				l167.2,96.6l70.9,40.9l18.3,10.5l26.3,15.2L518.1,216.5z"/>
			
				<polygon fill="#FFD67B" stroke="#000000" stroke-width="4" stroke-linecap="round" stroke-linejoin="round" stroke-miterlimit="10" points="
				191.6,28.1 518.1,216.6 546.4,200.3 220,11.8 			"/>
			<polygon fill="#F0F7FF" points="200,30.3 241.3,54.1 261.8,43.1 219.8,18.9 			"/>
			<polyline fill="#F0F7FF" points="284.5,56.6 264.8,68 251.8,60.5 271.6,49.1 			"/>
			<polygon fill="#F0F7FF" points="256.1,68 211.7,58.5 211.7,299.3 241.3,333.7 200.8,310.4 197.6,307 197.7,42.3 198.8,34.9 			
				"/>
			<path opacity="0.4" fill="#231F20" enable-background="new    " d="M720.2,372.2l-163.7-98.6v216.7l163.7-98.6
				C727.5,387.2,727.5,376.6,720.2,372.2z"/>
			<path fill="#231F20" d="M220.8,0.5L219.9,0l-38.5,22.2l-0.1,294.8v1l336,193.9l0.9,0.5l38.3-22.1l0.3-294.7l0-1L220.8,0.5z
				 M309,246.2L197.6,307l0.1-264.7L309,246.2z M198.8,34.9l314.6,181.6l-146.1,79.7c-11.1,6-24.9,2-30.9-9.1l-23.4-43l0,0
				L198.8,34.9z M311.1,250.2l20.6,37.7c7.6,14,25.1,19.1,39,11.5l26.2-14.3l110.2,202.1L200.8,310.4L311.1,250.2z M400.9,283
				l114.9-62.7v271.9l-1.2-0.7L400.9,283z M200,30.3l19.8-11.4L538,202.6L518.2,214L200,30.3z M520.3,217.9l2.1-1.2l0.2-0.1l0,0
				l17.7-10.2l-0.2,274.5l-19.8,11.4L520.3,217.9L520.3,217.9z"/>
		</g>
	</g>
</g>
</svg>
