<?xml version="1.0" encoding="utf-8"?>
<!-- Generator: Adobe Illustrator 25.3.1, SVG Export Plug-In . SVG Version: 6.00 Build 0)  -->
<svg version="1.1" id="Capa_1" xmlns="http://www.w3.org/2000/svg" xmlns:xlink="http://www.w3.org/1999/xlink" x="0px" y="0px"
	 width="790.4px" height="622.9px" viewBox="0 0 790.4 622.9" enable-background="new 0 0 790.4 622.9" xml:space="preserve">
<g>
	<g>
		<polygon fill="#FFB21A" points="587.9,207.9 587.9,475.4 587.6,475.6 560.9,491 560.9,223.2 561.1,223.1 587.6,207.8 		"/>
		<g>
			<polygon fill="#FFB21A" points="561.1,223.2 561.1,491 253.2,313.2 253.2,45.4 254.4,46.1 560.9,223.1 			"/>
			
				<path fill="#FFC93E" stroke="#000000" stroke-width="4" stroke-linecap="round" stroke-linejoin="round" stroke-miterlimit="10" d="
				M559.9,490.7l-306.5-177L366.7,252l20.4,37.4c6.6,12.2,21.9,16.7,34.1,10l26.5-14.4L559.9,490.7z"/>
			<path d="M561.9,223.2C394.8,334,420.4,366.5,362.1,254c-21.5-41.5-87.6-167-108.9-208.6C321.2,88.5,509.1,220.7,561.9,223.2z"/>
			
				<path fill="#FFC93E" stroke="#000000" stroke-width="4" stroke-linecap="round" stroke-linejoin="round" stroke-miterlimit="10" d="
				M560.9,223.1l-113.3,61.8l-22.7,12.4c-14.3,7.8-32.1,2.5-39.9-11.7l-4.6-8.4l-11.7-21.5l-2-3.7l-6.1-11.2l-31.6-58L254.4,46.1
				l157.6,91l66.8,38.6l17.2,9.9l24.8,14.3L560.9,223.1z"/>
			
				<polygon fill="#FFD67B" stroke="#000000" stroke-width="4" stroke-linecap="round" stroke-linejoin="round" stroke-miterlimit="10" points="
				253.2,45.5 560.9,223.2 587.6,207.8 279.9,30.1 			"/>
			<polygon fill="#F0F7FF" points="261.1,47.6 300,70 319.3,59.6 279.8,36.8 			"/>
			<polyline fill="#F0F7FF" points="340.7,72.4 322.2,83.1 309.9,76 328.6,65.2 			"/>
			<polygon fill="#F0F7FF" points="314,83.1 272.1,74.2 272.1,301.1 300,333.6 261.8,311.5 258.8,308.4 258.9,58.8 260,51.9 			"/>
			<path opacity="0.4" fill="#231F20" enable-background="new    " d="M751.4,369.8l-154.3-93v204.3l154.3-93
				C758.3,384,758.3,374,751.4,369.8z"/>
			<path fill="#231F20" d="M280.7,19.5l-0.8-0.5l-36.3,20.9l-0.1,277.9v1l316.7,182.8l0.8,0.5l36.1-20.9l0.2-277.8v-1L280.7,19.5z
				 M363.8,251.1l-105,57.3l0.1-249.5L363.8,251.1z M260,51.9l296.6,171.2l-137.8,75.1c-10.4,5.7-23.5,1.8-29.2-8.6l-22.1-40.5l0,0
				L260,51.9z M365.8,254.8l19.4,35.6c7.2,13.2,23.7,18,36.8,10.8l24.7-13.5l103.9,190.5L261.8,311.5L365.8,254.8z M450.5,285.7
				l108.4-59.1v256.3l-1.2-0.7L450.5,285.7z M261.1,47.6l18.7-10.8l299.9,173.1L561,220.7L261.1,47.6z M563,224.4l2-1.1l0.2-0.1l0,0
				l16.7-9.7l-0.2,258.7L563,483V224.4L563,224.4z"/>
		</g>
	</g>
</g>
<g>
	<g>
		<polygon fill="#FFB21A" points="531.3,236.2 531.3,503.7 531.1,503.8 504.4,519.2 504.4,251.5 504.5,251.4 531.1,236 		"/>
		<g>
			<polygon fill="#FFB21A" points="504.5,251.5 504.5,519.2 196.6,341.5 196.6,73.7 197.9,74.4 504.4,251.4 			"/>
			
				<path fill="#FFC93E" stroke="#000000" stroke-width="4" stroke-linecap="round" stroke-linejoin="round" stroke-miterlimit="10" d="
				M503.3,519L196.8,342l113.3-61.8l20.4,37.4c6.6,12.2,21.9,16.7,34.1,10l26.5-14.4L503.3,519z"/>
			<path d="M505.3,251.5c-167.1,110.8-141.5,143.3-199.8,30.8c-21.5-41.5-87.6-167-108.9-208.6C264.6,116.8,452.5,249,505.3,251.5z"
				/>
			
				<path fill="#FFC93E" stroke="#000000" stroke-width="4" stroke-linecap="round" stroke-linejoin="round" stroke-miterlimit="10" d="
				M504.4,251.4l-113.3,61.8l-22.7,12.4c-14.3,7.8-32.1,2.5-39.9-11.7l-4.6-8.4L312.2,284l-2-3.7L304,269l-31.6-58L197.9,74.4
				l157.6,91l66.8,38.6l17.2,9.9l24.8,14.3L504.4,251.4z"/>
			
				<polygon fill="#FFD67B" stroke="#000000" stroke-width="4" stroke-linecap="round" stroke-linejoin="round" stroke-miterlimit="10" points="
				196.6,73.8 504.4,251.5 531.1,236 223.4,58.4 			"/>
			<polygon fill="#F0F7FF" points="204.6,75.8 243.5,98.3 262.8,87.9 223.2,65.1 			"/>
			<polyline fill="#F0F7FF" points="284.2,100.6 265.6,111.3 253.3,104.3 272,93.5 			"/>
			<polygon fill="#F0F7FF" points="257.4,111.3 215.5,102.4 215.5,329.4 243.5,361.9 205.3,339.8 202.3,336.6 202.4,87.1 
				203.4,80.2 			"/>
			<path fill="#231F20" d="M224.1,47.8l-0.8-0.5L187,68.2L186.9,346v1l316.7,182.8l0.8,0.5l36.1-20.9l0.2-277.8v-1L224.1,47.8z
				 M307.3,279.4l-105,57.3l0.1-249.5L307.3,279.4z M203.4,80.2L500,251.3l-137.8,75.1c-10.4,5.7-23.5,1.8-29.2-8.6l-22-40.4l0,0
				L203.4,80.2z M309.3,283.1l19.4,35.6c7.2,13.2,23.7,18,36.8,10.8l24.7-13.5l103.9,190.5L205.3,339.8L309.3,283.1z M393.9,314
				l108.4-59.1v256.3l-1.2-0.7L393.9,314z M204.6,75.8L223.3,65l299.9,173.1L504.5,249L204.6,75.8z M506.5,252.7l2-1.1l0.2-0.1l0,0
				l16.7-9.7l-0.2,258.7l-18.7,10.8V252.7L506.5,252.7z"/>
		</g>
	</g>
</g>
<g>
	<g>
		<polygon fill="#FFB21A" points="474.7,273.9 474.7,541.4 474.5,541.5 447.8,557 447.8,289.2 448,289.1 474.5,273.7 		"/>
		<g>
			<polygon fill="#FFB21A" points="448,289.2 448,557 140,379.2 140,111.4 141.3,112.1 447.8,289.1 			"/>
			
				<path fill="#FFC93E" stroke="#000000" stroke-width="4" stroke-linecap="round" stroke-linejoin="round" stroke-miterlimit="10" d="
				M446.8,556.7l-306.5-177l113.3-61.8l20.4,37.4c6.6,12.2,21.9,16.7,34.1,10l26.5-14.4L446.8,556.7z"/>
			<path d="M448.8,289.2C281.7,400,307.3,432.5,249,319.9c-21.5-41.5-87.6-167-108.9-208.6C208.1,154.5,395.9,286.7,448.8,289.2z"/>
			
				<path fill="#FFC93E" stroke="#000000" stroke-width="4" stroke-linecap="round" stroke-linejoin="round" stroke-miterlimit="10" d="
				M447.8,289.1l-113.3,61.8l-22.7,12.4c-14.3,7.8-32.1,2.5-39.9-11.7l-4.6-8.4l-11.7-21.5l-2-3.7l-6.1-11.2l-31.6-58l-74.5-136.7
				l157.6,91l66.8,38.6l17.2,9.9l24.8,14.3L447.8,289.1z"/>
			
				<polygon fill="#FFD67B" stroke="#000000" stroke-width="4" stroke-linecap="round" stroke-linejoin="round" stroke-miterlimit="10" points="
				140,111.5 447.8,289.2 474.5,273.7 166.8,96.1 			"/>
			<polygon fill="#F0F7FF" points="148,113.5 186.9,136 206.2,125.6 166.7,102.8 			"/>
			<polyline fill="#F0F7FF" points="227.6,138.4 209,149.1 196.8,142 215.4,131.2 			"/>
			<polygon fill="#F0F7FF" points="200.9,149.1 159,140.1 159,367.1 186.9,399.6 148.7,377.5 145.7,374.3 145.8,124.8 146.8,117.9 
							"/>
			<path fill="#231F20" d="M167.5,85.5l-0.8-0.5l-36.3,20.9l-0.1,277.9v1L447,567.5l0.8,0.5l36.1-20.9l0.2-277.8v-1L167.5,85.5z
				 M250.7,317.1l-105,57.3l0.1-249.5L250.7,317.1z M146.8,117.9l296.6,171.2l-137.8,75.1c-10.4,5.7-23.5,1.8-29.2-8.6l-22.1-40.5
				l0,0L146.8,117.9z M252.7,320.8l19.4,35.6c7.2,13.2,23.7,18,36.8,10.8l24.7-13.5l103.9,190.5L148.7,377.5L252.7,320.8z
				 M337.4,351.7l108.4-59.1v256.3l-1.2-0.7L337.4,351.7z M148,113.5l18.7-10.8l299.9,173.1L448,286.6L148,113.5z M449.9,290.4
				l2-1.1l0.2-0.1l0,0l16.7-9.7l-0.2,258.7L449.9,549V290.4L449.9,290.4z"/>
		</g>
	</g>
</g>
</svg>
