<?xml version="1.0" encoding="utf-8"?>
<!-- Generator: Adobe Illustrator 25.3.1, SVG Export Plug-In . SVG Version: 6.00 Build 0)  -->
<svg version="1.1" id="Layer_1" xmlns="http://www.w3.org/2000/svg" xmlns:xlink="http://www.w3.org/1999/xlink" x="0px" y="0px"
	 width="824.7px" height="850.9px" viewBox="0 0 824.7 850.9" enable-background="new 0 0 824.7 850.9" xml:space="preserve">
<g>
	<path fill="#DCE9F9" d="M251.3,596.3v-56.6L216,519.4v53.6c0,20.6,16.7,46.9,37.3,58.8l14.5,8.3
		C257.7,626.2,251.3,610.2,251.3,596.3z"/>
	<g>
		<polygon fill="#CDD9EE" points="503.6,244.5 503.6,685.4 276.5,554.3 244.2,535.7 222.9,523.3 216,519.3 216,78.4 437.9,206.5 
			502.4,243.8 		"/>
		<polygon fill="#E6F0FF" points="314.1,574.7 281.9,556.1 260.5,543.7 253.6,539.8 253.6,100.1 216,78.4 216,519.3 222.9,523.3 
			244.2,535.7 276.5,554.3 503.6,685.4 503.6,684.1 		"/>
		<path fill="#6885A9" d="M538.5,197.2v521.7c0,9.1-3.3,15.5-8.6,18.9l-0.9,0.5l-34.5,19.9v0c5.7-3.3,9.2-9.8,9.2-19.2V217.3
			c0-20.6-16.7-46.9-37.3-58.8L300.4,62.7l-19.6-11.3l-27.5-15.9c-0.4-0.2-0.8-0.5-1.2-0.7c-0.4-0.2-0.8-0.4-1.2-0.6
			c-10.2-5.2-19.2-5.7-25.6-2.2v0l34.1-19.6l0.3-0.2c2.8-1.7,6.1-2.6,9.9-2.6c5.5,0,11.8,1.9,18.6,5.8l24.6,14.2l188.4,108.8
			C521.8,150.2,538.5,176.6,538.5,197.2z"/>
		<path fill="#B4C0D3" d="M503.6,244.5v-27.2c0-20.6-16.7-46.9-37.3-58.8l-213.1-123C232.7,23.6,216,30.6,216,51.2v27.2L503.6,244.5
			z"/>
		<path fill="#DCE9F9" d="M251.3,80.7c0-20.3,11.7-31.1,28.7-29.8l-26.8-15.5C232.7,23.6,216,30.6,216,51.2v27.2l35.4,20.4V80.7
			L251.3,80.7z"/>
		<path fill="#B4C0D3" d="M216,519.4v53.6c0,20.6,16.7,46.9,37.3,58.8l213.1,123c20.6,11.9,37.3,4.8,37.3-15.8v-53.6L216,519.4z"/>
		<path fill="#6885A9" d="M367.4,649.9c0,16.1-13.1,21.6-29.2,12.3c-16.1-9.3-29.2-29.9-29.2-46c0-16.1,13.1-21.6,29.2-12.3
			C354.4,613.2,367.4,633.8,367.4,649.9z"/>
		<path fill="#B0CAE2" d="M338.2,603.9c-3-1.7-5.9-3-8.7-3.7c14.9,9.9,26.5,29.1,26.5,44.3c0,13.1-8.6,19.2-20.5,16
			c0.9,0.6,1.8,1.2,2.7,1.7c16.1,9.3,29.2,3.8,29.2-12.3C367.4,633.8,354.4,613.2,338.2,603.9z"/>
		<path fill="#231F20" d="M352.8,668.9c-4.8,0-10.2-1.7-15.7-4.8c-16.7-9.6-30.3-31.1-30.3-47.9c0-11.6,6.6-19.1,16.8-19.1
			c4.8,0,10.2,1.7,15.7,4.8c16.7,9.6,30.3,31.1,30.3,47.9C369.6,661.5,363,668.9,352.8,668.9z M323.7,601.5
			c-7.8,0-12.4,5.5-12.4,14.7c0,15.4,12.6,35.2,28.1,44.1c4.8,2.8,9.4,4.2,13.5,4.2c7.8,0,12.4-5.5,12.4-14.7
			c0-15.4-12.6-35.2-28.1-44.1C332.3,603,327.7,601.5,323.7,601.5z"/>
		<path fill="#DCE9F9" d="M312.8,29.6l-2.2,5.7l-27.4,14.6l-2.3,1.4l-27.5-15.9c-0.4-0.2-0.8-0.5-1.2-0.7c-0.4-0.2-0.8-0.4-1.2-0.6
			c-10.2-5.2-19.2-5.7-25.6-2.2v0l34.1-19.6l0.3-0.2c2.8-1.7,6.1-2.6,9.9-2.6c5.5,0,11.8,1.9,18.6,5.8L312.8,29.6z"/>
		<path fill="#6885A9" d="M325.1,112.1c0,5.6-4.6,7.5-10.2,4.3c-5.6-3.2-10.2-10.4-10.2-16c0-5.6,4.6-7.5,10.2-4.3
			C320.6,99.3,325.1,106.5,325.1,112.1z"/>
		<path fill="#231F20" d="M320.1,120.4c-2,0-4.1-0.6-6.3-1.9c-6.4-3.7-11.4-11.6-11.4-18.1c0-4.9,3-8.3,7.5-8.3c2,0,4.1,0.6,6.3,1.9
			c6.4,3.7,11.4,11.6,11.4,18.1C327.5,117.1,324.5,120.4,320.1,120.4z M309.9,96.9c-1.8,0-2.7,1.2-2.7,3.5c0,4.8,4.1,11.2,9,14
			c1.4,0.8,2.8,1.3,3.9,1.3c1.8,0,2.7-1.2,2.7-3.5c0-4.8-4.1-11.2-9-14C312.4,97.3,311,96.9,309.9,96.9z"/>
		<path fill="#6885A9" d="M397.4,154.3c0,3.7-3,5-6.8,2.9l-46-26.6c-3.8-2.2-6.8-7-6.8-10.7l0,0c0-3.8,3-5,6.8-2.9l46,26.6
			C394.4,145.7,397.4,150.5,397.4,154.3L397.4,154.3z"/>
		<path fill="#231F20" d="M394,160.6c-1.5,0-3-0.5-4.6-1.4l-46-26.6c-4.5-2.6-8-8.2-8-12.8c0-3.8,2.3-6.3,5.8-6.3
			c1.5,0,3,0.5,4.6,1.4l46,26.6c4.5,2.6,8,8.2,8,12.8C399.8,158.1,397.5,160.6,394,160.6z M341.2,118.3c-0.4,0-1,0-1,1.5
			c0,2.9,2.6,6.9,5.6,8.6l46,26.6c0.8,0.5,1.6,0.7,2.2,0.7c0.4,0,1,0,1-1.5c0-2.9-2.6-6.9-5.6-8.6l-46-26.6
			C342.6,118.6,341.8,118.3,341.2,118.3z"/>
		<path opacity="0.4" fill="#000000" enable-background="new    " d="M746.2,567.7c-32-17.6-198.3-100-198.3-100v251.1c0,8.7-2.5,15.9-7.2,21
			c-1.2,1.4-2.5,2.6-4.1,3.6l-0.7,0.4c0,0,0,0,0,0c-0.1,0-0.1,0.1-0.2,0.1l-10.6,6.1c0,0,193.8-102.3,226.7-121.7
			C784.8,608.9,789.6,591.5,746.2,567.7z"/>
		<polygon fill="#FFFFFF" points="501.2,246.1 231.1,525.2 225.4,522 225.4,429.6 438.4,209.7 		"/>
		<polygon fill="#FFFFFF" points="501,277.1 501.1,328.8 282.7,554.8 251.3,536.7 		"/>
		<polygon fill="#DCE9F9" points="296.8,57.8 323.3,42.7 335.4,49.7 309.9,65.4 		"/>
		<path fill="#231F20" d="M509.6,130.9L509.6,130.9L296,7.5C295,6.8,284.2,0,271.7,0c-3.9,0-7.6,0.7-11,2l-35.8,20.3
			c-2.1,0.9-17,7.8-16.3,28.9l0,521.8c0,0.6,0.4,14.8,5.8,25.2c0.5,0.9,1,1.9,1.4,2.9c4.9,9.9,11.1,22.3,29,35.2l0.1,0.1L463.7,763
			c1,0.6,11.3,7.1,23.5,7.1c0,0,0,0,0,0c6.2,0,11.8-1.7,16.7-5L537,746c0.5-0.3,12.1-6.8,13.1-23.4l0.2-19.3V202
			C550.6,198.9,553.6,161.2,509.6,130.9z M533.4,718.9c0,4.3-0.9,10-5.1,12.7l-22.8,13.1h0c0-0.1,0-0.3,0.1-0.4
			c0.1-0.4,0.1-0.7,0.2-1.1c0-0.3,0.1-0.5,0.1-0.8c0-0.3,0.1-0.5,0.1-0.8c0-0.4,0.1-0.9,0.1-1.3c0-0.4,0-0.9,0-1.3V217.3
			c0-21.3-17.3-48.6-38.5-60.9l-213.1-123c-0.4-0.2-0.8-0.5-1.2-0.7c-0.2-0.1-0.3-0.2-0.5-0.3c-0.1-0.1-0.3-0.1-0.4-0.2
			c-0.1-0.1-0.3-0.1-0.4-0.2c-0.6-0.3-1.2-0.6-1.8-0.9c-0.5-0.2-1-0.4-1.5-0.6c-0.6-0.3-1.3-0.5-1.9-0.8c-0.1,0-0.2-0.1-0.3-0.1
			c-0.1,0-0.2-0.1-0.3-0.1l0,0l19.3-11.1c0,0,0.1,0,0.1-0.1c1.7-1,3.7-1.5,6.2-1.5c4.4,0,9.5,1.7,15,4.8l213.1,123
			c18.2,10.5,33.7,34.6,33.7,52.6V718.9L533.4,718.9z M225.3,522V86.6l275.8,159.2v435.4L225.3,522z M501.1,686.8V739
			c0,0.6,0,1.1,0,1.7c0,0.4,0,0.7-0.1,1.1c0,0.1,0,0.2,0,0.3c-0.1,0.9-0.2,1.7-0.4,2.5c0,0.1,0,0.1,0,0.2c-0.2,1.2-0.5,2.3-0.9,3.3
			l0,0l-6.1,3.5c-1.7,1-4,1.5-6.6,1.5c-4.6,0-9.7-1.6-14.9-4.6L259,625.5c-18.3-10.5-33.7-34.6-33.7-52.6v-45.4L501.1,686.8z
			 M225.3,81.1V51.2c0-4.1,0.8-9.4,4.5-12.3c0,0,0,0,0.1-0.1c0.2-0.1,0.4-0.3,0.6-0.4c0,0,0.1-0.1,0.1-0.1c0.1-0.1,0.2-0.1,0.4-0.2
			c0.1-0.1,0.2-0.1,0.3-0.2l0.2-0.1c0.4-0.2,0.7-0.4,1.1-0.7c3.5-1.8,9.9-4.2,16.1-1.5c0.4,0.2,0.8,0.4,1.3,0.6l0.3,0.1
			c0.2,0.1,0.4,0.2,0.6,0.3c0.1,0.1,0.3,0.1,0.4,0.2c0.2,0.1,0.5,0.3,0.7,0.4l213.1,123c1.9,1.1,3.7,2.3,5.5,3.6
			c17.3,12.6,30.6,35.2,30.6,53.1v23.1L225.3,81.1z"/>
	</g>
</g>
</svg>
