<?xml version="1.0" encoding="utf-8"?>
<!-- Generator: Adobe Illustrator 25.3.1, SVG Export Plug-In . SVG Version: 6.00 Build 0)  -->
<svg version="1.1" id="Layer_1" xmlns="http://www.w3.org/2000/svg" xmlns:xlink="http://www.w3.org/1999/xlink" x="0px" y="0px"
	 width="51.2px" height="75.6px" viewBox="0 0 51.2 75.6" enable-background="new 0 0 51.2 75.6" xml:space="preserve">
<polygon id="Shadow" fill="#767776" points="31.3,71.8 24.6,71.8 25,44.2 51.2,59.8 "/>
<path fill="#4C934E" stroke="#010202" stroke-width="2" stroke-miterlimit="10" d="M26.5,70.7l14.6-8.8V14.7L24.5,4.8L8,14.7v34.4
	c-0.6-0.9-1.3-1.4-1.8-1.4c-0.4,0-0.8,0.3-1.2,0.7l0,0c-0.1,0.1-0.2,0.2-0.3,0.4l0,0c-0.1,0.1-0.2,0.3-0.3,0.4v0.1
	c-0.1,0.1-0.2,0.3-0.3,0.4c0,0,0,0.1-0.1,0.1c-0.1,0.1-0.1,0.3-0.2,0.4c0,0.1-0.1,0.1-0.1,0.2c-0.1,0.1-0.1,0.3-0.2,0.4
	c0,0.1-0.1,0.2-0.1,0.3c-0.1,0.1-0.1,0.3-0.2,0.4c0,0.1-0.1,0.2-0.1,0.3S3,52,3,52.2c0,0.1-0.1,0.3-0.1,0.4c0,0.1-0.1,0.2-0.1,0.3
	c0,0.2-0.1,0.3-0.1,0.5c0,0.1,0,0.2-0.1,0.3c0,0.2-0.1,0.4-0.1,0.5s0,0.2,0,0.3c0,0.2,0,0.4-0.1,0.6c0,0.1,0,0.2,0,0.3
	c0,0.3,0,0.6,0,0.9c0,0.3,0,0.5,0,0.8v0.1c0,0.1,0,0.1,0,0.2c0,0.2,0,0.3,0.1,0.4c0,0.1,0,0.1,0,0.2v0.1c0,0.1,0.1,0.2,0.1,0.3
	s0,0.1,0.1,0.2c0,0.1,0.1,0.3,0.2,0.4v0.1c0,0,0,0.1,0.1,0.1v0.1c0,0.1,0.1,0.2,0.1,0.2s0,0,0,0.1v0.1c0,0,0,0.1,0.1,0.1
	c0,0.1,0.1,0.1,0.1,0.2l0.1,0.1c0.1,0.1,0.1,0.2,0.2,0.2l0.1,0.1l0.1,0.1l0,0l0,0l0.1,0.1c0.1,0,0.1,0.1,0.2,0.1l0,0c0,0,0,0,0.1,0
	l0,0c0.1,0.1,0.2,0.1,0.3,0.2c0,0,0.1,0,0.1,0.1c0.1,0,0.1,0.1,0.2,0.1l0,0h0.1l0,0l0,0v1.7C5.2,63.6,5.5,64,6,64h0.4h0.1
	c0.4,0,0.8-0.4,0.8-0.8v-1.8C7.5,61.3,7.8,61.2,8,61v0.9l12.4,7.4c0,0.1,0.1,0.2,0.1,0.2c0.4,1,1.2,1.9,2.3,2.3l0,0v1.7
	c0,0.4,0.4,0.8,0.8,0.8H24h0.1c0.4,0,0.8-0.4,0.8-0.8v-1.8L26.5,70.7"/>
<g id="Structure">
	<g>
		<polygon fill="#FFFFFF" stroke="#010202" stroke-width="0.25" stroke-miterlimit="10" points="24.6,24.7 8,14.7 24.5,4.8 
			41.1,14.7 		"/>
	</g>
	<polygon fill="#E2E2E1" stroke="#010202" stroke-width="0.25" stroke-miterlimit="10" points="8,14.7 8,61.9 24.6,71.8 24.6,24.7 	
		"/>
	<polygon fill="#959596" stroke="#010202" stroke-width="0.25" stroke-miterlimit="10" points="41.1,14.7 41.1,61.9 24.6,71.8 
		24.6,24.7 	"/>
</g>
<g id="Windows">
	<g id="Window">
		<polygon fill="#7E95AC" stroke="#010202" stroke-width="0.25" stroke-miterlimit="10" points="8,16.7 8,21.9 24.6,31.8 24.6,26.7 
					"/>
		<polyline fill="#4A658B" stroke="#010202" stroke-width="0.25" stroke-miterlimit="10" points="24.6,26.7 41.1,16.7 41.1,21.9 
			24.6,31.8 		"/>
	</g>
	<g id="Window_1_">
		<polygon fill="#7E95AC" stroke="#010202" stroke-width="0.25" stroke-miterlimit="10" points="8,24.3 8,29.4 24.6,39.4 24.6,34.2 
					"/>
		<polyline fill="#4A658B" stroke="#010202" stroke-width="0.25" stroke-miterlimit="10" points="24.6,34.2 41.1,24.3 41.1,29.4 
			24.6,39.4 		"/>
	</g>
	<g id="Window_2_">
		<polygon fill="#7E95AC" stroke="#010202" stroke-width="0.25" stroke-miterlimit="10" points="8,31.8 8,37 24.6,46.9 24.6,41.8 		
			"/>
		<polyline fill="#4A658B" stroke="#010202" stroke-width="0.25" stroke-miterlimit="10" points="24.6,41.8 41.1,31.8 41.1,37 
			24.6,46.9 		"/>
	</g>
	<g id="Window_3_">
		<polygon fill="#7E95AC" stroke="#010202" stroke-width="0.25" stroke-miterlimit="10" points="8,39.4 8,44.5 24.6,54.5 24.6,49.3 
					"/>
		<polygon fill="#4A658B" stroke="#010202" stroke-width="0.25" stroke-miterlimit="10" points="24.6,49.3 41.1,39.4 41.1,44.5 
			24.6,54.5 		"/>
	</g>
	<g id="Window_4_">
		<polygon fill="#7E95AC" stroke="#010202" stroke-width="0.25" stroke-miterlimit="10" points="8,46.9 8,52.1 24.6,62 24.6,56.9 		
			"/>
		<polyline fill="#4A658B" stroke="#010202" stroke-width="0.25" stroke-miterlimit="10" points="24.6,56.9 41.1,46.9 41.1,52.1 
			24.6,62 		"/>
	</g>
	<g id="Reflections">
		<g>
			<polygon fill="#A2C2DC" points="17.8,27.7 18.4,22.9 10.9,18.4 10.9,18.4 10.3,23.2 			"/>
			<polygon fill="#A2C2DC" points="16.9,34.8 17.5,30 17.5,30 10,25.5 10,25.5 9.4,30.3 			"/>
			<polygon fill="#A2C2DC" points="16,41.8 16.6,37 16.6,37 9.1,32.5 9.1,32.5 8.5,37.3 			"/>
			<polygon fill="#A2C2DC" points="15.2,48.8 15.8,44 15.8,44 8.3,39.5 8.3,39.5 8,41.4 8,44.5 			"/>
			<polygon fill="#A2C2DC" points="8,52.1 14.3,55.8 14.3,55.8 14.9,51 14.9,51 8,46.9 			"/>
		</g>
		<g>
			<polygon fill="#A2C2DC" points="23.5,26 20,23.9 19.4,28.7 22.9,30.8 			"/>
			<polygon fill="#A2C2DC" points="22.6,33 19.1,30.9 18.5,35.7 22,37.8 			"/>
			<polygon fill="#A2C2DC" points="21.7,40 18.2,37.9 17.6,42.7 21,44.8 			"/>
			<polygon fill="#A2C2DC" points="20.8,47 17.3,44.9 16.7,49.7 20.1,51.8 			"/>
			<polygon fill="#A2C2DC" points="19.9,54 16.4,52 15.8,56.7 19.2,58.8 			"/>
		</g>
	</g>
</g>
<g id="Trees">
	<g id="Tree">
		<g>
			<path fill="#6C6054" d="M23.6,74.5c-0.5,0-0.9-0.4-0.9-0.9v-1.9l0.2,0.1c0.6,0.2,1,0.2,1,0.2s0.4,0,1-0.2l0.2-0.1v1.9
				c0,0.5-0.4,0.9-0.9,0.9H23.6z"/>
			<path fill="#010202" d="M24.9,71.9v1.8c0,0.4-0.4,0.8-0.8,0.8h-0.5c-0.4,0-0.8-0.4-0.8-0.8v-1.8c0.6,0.2,1.1,0.3,1.1,0.3
				S24.3,72.1,24.9,71.9 M22.5,71.5v0.4v1.8c0,0.6,0.5,1,1,1H24c0.6,0,1-0.5,1-1v-1.8v-0.4l-0.3,0.1c-0.5,0.2-1,0.2-1,0.2
				s-0.4,0-1-0.2L22.5,71.5L22.5,71.5z"/>
		</g>
		<path fill="#A3998E" d="M24.3,72c-0.3,0.1-0.5,0.1-0.5,0.1s-0.4,0-0.8-0.2c-0.1,0-0.1,0-0.2,0v1.7c0,0.4,0.4,0.8,0.8,0.8H24
			c0.2-0.2,0.4-0.4,0.4-0.7V72H24.3z"/>
		<g>
			<path fill="#234C29" d="M23.8,72.2c0,0-3.9-0.2-3.9-5.4c0-4.8,2.4-8.7,3.9-8.7s3.9,3.9,3.9,8.7C27.8,72.1,23.9,72.2,23.8,72.2
				L23.8,72.2L23.8,72.2z"/>
			<path fill="#010202" d="M23.8,58.2c1.4,0,3.8,3.8,3.8,8.6c0,5.2-3.8,5.3-3.8,5.3S20,72,20,66.8C20,62,22.4,58.2,23.8,58.2
				 M23.8,57.9c-1.6,0-4.1,4-4.1,8.9c0,5.4,4,5.6,4,5.6c0.1,0,4.1-0.2,4.1-5.6C27.9,61.9,25.4,57.9,23.8,57.9L23.8,57.9z"/>
		</g>
		<path fill="#3E7D3E" d="M20,66.8c0,4.8,3.2,5.3,3.7,5.3c1.2-0.5,2.9-1.9,2.9-5.4c0-3.8-1.4-7-2.7-8.5c0,0,0,0-0.1,0
			C22.4,58.2,20,62,20,66.8z"/>
		<path fill="#4C934E" d="M23.3,72c1-1.2,1.9-3.1,1.9-6.2c0-2.9-0.5-5.5-1.3-7.6C22.4,58.3,20,62,20,66.8C20,70.7,22.2,71.7,23.3,72
			z"/>
	</g>
	<g id="Tree_2_">
		<g>
			<path fill="#6C6054" d="M6,64.1c-0.5,0-0.9-0.4-0.9-0.9v-1.9l0.2,0.1c0.6,0.2,1,0.2,1,0.2s0.4,0,1-0.2l0.2-0.1v1.9
				c0,0.5-0.4,0.9-0.9,0.9H6z"/>
			<path fill="#010202" d="M7.3,61.4v1.8c0,0.4-0.4,0.8-0.8,0.8H6c-0.4,0-0.8-0.4-0.8-0.8v-1.8c0.6,0.2,1.1,0.3,1.1,0.3
				S6.7,61.6,7.3,61.4 M4.9,61v0.4v1.8c0,0.6,0.5,1,1,1h0.5c0.6,0,1-0.5,1-1v-1.8V61l-0.3,0.1c-0.5,0.2-1,0.2-1,0.2s-0.4,0-1-0.2
				L4.9,61L4.9,61z"/>
		</g>
		<path fill="#A3998E" d="M6.7,61.6c-0.3,0.1-0.5,0.1-0.5,0.1s-0.4,0-0.8-0.2c-0.1,0-0.1,0-0.2,0v1.7C5.2,63.6,5.5,64,6,64h0.4
			c0.2-0.2,0.4-0.4,0.4-0.7v-1.7H6.7z"/>
		<g>
			<path fill="#234C29" d="M6.2,61.8c0,0-3.9-0.2-3.9-5.4c0-4.8,2.4-8.7,3.9-8.7s3.9,3.9,3.9,8.7C10.2,61.6,6.3,61.8,6.2,61.8
				L6.2,61.8L6.2,61.8z"/>
			<path fill="#010202" d="M6.2,47.7c1.4,0,3.8,3.8,3.8,8.6c0,5.2-3.8,5.3-3.8,5.3s-3.8-0.1-3.8-5.3C2.4,51.5,4.8,47.7,6.2,47.7
				 M6.2,47.5c-1.6,0-4.1,4-4.1,8.9c0,5.4,4,5.6,4,5.6c0.1,0,4.1-0.2,4.1-5.6C10.3,51.5,7.8,47.5,6.2,47.5L6.2,47.5z"/>
		</g>
		<path fill="#3E7D3E" d="M2.4,56.3c0,4.8,3.2,5.3,3.7,5.3C7.4,61.1,9,59.8,9,56.2c0-3.8-1.4-7-2.7-8.5c0,0,0,0-0.1,0
			C4.8,47.7,2.4,51.5,2.4,56.3z"/>
		<path fill="#4C934E" d="M5.7,61.6c1-1.2,1.9-3.1,1.9-6.2c0-2.9-0.5-5.5-1.3-7.6c-1.4,0.1-3.8,3.8-3.8,8.6
			C2.4,60.3,4.6,61.3,5.7,61.6z"/>
	</g>
</g>
<g id="Doorway">
	<polygon id="Outline_3_" display="none" fill="#FFFFFF" stroke="#010202" stroke-width="0.25" stroke-miterlimit="10" points="
		17.7,61.2 17.7,59.6 12.4,56.4 9.1,59.5 9.1,60 14.5,63.2 	"/>
	<polygon fill="#4A658B" stroke="#010202" stroke-width="0.25" stroke-miterlimit="10" points="12.4,58 12.4,64.4 17.7,67.6 
		17.7,61.2 	"/>
	<polygon display="none" fill="#6C6C6C" points="17.7,59.6 17.7,61.2 14.5,63.2 14.5,62.7 	"/>
	<polygon display="none" fill="#9E9E9E" points="9.1,59.5 9.1,60 14.5,63.2 14.5,62.7 	"/>
	<polygon id="_x3C_Path_x3E_" display="none" fill="#FFFFFF" points="14.5,62.7 9.1,59.5 12.4,56.4 17.7,59.6 	"/>
</g>
<g id="Rooftop">
	<polygon fill="#EAEAEA" stroke="#010202" stroke-width="0.25" stroke-miterlimit="10" points="24.6,22 12.5,14.7 24.5,7.5 
		36.7,14.7 	"/>
	<polygon fill="#959596" stroke="#010202" stroke-width="0.25" stroke-miterlimit="10" points="12.5,14.7 12.5,14.7 14,15.6 
		24.6,9.2 24.6,7.5 24.6,7.5 	"/>
	<polygon fill="#E2E2E1" stroke="#010202" stroke-width="0.25" stroke-miterlimit="10" points="36.7,14.7 36.7,14.7 35.2,15.6 
		24.6,9.2 24.6,7.5 24.6,7.5 	"/>
</g>
</svg>
