<?xml version="1.0" encoding="utf-8"?>
<!-- Generator: Adobe Illustrator 25.3.1, SVG Export Plug-In . SVG Version: 6.00 Build 0)  -->
<svg version="1.1" id="Layer_1" xmlns="http://www.w3.org/2000/svg" xmlns:xlink="http://www.w3.org/1999/xlink" x="0px" y="0px"
	 width="201.10001px" height="200.8px" viewBox="0 0 201.10001 200.8" enable-background="new 0 0 201.10001 200.8"
	 xml:space="preserve">
<g id="Layer_1_1_">
	<g id="Layer_3">
		<polygon opacity="0.4" fill="#000000" enable-background="new    " points="100.5,186.5 128.5,186.5 201.10001,144.3 169.10001,126.7 		"/>
	</g>
	<polygon fill="#FAD9A3" points="100.5,97.7 32,56.5 100.3,15.4 169.10001,56.5 	"/>
	<g id="Window">
		<polygon fill="#E2BF80" stroke="#000000" stroke-miterlimit="10" points="32,56.5 32,141.89999 100.5,183 100.5,97.7 		"/>
	</g>
	<g id="Window_1_">
		<polygon fill="#B68C69" stroke="#000000" stroke-miterlimit="10" points="169.10001,56.5 169.10001,141.89999 100.5,183 
			100.5,97.7 		"/>
	</g>
	<g id="Window_3_">
		<path fill="#CEA76A" stroke="#000000" stroke-miterlimit="10" d="M71.1,144.8v11.5c0,1.10001,0.6,2.10001,1.5,2.60001l18.8,11.3
			c0.9,0.60001,2.1-0.10001,2.1-1.2v-12c0-0.89999-0.5-1.7-1.2-2.2l-18.8-11.3C72.4,142.89999,71.1,143.60001,71.1,144.8z"/>
	</g>
	<g>
		<path id="Outline" fill="#000000" d="M100.3,15.4l68.8,41.1v85.39999L100.5,183L32,141.89999V56.5L100.3,15.4 M100.3,11.9l-1.5,0.9L30.5,53.9
			L29,54.8v1.7v85.39999v1.7l1.5,0.89999L99,185.60001l1.5,0.89999l1.5-0.89999l68.5-41.2l1.5-0.89999v-1.7V56.5v-1.7l-1.5-0.9
			l-68.8-41.1L100.3,11.9L100.3,11.9z"/>
	</g>
	<g>
		<g id="Tape">
			<polygon fill="#DEB68B" points="123.9,29.1 55.5,70.3 55.5,104 71.5,113.2 71.5,79.9 140.10001,38.7 			"/>
			<polygon fill="#B68C69" stroke="#000000" stroke-width="0.5" stroke-miterlimit="10" points="71.5,113.2 71.5,79.9 55.5,70.3 
				55.5,104 			"/>
		</g>
		<polygon fill="none" stroke="#000000" stroke-miterlimit="10" points="123.9,29.1 55.5,70.3 55.5,104 71.5,113.2 71.5,79.9 
			140.10001,38.7 		"/>
	</g>
</g>
<g id="Layer_2_1_">
</g>
</svg>
