<?xml version="1.0" encoding="utf-8"?>
<!-- Generator: Adobe Illustrator 25.3.1, SVG Export Plug-In . SVG Version: 6.00 Build 0)  -->
<svg version="1.1" id="Layer_1" xmlns="http://www.w3.org/2000/svg" xmlns:xlink="http://www.w3.org/1999/xlink" x="0px" y="0px"
	 width="659.70001px" height="441.5px" viewBox="0 0 659.70001 441.5" enable-background="new 0 0 659.70001 441.5"
	 xml:space="preserve">
<g id="Layer_1_1_" display="none">
	<polygon display="inline" fill="none" stroke="#A7A9AC" stroke-width="4" stroke-miterlimit="10" points="551.5,364 336,488.39999 
		120.6,364 120.6,115.2 336,-9.1 551.5,115.2 	"/>
</g>
<g id="Layer_2_1_">
	<g>
		<g>
			<path fill="#05486D" d="M627.5,194.8v27.10001l0,0c0,2-1.20001,3.8-3.59998,5.2L291.60001,419
				c-1.10001,0.60001-2.29999,1.10001-3.60001,1.39999c-5.39999,1.39999-12.5,0.60001-17.60001-2.29999L49.7,290.70001
				c-3.5-2-5.3-4.70001-5.2-7.10001V257.5l0,0c0.1,2.39999,1.8,4.79999,5.2,6.79999l220.7,127.39999
				c6.29999,3.60001,15.70001,4,21.20001,0.89999l13.10001-7.60001l319.20001-184.3C626.59998,199.10001,627.79999,197,627.5,194.8
				L627.5,194.8z"/>
		</g>
		<g>
			<path fill="#31A8F7" d="M270.39999,391.70001c3.29999,3.60001,7.39999,20,0,26.5l-220.7-127.5c-3.5-2-5.3-4.70001-5.2-7.10001
				V257.5l0,0c0.1,2.39999,1.8,4.79999,5.2,6.79999L270.39999,391.70001"/>
		</g>
		<g>
			<path fill="#2582CE" d="M623.90002,200.7L620.30005,202.8L550,243.3l-30,17.3l-149.89999,86.5L291.5,392.5
				c-5.39999,3.10001-14.89999,2.70001-21.10001-0.89999L77.6,280.39999l-27.9-16.10001c-6.3-3.60001-6.9-9.10001-1.5-12.2
				L171.2,181l30-17.3l70.2-40.6l109-62.9c5.39999-3.1,14.89999-2.7,21.20001,0.9l220.69998,127.4
				C628.59998,192.10001,629.29999,197.60001,623.90002,200.7z"/>
		</g>
		<path fill="#31A8F7" d="M520,260.70001l-149.89999,86.5L77.6,280.39999l-27.9-16.10001c-6.3-3.60001-6.9-9.10001-1.5-12.2
			L171.2,181L520,260.70001z"/>
		<polygon fill="#31A8F7" points="620.29999,202.8 550,243.3 201.3,163.7 271.5,123.1 		"/>
		<g>
			<path fill="#231F20" d="M282.39999,396.70001c-4.70001,0-9.39999-1.20001-13-3.29999L48.7,266
				c-3.9-2.29999-6.2-5.39999-6.2-8.60001c0-2.8,1.7-5.3,4.7-7L379.5,58.4c2.70001-1.5,6.29999-2.4,10.20001-2.4
				c4.70001,0,9.39999,1.2,13,3.3L623.40002,186.7c3.90002,2.3,6.20001,5.39999,6.20001,8.60001c0,2.8-1.70001,5.3-4.70001,7
				L292.60001,394.29999C289.89999,395.79999,286.29999,396.70001,282.39999,396.70001z M389.70001,60.1
				c-3.20001,0-6.10001,0.7-8.20001,1.8L49.2,253.8c-1.2,0.7-2.7,1.89999-2.7,3.59999c0,1.70001,1.6,3.70001,4.2,5.20001
				L271.39999,390c3,1.70001,7,2.70001,11,2.70001c3.20001,0,6.10001-0.70001,8.20001-1.79999L622.90002,199
				c1.20001-0.7,2.70001-1.89999,2.70001-3.60001c0-1.7-1.59998-3.7-4.20001-5.2L400.60001,62.8
				C397.70001,61.1,393.70001,60.1,389.70001,60.1z"/>
		</g>
		<g>
			<polygon fill="#FF9600" points="308.70001,248.89999 206,308.10001 135.10001,267.20001 117.1,256.79999 219.8,197.60001 
				268.70001,225.8 			"/>
		</g>
		<g>
			<path fill="#FFE42A" d="M383.39999,119.3c-18,10.39999-19.89999,26.10001-4.39999,35c15.60001,9,42.70001,7.89999,60.70001-2.5
				s19.89999-26.1,4.39999-35C428.5,107.8,401.29999,108.9,383.39999,119.3z"/>
		</g>
		<g>
			<polygon fill="#00579E" points="468.10001,256.29999 271.10001,370 253.8,360 450.79999,246.3 			"/>
		</g>
		<g>
			<path fill="#FFC600" d="M268.70001,225.8c-26.2,27.39999-63.10001,44.40001-104,44.40001c-10.10001,0-20-1-29.5-3l-18-10.39999
				l102.60001-59.3L268.70001,225.8z"/>
		</g>
		<g>
			<path fill="#FFE42A" d="M182.60001,236.39999c-18,10.39999-19.89999,26.10001-4.39999,35s42.7,7.89999,60.7-2.5
				s19.90001-26.10001,4.39999-35C227.7,224.89999,200.60001,226,182.60001,236.39999z"/>
		</g>
		<g>
			<path fill="#231F20" d="M389.70001,58.1c4.20001,0,8.5,1,12,3l220.70001,127.4c3.20001,1.8,4.90002,4.10001,5.09998,6.3l0,0
				v27.10001l0,0c0,2-1.20001,3.8-3.59998,5.2L291.60001,419c-1.10001,0.60001-2.29999,1.10001-3.60001,1.39999
				c-1.70001,0.5-3.60001,0.70001-5.60001,0.70001c-4.20001,0-8.5-1-12-3L49.7,290.70001c-3.5-2-5.3-4.70001-5.2-7.10001V257.5l0,0
				l0,0c-0.1-2,1.1-4,3.6-5.5L380.5,60.2C382.89999,58.8,386.20001,58.1,389.70001,58.1 M389.70001,48.1L389.70001,48.1
				c-5.39999,0-10.29999,1.2-14.20001,3.5L43.2,243.39999c-5.2,3-8.4,8-8.6,13.39999c0,0.20001,0,0.5,0,0.79999v26
				c-0.2,6.29999,3.5,12.10001,10.2,15.89999l220.7,127.39999c4.79999,2.79999,10.89999,4.29999,17,4.29999
				c2.79999,0,5.60001-0.29999,8.10001-1c2.20001-0.60001,4.20001-1.39999,6-2.39999l0,0l332.30002-191.89999
				c5.09998-3,8.20001-7.60001,8.59998-12.8c0-0.39999,0.09998-0.7,0.09998-1.10001v-27.10001
				c0-0.89999-0.09998-1.8-0.29999-2.60001c-1.09998-4.89999-4.5-9.3-9.79999-12.39999L406.60001,52.4
				C401.79999,49.6,395.79999,48.1,389.70001,48.1L389.70001,48.1z"/>
		</g>
		<g>
			<path fill="#FFE42A" d="M625.5,199.5l0.09998-0.10001C625.59998,199.5,625.5,199.5,625.5,199.5z"/>
		</g>
		<g>
			<path fill="#00579E" d="M298.89999,301.10001c4.39999,2.5,4.79999,6.29999,1.10001,8.5l-53,30.60001
				c-3.8,2.20001-10.39999,1.89999-14.7-0.60001l-9.3-5.29999c-4.39999-2.5-4.8-6.29999-1.10001-8.5l53-30.60001
				c3.79999-2.20001,10.39999-1.89999,14.70001,0.60001L298.89999,301.10001z"/>
			<path fill="#00579E" d="M377.89999,255.5c4.39999,2.5,4.79999,6.29999,1.10001,8.5l-53,30.60001
				C322.20001,296.80002,315.60001,296.5,311.29999,294L302,288.60001c-4.39999-2.5-4.79999-6.29999-1.10001-8.5l53-30.60001
				c3.79999-2.2,10.39999-1.89999,14.70001,0.60001L377.89999,255.5z"/>
			<path fill="#00579E" d="M456.89999,209.89999c4.39999,2.5,4.79999,6.3,1.10001,8.5L405,249
				c-3.79999,2.2-10.39999,1.89999-14.70001-0.60001L381,243c-4.39999-2.5-4.79999-6.3-1.10001-8.5l53-30.60001
				c3.79999-2.2,10.39999-1.89999,14.70001,0.60001L456.89999,209.89999z"/>
			<path fill="#00579E" d="M535.90002,164.3c4.40002,2.5,4.79999,6.3,1.09998,8.5l-53,30.60001
				c-3.79999,2.2-10.39999,1.89999-14.70001-0.60001L460,197.40001c-4.39999-2.5-4.79999-6.3-1.10001-8.5l53-30.60001
				c3.80002-2.2,10.39999-1.89999,14.69998,0.60001L535.90002,164.3z"/>
		</g>
	</g>
</g>
</svg>
