<?xml version="1.0" encoding="utf-8"?>
<!-- Generator: Adobe Illustrator 25.3.1, SVG Export Plug-In . SVG Version: 6.00 Build 0)  -->
<svg version="1.1" id="Layer_1" xmlns="http://www.w3.org/2000/svg" xmlns:xlink="http://www.w3.org/1999/xlink" x="0px" y="0px"
	 width="168.39999px" height="154.8px" viewBox="0 0 168.39999 154.8" enable-background="new 0 0 168.39999 154.8"
	 xml:space="preserve">
<g id="Layer_1_1_">
	<g id="Layer_3">
	</g>
	<g id="Layer_6">
	</g>
	<path fill="#D2D3D5" d="M144.5,84c-0.2,2.2-1.39999,4.3-3.5,5.5l-29.2,17.6c-5.8,3.5-13,3.5-18.8,0L27.8,68c-2.3-1.4-3.4-3.6-3.6-6
		v-0.1v34.6c-0.1,2.6,1,5.2,3.6,6.7l65.09999,39.09999c5.8,3.5,13,3.5,18.8,0l29.2-17.6c2.60001-1.5,3.8-4.3,3.5-6.9V84H144.5z"/>
	<path fill="#5D6366" stroke="#000000" stroke-width="2" stroke-miterlimit="10" d="M58.2,37L27.8,55.3c-4.8,2.9-4.8,9.8,0,12.7
		l65.09999,39.1c5.8,3.5,13,3.5,18.8,0l29.2-17.6c4.8-2.9,4.8-9.8,0-12.7L74.6,37C69.6,33.9,63.3,34,58.2,37z"/>
	<path fill="#E9E9EA" stroke="#000000" stroke-width="0.25" stroke-miterlimit="10" d="M83.7,42.5L71.2,50c-4.6,2.8-4.6,9.5,0,12.3
		L101,80.2c5.7,3.4,12.8,3.4,18.5,0L133,72L83.7,42.5z"/>
	<g>
		<rect x="125.3864" y="62.39583" fill="#717677" width="0" height="10.10001"/>
		<path fill="#717677" d="M101,80.2L94.1,76L62.8,89l8.7,5.2l31.5-13C102.3,80.9,101.6,80.5,101,80.2z"/>
	</g>
	<path fill="none" stroke="#000000" stroke-width="2" stroke-miterlimit="10" d="M58.2,37L27.8,55.3c-4.8,2.9-4.8,9.8,0,12.7
		l65.09999,39.1c5.8,3.5,13,3.5,18.8,0l29.2-17.6c4.8-2.9,4.8-9.8,0-12.7L74.6,37C69.6,33.9,63.3,34,58.2,37z"/>
	<path fill="#1E2226" stroke="#000000" stroke-miterlimit="10" d="M36.7,108.7L86,138.3v-17.1c0-3.9-2-7.5-5.4-9.5L41.1,88
		c-1.9-1.2-4.4,0.2-4.4,2.5C36.7,90.5,36.7,108.7,36.7,108.7z"/>
	<path fill="#343A3D" d="M133.10001,72.1l13-26.4c0.5-2.9-0.8-5.7-3.3-7.2l-40.9-24.6c-2.1-1.3-4.9,0-5.3,2.4l-13,26.1
		L133.10001,72.1z"/>
	<g>
		<path fill="#878788" d="M20.9,116.8L20.9,116.8v0.1C20.9,116.9,20.9,116.9,20.9,116.8z"/>
		<path fill="#878788" d="M86,133.10001l-13.4,8.10001c-5.7,3.39999-12.8,3.39999-18.5,0l-29.8-17.9c-2.2-1.3-3.4-3.6-3.5-5.9v5l0,0
			c0,2.4,1.2,4.7,3.5,6.10001l29.8,17.89999c2.8,1.7,6,2.5,9.1,2.60001l0,0l0,0c3.2,0,6.5-0.8,9.4-2.60001L86,138.3l0,0l0,0
			V133.10001z"/>
	</g>
	<path fill="#5F6568" stroke="#000000" stroke-miterlimit="10" d="M80.7,111.7L52,94.5l-15.2,9.1h-0.1l-12.5,7.6
		c-4.6,2.8-4.6,9.5,0,12.3L54,141.39999c5.7,3.39999,12.8,3.39999,18.5,0l9.1-5.5l0,0l4.3-2.5v-12C86,117.3,84,113.7,80.7,111.7z"/>
	<path fill="#E9E9EA" d="M86,121.2c0-3.9-2-7.5-5.4-9.5L58.4,98.4l-31.8,19.1l35.6,21.39999L86,124.6V121.2z"/>
	<g>
		<path fill="#000000" d="M108.6,11l33.9,20.4l-2.60001,5.3l2.89999,1.8c2.5,1.5,3.8,4.4,3.3,7.2l-13,26.4l-3.7-2.2l3.7,2.2l0,0l7.8,4.7
			c2.39999,1.4,3.5,3.8,3.60001,6.2l0,0l0,0l0,0v-0.1v0.1v0.1v4.7c0,0.2,0,0.5,0,0.7v29.2c0.2,2.6-1,5.4-3.5,6.9l-29.2,17.6
			c-2.9,1.7-6.1,2.60001-9.4,2.60001s-6.5-0.89999-9.4-2.60001l-6.9-4.10001v0.10001l0,0l0,0l-13.4,8.10001
			c-2.9,1.7-6.1,2.60001-9.3,2.60001h-0.1l0,0l0,0c-3.2,0-6.3-0.89999-9.1-2.60001l-29.8-17.89999c-2.3-1.4-3.5-3.8-3.5-6.1l0,0v-5
			c0-0.2,0-0.4,0-0.6v-0.1l0,0c0,0,0,0,0,0.1c0,0,0,0,0-0.1l0,0c0.1-2.2,1.3-4.4,3.4-5.7l8.3-5l-4.8-2.9c-2.5-1.5-3.7-4.2-3.6-6.7
			V66.8c0-0.1,0-0.2,0-0.4c0,0,0-3.8,0-4.6v-0.1l0,0c0-2.5,1.2-4.9,3.6-6.4L58.2,37c2.5-1.5,5.4-2.3,8.2-2.3c2.8,0,5.7,0.8,8.2,2.3
			l9,5.4l13-26.1c0.3-1.8,1.9-2.9,3.5-2.9c0.6,0,1.2,0.2,1.8,0.5l4.1,2.4L108.6,11 M25.8,66.1C25.8,66.1,25.7,66.1,25.8,66.1
			C25.7,66.1,25.7,66.1,25.8,66.1C25.7,66.1,25.8,66.1,25.8,66.1 M26.5,67l0.1,0.1C26.6,67,26.6,67,26.5,67
			c-0.1-0.1-0.2-0.1-0.2-0.2l0,0C26.4,66.8,26.5,66.9,26.5,67 M27.8,68c-0.3-0.2-0.6-0.4-0.8-0.6l0,0C27.3,67.6,27.5,67.8,27.8,68
			 M144.5,83.3v0.1v0.1c0,0.1,0,0.1,0,0.2v0.5v-0.7C144.5,83.5,144.5,83.4,144.5,83.3 M144.3,84.7L144.3,84.7
			C144.3,84.6,144.3,84.6,144.3,84.7C144.39999,84.6,144.39999,84.6,144.3,84.7C144.3,84.6,144.3,84.7,144.3,84.7 M144.10001,85.5
			L144.10001,85.5c0-0.1,0-0.1,0-0.1l0,0V85.5 M143.8,86.4L143.8,86.4L143.8,86.4c0,0,0-0.1,0.10001-0.1v-0.1l0,0
			C143.8,86.2,143.8,86.3,143.8,86.4 M143.3,87.2L143.3,87.2L143.3,87.2c0-0.1,0.10001-0.1,0.10001-0.2c0,0,0-0.1,0.10001-0.1
			C143.39999,87,143.39999,87.1,143.3,87.2 M142.7,88L142.7,88L142.7,88c0.10001-0.1,0.10001-0.2,0.2-0.2c0,0,0-0.1,0.10001-0.1
			C142.89999,87.7,142.8,87.9,142.7,88 M142,88.7L142,88.7L142,88.7c0.10001-0.1,0.2-0.2,0.39999-0.3c0,0,0,0,0.10001-0.1
			C142.3,88.4,142.10001,88.6,142,88.7 M140.89999,89.5L140.89999,89.5L140.89999,89.5L140.89999,89.5L140.89999,89.5
			c0.3-0.2,0.5-0.3,0.8-0.5l0,0C141.5,89.1,141.2,89.3,140.89999,89.5 M21.1,119.2L21.1,119.2L21.1,119.2 M21.4,120
			C21.4,120,21.4,120.1,21.4,120C21.4,120.1,21.4,120,21.4,120L21.4,120L21.4,120 M21.8,120.8C21.8,120.9,21.8,120.9,21.8,120.8
			C21.8,120.9,21.8,120.9,21.8,120.8L21.8,120.8L21.8,120.8 M22.3,121.6l0.1,0.1C22.4,121.7,22.4,121.7,22.3,121.6l-0.1-0.1
			C22.3,121.5,22.3,121.6,22.3,121.6 M23,122.3c0.1,0.1,0.1,0.1,0.2,0.2C23.1,122.5,23.1,122.4,23,122.3s-0.1-0.1-0.2-0.2
			C22.9,122.2,22.9,122.3,23,122.3 M24.2,123.3l0.1,0.1C24.3,123.3,24.2,123.3,24.2,123.3c-0.2-0.1-0.4-0.3-0.7-0.5
			C23.7,123,23.9,123.1,24.2,123.3 M24.2,61.6v0.1l0,0C24.2,61.8,24.2,61.7,24.2,61.6L24.2,61.6 M107.8,8.2l-1,1.9l-1.7,3.4
			l-2.2-1.3c-0.9-0.5-1.9-0.8-2.8-0.8c-2.6,0-4.8,1.8-5.4,4.2l-11.9,24l-7.1-4.3c-2.8-1.7-6-2.6-9.2-2.6c-3.3,0-6.5,0.9-9.2,2.6
			L26.8,53.6c-2.3,1.4-3.8,3.5-4.3,6h-0.2v2c0,0,0,0,0,0.1v0.1v4.6c0,0.1,0,0.3,0,0.4v29.6c-0.2,3.5,1.6,6.7,4.5,8.5l1.9,1.2
			l-5.5,3.3c-2.4,1.4-3.9,3.7-4.3,6.4l-0.1,0.1v0.9v0.1c0,0.2,0,0.4,0,0.6v4.9c0,3.2,1.7,6.2,4.4,7.8l29.8,18
			c2.9,1.7,6.2,2.7,9.6,2.8l0.5,0.3l0.6-0.3c3.5-0.10001,6.9-1,10-2.89999L86.2,140.5l5.7,3.39999
			c3.1,1.89999,6.7,2.89999,10.4,2.89999s7.3-1,10.4-2.89999l29.2-17.6c3-1.8,4.8-5.2,4.5-8.7V88.7c0-0.2,0-0.5,0-0.7v-4.7v-0.2
			v-0.1l0,0c-0.10001-3.3-1.8-6.2-4.5-7.9l-6.3-3.8l12.2-24.7l0.10001-0.3L148,46c0.7-3.7-1-7.4-4.2-9.3l-1.39999-0.8l1.8-3.6
			l0.8-1.7l-1.60001-1L109.6,9.3L107.8,8.2L107.8,8.2z"/>
	</g>
	<path opacity="0.4" fill="#5D6366" enable-background="new    " d="M80.7,111.7L58.4,98.4l-16.2,9.7l35.7,21.4l8.1-4.9v-3.4
		C86,117.3,84,113.7,80.7,111.7z"/>
	<path fill="none" stroke="#000000" stroke-miterlimit="10" d="M86,121.2c0-3.9-2-7.5-5.4-9.5L58.4,98.4l-31.8,19.1l35.6,21.39999
		L86,124.6V121.2z"/>
	<g>
		<path fill="#A8A8A8" d="M142.89999,87.7c0,0,0.10001-0.1,0.10001-0.2C143,87.6,143,87.7,142.89999,87.7z"/>
		<path fill="#A8A8A8" d="M141.7,89c0.10001,0,0.10001-0.1,0.2-0.2C141.8,88.9,141.7,88.9,141.7,89z"/>
		<path fill="#A8A8A8" d="M144.3,84.7C144.3,84.6,144.3,84.6,144.3,84.7C144.3,84.6,144.3,84.6,144.3,84.7z"/>
		<path fill="#A8A8A8" d="M143.39999,87c0,0,0-0.1,0.10001-0.1L143.39999,87z"/>
		<path fill="#A8A8A8" d="M144.10001,85.5C144.10001,85.4,144.10001,85.4,144.10001,85.5
			C144.10001,85.4,144.10001,85.4,144.10001,85.5z"/>
		<path fill="#A8A8A8" d="M143.8,86.3C143.8,86.2,143.8,86.2,143.8,86.3C143.8,86.2,143.8,86.2,143.8,86.3z"/>
		<path fill="#A8A8A8" d="M142.5,88.2c-0.10001,0.1-0.10001,0.1-0.2,0.2C142.39999,88.3,142.5,88.3,142.5,88.2z"/>
		<path fill="#A8A8A8" d="M100.4,109.6c0.5,0.1,1,0.1,1.5,0.1C101.3,109.6,100.9,109.6,100.4,109.6z"/>
		<path fill="#A8A8A8" d="M106.1,109.2c-1.4,0.3-2.9,0.4-4.3,0.4C103.3,109.7,104.7,109.6,106.1,109.2z"/>
		<path fill="#A8A8A8" d="M110.5,107.7c0.4-0.2,0.8-0.4,1.2-0.7C111.3,107.3,110.9,107.5,110.5,107.7z"/>
		<path fill="#A8A8A8" d="M144.5,88.6c0,0.2,0,0.4-0.10001,0.6l0,0l0,0c-0.3,2-1.5,3.9-3.5,5.1l-29.2,17.6
			c-3.5,2.1-7.4,2.9-11.3,2.5v30.39999c3.9,0.39999,7.8-0.39999,11.3-2.5l29.2-17.6c2.60001-1.5,3.8-4.3,3.5-6.9V88.6H144.5z"/>
		<path fill="#A8A8A8" d="M109.2,108.3c0.3-0.1,0.6-0.3,0.9-0.4C109.8,108.1,109.5,108.2,109.2,108.3z"/>
		<path fill="#A8A8A8" d="M107.8,108.8c0.3-0.1,0.6-0.2,1-0.3C108.4,108.6,108.1,108.7,107.8,108.8z"/>
		<path fill="#A8A8A8" d="M106.3,109.2c0.4-0.1,0.8-0.2,1.2-0.3C107.1,109,106.7,109.1,106.3,109.2z"/>
	</g>
	<g>
		<path fill="#868687" d="M144.5,83.1V83V83.1L144.5,83.1z"/>
		<path fill="#868687" d="M144.5,83.5v0.9v-0.5c-0.2,2.2-1.39999,4.4-3.5,5.7l-29.2,17.6c-5.8,3.5-13,3.5-18.8,0L27.8,68
			c-2.4-1.4-3.6-3.9-3.6-6.3l0,0v4.8c0,0.1,0,0.3,0,0.4c0.1,2.4,1.3,4.7,3.6,6L92.89999,112c5.8,3.5,13,3.5,18.8,0l29.2-17.6
			c2-1.2,3.10001-3.1,3.5-5.1l0,0l0,0C144.5,88.9,144.5,88.4,144.5,88v-4.7C144.5,83.3,144.5,83.4,144.5,83.5z"/>
	</g>
	<g>
		<rect x="102.08109" y="38.11023" fill="#717677" width="0" height="30.70004"/>
		<path fill="#717677" d="M71.2,62.3c-2.9-1.8-4-5.1-3.2-8L30.7,69.7l26.4,15.8l31.3-13L71.2,62.3z"/>
	</g>
	<g>
		<path fill="#3B4044" d="M100,114.2v-4.9"/>
		<path fill="#3B4044" d="M111.6,111.8l29.2-17.6c2-1.2,3.10001-3.1,3.5-5.1l0,0l0,0c0.10001-0.4,0.10001-0.9,0.10001-1.3v-4.7
			c0,0.1,0,0.2,0,0.2v0.9v-0.5c-0.2,2.2-1.39999,4.4-3.5,5.7l-29.2,17.6c-3.6,2.1-7.7,3-11.7,2.5v4.9
			C104,114.7,108.1,113.9,111.6,111.8z"/>
	</g>
	<g>
		<path fill="none" stroke="#000000" stroke-width="2" stroke-miterlimit="10" d="M144.5,83.1V83V83.1L144.5,83.1z"/>
		<path fill="none" stroke="#000000" stroke-width="2" stroke-miterlimit="10" d="M144.5,83.5v0.9v-0.5
			c-0.2,2.2-1.39999,4.4-3.5,5.7l-29.2,17.6c-5.8,3.5-13,3.5-18.8,0L27.8,68c-2.4-1.4-3.6-3.9-3.6-6.3l0,0v4.8c0,0.1,0,0.3,0,0.4
			c0.1,2.4,1.3,4.7,3.6,6L92.89999,112c5.8,3.5,13,3.5,18.8,0l29.2-17.6c2-1.2,3.10001-3.1,3.5-5.1l0,0l0,0
			C144.5,88.9,144.5,88.4,144.5,88v-4.7C144.5,83.3,144.5,83.4,144.5,83.5z"/>
	</g>
	<ellipse fill="#C9C9C9" stroke="#000000" stroke-miterlimit="10" cx="54.5" cy="50.7" rx="5.3" ry="3.8"/>
	<ellipse fill="#51AD44" stroke="#000000" stroke-miterlimit="10" cx="45.3" cy="56.5" rx="3.4" ry="2.5"/>
	<ellipse fill="#FC9603" stroke="#000000" stroke-miterlimit="10" cx="37.6" cy="61.4" rx="3.4" ry="2.5"/>
	<path fill="#343A3D" stroke="#000000" stroke-miterlimit="10" d="M83.7,42.5L71.2,50c-4.6,2.8-4.6,9.5,0,12.3L101,80.2
		c5.7,3.4,12.8,3.4,18.5,0L133,72L83.7,42.5z"/>
	<polygon fill="#FFFFFF" stroke="#000000" stroke-miterlimit="10" points="121.1,74.5 142.5,31.4 108.6,11 87.3,54.1 	"/>
	<path opacity="0.3" enable-background="new    " d="M165.7,115.6l-21.2-13.5v15.8c0.2,2.6-1,5.4-3.5,6.9l-29.2,17.60001
		c-3,1.8-6.4,2.7-9.7,2.60001l-1.5,2.10001l29.3-2.2l36.09999-20.3C169.3,122.5,169.2,117.5,165.7,115.6z"/>
	<polygon opacity="0.4" fill="#5D6366" enable-background="new    " points="89.7,49.3 87.3,54.1 121.1,74.5 123.5,69.6 	"/>
</g>
</svg>
