<?xml version="1.0" encoding="utf-8"?>
<!-- Generator: Adobe Illustrator 25.3.1, SVG Export Plug-In . SVG Version: 6.00 Build 0)  -->
<svg version="1.1" id="Layer_1" xmlns="http://www.w3.org/2000/svg" xmlns:xlink="http://www.w3.org/1999/xlink" x="0px" y="0px"
	 width="77.3px" height="63px" viewBox="0 0 77.3 63" enable-background="new 0 0 77.3 63" xml:space="preserve">
<g id="Layer_3">
</g>
<g id="Layer_4">
	<polygon fill="#4F6587" stroke="#010202" stroke-linejoin="round" stroke-miterlimit="10" points="36.5,10.8 6.6,28.8 6.6,39.9 
		36.5,22 	"/>
	<polygon fill="#CED8EB" stroke="#000000" stroke-linejoin="round" stroke-miterlimit="10" points="35.1,10.1 36.5,10.7 6.6,28.8 
		6.6,39.9 5.2,39.2 5.2,28.1 	"/>
	<polygon opacity="0.4" fill="#000000" enable-background="new    " points="36.5,15.8 33.8,28.6 42.3,54.3 37.9,58.9 45.9,58.9 77.3,39.9 	"/>
	<polygon fill="#93A6C6" stroke="#000000" stroke-linejoin="round" stroke-miterlimit="10" points="36.5,57.8 6.6,39.9 36.5,22 
		66.3,39.8 	"/>
	<polygon opacity="0.4" fill="#000000" enable-background="new    " points="20.5,39.9 6.6,39.9 13.5,36.2 	"/>
	<polygon opacity="0.4" fill="#000000" enable-background="new    " points="20.4,43 38.5,53.8 60.9,40.3 42.9,29.4 	"/>
	<polygon fill="#FFFFFF" stroke="#000000" stroke-linejoin="round" stroke-miterlimit="10" points="36.5,49.9 13.5,36.2 36.5,22.4 
		59.4,36.2 	"/>
	<polygon opacity="0.4" fill="#000000" enable-background="new    " points="20.4,36.5 38.5,47.3 58.2,35.4 40.1,24.6 	"/>
	<polygon fill="#FFFFFF" stroke="#000000" stroke-linejoin="round" stroke-miterlimit="10" points="36.5,43.3 13.5,29.5 36.5,15.8 
		59.4,29.5 	"/>
	<polygon opacity="0.4" fill="#000000" enable-background="new    " points="20.5,29.9 38.6,40.8 58.4,28.9 40.3,18.1 	"/>
	<polygon fill="#FFFFFF" stroke="#000000" stroke-linejoin="round" stroke-miterlimit="10" points="36.5,36.3 13.5,22.6 36.5,8.8 
		59.4,22.6 	"/>
	<polygon opacity="0.4" fill="#000000" enable-background="new    " points="20.5,22.9 38.6,33.8 58.4,21.9 40.3,11.1 	"/>
	<polygon fill="#FFFFFF" points="36.4,29.5 13.5,15.8 36.4,2 59.3,15.8 	"/>
	<polygon fill="#4F6587" stroke="#010202" stroke-linejoin="round" stroke-miterlimit="10" points="67.7,29.3 37.9,47.4 37.9,58.4 
		67.7,40.5 	"/>
	<polygon fill="none" stroke="#000000" stroke-linejoin="round" stroke-miterlimit="10" points="36.4,29.5 13.5,15.8 36.4,2 
		59.3,15.8 	"/>
	<polygon fill="#CED8EB" stroke="#000000" stroke-linejoin="round" stroke-miterlimit="10" points="66.3,28.6 67.7,29.3 37.9,47.4 
		37.9,58.4 36.5,57.8 36.5,46.7 	"/>
</g>
<g id="Layer_6">
</g>
<g id="Layer_5">
</g>
</svg>
