<?xml version="1.0" encoding="utf-8"?>
<!-- Generator: Adobe Illustrator 25.3.1, SVG Export Plug-In . SVG Version: 6.00 Build 0)  -->
<svg version="1.1" id="Layer_1" xmlns="http://www.w3.org/2000/svg" xmlns:xlink="http://www.w3.org/1999/xlink" x="0px" y="0px"
	 width="518px" height="477px" viewBox="0 0 518 477" enable-background="new 0 0 518 477" xml:space="preserve">
<g>
	<path fill="#6885A9" d="M860.40002,247.39999c0.09998,0.89999,0.09998,1.8,0.09998,2.7v-2.7H860.40002z"/>
	<path fill="#231F20" d="M862.40002,250.10001h-3.79999c0-0.8,0-1.60001-0.09998-2.5L858.30005,245.5h4.09998V250.10001
		L862.40002,250.10001z"/>
</g>
<g>
	<path fill="#6885A9" d="M860.40002,151.8c0.09998,0.89999,0.09998,1.8,0.09998,2.7v-2.7H860.40002z"/>
	<path fill="#231F20" d="M862.40002,154.5h-3.79999c0-0.8,0-1.60001-0.09998-2.5l-0.20001-2.10001h4.09998V154.5L862.40002,154.5z"
		/>
</g>
<path fill="#B2CBED" stroke="#231F20" stroke-width="4" stroke-linejoin="round" stroke-miterlimit="10" d="M860.40002,247.39999
	c0.09998,0.89999,0.09998,1.8,0.09998,2.7v-2.7H860.40002z"/>
<path fill="#B2CBED" stroke="#231F20" stroke-width="4" stroke-linejoin="round" stroke-miterlimit="10" d="M860.40002,151.8
	c0.09998,0.89999,0.09998,1.8,0.09998,2.7v-2.7H860.40002z"/>
<g>
	<path fill="#000000" d="M242.7,256.79999H239c-5.8,0-10.5-4.7-10.5-10.5V47.2c0-5.8,4.7-10.5,10.5-10.5h3.8c5.8,0,10.5,4.7,10.5,10.5V246.3
		C253.2,252.10001,248.5,256.79999,242.7,256.79999z"/>
	<path fill="#000000" d="M396.89999,343.5h-3.79999c-5.79999,0-10.5-4.70001-10.5-10.5V133.89999c0-5.8,4.70001-10.5,10.5-10.5h3.79999
		c5.79999,0,10.5,4.7,10.5,10.5V333C407.39999,338.79999,402.70001,343.5,396.89999,343.5z"/>
	<polygon opacity="0.4" fill="#000000" enable-background="new    " points="358,422.39999 277.29999,443.10001 206.8,153.3 508.29999,334.5 	"/>
	<polygon fill="#CCD8EE" points="69.7,405.20001 69,405.20001 69,405.70001 	"/>
	<polygon fill="#CCD8EE" points="69.7,317.29999 69,317.29999 69,317.70001 	"/>
	<polygon fill="#CDD9EE" points="277.29999,355.79999 71,228.60001 206.8,146.7 413.70001,273.79999 	"/>
	<polygon fill="#CCD8EE" points="69.7,229.39999 69,229.39999 69,229.8 	"/>
	<polygon fill="#B5C5DC" points="69,304.39999 277.29999,432.79999 277.29999,432.79999 277.29999,358.20001 69,229.8 	"/>
	<polygon fill="#FFFFFF" points="291,347.5 114.5,237.10001 235.8,164.10001 206.8,146.7 71,228.60001 277.29999,355.79999 	"/>
	<polygon fill="#6885A9" points="415.70001,349.5 277.29999,432.79999 277.29999,432.79999 277.29999,358.20001 415.70001,275 	"/>
	<path fill="#231F20" d="M423.89999,270.20001L206.8,137l-145,87.39999L60.8,225v83v0.70001L277.29999,442l146.60001-88.20001
		V270.20001z M206.8,146.7l206.90001,127.00002l-136.39999,82L71,228.60001L206.8,146.7z M413.60001,278.60001v69.69998
		l-134.30002,80.79999v-69.70001L413.60001,278.60001z M275.20001,359.39999v69.69998L71,303.20001v-69.7L275.20001,359.39999z"/>
	<polygon fill="#000000" points="253.2,389.29999 134.3,315.60001 134.3,304.60001 253.2,378.29999 	"/>
	<polygon fill="#000000" points="118.6,305.89999 107.2,298.79999 107.2,287.79999 118.6,294.89999 	"/>
	<polygon fill="#000000" points="100.4,294.70001 89,287.60001 89,276.60001 100.4,283.70001 	"/>
</g>
</svg>
