<?xml version="1.0" encoding="utf-8"?>
<!-- Generator: Adobe Illustrator 25.3.1, SVG Export Plug-In . SVG Version: 6.00 Build 0)  -->
<svg version="1.1" id="Layer_1" xmlns="http://www.w3.org/2000/svg" xmlns:xlink="http://www.w3.org/1999/xlink" x="0px" y="0px"
	 width="543.52399px" height="508.85101px" viewBox="0 0 543.52399 508.85101" enable-background="new 0 0 543.52399 508.85101"
	 xml:space="preserve">
<g>
	<path fill="#6885A9" d="M883.11401,267.181c0.08801,0.90201,0.146,1.80701,0.146,2.71701V267.181H883.11401z"/>
	<path fill="#231F20" d="M885.15302,269.897h-3.78497c0-0.76099-0.04498-1.58801-0.138-2.53201l-0.20398-2.077h4.12701v4.60901
		H885.15302z"/>
</g>
<g>
	<path fill="#6885A9" d="M883.11401,171.61301c0.08801,0.901,0.146,1.806,0.146,2.716v-2.716H883.11401z"/>
	<path fill="#231F20" d="M885.15302,174.32899h-3.78497c0-0.761-0.04498-1.588-0.138-2.53l-0.20398-2.078h4.12701v4.608H885.15302z"
		/>
</g>
<path fill="#B2CBED" stroke="#231F20" stroke-width="4" stroke-linejoin="round" stroke-miterlimit="10" d="M883.11401,267.181
	c0.08801,0.90201,0.146,1.80701,0.146,2.71701V267.181H883.11401z"/>
<path fill="#B2CBED" stroke="#231F20" stroke-width="4" stroke-linejoin="round" stroke-miterlimit="10" d="M883.11401,171.61301
	c0.08801,0.901,0.146,1.806,0.146,2.716v-2.716H883.11401z"/>
<g>
	<polygon opacity="0.4" fill="#000000" enable-background="new    " points="305.28299,478.491 271.47198,471.892 130.942,93.046 541.10901,341.38 
			"/>
	<polygon fill="#365E7F" points="439.84601,280.875 272.50101,380.00101 100.278,279.59698 95.105,283.30499 271.47501,389.09698 
		446.50699,285.11301 	"/>
	<polygon fill="#CCD8EE" points="92.693,284.379 91.992,284.379 91.992,284.79099 	"/>
	<polygon fill="#231F20" points="91.492,285.66501 91.492,283.879 94.531,283.879 	"/>
	<polygon fill="#B5C5DC" points="91.992,356.29001 271.46899,462.599 271.47501,462.595 271.47501,391.09698 91.992,284.80099 	"/>
	<polygon fill="#6885A9" points="450.95901,356.29001 271.48199,462.599 271.47501,462.595 271.47501,391.09698 
		450.95901,284.80099 	"/>
	<polygon fill="#CCD8EE" points="92.693,200.05701 91.992,200.05701 91.992,200.47099 	"/>
	<polygon fill="#231F20" points="91.492,201.347 91.492,199.55701 94.523,199.55701 	"/>
	<polygon fill="#CDD9EE" points="271.47501,220.131 93.952,114.995 270.91599,9.986 448.992,114.999 	"/>
	<polygon fill="#365E7F" points="437.78201,192.67 270.91501,291.49399 104.61,193.00101 91.986,200.47701 271.47501,306.776 
		450.965,200.47701 	"/>
	<polygon fill="#B5C5DC" points="91.992,271.96799 271.46899,378.28 271.47501,378.27399 271.47501,306.776 91.992,200.48 	"/>
	<polygon fill="#6885A9" points="450.95901,271.96799 271.48199,378.28 271.47501,378.27399 271.47501,306.776 450.95901,200.48 	
		"/>
	<polygon fill="#CCD8EE" points="92.693,115.738 91.992,115.738 91.992,116.15 	"/>
	<polygon fill="#B5C5DC" points="91.992,187.64999 271.46899,293.95801 271.47501,293.95401 271.47501,222.455 91.992,116.158 	"/>
	<polygon fill="#FFFFFF" points="284.79199,212.244 136.248,123.133 299.108,26.611 270.91599,9.986 93.952,114.995 
		271.47501,220.131 	"/>
	<polygon fill="#6885A9" points="450.95901,187.64999 271.48199,293.95801 271.47501,293.95401 271.47501,222.455 
		450.95901,116.158 	"/>
	<g>
		<g opacity="0.8" fill="#000000">
			<polygon fill="#EAF4FF" points="155.935,222.96001 197.61501,181.27901 155.842,156.539 114.165,198.216 			"/>
		</g>
		<g opacity="0.8" fill="#000000">
			<polygon fill="#EAF4FF" points="185.95399,240.89301 227.82899,199.01801 206.84399,186.589 164.96899,228.464 			"/>
		</g>
	</g>
	<g>
		<g opacity="0.8" fill="#000000">
			<polygon fill="#EAF4FF" points="155.88499,307.41501 197.702,265.59601 155.79201,240.774 113.977,282.59 			"/>
		</g>
		<g opacity="0.8" fill="#000000">
			<polygon fill="#EAF4FF" points="186.002,325.40701 228.017,283.39301 206.963,270.92499 164.95,312.936 			"/>
		</g>
	</g>
	<g>
		<g opacity="0.8" fill="#000000">
			<polygon fill="#EAF4FF" points="155.927,391.58499 197.62801,349.88 155.83299,325.12799 114.134,366.827 			"/>
		</g>
		<g opacity="0.8" fill="#000000">
			<polygon fill="#EAF4FF" points="185.961,409.526 227.85899,367.63 206.864,355.194 164.966,397.091 			"/>
		</g>
	</g>
	<g>
		<polygon fill="#000000" points="139.892,172.061 121.992,161.46001 121.992,177.88699 139.892,188.489 		"/>
	</g>
	<g>
		<polygon fill="#000000" points="164.24699,187.416 146.347,176.814 146.347,193.241 164.24699,203.84399 		"/>
	</g>
	<g>
		<polygon fill="#000000" points="139.892,256.32401 121.992,245.724 121.992,262.14999 139.892,272.75299 		"/>
	</g>
	<g>
		<polygon fill="#000000" points="164.24699,271.67999 146.347,261.078 146.347,277.505 164.24699,288.10699 		"/>
	</g>
	<g>
		<polygon fill="#000000" points="139.892,342.37201 121.992,331.76999 121.992,348.198 139.892,358.79999 		"/>
	</g>
	<g>
		<polygon fill="#000000" points="164.24699,357.728 146.347,347.12601 146.347,363.552 164.24699,374.155 		"/>
	</g>
	<g>
		<polygon fill="#000000" points="247.64799,248.724 171.384,203.55901 171.384,196.63499 247.679,241.77 		"/>
	</g>
	<g>
		<polygon fill="#000000" points="247.64799,332.82101 171.384,287.65399 171.384,280.73199 247.679,325.86801 		"/>
	</g>
	<g>
		<polygon fill="#000000" points="247.64799,416.91901 171.384,371.75299 171.384,364.82901 247.679,409.96399 		"/>
	</g>
	<path fill="#231F20" d="M458.95599,111.589L270.90399,0.691L84.971,111.021l-0.979,0.582v79.60601l5.133,2.855l-5.133,2.85699
		v77.67l5.036,3.504l-5.039,2.63599v80.116l187.483,111.043l186.504-110.461l0.98001-0.582V282.716l-4.578-3.13501l4.578-3.207
		v-80.453l-5.133-2.85699l5.133-2.855L458.95599,111.589L458.95599,111.589z M270.91599,9.986l178.07498,105.013L271.47501,220.131
		L93.952,114.995L270.91599,9.986z M448.95901,119.667v66.844L273.47601,290.452v-66.856L448.95901,119.667z M269.47501,223.59599
		v66.855L93.992,186.511v-66.844L269.47501,223.59599z M93.992,270.828v-66.83899l175.483,103.92599v66.85901L93.992,270.828z
		 M269.47501,459.09299l-175.483-103.944v-66.84l175.483,103.92599V459.09299L269.47501,459.09299z M95.105,283.30499l5.173-3.70801
		l170.17299,100.40399c0.026,0.01599,0.056,0.01999,0.08301,0.035c0.10999,0.05899,0.22501,0.10699,0.34299,0.14499
		c0.04901,0.01401,0.09698,0.02701,0.147,0.039c0.151,0.035,0.30499,0.061,0.45999,0.061c0.035,0,0.069-0.01199,0.10501-0.01401
		c0.108-0.008,0.216-0.01999,0.32101-0.043c0.077-0.01801,0.151-0.04099,0.22699-0.06799
		c0.06799-0.02301,0.13599-0.05301,0.202-0.086c0.05399-0.02499,0.112-0.03699,0.164-0.06799l167.345-99.12601l6.66101,4.23801
		L271.47501,388.772L95.105,283.30499z M448.95901,355.14899l-175.483,103.944v-66.85699L448.95901,288.31V355.14899
		L448.95901,355.14899z M448.95901,270.828l-175.483,103.94598v-66.85901l175.483-103.92599V270.828L448.95901,270.828z
		 M271.47501,304.452L93.952,199.31799l6.903-4.093l169.595,100.45299c0.16299,0.09601,0.33701,0.164,0.51599,0.211
		c0.15601,0.04099,0.31601,0.06,0.47699,0.06201c0.008,0,0.01599,0.004,0.02301,0.004c0,0,0,0,0.00101,0
		c0.005,0,0.01001,0.00201,0.01501,0.00201c0.353,0,0.70599-0.09399,1.01999-0.27899l169.59302-100.452l6.90201,4.092
		L271.47501,304.452z"/>
</g>
</svg>
