<?xml version="1.0" encoding="utf-8"?>
<!-- Generator: Adobe Illustrator 25.3.1, SVG Export Plug-In . SVG Version: 6.00 Build 0)  -->
<svg version="1.1" id="Layer_1" xmlns="http://www.w3.org/2000/svg" xmlns:xlink="http://www.w3.org/1999/xlink" x="0px" y="0px"
	 width="206.8px" height="210.60001px" viewBox="0 0 206.8 210.60001" enable-background="new 0 0 206.8 210.60001"
	 xml:space="preserve">
<g id="Rooftop_1_" opacity="0.1">
	<path fill="#1E1E1E" d="M114.3,208.39999l-61.2-36.8c-3.2-1.89999-3.2-6.5,0-8.39999L80.3,146.8c1.6-0.89999,3.5-0.89999,5,0
		l66.8,40c3.2,1.89999,3.2,6.5,0,8.39999l-22,13.2C125.3,211.3,119.2,211.3,114.3,208.39999z"/>
</g>
<polygon display="none" fill="#CDD9EE" points="101.6,268.70001 -80.8,159.10001 101,49.6 284,159.10001 "/>
<g>
	<path fill="#8E8E8E" d="M143.10001,153.39999c-0.10001,0.10001-0.2,0.10001-0.3,0.2l-4.7,2.8L127.3,163
		c-1,0.60001-2.2,0.89999-3.4,0.89999c-1.2,0-2.3-0.3-3.3-0.89999L58,125.4L30.4,142v-33.2l-0.5-0.3c-3.4-2.1-5.6-5.8-5.6-9.9V25
		c0-2.4,1.3-4.6,3.4-5.7l15-9c1.1-0.9,2.6-1.4,4-1.4c1.2,0,2.3,0.3,3.3,0.9l15,9c0.2-2.2,1.4-4.2,3.4-5.2l15-9
		c1.1-0.9,2.6-1.4,4-1.4c1.2,0,2.3,0.3,3.3,0.9l90.69999,54.5C184.79999,60.7,187,64.4,187,68.5v73.60001
		c0,2.39999-1.3,4.60001-3.5,5.8l-3.89999,2.3l0.8,22.89999L162.5,184L143.10001,153.39999z"/>
	<path fill="#000000" d="M87.4,4.8c0.9,0,1.7,0.2,2.6,0.7L180.7,60c3,1.8,4.8,5.1,4.8,8.6v73.6c0,2-1.2,3.7-2.8,4.5l-4.7,2.8l0.8,22.89999L163,182
		l-19.5-30.8c-0.39999,0.39999-0.89999,0.8-1.39999,1.10001l-4.7,2.8l-10.9,6.60001l0,0c-0.8,0.5-1.7,0.7-2.6,0.7s-1.7-0.2-2.6-0.7
		l-25.1-15.10001l-43.3-26l5,3l-26.1,15.7v-31.4l-1.2-0.7c-3-1.8-4.8-5.1-4.8-8.6V24.9c0-2,1.1-3.6,2.6-4.4l0,0l0,0l0,0l15.1-9.1
		c0.9-0.7,2-1.1,3.1-1.1c0.9,0,1.7,0.2,2.6,0.7l17.3,10.4v-2.1c0-2,1.1-3.6,2.6-4.4l0,0l0,0l0,0l15.1-9.1
		C85.2,5.2,86.3,4.8,87.4,4.8 M87.4,1.8c-1.7,0-3.4,0.6-4.8,1.6l-14.9,8.9c-1.7,0.9-3,2.4-3.6,4.2l-13.3-8c-1.3-0.8-2.7-1.1-4.1-1.1
		C45,7.4,43.3,8,41.9,9L27,17.9c-2.6,1.4-4.2,4.1-4.2,7v73.6c0,4.5,2.3,8.7,6.1,11v29.7v5.3l4.5-2.7L58,127.1l36.7,22.1L119.8,164.3
		c1.2,0.8,2.7,1.10001,4.1,1.10001s2.9-0.39999,4.1-1.10001l10.9-6.60001l3.7-2.2l17.89999,28.10001l1.60001,2.5l2.5-1.5
		L180.49998,175l1.5-0.89999l-0.10001-1.8l-0.7-21.10001l3.10001-1.8c2.7-1.39999,4.3-4.10001,4.3-7.10001V68.6
		c0-4.5-2.39999-8.8-6.3-11.1L91.5,3C90.3,2.2,88.9,1.8,87.4,1.8L87.4,1.8z"/>
</g>
<g id="Speech_Bubble_1_3_">
	<path fill="#BBB8B9" stroke="#000000" stroke-width="1.25" stroke-miterlimit="10" d="M140,65.6L49.2,11.1
		c-1.9-1.2-4.1-0.8-5.7,0.4l-15.1,9.1c1.5-0.8,3.3-0.9,4.9,0.1L124,75.2c3,1.8,4.8,5.1,4.8,8.6v73.6c0,1.89999-1,3.39999-2.4,4.3
		l0,0l10.9-6.60001l4.7-2.8c1.60001-0.8,2.8-2.39999,2.8-4.5V74.2C144.8,70.7,143,67.4,140,65.6z"/>
	<path fill="#E0E0E0" stroke="#000000" stroke-width="1.25" stroke-miterlimit="10" d="M124.1,75.2L33.4,20.7
		c-3.3-2-7.6,0.4-7.6,4.3v73.6c0,3.5,1.8,6.8,4.8,8.6l1.2,0.7v31.39999L53,120.6l43.3,26.00001l25.1,15.10001
		c3.3,2,7.6-0.39999,7.6-4.3V83.8C128.89999,80.2,127.1,77,124.1,75.2z"/>
	<polygon fill="#7F95AC" stroke="#000000" stroke-width="1.25" stroke-miterlimit="10" points="33.5,44.9 33.5,52.5 102.7,94 
		102.7,86.5 	"/>
	<polygon fill="#7F95AC" stroke="#000000" stroke-width="1.25" stroke-miterlimit="10" points="33.5,63.5 33.5,71 114.9,119.9 
		114.9,112.3 	"/>
	<polygon fill="#7F95AC" stroke="#000000" stroke-width="1.25" stroke-miterlimit="10" points="33.5,82 33.5,89.6 84.6,120.3 
		84.6,112.8 	"/>
	<path fill="#8E8E8E" stroke="#000000" stroke-width="1.25" stroke-miterlimit="10" d="M143.60001,69.5l-16.2,9l0,0
		c1,1.6,1.5,3.4,1.5,5.3v73.59999c0,1.89999-1,3.39999-2.4,4.3l0,0l10.9-6.60001l4.7-2.8c1.60001-0.8,2.8-2.39999,2.8-4.5V74.2
		C144.8,72.5,144.39999,70.9,143.60001,69.5z"/>
</g>
<polygon fill="#777777" points="162.10001,156.10001 163,182 178.89999,172.39999 178.10001,149.5 "/>
<g id="Shadow">
	<path fill="#5B5B5B" d="M71.4,101.6"/>
	<polyline opacity="0.5" fill="#1E1E1E" enable-background="new    " points="71.4,101.6 90.5,134.8 128.89999,158.5 
		144.89999,148.89999 144.2,145.3 71.4,101.6 	"/>
</g>
<g id="Speech_Bubble_1_2_">
	<polygon fill="#777777" stroke="#000000" stroke-width="1.25" stroke-miterlimit="10" points="162.10001,156.10001 163,182 
		178.89999,172.39999 178.10001,149.5 	"/>
	<path fill="#BBB8B9" stroke="#000000" stroke-width="1.25" stroke-miterlimit="10" d="M180.7,60.1L90,5.5c-1.9-1.2-4.1-0.8-5.7,0.4
		L69.2,15c1.5-0.8,3.3-0.9,4.9,0.1l90.69999,54.5c3,1.8,4.8,5.1,4.8,8.6v73.59999c0,1.89999-1,3.39999-2.39999,4.3l0,0
		l10.89999-6.60001l4.7-2.8c1.60001-0.8,2.8-2.39999,2.8-4.5V68.6C185.60001,65.1,183.7,61.9,180.7,60.1z"/>
	<path fill="#FFFFFF" stroke="#000000" stroke-width="1.25" stroke-miterlimit="10" d="M164.8,69.6L74.1,15.1
		c-3.3-2-7.6,0.4-7.6,4.3V93c0,3.5,1.8,6.8,4.8,8.6L137,141l26,41l-0.89999-25.89999c3.3,2,7.60001-0.39999,7.60001-4.3V78.2
		C169.7,74.7,167.8,71.4,164.8,69.6z"/>
	<polygon fill="#7F95AC" stroke="#000000" stroke-width="1.25" stroke-miterlimit="10" points="86.6,46.5 86.6,54 155.8,95.6 
		155.8,88 	"/>
	<polygon fill="#7F95AC" stroke="#000000" stroke-width="1.25" stroke-miterlimit="10" points="74.3,57.9 74.3,65.4 
		155.60001,114.3 155.60001,106.8 	"/>
	<polygon fill="#7F95AC" stroke="#000000" stroke-width="1.25" stroke-miterlimit="10" points="104.7,95 104.7,102.5 155.8,133.3 
		155.8,125.7 	"/>
	<path fill="#8E8E8E" stroke="#000000" stroke-width="1.25" stroke-miterlimit="10" d="M184.39999,63.9l-16.2,9l0,0
		c1,1.6,1.5,3.4,1.5,5.3v73.6c0,1.89999-1,3.39999-2.39999,4.3l0,0L178.2,149.5l4.7-2.8c1.60001-0.8,2.8-2.39999,2.8-4.5V68.6
		C185.60001,66.9,185.10001,65.3,184.39999,63.9z"/>
</g>
<polygon fill="#8E8E8E" points="31.9,139.3 58,123.6 53,120.6 "/>
</svg>
