<?xml version="1.0" encoding="utf-8"?>
<!-- Generator: Adobe Illustrator 25.3.1, SVG Export Plug-In . SVG Version: 6.00 Build 0)  -->
<svg version="1.1" id="Layer_1" xmlns="http://www.w3.org/2000/svg" xmlns:xlink="http://www.w3.org/1999/xlink" x="0px" y="0px"
	 width="567.11798px" height="554.586px" viewBox="0 0 567.11798 554.586" enable-background="new 0 0 567.11798 554.586"
	 xml:space="preserve">
<g>
	<g>
		<path opacity="0.4" fill="#000000" enable-background="new    " d="M527.86102,367.26199c-0.36298,64.24399-90.61798,115.673-201.591,114.87
			c-110.974-0.802-200.64101-53.53201-200.27901-117.776c0.363-64.242,90.618-115.67099,201.592-114.869
			C438.556,250.291,528.22302,303.01999,527.86102,367.26199z"/>
		<path fill="#6885A9" d="M282.742,391.043c-94.838-0.60599-171.5-35.40298-171.23-77.72101l-0.459,71.86301
			c-0.31,48.51401,76.32001,88.33301,171.15799,88.939c94.83701,0.60599,171.97-38.23099,172.27899-86.745l0.45901-71.86301
			C454.67999,357.83301,377.57999,391.64801,282.742,391.043z"/>
		<path fill="#C3D5EA" d="M203.291,463.79199c7.40401,2.017,15.125,3.76599,23.117,5.224l0.52699-82.47501
			c-7.993-1.27899-15.715-2.81201-23.121-4.577L203.291,463.79199z"/>
		<path fill="#C3D5EA" d="M111.513,313.32101l-0.459,71.86301c-0.198,31.039,31.10001,58.51801,78.511,74.44699l0.519-81.306
			C142.661,364.392,111.34,340.397,111.513,313.32101z"/>
		<path fill="#6885A9" d="M283.42599,283.97299c-94.838-0.60599-171.5-35.403-171.23-77.72101l-0.459,71.86301
			c-0.31,48.51401,76.32001,88.336,171.15802,88.94101c94.83701,0.60599,171.97-38.233,172.27899-86.74701l0.45901-71.86301
			C455.36401,250.76401,378.26401,284.57901,283.42599,283.97299z"/>
		<path fill="#C3D5EA" d="M190.24899,352.56201l0.519-81.30701c-47.423-13.931-78.744-37.92801-78.571-65.00299l-0.459,71.86301
			C111.539,309.155,142.838,336.633,190.24899,352.56201z"/>
		<path fill="#C3D5EA" d="M203.97501,356.72198c7.40401,2.017,15.125,3.76599,23.117,5.224l0.52699-82.47601
			c-7.993-1.27802-15.715-2.811-23.121-4.57599L203.97501,356.72198z"/>
		<path fill="#CDD9EE" d="M456.35001,96.32c-0.31,48.514-77.44199,87.35099-172.27902,86.745
			c-94.838-0.606-171.468-40.425-171.158-88.939c0.31-48.513,77.442-87.35,172.28001-86.744
			C380.03101,7.988,456.66,47.807,456.35001,96.32z"/>
		<path fill="#365E7F" d="M283.59601,257.48801c-81.293-0.51901-149.2-29.851-166.74699-68.77301
			c-3.002,5.62199-4.614,11.492-4.652,17.536c-0.27,42.31801,76.391,77.11601,171.22998,77.72099
			c94.83701,0.60599,171.93701-33.209,172.20801-75.528c0.039-6.04401-1.49799-11.93401-4.42801-17.59399
			C433.164,229.545,364.88699,258.00699,283.59601,257.48801z"/>
		<path fill="#365E7F" d="M282.89001,367.97c-82.55899-0.52701-151.30901-30.77301-167.526-70.60098
			c-2.483,5.138-3.816,10.47299-3.851,15.952c-0.27,42.31799,76.39101,77.116,171.23,77.72101
			c94.83701,0.60599,171.93698-33.20901,172.20798-75.52798c0.035-5.479-1.23001-10.83099-3.647-16
			C434.578,339.133,365.448,368.49799,282.89001,367.97z"/>
		<path fill="#FFFFFF" d="M303.319,181.01801c4.69699,0.03,9.23999,0.214,13.83899,0.045
			c-83.953-4.157-149.661-42.692-149.381-86.586c0.28-43.893,66.47301-81.256,150.47301-84.34
			c-4.59601-0.229-9.246-0.059-13.94199-0.089c-10.565-0.133-20.99301,0.337-31.16599,1.34
			c6.54199-0.684,13.22299-1.162,20.02301-1.411c-4.59601-0.229-9.246-0.059-13.94199-0.089
			c-86.541-1.086-164.121,37.954-164.41701,84.251c-0.296,46.298,76.54399,86.164,163.42799,86.71899
			c4.69699,0.03,9.23999,0.214,13.83899,0.045"/>
		<path fill="#6885A9" d="M284.07101,183.06599c-94.838-0.606-171.468-40.425-171.158-88.939l-0.479,74.906
			c-0.31,48.51401,76.32,88.33401,171.15799,88.94c94.83701,0.60599,171.97-38.23199,172.27902-86.746l0.478-74.906
			C456.04001,144.834,378.90799,183.67101,284.07101,183.06599z"/>
		<path fill="#C3D5EA" d="M190.94501,243.479l0.479-74.90601c-47.411-15.92799-78.709-43.407-78.511-74.447l-0.479,74.906
			C112.236,200.07201,143.535,227.55099,190.94501,243.479z"/>
		<path fill="#C3D5EA" d="M227.78799,252.862l0.479-74.90601c-7.992-1.45799-15.71201-3.207-23.117-5.22301l-0.479,74.90599
			C212.076,249.655,219.797,251.40401,227.78799,252.862z"/>
		<path fill="none" d="M190.76801,271.255c4.439,1.30499,9.022,2.51999,13.73,3.64001l0.174-27.256
			c-4.707-1.283-9.289-2.66901-13.72701-4.16L190.76801,271.255z"/>
		<path fill="none" d="M190.084,378.32599c4.439,1.30399,9.022,2.517,13.73,3.63901l0.161-25.24301
			c-4.707-1.28201-9.289-2.668-13.72701-4.16L190.084,378.32599z"/>
		<path fill="#231F20" d="M459.07401,190.96899c3.862-7.645,3.71301-19.22701,3.70401-19.69901l0.478-74.832
			c0.255-2.146,2.98801-32.005-37.21799-59.653C382.91,7.128,323.51199,0.314,304.29099,0.191
			C304.23001,0.189,298.84,0.003,285.19199,0c-13.646-0.171-19.03201-0.054-19.07199-0.053
			c-19.248-0.123-78.728,5.932-122.231,35.036c-40.556,27.132-38.205,57.024-37.97701,59.173l-0.478,74.80201
			c-0.015,0.50101-0.313,12.08099,3.452,19.77499c-4.201,9.25101-3.711,17.22501-3.69,17.474l-0.459,71.86301
			c-0.068,10.62399,2.251,16.793,3.073,18.64001c-0.857,1.86401-3.245,8.203-3.326,21l-0.416,65.46301
			c-0.061,0.93201-1.303,23.06,15.828,42.50299c27.916,31.681,76.05701,50.39999,143.116,55.638
			c0.09698,0.005,6.52899,0.276,14.51901,0.327c1.48099,0.009,3.02399,0.008,4.58301-0.00101
			c1.55701,0.03,3.10001,0.04999,4.582,0.06c7.995,0.05099,14.44101-0.14001,14.55801-0.14301
			c67.09-4.379,115.466-22.48199,143.784-53.80402c17.379-19.22198,16.41901-41.36499,16.37201-42.22299l0.41901-65.53702
			c0.082-12.798-2.22501-19.16602-3.05801-21.04102c0.84601-1.836,3.24301-7.97501,3.311-18.599l0.45401-71.769
			C462.564,208.242,463.15601,200.27299,459.07401,190.96899z M112.946,385.19601l0.351-54.996
			c6.913,14.97,23.14999,28.689,47.411,39.70001c32.56999,14.784,75.90401,23.08701,122.02,23.38199
			c46.11499,0.29501,89.55099-7.45401,122.30701-21.82101c24.39999-10.70001,40.811-24.211,47.91501-39.09201l-0.35101,54.995
			c-0.302,47.267-76.73102,85.23502-170.37299,84.63699C188.582,471.405,112.644,432.46301,112.946,385.19601z M285.17899,9.623
			c93.582,0.598,169.47299,39.485,169.172,86.685c-0.302,47.201-76.68301,85.11501-170.26498,84.51799
			c-93.58301-0.59801-169.474-39.485-169.173-86.686C115.214,46.939,191.595,9.025,285.17899,9.623z M161.968,158.595
			c32.582,16.92999,75.94099,26.41699,122.089,26.711c46.14801,0.295,89.62399-8.63699,122.41901-25.14999
			c24.36499-12.26801,40.75299-27.698,47.85901-44.65l-0.35599,55.70701c-0.03299,5.183-0.983,10.255-2.76901,15.17599
			l-0.095-0.18201l-1.68201,3.608c-8.57901,18.39999-29.52798,35.07401-58.98898,46.952
			c-30.17401,12.164-68.116,18.728-106.83499,18.48c-38.72-0.24699-76.575-7.295-106.591-19.84399
			c-29.30701-12.25301-50.042-29.19301-58.38499-47.701l-1.636-3.629l-0.097,0.181c-1.723-4.94299-2.608-10.02701-2.575-15.21001
			l0.356-55.707C121.572,130.37801,137.761,146.01601,161.968,158.595z M453.634,208.43201
			c-0.125,19.48801-17.65701,37.879-49.36801,51.78699C371.97,274.383,329.06,282.02301,283.44,281.73199
			c-45.621-0.29099-88.42999-8.479-120.54199-23.05402c-31.53-14.312-48.826-32.92599-48.702-52.414
			c0.027-4.25301,0.91-8.505,2.621-12.687c7.904,14.92,23.10899,28.586,44.717,39.813
			c32.567,16.924,75.911,26.40701,122.04399,26.702s89.59399-8.634,122.375-25.14
			c21.74899-10.95,37.12701-24.42101,45.22101-39.23799C452.83301,199.91499,453.66101,204.179,453.634,208.43201z
			 M161.39301,262.83099c32.57001,14.78299,75.905,23.08801,122.01999,23.38199
			c46.11499,0.29501,89.55099-7.45599,122.30701-21.82101c24.39999-10.701,40.811-24.211,47.91501-39.091l-0.35101,54.995
			c-0.302,47.26901-76.73102,85.237-170.37299,84.63901c-93.64301-0.59799-169.58099-39.54001-169.27901-86.80899l0.351-54.995
			C120.895,238.101,137.131,251.819,161.39301,262.83099z M452.95001,315.50201c-0.125,19.487-17.65701,37.879-49.36801,51.78601
			c-32.29501,14.164-75.20599,21.80499-120.82599,21.513c-45.621-0.29099-88.42999-8.48001-120.54199-23.05499
			c-31.53-14.311-48.826-32.92599-48.702-52.41299c0.023-3.63199,0.672-7.27301,1.931-10.86801
			c9.261,18.33099,29.677,34.90799,58.091,47.035c30.69299,13.10001,69.52499,20.45599,109.341,20.70999
			s78.73898-6.60501,109.59601-19.31201c28.56699-11.763,49.19299-28.077,58.68701-46.289
			C452.37201,308.22101,452.97299,311.87,452.95001,315.50201z"/>
	</g>
</g>
</svg>
