<?xml version="1.0" encoding="utf-8"?>
<!-- Generator: Adobe Illustrator 25.3.1, SVG Export Plug-In . SVG Version: 6.00 Build 0)  -->
<svg version="1.1" id="Layer_1" xmlns="http://www.w3.org/2000/svg" xmlns:xlink="http://www.w3.org/1999/xlink" x="0px" y="0px"
	 width="701.40002px" height="477px" viewBox="0 0 701.40002 477" enable-background="new 0 0 701.40002 477" xml:space="preserve">
<g>
	<path fill="#6885A9" d="M1043.80005,247.39999c0.09998,0.89999,0.09998,1.8,0.09998,2.7v-2.7H1043.80005z"/>
	<path fill="#231F20" d="M1045.80005,250.10001H1042c0-0.8,0-1.60001-0.09998-2.5l-0.19995-2.10001h4.09998V250.10001
		L1045.80005,250.10001z"/>
</g>
<g>
	<path fill="#6885A9" d="M1043.80005,151.8c0.09998,0.89999,0.09998,1.8,0.09998,2.7v-2.7H1043.80005z"/>
	<path fill="#231F20" d="M1045.80005,154.5H1042c0-0.8,0-1.60001-0.09998-2.5l-0.19995-2.10001h4.09998V154.5L1045.80005,154.5z"/>
</g>
<path fill="#B2CBED" stroke="#231F20" stroke-width="4" stroke-linejoin="round" stroke-miterlimit="10" d="M1043.80005,247.39999
	c0.09998,0.89999,0.09998,1.8,0.09998,2.7v-2.7H1043.80005z"/>
<path fill="#B2CBED" stroke="#231F20" stroke-width="4" stroke-linejoin="round" stroke-miterlimit="10" d="M1043.80005,151.8
	c0.09998,0.89999,0.09998,1.8,0.09998,2.7v-2.7H1043.80005z"/>
<g>
	<polygon opacity="0.4" fill="#000000" enable-background="new    " points="478.89999,414.29999 370.60001,442.10001 297.20001,52.2 
		701.40002,295.20001 	"/>
	<polygon fill="#CCD8EE" points="92.4,391.29999 91.4,391.29999 91.4,391.89999 	"/>
	<polygon fill="#CCD8EE" points="92.4,273.39999 91.4,273.39999 91.4,274 	"/>
	<polygon fill="#CDD9EE" points="370.60001,325 94.1,154.5 297.20001,43.4 574.5,213.7 	"/>
	<polygon fill="#CCD8EE" points="92.4,155.5 91.4,155.5 91.4,156.10001 	"/>
	<polygon fill="#B5C5DC" points="91.4,256.10001 370.60001,428.20001 370.60001,428.20001 370.60001,328.20001 91.4,156.10001 	"/>
	<polygon fill="#FFFFFF" points="389,313.89999 152.3,165.89999 336,66.7 297.20001,43.4 94.1,154.5 370.60001,325 	"/>
	<polygon fill="#6885A9" points="577.20001,315.29999 370.60001,428.20001 370.60001,428.20001 370.60001,328.20001 
		577.20001,215.39999 	"/>
	<path fill="#231F20" d="M588.20001,209l-291-178.5L81.7,148.89999l-1.3,0.8V261v0.89999l290.29999,178.69998l217.60001-119.5
		L588.20001,209z M297.20001,43.4L574.5,213.70001L370.60001,325L94.1,154.5L297.20001,43.4z M574.5,220.3v93.40001
		L373.39999,423.29999v-93.5L574.5,220.3z M367.89999,329.79999v93.5L94.2,254.5V161L367.89999,329.79999z"/>
	<polygon fill="#000000" points="182.7,292.89999 159,278.10001 159,255.10001 182.7,269.89999 	"/>
	<polygon fill="#000000" points="144.8,269.60001 121.1,254.8 121.1,231.89999 144.8,246.7 	"/>
	<polygon fill="#000000" points="258.39999,340.89999 234.60001,326.10001 234.60001,303.20001 258.39999,318 	"/>
	<polygon fill="#000000" points="220.5,317.70001 196.8,302.89999 196.8,279.89999 220.5,294.70001 	"/>
	<polygon fill="#000000" points="335.29999,388.20001 311.60001,373.39999 311.60001,350.5 335.29999,365.29999 	"/>
	<polygon fill="#000000" points="297.39999,365 273.70001,350.20001 273.70001,327.20001 297.39999,342 	"/>
	<polygon fill="#000000" points="182.39999,259.60001 158.7,244.8 158.7,221.89999 182.39999,236.7 	"/>
	<polygon fill="#000000" points="144.60001,236.39999 120.9,221.60001 120.9,198.60001 144.60001,213.39999 	"/>
	<polygon fill="#000000" points="258.10001,307.70001 234.39999,292.89999 234.39999,270 258.10001,284.79999 	"/>
	<polygon fill="#000000" points="220.3,284.39999 196.5,269.60001 196.5,246.7 220.3,261.5 	"/>
	<polygon fill="#000000" points="335,355 311.29999,340.20001 311.29999,317.29999 335,332.10001 	"/>
	<polygon fill="#000000" points="297.20001,331.70001 273.5,316.89999 273.5,294 297.20001,308.79999 	"/>
</g>
</svg>
