<?xml version="1.0" encoding="utf-8"?>
<!-- Generator: Adobe Illustrator 25.3.1, SVG Export Plug-In . SVG Version: 6.00 Build 0)  -->
<svg version="1.1" id="Layer_1" xmlns="http://www.w3.org/2000/svg" xmlns:xlink="http://www.w3.org/1999/xlink" x="0px" y="0px"
	 width="260.39999px" height="517.70001px" viewBox="0 0 260.39999 517.70001" enable-background="new 0 0 260.39999 517.70001"
	 xml:space="preserve">
<g id="Layer_1_1_" display="none">
	<polygon display="inline" fill="none" stroke="#A7A9AC" stroke-width="4" stroke-miterlimit="10" points="345.60001,375.39999 
		130.2,499.79999 -85.2,375.39999 -85.2,126.7 130.2,2.3 345.60001,126.7 	"/>
</g>
<g id="Layer_2_1_">
	<path fill="#5A5B5B" d="M217.10001,444.10001l-9.39999-51.5l-9-49.39999l0,0l0,0l0,0l-22.5-123.7l0,0l-7.5-41.2l0,0
		l-5.39999-29.60001l-0.7-1c-0.2-0.5-0.5-1-1-1.39999l-0.10001-0.10001l-16.2-9.3l0.7-0.39999l-15.7-9.1l-15.7,9.1l0.7,0.39999
		l-15.7,9.10001L99,146l0,0l0,0c-0.9,0.60001-1.5,1.5-1.7,2.5l0,0l-12.9,70.89999l0,0L61.7,343.20001l0,0l0,0l0,0l-9,49.39999
		l-9.4,51.5c-0.4,2,1,3.89999,3,4.29999c0.2,0,0.4,0.10001,0.7,0.10001c1.7,0,3.3-1.20001,3.6-3l8.5-46.39999l67.5,39v54.79999
		c0,2,1.7,3.70001,3.7,3.70001s3.7-1.70001,3.7-3.70001V438l67.5-39l8.5,46.39999c0.3,1.79999,1.89999,3,3.60001,3
		c0.2,0,0.39999,0,0.7-0.10001C216.10001,448,217.5,446.10001,217.10001,444.10001z M126.5,276.89999L98.5,230.5l28,16.2V276.89999z
		 M133.89999,246.7l28-16.2l-28,46.39999V246.7z M92,218.2l5.1-28.2l23.8,44.89999L92,218.2z M119.6,279.70001l-35.1-20.29999
		l5.3-29.10001L119.6,279.70001z M170.60001,230.39999l5.3,29.10001l-35.09999,20.29999L170.60001,230.39999z M139.5,234.89999
		L163.3,190l5.10001,28.2L139.5,234.89999z M133.89999,229.7v-28.60001l21.8-12.60001L133.89999,229.7z M126.5,229.7l-21.8-41.2
		l21.8,12.60001V229.7z M126.5,292.20001V323.5l-34.2-51.10001L126.5,292.20001z M133.89999,292.20001l34.2-19.79999l-34.2,51.10001
		V292.20001z M160.89999,177l-20.60001,11.89999l17.3-29.89999L160.89999,177z M99.5,177l3.2-17.3l17.2,29.10001L99.5,177z
		 M118.3,324.5L77,300.70001L82.4,271L118.3,324.5z M178,271l5.39999,29.70001l-41.3,23.89999L178,271z M133.89999,185.2v-18.60001
		l16.2-9.3L133.89999,185.2z M126.5,185.39999l-17-28.7l17,9.8V185.39999z M126.5,337.79999v32.10001L86.1,314.5L126.5,337.79999z
		 M133.89999,337.79999L174.29999,314.5l-40.39999,55.39999V337.79999z M133.89999,160.5v-17.2l4-2.3l14.89999,8.60001
		L133.89999,160.5z M122.6,141l4,2.3v17.2l-18.9-10.89999L122.6,141z M75,311.70001l42,57.60001l-47.5-27.39999L75,311.70001z
		 M185.5,311.70001l5.5,30.20001l-47.5,27.39999L185.5,311.70001z M126.5,383.39999v40.89999L78,355.39999L126.5,383.39999z
		 M133.89999,383.39999l48.5-28l-48.5,68.89999V383.39999z M67.4,353.20001l50.1,71.20001l-57.1-33L67.4,353.20001z
		 M142.89999,424.29999L193,353.09998l7,38.20001L142.89999,424.29999z"/>
	<path fill="#808285" d="M130,127.4l-15.5,8.9l0.7,0.39999L99.5,145.8L99,146l0,0l0,0c-0.9,0.60001-1.5,1.5-1.7,2.5l0,0
		l-12.9,70.89999l0,0L61.7,343.20001l0,0l0,0l0,0l-9,49.39999l-9.4,51.5c-0.4,2,1,3.89999,3,4.29999c0.2,0,0.4,0.10001,0.7,0.10001
		c1.7,0,3.3-1.20001,3.6-3l8.5-46.39999l67.5,39v54.79999c0,2,1.5,3.5,3.39999,3.70001V127.4L130,127.4z M102.7,159.60001
		l17.2,29.10001L99.5,177L102.7,159.60001z M97.2,190l23.8,44.89999l-29-16.7L97.2,190z M89.8,230.39999l29.8,49.39999
		l-35.1-20.29999L89.8,230.39999z M82.4,271l35.9,53.60001L77,300.70001L82.4,271z M75,311.70001l42,57.60001l-47.5-27.39999
		L75,311.70001z M60.5,391.39999l7-38.20001l50.1,71.19998L60.5,391.39999z M126.5,424.29999L78,355.39999l48.5,28V424.29999z
		 M126.5,369.89999L86.1,314.5l40.4,23.29999V369.89999z M126.5,323.5l-34.2-51.10001l34.2,19.79999V323.5z M126.5,276.89999
		L98.5,230.5l28,16.2V276.89999z M126.5,229.7l-21.8-41.2l21.8,12.60001V229.7z M126.5,185.39999l-17-28.7l17,9.8V185.39999z
		 M126.5,160.5l-18.9-10.89999L122.5,141l4,2.3V160.5L126.5,160.5z"/>
	<g>
		<polygon fill="#808285" points="130.2,145.3 107.3,132 123.2,10 130.2,14 		"/>
	</g>
	<g>
		<polygon fill="#5A5B5B" points="130.2,145.3 153.2,132 137.2,10 130.2,14 		"/>
	</g>
	<g>
		<polygon fill="#BCBEC0" points="130.2,5.9 123.2,10 130.2,14 137.2,10 		"/>
	</g>
</g>
<path opacity="0.25" fill="#000000" enable-background="new    " d="M203.3,447.29999c5.39999,12.79999-18.5,30.20001-58.59999,32
	S63.4,466.60001,58,453.70001s19.8-30.5,59.9-32.20001S197.89999,434.5,203.3,447.29999z"/>
</svg>
