<?xml version="1.0" encoding="utf-8"?>
<!-- Generator: Adobe Illustrator 25.3.1, SVG Export Plug-In . SVG Version: 6.00 Build 0)  -->
<svg version="1.1" id="Layer_1" xmlns="http://www.w3.org/2000/svg" xmlns:xlink="http://www.w3.org/1999/xlink" x="0px" y="0px"
	 width="676.88898px" height="638.62799px" viewBox="0 0 676.88898 638.62799" enable-background="new 0 0 676.88898 638.62799"
	 xml:space="preserve">
<g>
	<path opacity="0.4" fill="#000000" enable-background="new    " d="M415.931,481.16L415.931,481.16"/>
	<g>
		<path fill="#231F20" d="M411.659,479.13199l3.51099,2.02802l3.51501-2.02802"/>
	</g>
</g>
<g>
	<g>
		<path fill="#C3D5EA" d="M396.936,181.847c0,48.927-39.66299,65.692-88.59201,37.44301c-48.927-28.248-88.59-90.812-88.59-139.739
			s39.66299-65.692,88.59-37.443C357.27399,70.355,396.936,132.918,396.936,181.847z"/>
		<path fill="#FAFCFF" d="M243.83501,91.772c0-42.682,30.18599-60.883,70.37199-46.082c-1.93799-1.246-3.892-2.445-5.862-3.583
			c-48.927-28.248-88.59-11.484-88.59,37.443c0,48.92799,39.66299,111.49199,88.59,139.739
			c6.24701,3.606,12.33899,6.474,18.21899,8.63901C280.371,198.24001,243.83501,138.729,243.83501,91.772z"/>
		<path fill="#365E7F" d="M245.715,163.673l-28.313,16.13699l0.00301,0.004c0.42799-0.23399,0.868-0.452,1.304-0.675
			c0.242-0.12399,0.478-0.254,0.72301-0.37399c0.832-0.408,1.67799-0.79401,2.535-1.16299c0.28-0.12,0.56599-0.233,0.849-0.34801
			c0.63901-0.263,1.286-0.515,1.94099-0.755c0.308-0.114,0.61501-0.226,0.925-0.33501c0.79201-0.276,1.593-0.537,2.40401-0.78
			c0.13901-0.04201,0.276-0.089,0.41499-0.13c0.957-0.28,1.927-0.532,2.908-0.767c0.26199-0.063,0.528-0.119,0.79201-0.179
			c0.774-0.175,1.554-0.336,2.34399-0.483c0.26601-0.049,0.532-0.101,0.8-0.147c2.07899-0.36,4.209-0.62601,6.388-0.79601
			c0.22701-0.017,0.457-0.03101,0.686-0.047c0.92799-0.063,1.86301-0.11,2.80901-0.138c0.19901-0.006,0.396-0.01601,0.597-0.02
			c2.295-0.05099,4.638,0,7.028,0.153c0.186,0.013,0.375,0.02699,0.563,0.03999c1.091,0.078,2.19,0.175,3.299,0.295
			c0.078,0.009,0.15399,0.013,0.233,0.02c0.00101,0.00101,0.00201,0.002,0.00201,0.002c-2.883-3.722-5.638-7.53799-8.25-11.427
			C247.68401,162.37,246.68401,163,245.715,163.673z"/>
		<path fill="#C3D5EA" d="M430.01001,379.423c-0.01099-0.36301-0.02399-0.72699-0.04001-1.09
			c-0.04901-1.21799-0.11401-2.439-0.19601-3.66699c-0.01401-0.17599-0.021-0.35199-0.034-0.53
			c-0.10001-1.38199-0.22299-2.77301-0.36401-4.168c-0.03699-0.353-0.077-0.707-0.11401-1.06201
			c-0.12799-1.177-0.26999-2.35699-0.42899-3.54099c-0.034-0.271-0.06601-0.539-0.104-0.80899
			c-0.19299-1.409-0.41-2.82401-0.64401-4.242c-0.05301-0.31699-0.10999-0.63501-0.164-0.952
			c-0.20499-1.19101-0.42401-2.384-0.655-3.582c-0.06299-0.31601-0.12201-0.634-0.18301-0.95001
			c-0.289-1.43799-0.595-2.883-0.923-4.32901c-0.05499-0.241-0.11401-0.483-0.168-0.72601c-0.29099-1.255-0.595-2.513-0.91501-3.772
			c-0.08401-0.332-0.16699-0.66599-0.25201-0.99899c-0.38199-1.47501-0.77899-2.952-1.19901-4.431
			c-0.02701-0.09799-0.05801-0.19601-0.08499-0.29501c-0.39999-1.39099-0.81699-2.784-1.24899-4.17899
			c-0.10101-0.32401-0.202-0.64999-0.30301-0.97501c-0.94601-2.99799-1.96799-6.00101-3.06201-9.005
			c-0.10901-0.29401-0.215-0.58801-0.32401-0.88101c-0.53699-1.45099-1.08499-2.90302-1.65399-4.354
			c-0.021-0.04999-0.04001-0.10001-0.06-0.14999c-0.60599-1.54401-1.23499-3.086-1.88199-4.62799
			c-0.09601-0.23401-0.19699-0.46899-0.29501-0.703c-0.60001-1.42099-1.21399-2.841-1.845-4.26001
			c-0.05301-0.11801-0.104-0.237-0.15601-0.35599c-0.698-1.561-1.41599-3.11899-2.14999-4.67599
			c-0.06601-0.14401-0.13599-0.28601-0.20401-0.42899c-0.689-1.452-1.392-2.89999-2.11099-4.34698
			c-0.07101-0.142-0.14099-0.28201-0.21201-0.42499c-0.79001-1.582-1.59698-3.15799-2.42401-4.733
			c-0.00299-0.005-0.00601-0.009-0.008-0.01401c-0.80801-1.54001-1.63901-3.07401-2.48001-4.604
			c-0.078-0.14099-0.15302-0.28101-0.233-0.42099c-1.72-3.11301-3.51001-6.207-5.36801-9.27701
			c-0.069-0.11301-0.13599-0.22601-0.207-0.33899c-1.88-3.099-3.82901-6.173-5.841-9.21701
			c-0.04501-0.06699-0.08899-0.133-0.13199-0.20001c-2.04599-3.08801-4.15601-6.146-6.32999-9.164
			c-0.00201-0.00299-0.00299-0.00699-0.008-0.01001c-7.69699-10.692-16.17499-20.91299-25.26001-30.397
			c-14.496,1.974-32.23599-2.183-51.39899-13.248c-19.16101-11.063-36.901-27.38899-51.39499-46.099
			c-0.07901-0.009-0.15701-0.01601-0.23599-0.02299c-1.10899-0.12-2.20799-0.217-3.299-0.295
			c-0.188-0.013-0.37601-0.02699-0.563-0.03999c-2.39-0.153-4.733-0.20399-7.028-0.153c-0.201,0.005-0.399,0.01401-0.597,0.02
			c-0.946,0.028-1.881,0.07401-2.80901,0.138c-0.229,0.01601-0.45799,0.02901-0.686,0.047c-2.179,0.16901-4.308,0.436-6.388,0.79601
			c-0.26801,0.047-0.534,0.097-0.8,0.147c-0.78999,0.147-1.57001,0.30901-2.34399,0.483c-0.26401,0.06-0.53,0.11501-0.79201,0.179
			c-0.98199,0.235-1.952,0.487-2.908,0.767c-0.14,0.041-0.27699,0.088-0.41499,0.13c-0.812,0.244-1.612,0.505-2.40401,0.78
			c-0.31,0.108-0.619,0.22099-0.925,0.33501c-0.65401,0.24001-1.30099,0.493-1.94099,0.755
			c-0.284,0.11501-0.57001,0.228-0.849,0.34801c-0.858,0.369-1.70399,0.754-2.535,1.16299c-0.245,0.12-0.481,0.25-0.72301,0.37399
			c-19.92799,10.16901-32.105,32.05099-32.105,63.817V409.56l243.48099,140.573V383.53
			C430.08701,382.168,430.05499,380.798,430.01001,379.423z"/>
		<path fill="#FAFCFF" d="M209.16901,420.41199V253.80901c0-31.765,12.177-53.64799,32.105-63.817
			c0.242-0.123,0.479-0.254,0.72301-0.37399c0.832-0.408,1.67799-0.795,2.535-1.16299c0.28-0.12,0.56599-0.23199,0.849-0.34801
			c0.64-0.26199,1.286-0.515,1.94099-0.755c0.30701-0.114,0.61501-0.226,0.925-0.33501c0.79201-0.276,1.592-0.537,2.40401-0.78
			c0.13901-0.04201,0.276-0.089,0.416-0.13c0.95599-0.27901,1.92599-0.532,2.907-0.76601c0.26199-0.063,0.528-0.119,0.793-0.179
			c0.77299-0.175,1.554-0.33501,2.343-0.48199c0.26599-0.049,0.53201-0.101,0.79999-0.147c2.07901-0.36,4.20901-0.62601,6.388-0.795
			c0.22699-0.01801,0.457-0.03101,0.686-0.047c0.21301-0.01601,0.43201-0.019,0.64499-0.032
			c-3.00201-3.38901-5.89999-6.884-8.67801-10.46899c-0.07901-0.009-0.15701-0.01601-0.23599-0.02299
			c-1.10899-0.12-2.20799-0.217-3.299-0.295c-0.188-0.013-0.37601-0.02699-0.563-0.03999c-2.39-0.153-4.733-0.20399-7.028-0.153
			c-0.201,0.005-0.399,0.01401-0.597,0.02c-0.946,0.028-1.881,0.07401-2.80901,0.138c-0.229,0.01601-0.45799,0.02901-0.686,0.047
			c-2.179,0.16901-4.308,0.436-6.388,0.79601c-0.26801,0.047-0.534,0.097-0.8,0.147c-0.78999,0.147-1.57001,0.30901-2.34399,0.483
			c-0.26401,0.06-0.53,0.11501-0.79201,0.179c-0.98199,0.235-1.952,0.487-2.908,0.767c-0.14,0.041-0.27699,0.088-0.41499,0.13
			c-0.812,0.244-1.612,0.505-2.40401,0.78c-0.31,0.108-0.619,0.22099-0.925,0.33501c-0.65401,0.24001-1.30099,0.493-1.94099,0.755
			c-0.284,0.11501-0.57001,0.228-0.849,0.34801c-0.858,0.369-1.70399,0.754-2.535,1.16299c-0.245,0.12-0.481,0.25-0.72301,0.37399
			c-19.92799,10.16901-32.105,32.05099-32.105,63.817V409.56l243.48099,140.573v-2.17297L209.16901,420.41199z"/>
		<path fill="#6885A9" d="M430.08701,162.862c0,23.118-8.85699,39.05499-23.36301,46.45399l-29.52899,17.063l-0.095-0.121
			c12.401-8.08501,19.83701-23.231,19.83701-44.41299c0-38.41501-24.453-85.244-58.647-117.256
			c-4.09-3.836-8.32001-7.455-12.66501-10.812c-5.58401-4.334-11.366-8.255-17.28-11.668c-0.23499-0.141-0.479-0.273-0.71399-0.404
			c-25.14999-14.328-47.78799-16.726-63.799-8.969l28.37502-16.227c1.59799-1.081,3.271-2.04,5.02899-2.877
			c16.142-7.681,38.961-5.114,64.259,9.485c0.461,0.264,0.922,0.537,1.383,0.819c5.237,3.103,10.37,6.59,15.34299,10.426
			c4.59698,3.526,9.06299,7.333,13.37799,11.385C405.70801,77.77,430.08701,124.505,430.08701,162.862z"/>
		<path fill="#E9F2FF" d="M342.87799,23.937L342.06,25.244l-30.69598,16.462h-3.73199
			c-25.14999-14.328-47.78799-16.726-63.799-8.969l28.37498-16.227c1.59698-1.081,3.271-2.04,5.02899-2.877
			c16.142-7.681,38.961-5.114,64.259,9.485C341.95599,23.382,342.41699,23.654,342.87799,23.937z"/>
		<path fill="#E9F2FF" d="M371.599,45.749l-2.116,0.602l-30.44101,16.406l-0.75201,1.833c-4.09-3.836-8.32001-7.455-12.66501-10.812
			l0.94-1.645l29.86099-16.773l1.79501-0.996C362.81799,37.888,367.285,41.697,371.599,45.749z"/>
		<g>
			<path fill="#6885A9" d="M239.26199,35.357L239.26199,35.357L239.26199,35.357z"/>
		</g>
		<path fill="#6885A9" d="M395.263,215.937L377.189,226.37999l-0.08701-0.12199c0.10101-0.067,0.194-0.14301,0.29501-0.209
			c-5.09601,3.392-11.034,5.588-17.66101,6.489c9.08801,9.48599,17.57001,19.702,25.26801,30.397
			c0.005,0.00299,0.00601,0.00699,0.008,0.01001c2.17401,3.01901,4.285,6.07599,6.32999,9.164
			c0.043,0.06699,0.08701,0.133,0.13199,0.20001c2.01199,3.04401,3.95999,6.11801,5.841,9.21701
			c0.07101,0.11401,0.138,0.22601,0.207,0.33899c1.858,3.07001,3.64801,6.16299,5.36801,9.27701
			c0.07999,0.13901,0.15399,0.28,0.233,0.42099c0.841,1.53,1.673,3.064,2.48001,4.604c0.00201,0.005,0.005,0.009,0.008,0.01401
			c0.827,1.57501,1.634,3.151,2.42401,4.733c0.07101,0.14301,0.14099,0.28299,0.21201,0.42499
			c0.71899,1.44699,1.423,2.896,2.11099,4.34702c0.06699,0.14301,0.138,0.285,0.20401,0.42899
			c0.73499,1.55701,1.453,3.116,2.14999,4.67599c0.052,0.11801,0.103,0.237,0.15601,0.35599
			c0.63199,1.41901,1.246,2.83801,1.845,4.26001c0.09799,0.23401,0.19901,0.46899,0.29501,0.703
			c0.647,1.54099,1.276,3.08401,1.88199,4.62799c0.01999,0.04999,0.03799,0.10001,0.06,0.14999
			c0.57001,1.45099,1.117,2.90302,1.65399,4.354c0.10901,0.29401,0.215,0.58801,0.32401,0.88101
			c1.09399,3.004,2.116,6.008,3.06201,9.005c0.10101,0.32401,0.202,0.64999,0.30301,0.97501
			c0.43201,1.39499,0.849,2.78799,1.24899,4.17899c0.02701,0.10001,0.05801,0.19699,0.08499,0.29501
			c0.42099,1.48001,0.81699,2.95599,1.19901,4.431c0.08499,0.33401,0.168,0.66599,0.25201,0.99899
			c0.32001,1.259,0.62399,2.517,0.91501,3.772c0.05499,0.242,0.11401,0.48499,0.168,0.72501
			c0.328,1.44601,0.634,2.89001,0.923,4.32901c0.061,0.31601,0.121,0.634,0.18301,0.95001c0.23099,1.198,0.45001,2.392,0.655,3.582
			c0.05301,0.31699,0.10999,0.63501,0.164,0.952c0.23401,1.41901,0.45099,2.832,0.64401,4.242
			c0.03799,0.271,0.07101,0.539,0.104,0.80899c0.159,1.185,0.29999,2.36401,0.42899,3.54099
			c0.03699,0.35501,0.077,0.70801,0.11401,1.06201c0.14099,1.39499,0.26501,2.78699,0.36401,4.168
			c0.013,0.17801,0.01999,0.353,0.034,0.53c0.082,1.22699,0.147,2.448,0.19601,3.66699
			c0.01599,0.36401,0.02899,0.72699,0.04001,1.09c0.04501,1.37601,0.077,2.745,0.077,4.10501v166.603l33.14899-19.11499V364.41101
			C463.23499,316.48099,435.52802,259.04001,395.263,215.937z"/>
		<path fill="#231F20" d="M409.995,218.282l1.22501-0.70799c18.23099-9.41901,28.26599-28.83701,28.26599-54.711
			c0-25.423-9.73401-54.779-27.409-82.659c-17.53-27.652-40.92801-50.815-65.883-65.223C329.22,5.18,312.30099,0,297.26599,0
			c-8.80499,0-16.905,1.731-24.07401,5.143c-2.04599,0.975-4.04401,2.108-5.94299,3.37L239.431,24.428
			c-18.754,9.246-29.07899,28.807-29.07899,55.12099c0,24.521,8.892,52.30099,25.194,79.09801L212.81,171.60501
			c-22.96201,12.625-35.60699,37.964-35.60699,71.35001v172.03101l252.87799,145.99896l42.55402-24.53802V364.41101
			C472.63699,318.44699,448.85501,263.36301,409.995,218.282z M273.14001,18.14l0.11899-0.074
			c1.52499-1.03,3.13501-1.952,4.785-2.738c5.64099-2.684,12.108-4.046,19.22299-4.046c13.056,0,28.02499,4.658,43.28699,13.468
			c48.332,27.904,87.65201,89.861,87.65201,138.11099c0,21.52701-7.93399,37.429-22.341,44.77899l-10.24899,5.92101v-0.002
			l-6.70999,3.877c0.38101-0.532,0.74799-1.076,1.10599-1.63c0.034-0.049,0.06699-0.099,0.10001-0.149
			c0.34698-0.541,0.68399-1.09399,1.01099-1.65401c0.03699-0.061,0.07199-0.121,0.10901-0.183
			c0.328-0.56599,0.64401-1.14301,0.952-1.73c0.026-0.049,0.052-0.10001,0.078-0.149c0.315-0.608,0.621-1.22501,0.91699-1.856
			c0.00299-0.008,0.00601-0.01601,0.01099-0.02299c1.79501-3.851,3.18201-8.099,4.12701-12.715
			c0.03101-0.149,0.06299-0.29601,0.09299-0.446c0.11801-0.595,0.22299-1.19701,0.327-1.804
			c0.04599-0.263,0.09-0.526,0.13199-0.79201c0.08499-0.54201,0.16501-1.089,0.241-1.64101
			c0.048-0.35001,0.09201-0.70399,0.133-1.058c0.06-0.49699,0.116-0.996,0.16699-1.5c0.04501-0.436,0.08099-0.877,0.11801-1.319
			c0.03699-0.44701,0.07501-0.892,0.10599-1.34399c0.03699-0.55499,0.061-1.118,0.08701-1.681
			c0.01599-0.358,0.03699-0.711,0.04901-1.073c0.03101-0.939,0.04901-1.886,0.04901-2.84599
			c0-49.448-40.16501-112.866-89.53198-141.367c-2.96899-1.714-5.92899-3.276-8.87201-4.684
			c-0.66599-0.318-1.32901-0.617-1.99301-0.921c-0.31299-0.143-0.62799-0.295-0.94101-0.435
			c-11.71701-5.216-23.07599-7.936-33.36499-7.936c-1.022,0-2.02701,0.034-3.01999,0.085c-0.14499,0.008-0.28699,0.02-0.431,0.029
			c-0.845,0.051-1.681,0.119-2.505,0.208c-0.077,0.008-0.15701,0.01-0.233,0.019L273.14001,18.14z M355.638,231.03799
			c-0.328,0.01801-0.65799,0.036-0.98999,0.049c-0.60199,0.022-1.20599,0.037-1.819,0.03999c-0.08401,0-0.168,0.004-0.254,0.004
			c-10.483,0.00101-22.19901-3.008-34.30899-8.75101c-1.039-0.493-2.08099-1.002-3.12601-1.536
			c-0.04901-0.02499-0.09799-0.049-0.147-0.07401c-0.276-0.142-0.552-0.29401-0.82999-0.439
			c-1.621-0.845-3.24701-1.729-4.87799-2.67c-1.008-0.58099-2.01099-1.185-3.01501-1.798
			c-0.258-0.157-0.51599-0.31599-0.77301-0.476c-0.97699-0.605-1.953-1.22099-2.92401-1.855
			c-0.10901-0.071-0.216-0.145-0.32501-0.216c-0.87201-0.57201-1.741-1.159-2.60699-1.754c-0.32101-0.22-0.642-0.442-0.96301-0.666
			c-0.841-0.588-1.681-1.185-2.51801-1.793c-0.349-0.255-0.698-0.515-1.047-0.77299c-0.642-0.476-1.285-0.95799-1.923-1.446
			c-0.41199-0.314-0.82501-0.63-1.23499-0.94901c-0.681-0.53-1.35901-1.06799-2.03601-1.61099
			c-0.55701-0.448-1.112-0.90199-1.66599-1.358c-0.46201-0.382-0.92499-0.765-1.38699-1.15401
			c-0.479-0.403-0.957-0.806-1.43301-1.215c-0.66101-0.57001-1.32001-1.145-1.97699-1.72701
			c-0.548-0.487-1.09399-0.98-1.64001-1.474c-0.40799-0.371-0.81601-0.743-1.22198-1.12c-0.47198-0.436-0.94299-0.87-1.41101-1.312
			c-0.71899-0.67799-1.435-1.366-2.14801-2.061c-0.42999-0.418-0.85699-0.842-1.28299-1.265
			c-0.50601-0.502-1.009-1.008-1.51099-1.51801c-0.42099-0.427-0.841-0.855-1.259-1.286
			c-0.70901-0.73399-1.414-1.474-2.11499-2.22301c-0.302-0.32001-0.60101-0.64301-0.89899-0.966
			c-0.82999-0.89799-1.65601-1.80099-2.474-2.71899c-0.082-0.092-0.164-0.186-0.245-0.278
			c-0.84698-0.95399-1.68701-1.91901-2.521-2.895c-0.117-0.138-0.23599-0.27499-0.353-0.41299
			c-0.91501-1.076-1.823-2.16499-2.72198-3.26601c-0.01199-0.015-0.02301-0.02901-0.035-0.045
			c-0.939-1.15199-1.86899-2.31799-2.78799-3.49699v-0.205l-0.491-0.425c-0.23599-0.306-0.46899-0.612-0.703-0.918
			c-0.35999-0.47099-0.71799-0.942-1.07501-1.41701c-0.28-0.373-0.55899-0.74699-0.83501-1.123
			c-0.355-0.48-0.70799-0.96201-1.061-1.44501c-0.272-0.37399-0.54201-0.74699-0.812-1.123
			c-0.35899-0.50101-0.713-1.004-1.06599-1.507c-0.252-0.358-0.507-0.715-0.756-1.07401c-0.55901-0.804-1.11099-1.612-1.655-2.42
			c-17.644-26.205-28.73801-55.7-28.73801-81.329c0-22.328,8.31799-38.14,22.989-45.18l0.033,0.062
			c5.69901-2.762,12.24899-4.163,19.46799-4.163c10.608,0,22.47699,3.074,34.73898,8.953c1.83801,0.881,3.68399,1.826,5.534,2.831
			c0.04999,0.027,0.10001,0.052,0.14999,0.08c0.952,0.518,1.90399,1.052,2.85699,1.603
			c48.332,27.904,87.651,89.85999,87.651,138.11099c0,1.118-0.02701,2.215-0.069,3.3c-0.013,0.353-0.034,0.701-0.04999,1.05099
			c-0.03799,0.73599-0.08401,1.464-0.14099,2.18401c-0.03101,0.388-0.06299,0.77499-0.09799,1.158
			c-0.069,0.728-0.14999,1.44501-0.23901,2.155c-0.04001,0.314-0.07199,0.634-0.11401,0.94501
			c-0.13599,0.98-0.289,1.94501-0.46201,2.89301c-0.048,0.254-0.103,0.50101-0.151,0.752c-0.14401,0.739-0.298,1.47099-0.46701,2.19
			c-0.06601,0.27699-0.133,0.55299-0.202,0.828c-0.19101,0.767-0.39499,1.52499-0.61301,2.26801
			c-0.04501,0.14799-0.08499,0.299-0.12799,0.44701c-2.979,9.789-8.35501,17.405-15.96301,22.466
			c-0.00299,0.00301-0.008,0.006-0.013,0.009c-4.879,3.246-10.55099,5.325-16.86099,6.185
			c-0.95001,0.12801-1.922,0.22501-2.90399,0.3C356.267,230.998,355.95499,231.02,355.638,231.03799z M246.646,165.30701
			l0.14301-0.09c0.429-0.299,0.87801-0.59801,1.36501-0.908c1.52901,2.235,3.114,4.45599,4.73801,6.64301
			c-0.838-0.052-1.66299-0.078-2.491-0.106c-0.356-0.013-0.718-0.03799-1.073-0.04601c-1.196-0.02499-2.379-0.026-3.547,0
			l-0.60899,0.02c-0.97099,0.02901-1.92999,0.077-2.881,0.14301l-0.70399,0.048c-1.089,0.08501-2.173,0.19501-3.248,0.327
			c-0.34599,0.04401-0.68401,0.103-1.02901,0.14999c-0.67799,0.095-1.36099,0.183-2.02699,0.295L246.646,165.30701z
			 M428.20599,546.875L188.485,408.474V242.95599c0-29.84601,11.03799-51.91501,31.08099-62.142l0.302-0.157
			c0.13-0.069,0.259-0.13699,0.39301-0.202c0.765-0.375,1.588-0.754,2.44901-1.12399c0.179-0.077,0.36-0.14999,0.541-0.222
			l0.28-0.114c0.618-0.254,1.243-0.49699,1.87601-0.73c0.298-0.11,0.595-0.21899,0.894-0.323
			c0.76601-0.26601,1.53999-0.519,2.33-0.755l0.399-0.125c0.87399-0.255,1.79601-0.498,2.819-0.743l0.769-0.173
			c0.75101-0.16901,1.507-0.326,2.274-0.46899l0.776-0.14301c0.283-0.049,0.577-0.082,0.86301-0.12801
			c0.735-0.117,1.468-0.237,2.215-0.32899c1.035-0.12801,2.082-0.23399,3.136-0.317l0.66701-0.045
			c0.903-0.062,1.814-0.10699,2.737-0.13499l0.291-0.00999l0.291-0.009c2.047-0.045,4.16,0.00301,6.286,0.125
			c0.19099,0.011,0.381,0.013,0.573,0.024l0.55499,0.03999c0.886,0.063,1.782,0.147,2.683,0.24001
			c11.76601,15.06799,25.158,28.019,39.28099,38.07899c0.34799,0.24899,0.69601,0.49899,1.04599,0.743
			c0.49899,0.35001,0.99799,0.69701,1.5,1.039c0.677,0.464,1.35501,0.91901,2.03601,1.369c0.35501,0.235,0.70901,0.47,1.065,0.7
			c0.86499,0.563,1.733,1.112,2.604,1.65199c0.285,0.177,0.57199,0.353,0.858,0.528c1.013,0.619,2.02802,1.228,3.04901,1.81799
			c1.07999,0.62399,2.15799,1.22301,3.23599,1.806c0.32001,0.173,0.63901,0.338,0.95999,0.506
			c0.767,0.408,1.535,0.80901,2.302,1.196c0.34799,0.175,0.69699,0.34399,1.04401,0.51601
			c0.76001,0.37399,1.51801,0.74001,2.27499,1.09399c0.314,0.147,0.62799,0.291,0.94,0.43401
			c0.82999,0.379,1.65799,0.746,2.48599,1.10001c0.228,0.09801,0.45801,0.198,0.68701,0.295
			c1.026,0.43201,2.047,0.845,3.06601,1.23801c0.02499,0.00999,0.04901,0.02,0.07599,0.03
			c9.84698,3.78799,19.35999,5.758,28.10101,5.758c0.185,0,0.36401-0.011,0.54901-0.013c0.103-0.00101,0.207-0.005,0.31-0.007
			c0.823-0.013,1.64099-0.03999,2.44501-0.08501c0.23599-0.013,0.47-0.032,0.70401-0.049c0.70001-0.049,1.38901-0.11,2.073-0.183
			c0.11899-0.013,0.24399-0.01801,0.36301-0.032c0.89801,0.94299,1.79501,1.89,2.68301,2.849
			c0.00601,0.007,0.013,0.01401,0.01999,0.02c2.20499,2.386,4.375,4.81799,6.50699,7.29401c0.005,0.005,0.009,0.009,0.013,0.01401
			c1.039,1.207,2.07101,2.42599,3.091,3.65199c0.03101,0.03799,0.06299,0.07401,0.09299,0.112
			c0.979,1.17799,1.948,2.367,2.909,3.562c0.07101,0.089,0.14301,0.175,0.21399,0.263c0.91199,1.13699,1.81299,2.284,2.70801,3.436
			c0.11401,0.147,0.23099,0.29201,0.345,0.43999c0.85999,1.112,1.70801,2.23199,2.552,3.35599
			c0.14099,0.18799,0.284,0.37299,0.42499,0.56201c0.978,1.30801,1.94299,2.625,2.896,3.95001l0.12701,0.17599l0.00201,0.00201
			c2.08701,2.90302,4.16101,5.909,6.16699,8.935l0.13199,0.20001c1.992,3.01199,3.94299,6.09201,5.81,9.16699l0.19601,0.32401
			c1.84,3.03699,3.633,6.13699,5.34201,9.228l0.22,0.40201c0.82199,1.492,1.63101,2.987,2.41901,4.48801l0.02701,0.05099
			l0.04501,0.08499c0.814,1.54999,1.608,3.103,2.38901,4.664l0.207,0.418c0.716,1.436,1.414,2.875,2.09799,4.31601l0.202,0.42499
			c0.729,1.54599,1.44199,3.09299,2.12601,4.62201l0.16199,0.37201c0.62799,1.40799,1.23599,2.81699,1.827,4.21701l0.298,0.707
			c0.64099,1.52899,1.26501,3.05801,1.867,4.58801l1.74899-0.68701l-1.69101,0.83701c0.565,1.43799,1.10901,2.87799,1.64099,4.315
			l0.323,0.875c1.082,2.97,2.103,5.974,3.03101,8.92099l0.30301,0.97101c0.427,1.384,0.841,2.763,1.233,4.133l0.08899,0.29999
			c0.41599,1.466,0.80899,2.927,1.18799,4.38901l0.25101,0.98999c0.31699,1.24701,0.61801,2.491,0.90399,3.729l0.16699,0.72198
			c0.32401,1.42899,0.62799,2.858,0.91199,4.27499l0.18201,0.944c0.23001,1.186,0.44501,2.367,0.647,3.53601l0.164,0.94901
			c0.23099,1.39999,0.44501,2.797,0.638,4.20001l0.10101,0.79099c0.15601,1.17099,0.297,2.33499,0.422,3.487l0.11401,1.05499
			c0.138,1.379,0.26199,2.75201,0.358,4.11801l0.034,0.51999c0.08099,1.20901,0.14401,2.41101,0.194,3.63599
			c0.01401,0.35001,0.02701,0.702,0.03799,1.05499c0.04999,1.58099,0.07501,2.866,0.07501,4.04401L428.20599,546.875
			L428.20599,546.875z M461.35501,529.92999L431.966,546.87701V383.52899c0-1.22-0.02301-2.54501-0.07501-4.16299
			c-0.013-0.36899-0.026-0.73901-0.04199-1.10901c-0.04999-1.23499-0.11401-2.47101-0.20099-3.728l-0.03201-0.526
			c-0.10101-1.39999-0.22601-2.80801-0.36899-4.229l-0.11401-1.07101c-0.06601-0.595-0.146-1.19199-0.215-1.789
			c-0.07401-0.59698-0.138-1.19299-0.21701-1.789l-0.03201-0.259c-0.02399-0.19101-0.04901-0.38199-0.07501-0.565
			c-0.194-1.42599-0.41299-2.85699-0.65201-4.297l-0.16501-0.961c-0.20801-1.203-0.42899-2.40799-0.664-3.625l-0.185-0.957
			c-0.29099-1.45499-0.60199-2.914-0.93201-4.37799l-0.08401-0.36401l-0.08499-0.367
			c-0.29401-1.267-0.60199-2.53699-0.92401-3.81201l-0.255-1.00699c-0.38501-1.48901-0.78699-2.979-1.20901-4.46799
			l-0.08899-0.30499c-0.40302-1.40302-0.82501-2.811-1.26099-4.22101l-0.306-0.98199c-0.94699-3.005-1.98599-6.061-3.08899-9.091
			l-0.327-0.88c-0.54001-1.46301-1.09399-2.92499-1.69101-4.452l-0.035-0.08899c-0.60999-1.556-1.246-3.112-1.896-4.66101
			l-0.29999-0.71399c-0.60599-1.43201-1.22501-2.862-1.862-4.298l-0.15399-0.35199c-0.70401-1.57199-1.42599-3.142-2.159-4.69699
			l-0.21201-0.44699c-0.69299-1.46201-1.40302-2.922-2.12399-4.37399l-0.215-0.43201
			c-0.78201-1.565-1.58099-3.12601-2.39801-4.68399l-0.07199-0.13501c-0.806-1.53799-1.63599-3.07001-2.47601-4.59601
			l-0.23401-0.42499c-0.76199-1.38-1.54999-2.76401-2.34601-4.146c-1.00201-1.741-2.01999-3.47699-3.05701-5.19l-0.00299-0.005
			c-0.00201-0.00101-0.00201-0.00201-0.00299-0.004l-0.20401-0.336c-1.30399-2.147-2.66199-4.297-4.04001-6.435
			c-0.612-0.95001-1.22-1.905-1.841-2.84399l-0.133-0.20099c-1.026-1.547-2.07101-3.09201-3.12601-4.62201
			c-1.056-1.52899-2.121-3.04099-3.19-4.52701l-0.11401-0.19501l-0.07401-0.06601c-0.92401-1.28101-1.86099-2.55399-2.80499-3.82001
			c-0.37399-0.5-0.754-0.99301-1.13101-1.48999c-0.56799-0.752-1.13699-1.505-1.71301-2.25101
			c-0.483-0.62601-0.97299-1.245-1.461-1.866c-0.474-0.605-0.94901-1.21001-1.42899-1.811c-0.548-0.689-1.103-1.371-1.659-2.054
			c-0.422-0.51601-0.841-1.034-1.26501-1.548c-0.60699-0.735-1.21799-1.466-1.832-2.194
			c-0.37399-0.44299-0.74799-0.88699-1.125-1.327c-0.66101-0.776-1.32599-1.548-1.995-2.31599
			c-0.32599-0.37399-0.65302-0.746-0.979-1.117c-0.71899-0.81599-1.44199-1.629-2.16901-2.436
			c-0.271-0.30099-0.54501-0.60001-0.81699-0.899c-0.78-0.85899-1.564-1.715-2.35501-2.563
			c-0.05301-0.05701-0.10599-0.117-0.159-0.175c0.103-0.021,0.20401-0.049,0.306-0.071
			c4.673-1.01199,8.94901-2.674,12.78101-4.94099l0.05801,0.07899v-0.00101l2.517-1.453l15.73001-9.09
			c41.01801,44.37302,66.44998,100.23099,66.44998,146.09598v165.51904H461.35501z"/>
	</g>
	<path opacity="0.4" fill="#000000" enable-background="new    " d="M472.63699,536.44702c0,0,87.90799-36.36499,65.31601-101.23401
		c100.763-39.767,12.03699-133.42999-72.121-105.83499L472.63699,536.44702z"/>
</g>
</svg>
