<?xml version="1.0" encoding="utf-8"?>
<!-- Generator: Adobe Illustrator 25.3.1, SVG Export Plug-In . SVG Version: 6.00 Build 0)  -->
<svg version="1.1" id="Layer_1" xmlns="http://www.w3.org/2000/svg" xmlns:xlink="http://www.w3.org/1999/xlink" x="0px" y="0px"
	 width="91.6px" height="84.4px" viewBox="0 0 91.6 84.4" enable-background="new 0 0 91.6 84.4" xml:space="preserve">
<g id="Layer_4">
	<g>
		<path d="M43.7,3.5l29.8,18.1v36.9l-29.9,18L14.1,58.3V21.2L43.7,3.5 M43.7,2c-0.3,0-0.5,0.1-0.8,0.2L13.3,19.9
			c-0.5,0.3-0.7,0.8-0.7,1.3v37.1c0,0.5,0.3,1,0.7,1.3l29.5,18.2c0.2,0.1,0.5,0.2,0.8,0.2s0.5-0.1,0.8-0.2l29.9-18
			c0.5-0.3,0.7-0.8,0.7-1.3V21.6c0-0.5-0.3-1-0.7-1.3L44.5,2.2C44.3,2.1,44,2,43.7,2L43.7,2z"/>
	</g>
	<polygon opacity="0.4" fill="#4F6587" enable-background="new    " points="43.6,76.5 14.1,58.3 43.7,40.6 73.5,58.5 	"/>
	<polygon fill="none" stroke="#000000" stroke-linejoin="round" stroke-miterlimit="10" points="43.7,3.5 73.5,21.6 73.5,58.5 
		43.7,40.6 	"/>
	<polygon opacity="0.4" fill="#4F6587" enable-background="new    " points="43.7,3.5 73.5,21.6 73.5,58.5 43.7,40.6 	"/>
	<polygon fill="none" stroke="#000000" stroke-linejoin="round" stroke-miterlimit="10" points="43.6,76.5 14.1,58.3 43.7,40.6 
		73.5,58.5 	"/>
	<polygon opacity="0.4" fill="#4F6587" enable-background="new    " points="43.7,3.5 14.1,21.3 14.1,58.3 43.7,40.6 	"/>
	<polygon opacity="0.4" fill="#000000" enable-background="new    " points="44.9,71.3 22,57.5 44.8,43.8 67.9,57.5 	"/>
	<g>
		<polygon fill="#4F6587" stroke="#010202" stroke-linejoin="round" stroke-miterlimit="10" points="67.8,41.8 43.6,56.5 43.6,65.3 
			67.8,50.8 		"/>
		<polygon fill="#CED8EB" stroke="#000000" stroke-linejoin="round" stroke-miterlimit="10" points="19.5,41.8 43.6,56.5 43.6,65.3 
			19.5,50.8 		"/>
		<polygon fill="#CED8EB" points="43.6,56.4 19.5,41.8 43.4,27.5 67.8,41.8 		"/>
		<polygon fill="none" stroke="#000000" stroke-linejoin="round" stroke-miterlimit="10" points="43.6,56.4 19.5,41.8 43.4,27.5 
			67.8,41.8 		"/>
	</g>
	<g>
		<polygon fill="#4F6587" stroke="#010202" stroke-linejoin="round" stroke-miterlimit="10" points="67.8,29.5 43.6,44.1 43.6,53 
			67.8,38.5 		"/>
		<polygon fill="#CED8EB" stroke="#000000" stroke-linejoin="round" stroke-miterlimit="10" points="19.5,29.5 43.6,44.1 43.6,53 
			19.5,38.5 		"/>
		<polygon fill="#CED8EB" points="43.6,44.1 19.5,29.5 43.4,15.1 67.8,29.5 		"/>
		<polygon fill="none" stroke="#000000" stroke-linejoin="round" stroke-miterlimit="10" points="43.6,44.1 19.5,29.5 43.4,15.1 
			67.8,29.5 		"/>
	</g>
	<polygon opacity="0.3" fill="#CED8EB" enable-background="new    " points="14.1,21.2 43.6,39.6 43.6,76.5 14.1,58.3 	"/>
	<polygon fill="#FFFFFF" points="43.7,6.1 71.4,22.9 73.5,21.6 43.7,3.5 14.1,21.2 16.2,22.5 	"/>
	<polygon opacity="0.5" fill="#EDF0F4" enable-background="new    " points="43.6,39.6 14.1,21.2 43.7,3.5 73.5,21.6 	"/>
	<polygon fill="none" stroke="#000000" stroke-linejoin="round" stroke-miterlimit="10" points="43.6,39.6 14.1,21.2 43.7,3.5 
		73.5,21.6 	"/>
	<polyline opacity="0.4" fill="#000000" enable-background="new    " points="43.6,77.9 59.5,76.8 91.6,57.4 73.5,47.8 73.5,58.5 	"/>
	<polyline opacity="0.4" fill="#000000" enable-background="new    " points="43.6,52.9 49.9,52.3 67.6,41.6 65.1,40.1 43.6,52.9 	"/>
	<polygon fill="none" stroke="#000000" stroke-linejoin="round" stroke-miterlimit="10" points="14.1,21.2 43.6,39.6 43.6,76.5 
		14.1,58.3 	"/>
	<polygon opacity="0.3" fill="#556377" enable-background="new    " points="73.5,21.6 43.6,39.6 43.6,76.5 73.5,58.5 	"/>
	<polygon fill="none" stroke="#010202" stroke-linejoin="round" stroke-miterlimit="10" points="73.5,21.6 43.6,39.6 43.6,76.5 
		73.5,58.5 	"/>
</g>
</svg>
